<svg width="191" height="170" viewBox="0 0 191 170" fill="none" xmlns="http://www.w3.org/2000/svg">
<path fill-rule="evenodd" clip-rule="evenodd" d="M124.025 166.17C124.455 161.243 122.789 156.557 119.022 154.605C118.22 154.189 117.231 154.578 116.93 155.429C115.682 158.966 115.074 163.801 116.12 167.173C117.454 171.472 123.633 170.654 124.025 166.17Z" fill="#FF0600"/>
<path fill-rule="evenodd" clip-rule="evenodd" d="M156.35 122.265C156.892 121.556 160.283 117.522 160.899 116.866C163.361 114.25 166.413 112.144 170.266 111.203C174.296 110.218 190.859 119.937 188.587 108.791C187.322 102.584 175.454 104.439 172.281 98.6936C170.362 95.2114 169.488 81.8707 169.837 77.0627C170.218 71.8757 173.972 65.2027 177.262 63.7921C181.832 61.8347 191.355 66.3873 190.887 60.388C190.334 53.3373 183.807 59.4353 178.852 59.9935C175.156 60.4099 169.384 58.9631 167.038 56.3067C166.757 55.9893 166.501 55.6631 166.266 55.3273C165.99 54.5724 165.726 53.8495 165.451 53.0948C164.682 46.4542 166.202 37.6356 166.311 29.1972C166.313 29.0293 166.315 28.8611 166.317 28.6926C166.334 26.9999 165.918 25.2745 164.896 23.9255C161.121 18.9458 153.785 22.3074 148.427 20.2628C146.465 19.5142 145.016 17.8154 144.36 15.8203L144.353 15.7962C142.486 10.1329 144.117 3.85276 137.344 1.02303C130.73 0.532426 130.939 4.94124 125.273 7.90711C124.535 8.12195 123.842 8.24984 123.16 8.34853C106.038 10.6702 104.207 -3.22553 85.767 6.44194C85.0336 6.68661 84.2993 6.97984 83.5624 7.314C74.0099 11.6336 64.3268 22.4607 55.3585 16.0063C52.2983 13.7995 49.4781 4.62898 43.0418 8.65064C34.0259 14.286 51.4599 20.4659 53.3859 23.3883C58.4494 31.0812 54.9592 35.6992 49.123 38.6952C44.3864 41.1267 41.9984 46.4275 43.19 51.6164C44.1439 55.7694 44.2712 59.4832 42.6994 63.5541C40.65 68.8543 35.2575 71.7666 35.0172 76.1998C34.8951 78.3885 36.675 81.579 37.1247 84.8254C37.5417 87.7926 36.537 91.951 37.1444 93.5796C38.2046 96.4068 42.7438 97.8069 44.6618 101.446C44.9072 101.902 45.0966 102.394 45.2467 102.912C45.4009 103.427 45.5171 103.967 45.5653 104.544C45.34 109.757 39.7913 114.819 40.9175 117.562C44.2972 125.794 53.0181 115.8 59.1164 123.318C59.5756 123.932 60.0008 124.572 60.3832 125.242C61.6421 127.477 62.3999 130.063 62.2505 133.214C62.1378 135.588 64.2999 137.368 66.6409 136.958C71.3042 136.141 74.3082 137.165 80.6286 138.517C87.2499 139.933 92.6505 138.888 95.7528 143.99C99.0208 149.371 94.8318 159.568 102.265 158.11C110.122 156.568 103.157 145.55 110.243 140.96C110.935 140.512 111.6 140.195 112.247 139.98C112.894 139.763 113.523 139.648 114.141 139.606C121.051 140.202 122.171 149.545 126.652 151.616C127.987 152.232 129.634 151.836 130.632 150.757C133.555 147.595 131.913 141.308 138.109 139.956C138.792 139.936 139.499 139.963 140.209 140C156.338 140.848 153.258 127.794 156.35 122.265Z" fill="white"/>
<path fill-rule="evenodd" clip-rule="evenodd" d="M32.5297 110.588C32.7775 109.616 31.9861 108.688 30.9861 108.772C24.3033 109.331 10.948 111.179 13.541 118.778C15.9943 125.963 30.8087 117.337 32.5297 110.588Z" fill="#FF0600"/>
<path fill-rule="evenodd" clip-rule="evenodd" d="M13.3171 95.7275C13.5044 95.4961 13.5336 95.1537 13.3838 94.8964C11.8028 92.1793 5.80441 91.1555 2.46471 92.152C-0.624603 93.0739 -0.892119 97.4525 2.12992 98.5759C5.14529 99.6968 11.3357 98.1735 13.3171 95.7275Z" fill="#FF0600"/>
<path fill-rule="evenodd" clip-rule="evenodd" d="M36.9604 56.3019C37.2555 56.3574 37.3764 56.7205 37.1435 56.9099C34.3569 59.178 27.9095 59.9174 21.6629 58.1111C16.9222 56.7401 14.3511 51.6887 17.5508 49.3537C21.1609 46.7236 30.1448 55.0205 36.9604 56.3019Z" fill="#FF0600"/>
<path fill-rule="evenodd" clip-rule="evenodd" d="M170.347 19.6519C173.117 19.1666 176.202 17.3442 177.557 14.8156C179.225 11.7037 175.257 8.4859 172.515 10.7105C170.258 12.5422 168.969 15.6759 169.414 18.9616C169.474 19.4031 169.909 19.7287 170.347 19.6519Z" fill="#FF0600"/>
<path fill-rule="evenodd" clip-rule="evenodd" d="M60.9461 0.000194001C60.0756 -0.00996091 59.2118 0.378781 58.7428 1.11216C56.9019 3.99234 57.3938 9.14437 59.7846 10.2116C66.1584 13.0597 69.3832 0.0973003 60.9461 0.000194001Z" fill="#FF0600"/>
</svg>
