<svg width="88" height="80" viewBox="0 0 88 80" fill="none" xmlns="http://www.w3.org/2000/svg">
<path fill-rule="evenodd" clip-rule="evenodd" d="M49.607 9.43074C52.745 9.81854 55.5703 11.3987 57.7841 13.716C60.1719 16.2141 61.7726 19.4692 62.4412 22.9115C62.5203 23.3171 62.8996 23.5814 63.2911 23.5003C63.6808 23.4192 63.9359 23.0238 63.8572 22.6183C63.1324 18.8895 61.3955 15.3628 58.8096 12.6566C56.3633 10.097 53.2424 8.36367 49.7768 7.93497C49.3794 7.88608 49.0189 8.18227 48.9719 8.59432C48.9248 9.00746 49.2096 9.3815 49.607 9.43074Z" fill="#FF0600"/>
<path fill-rule="evenodd" clip-rule="evenodd" d="M61.947 12.4438C65.0417 16.1001 66.6093 20.6602 66.9481 25.4796C66.9554 25.5788 66.9255 25.6668 66.8603 25.7396C66.7948 25.8127 66.7125 25.8496 66.617 25.8496H26.7434C26.6478 25.8496 26.5656 25.8123 26.5004 25.7396C26.4352 25.6671 26.4056 25.5788 26.4122 25.48C26.7462 20.6537 28.2771 16.069 31.3802 12.4029C34.7166 8.46085 39.3782 6.17392 44.3588 5.51818C44.8461 5.45373 45.1989 4.99388 45.1497 4.48551C45.1445 4.4312 45.14 4.37689 45.1372 4.32221C45.1344 4.26754 45.1361 4.2096 45.1361 4.15493C45.1361 3.56111 45.2961 2.94556 45.6559 2.47558C45.9068 2.14789 46.2652 1.89588 46.6807 1.89588C47.0959 1.89588 47.4546 2.14789 47.7055 2.47558C48.0649 2.94556 48.2246 3.56147 48.2246 4.15493C48.2246 4.2096 48.2263 4.26754 48.2235 4.32221C48.2208 4.37689 48.2162 4.43156 48.211 4.48588C48.1597 5.00257 48.5254 5.4693 49.0553 5.52506C54.0114 6.19057 58.6313 8.52566 61.947 12.4438ZM67.8771 27.7462C67.8977 27.743 67.9186 27.7408 67.9406 27.7408C68.4411 27.7285 68.8396 27.2969 68.827 26.7762C68.689 21.0321 67.0029 15.5479 63.3159 11.1917C59.9353 7.19753 55.3085 4.70132 50.2833 3.8095C50.1376 3.78343 50.0289 3.66647 50.01 3.5144C49.909 2.71528 49.6154 1.93172 49.1306 1.29916C48.5247 0.508367 47.6658 0 46.6807 0C45.6952 0 44.836 0.508005 44.2305 1.29916C43.7456 1.93172 43.4521 2.71491 43.351 3.51331C43.3318 3.66575 43.2234 3.78271 43.0774 3.80841C38.0445 4.69552 33.4007 7.14684 30.0117 11.1511C26.3435 15.4857 24.6986 20.9499 24.5351 26.6879C24.5313 26.7241 24.5288 26.761 24.5288 26.7976C24.5288 27.3212 24.9377 27.7459 25.4418 27.7459H67.8771V27.7462Z" fill="#FF0600"/>
<path fill-rule="evenodd" clip-rule="evenodd" d="M23.9067 30.1562C23.4078 30.1562 23 30.581 23 31.0984C23 31.6162 23.4082 32.0402 23.9067 32.0402H69.4546C69.9534 32.0402 70.3612 31.6158 70.3612 31.098C70.3612 30.5806 69.9531 30.1562 69.4546 30.1562H23.9067Z" fill="#FF0600"/>
<path fill-rule="evenodd" clip-rule="evenodd" d="M22.8276 59.7039L12.2686 49.3595C12.201 49.294 12.1661 49.2114 12.164 49.1151C12.1626 49.0188 12.1944 48.9359 12.2589 48.8667L15.44 45.5018C15.5641 45.3711 15.7649 45.3639 15.897 45.4852L26.5735 55.2789C26.7102 55.4042 26.7241 55.6218 26.6035 55.7644L23.3052 59.68C23.2435 59.7535 23.1647 59.793 23.0709 59.7973C22.9775 59.8024 22.8956 59.7709 22.8276 59.7039ZM28.7839 56.0425C29.1129 55.6518 29.0749 55.0526 28.6797 54.6937L16.2177 43.2623C15.8566 42.931 15.3055 42.9484 14.968 43.3065L10.075 48.4822C9.72254 48.8544 9.72708 49.4518 10.0802 49.8128C10.0917 49.8244 10.0994 49.832 10.1032 49.8364L22.5167 61.9985C22.8823 62.3562 23.4585 62.337 23.8022 61.9572C23.8186 61.9387 23.835 61.9195 23.8605 61.8866L28.7839 56.0425Z" fill="#FF0600"/>
<path fill-rule="evenodd" clip-rule="evenodd" d="M21.7543 42.0494C22.8844 40.7777 24.2275 39.3739 25.5842 38.317C25.618 38.2938 25.6504 38.2685 25.6814 38.2406C29.0596 35.2085 35.3784 36.2625 39.4495 36.794C42.1347 37.1445 45.0213 37.557 47.7256 37.3426C47.7573 37.3401 47.7845 37.3419 47.8159 37.3484C47.8309 37.3517 47.8462 37.3546 47.8616 37.3578C47.9578 37.3788 48.0327 37.4349 48.0819 37.5229C48.1317 37.6116 48.1408 37.7072 48.1098 37.8039C48.0697 37.9299 48.008 38.0534 47.9428 38.1674C47.5416 38.8695 46.8169 39.4445 46.0921 39.8019C45.7756 39.9293 45.5525 40.227 45.5142 40.5782C45.457 41.0971 45.8168 41.5663 46.3159 41.6257C48.2147 41.8513 50.1113 42.0168 52.016 42.171C52.9328 42.2449 53.8513 42.3155 54.767 42.4035C59.6319 42.8695 59.8494 42.7225 63.7427 39.7414C64.0199 39.53 64.2967 39.3181 64.5738 39.107C65.6282 38.305 66.6925 37.5131 67.7703 36.7452C68.501 36.2248 69.2469 35.7013 70.0082 35.2302C70.0235 35.2208 70.0385 35.2106 70.0535 35.2005C70.8396 34.6559 71.9422 34.187 72.9053 34.2707C72.983 34.2779 73.0615 34.2873 73.1382 34.3047C73.2372 34.3268 73.3135 34.3869 73.3616 34.4796C73.409 34.5727 73.4143 34.6726 73.3766 34.77C73.3275 34.8982 73.2549 35.0245 73.1849 35.1408C73.1688 35.1672 73.1521 35.1882 73.1298 35.2092C72.7732 35.5546 72.4162 35.9001 72.0593 36.2459C69.1388 39.0741 66.0933 42.133 62.9557 44.6824C60.5061 46.6728 57.5278 46.557 54.5638 46.65C54.1668 46.6623 53.7701 46.6746 53.3731 46.6884C49.7872 46.8111 46.2016 46.9672 42.6195 47.1772C40.2976 47.313 37.9788 47.4727 35.6597 47.6552C35.049 47.703 34.4421 47.7323 33.8303 47.754C31.7541 47.8268 30.9907 47.8329 29.4601 49.4185C29.3346 49.5489 29.1324 49.5532 29.0014 49.4283L21.7741 42.5385C21.7069 42.4741 21.6706 42.3937 21.6668 42.2988C21.6622 42.2029 21.6915 42.1196 21.7543 42.0494ZM28.6737 51.683C29.0432 52.0353 29.6197 52.0118 29.9603 51.6276C29.9763 51.6091 29.9917 51.5903 30.0182 51.5559C31.409 49.9352 31.8803 49.7104 33.8847 49.6394C34.5219 49.6173 35.1577 49.5927 35.7935 49.5424C38.1005 49.3609 40.4074 49.1987 42.7171 49.0633C46.2853 48.854 49.8558 48.6965 53.4281 48.5738C53.8227 48.5604 54.2173 48.5481 54.6116 48.5354C58.1779 48.4235 61.1468 48.5463 64.0732 46.1692C67.2572 43.5821 70.3362 40.4985 73.2989 37.6294C73.6914 37.2492 74.0835 36.8694 74.4768 36.4895C74.5405 36.4283 74.5953 36.3574 74.6472 36.2669C75.0289 35.6614 75.3349 34.9181 75.2314 34.1794C75.1509 33.6066 74.8699 33.1598 74.4108 32.8375C74.0128 32.5576 73.5286 32.4233 73.0535 32.382C71.7212 32.2658 70.1968 32.847 69.0838 33.6023C68.2876 34.0914 67.5078 34.6386 66.7458 35.1824C65.6502 35.9631 64.5689 36.7673 63.4977 37.5823C63.2206 37.7927 62.9449 38.0041 62.6688 38.2156C59.367 40.7437 59.055 40.9196 54.9295 40.5242C54.0033 40.4355 53.0774 40.357 52.1492 40.282C51.2679 40.211 50.3857 40.1394 49.5048 40.0582C49.3817 40.047 49.2817 39.9732 49.2312 39.8558C49.181 39.7389 49.1942 39.6125 49.2674 39.509C49.3546 39.3862 49.4365 39.2595 49.5121 39.128C49.7599 38.6943 49.9416 38.1982 49.9667 37.6913C49.9956 37.1101 49.8279 36.5931 49.4351 36.1731C49.0325 35.7436 48.4834 35.534 47.9222 35.4503C47.8556 35.4406 47.7873 35.437 47.72 35.4427C45.122 35.6705 42.2532 35.2501 39.6688 34.9126C34.9046 34.2909 28.4802 33.2536 24.4931 36.8118C22.7516 38.17 20.9944 40.0611 19.5693 41.7503C19.2459 42.1341 19.2748 42.7221 19.6366 43.0675L28.6737 51.683Z" fill="#FF0600"/>
<path fill-rule="evenodd" clip-rule="evenodd" d="M88 65.8609V66.3323H85.8931V72.7724H84.5824V66.3323H83.8665C83.5106 66.3323 83.2282 66.4246 83.0197 66.6097C82.8113 66.7947 82.7074 67.1209 82.7074 67.5887H82.4049V66.6987C82.4049 66.5941 82.4167 66.4909 82.4404 66.3899C82.4641 66.2889 82.5073 66.1998 82.5715 66.123C82.6353 66.0463 82.7228 65.9833 82.8336 65.9344C82.9445 65.8855 83.0874 65.8612 83.262 65.8612H88V65.8609ZM78.0461 70.6781V65.8609H78.5502V72.8035H78.0866L73.8119 67.5887V72.772H73.3081V67.1173C73.3081 66.9848 73.2946 66.861 73.2677 66.7458C73.2409 66.6307 73.1921 66.5311 73.1217 66.4471C73.0513 66.3635 72.9568 66.2972 72.839 66.2483C72.7215 66.1994 72.5751 66.1752 72.4004 66.1752H72.3499V65.8609H73.0554C73.4385 65.8609 73.7491 65.9134 73.9879 66.018C74.2267 66.1227 74.4233 66.2798 74.5777 66.4891L78.0461 70.6781ZM64.4785 70.3953H66.7701L65.6546 67.6623L64.4785 70.3953ZM68.6165 71.4526C68.7379 71.76 68.8853 72.004 69.0599 72.1858C69.2349 72.3672 69.4364 72.4718 69.6648 72.5001V72.7619C69.6111 72.7756 69.5354 72.7879 69.4382 72.7984C69.3406 72.8089 69.2552 72.8144 69.1813 72.8144C69.0199 72.8144 68.847 72.7984 68.6622 72.7673C68.4775 72.7358 68.2958 72.6732 68.1177 72.5786C67.9396 72.4845 67.7719 72.3484 67.614 72.1702C67.4561 71.9921 67.3163 71.7531 67.1957 71.4526L66.9622 70.8663H64.2673L63.4355 72.772H62.9315L65.9053 65.8609H66.3591L68.6165 71.4526ZM56.3746 69.6099H55.9713V72.7724H54.6508V67.2223C54.6508 66.908 54.609 66.6549 54.525 66.463C54.441 66.2711 54.2475 66.1752 53.9453 66.1752H53.8446V65.8609H56.627C56.788 65.8609 56.9661 65.8678 57.161 65.8819C57.3562 65.896 57.5542 65.9275 57.7557 65.976C57.9572 66.0249 58.1541 66.093 58.3455 66.1802C58.5369 66.2675 58.7066 66.3826 58.8544 66.526C59.0022 66.6691 59.1218 66.8436 59.2121 67.0496C59.303 67.2556 59.3484 67.5019 59.3484 67.7879C59.3484 68.0602 59.2996 68.2955 59.2023 68.4947C59.1051 68.6935 58.9768 68.8611 58.8189 68.9973C58.6613 69.1334 58.4849 69.2435 58.2897 69.3271C58.0945 69.4108 57.9035 69.477 57.7153 69.5259L58.7735 71.3584C58.9011 71.5818 59.0238 71.765 59.1417 71.9081C59.2595 72.0511 59.3717 72.1644 59.4794 72.2484C59.5872 72.3321 59.6865 72.3929 59.7771 72.4316C59.8678 72.47 59.95 72.4961 60.0239 72.5102V72.772C59.9706 72.7999 59.8744 72.8245 59.7367 72.8451C59.5993 72.8661 59.4665 72.8766 59.3386 72.8766C59.1636 72.8766 58.9942 72.8524 58.8293 72.8031C58.6644 72.7543 58.5031 72.6706 58.3455 72.5519C58.1876 72.4331 58.0297 72.2759 57.8718 72.0808C57.7139 71.8853 57.5507 71.6445 57.3831 71.3581L56.3746 69.6099ZM56.627 66.2798C56.5461 66.2798 56.4656 66.2834 56.385 66.2903C56.3042 66.2976 56.2334 66.3077 56.1731 66.3218C56.0992 66.3359 56.0319 66.3464 55.9713 66.3533V69.191H56.5764C56.7375 69.191 56.8989 69.1664 57.0603 69.1175C57.2217 69.0686 57.3677 68.9882 57.4988 68.8767C57.6298 68.7648 57.7358 68.6149 57.8163 68.4263C57.8969 68.2376 57.9373 68.0073 57.9373 67.735C57.9373 67.4627 57.8972 67.2343 57.8163 67.0489C57.7358 66.8639 57.6316 66.714 57.504 66.5984C57.3764 66.4833 57.2349 66.4015 57.0805 66.3526C56.9257 66.3044 56.7744 66.2798 56.627 66.2798ZM45.9975 70.0705C46.0042 70.7965 46.1401 71.3675 46.4057 71.7828C46.6714 72.1981 47.0695 72.4059 47.6003 72.4059C48.286 72.4059 48.7848 72.193 49.0975 71.7669C49.4098 71.341 49.5664 70.6708 49.5664 69.7566V65.8609H50.0701V69.7566C50.0701 70.2519 50.023 70.6918 49.9292 71.076C49.8355 71.4598 49.6824 71.7864 49.4705 72.0551C49.2593 72.3237 48.9835 72.528 48.644 72.6677C48.3045 72.8071 47.8897 72.877 47.3992 72.877C45.5845 72.877 44.6771 71.8367 44.6771 69.7566V67.2223C44.6771 66.908 44.6353 66.6549 44.5513 66.463C44.4673 66.2711 44.2742 66.1752 43.9716 66.1752V65.8609H45.0804C45.2554 65.8609 45.4015 65.8837 45.5193 65.929C45.6368 65.9746 45.7309 66.0495 45.8017 66.1542C45.8721 66.2592 45.9209 66.3986 45.9481 66.5731C45.9746 66.7476 45.9881 66.9642 45.9881 67.2223L45.9975 70.0705ZM36.2807 70.3953H38.5723L37.4569 67.6623L36.2807 70.3953ZM40.4188 71.4526C40.5401 71.76 40.6876 72.004 40.8626 72.1858C41.0372 72.3672 41.2387 72.4718 41.467 72.5001V72.7619C41.4133 72.7756 41.3377 72.7879 41.2404 72.7984C41.1432 72.8089 41.0574 72.8144 40.9835 72.8144C40.8221 72.8144 40.6489 72.7984 40.4645 72.7673C40.2797 72.7358 40.0981 72.6732 39.92 72.5786C39.7418 72.4845 39.5742 72.3484 39.4163 72.1702C39.2583 71.9921 39.1186 71.7531 38.998 71.4526L38.7644 70.8663H36.0695L35.2378 72.772H34.7337L37.7075 65.8609H38.1614L40.4188 71.4526ZM32.3606 65.8609V66.3323H30.2537V72.7724H28.943V66.3323H28.227C27.8711 66.3323 27.5888 66.4246 27.3803 66.6097C27.1719 66.7947 27.068 67.1209 27.068 67.5887H26.7654V66.6987C26.7654 66.5941 26.7773 66.4909 26.801 66.3899C26.8243 66.2889 26.8679 66.1998 26.932 66.123C26.9958 66.0463 27.0833 65.9833 27.1942 65.9344C27.305 65.8855 27.448 65.8612 27.6226 65.8612H32.3606V65.8609ZM20.7537 72.9505C20.478 72.9505 20.2043 72.9226 19.9321 72.8665C19.6602 72.8107 19.4162 72.7286 19.2011 72.6203C18.986 72.512 18.8114 72.3795 18.6768 72.2224C18.5423 72.0652 18.4754 71.8889 18.4754 71.6933V70.4681H18.7779C18.8853 71.194 19.1004 71.7107 19.4246 72.0178C19.747 72.3252 20.1904 72.4783 20.752 72.4783C21.1316 72.4783 21.4376 72.3929 21.6677 72.222C21.8978 72.0511 22.0138 71.798 22.0138 71.4627C22.0138 71.1625 21.9211 70.9131 21.7364 70.7139C21.5516 70.5148 21.2979 70.3145 20.9751 70.1118L19.7351 69.3369C19.2782 69.0577 18.9557 68.7717 18.7675 68.478C18.5792 68.1847 18.4848 67.8462 18.4848 67.4624C18.4848 66.9109 18.6883 66.4746 19.0948 66.1534C19.5016 65.8323 20.051 65.6719 20.7432 65.6719C21.019 65.6719 21.2926 65.6998 21.5649 65.7559C21.8371 65.8116 22.0804 65.8935 22.2959 66.0017C22.5106 66.11 22.6856 66.2425 22.8201 66.3997C22.9543 66.5568 23.0216 66.7331 23.0216 66.9287V68.1536H22.7194C22.605 67.4276 22.3917 66.9109 22.079 66.6039C21.765 66.2968 21.3533 66.1429 20.8457 66.1429C20.4863 66.1429 20.2005 66.2338 19.9907 66.4152C19.7805 66.5966 19.6748 66.8443 19.6748 67.1586C19.6748 67.3052 19.6999 67.4359 19.7505 67.5515C19.801 67.6666 19.8714 67.7731 19.9621 67.8708C20.0531 67.9686 20.1622 68.0627 20.2897 68.1536C20.4177 68.2445 20.562 68.3386 20.7234 68.4364L21.9637 69.2008C22.4207 69.4799 22.7549 69.754 22.9665 70.0227C23.1781 70.2917 23.2841 70.618 23.2841 71.0018C23.2841 71.6021 23.0655 72.0768 22.6287 72.4258C22.192 72.7756 21.567 72.9505 20.7537 72.9505ZM13.6028 65.8609C13.7775 65.8609 13.92 65.8851 14.0312 65.934C14.1421 65.9829 14.2296 66.0459 14.2934 66.1227C14.3575 66.1994 14.4011 66.2885 14.4245 66.3895C14.4482 66.4905 14.46 66.5937 14.46 66.6984V67.5884H14.1578C14.1578 67.1416 14.0487 66.8204 13.8301 66.6249C13.6119 66.4294 13.3006 66.3316 12.8977 66.3316H11.2746V68.9495H13.8956V69.4209H11.2746V72.3006H12.9984C13.3682 72.3006 13.6823 72.2148 13.941 72.0439C14.1996 71.8729 14.4164 71.5605 14.5911 71.1068L14.8633 71.2118L14.5709 72.0388C14.497 72.2622 14.4011 72.4403 14.2836 72.5729C14.1658 72.7057 13.9695 72.772 13.6942 72.772H9.96395V67.2223C9.96395 66.908 9.92212 66.6549 9.83811 66.463C9.7541 66.2711 9.56065 66.1752 9.25842 66.1752H9.15768V65.8609H13.6028ZM2.53003 69.6099H2.1267V72.7724H0.806274V67.2223C0.806274 66.908 0.764087 66.6549 0.680426 66.463C0.596417 66.2711 0.402965 66.1752 0.100742 66.1752H0V65.8609H2.78204C2.94344 65.8609 3.12157 65.8678 3.31643 65.8819C3.51129 65.896 3.70963 65.9275 3.91112 65.976C4.1126 66.0249 4.30954 66.093 4.50057 66.1802C4.69229 66.2675 4.86205 66.3826 5.00985 66.526C5.15765 66.6691 5.27721 66.8436 5.3675 67.0496C5.45848 67.2556 5.50381 67.5019 5.50381 67.7879C5.50381 68.0602 5.455 68.2955 5.35739 68.4947C5.26014 68.6935 5.13255 68.8611 4.9743 68.9973C4.81639 69.1334 4.64 69.2435 4.44514 69.3271C4.25028 69.4108 4.05893 69.477 3.87069 69.5259L4.92898 71.3584C5.05656 71.5818 5.17927 71.765 5.2971 71.9081C5.41457 72.0511 5.52716 72.1644 5.63487 72.2484C5.74259 72.3321 5.84159 72.3929 5.93223 72.4316C6.02321 72.47 6.10547 72.4961 6.17937 72.5102V72.772C6.12568 72.7999 6.02981 72.8245 5.89212 72.8451C5.75408 72.8661 5.62196 72.8766 5.49369 72.8766C5.31904 72.8766 5.1493 72.8524 4.98476 72.8031C4.81988 72.7543 4.65882 72.6706 4.50057 72.5519C4.34266 72.4331 4.18477 72.2759 4.02686 72.0808C3.86895 71.8853 3.70615 71.6445 3.53813 71.3581L2.53003 69.6099ZM2.78204 66.2798C2.70152 66.2798 2.62066 66.2834 2.54014 66.2903C2.45961 66.2976 2.38884 66.3077 2.32889 66.3218C2.25464 66.3359 2.18772 66.3464 2.12706 66.3533V69.191H2.73185C2.89325 69.191 3.05464 69.1664 3.21603 69.1175C3.37708 69.0686 3.52348 68.9882 3.65455 68.8767C3.78562 68.7648 3.89159 68.6149 3.97211 68.4263C4.05229 68.2376 4.09309 68.0073 4.09309 67.735C4.09309 67.4627 4.05264 67.2343 3.97211 67.0489C3.89124 66.8639 3.78737 66.714 3.65978 66.5984C3.5322 66.4833 3.39069 66.4015 3.23626 66.3526C3.08114 66.3044 2.92984 66.2798 2.78204 66.2798Z" fill="#FF0600"/>
<path fill-rule="evenodd" clip-rule="evenodd" d="M72.434 79.942V76.4844H74.8378V76.89H72.8756V77.9527H74.7127V78.3582H72.8756V79.5365H74.9169V79.9424H72.434V79.942ZM68.4726 78.0103H69.4184C69.6198 78.0103 69.7763 77.9882 69.8896 77.9451C70.0026 77.902 70.0887 77.8328 70.1465 77.7373C70.2055 77.6424 70.2351 77.5392 70.2351 77.4273C70.2351 77.2637 70.1786 77.129 70.0646 77.0232C69.951 76.9182 69.7711 76.8657 69.5254 76.8657H68.4726V78.0103ZM68.031 79.942V76.4844H69.5062C69.8032 76.4844 70.0284 76.5159 70.1828 76.5779C70.3369 76.6398 70.4599 76.7491 70.5523 76.9063C70.6447 77.0634 70.6903 77.2372 70.6903 77.4273C70.6903 77.6728 70.6136 77.8796 70.461 78.0476C70.3086 78.2159 70.0734 78.322 69.754 78.368C69.8712 78.4259 69.9594 78.4839 70.0197 78.5404C70.1483 78.6628 70.2703 78.8166 70.3839 79.0009L70.9595 79.9427H70.4094L69.9691 79.2233C69.8415 79.0147 69.7352 78.8561 69.6523 78.7457C69.569 78.6356 69.494 78.5592 69.4284 78.515C69.3629 78.4712 69.2957 78.4408 69.2277 78.4234C69.1778 78.4125 69.0966 78.4075 68.983 78.4075H68.4726V79.9431H68.031V79.942ZM63.8846 79.942V76.4844H66.2884V76.89H64.3262V77.9527H66.1633V78.3582H64.3262V79.5365H66.3675V79.9424H63.8846V79.942ZM59.491 79.942V76.4844H59.9326V77.9089H61.6529V76.4844H62.0946V79.942H61.6529V78.3148H59.9326V79.942H59.491ZM53.8899 78.8311L54.304 78.7924C54.3236 78.9662 54.3689 79.1085 54.4414 79.2207C54.5132 79.3319 54.6247 79.422 54.7757 79.4912C54.927 79.5596 55.0974 79.594 55.2867 79.594C55.4547 79.594 55.6025 79.5683 55.7315 79.5162C55.8598 79.464 55.9553 79.3924 56.018 79.3015C56.0808 79.2106 56.1125 79.1114 56.1125 79.0053C56.1125 78.8974 56.0822 78.8029 56.0215 78.7218C55.9609 78.6417 55.8608 78.574 55.7217 78.5183C55.6325 78.4828 55.4352 78.4263 55.1288 78.3499C54.8231 78.2735 54.6091 78.2018 54.4867 78.1345C54.3277 78.0472 54.2099 77.9393 54.1322 77.8115C54.0541 77.6837 54.0151 77.5396 54.0151 77.381C54.0151 77.2057 54.0635 77.0421 54.1587 76.8907C54.2539 76.7386 54.3926 76.6235 54.5759 76.5449C54.7589 76.4656 54.9629 76.4265 55.1867 76.4265C55.4331 76.4265 55.6506 76.4674 55.8392 76.5507C56.0278 76.6325 56.1725 76.7542 56.2739 76.9153C56.3753 77.075 56.4297 77.2571 56.4377 77.4599L56.0145 77.4939C55.9922 77.276 55.9152 77.1105 55.7845 76.9997C55.6531 76.8878 55.4596 76.832 55.2041 76.832C54.9374 76.832 54.7433 76.8831 54.6213 76.9841C54.4996 77.0855 54.4386 77.2079 54.4386 77.3513C54.4386 77.4751 54.4818 77.5776 54.5676 77.658C54.653 77.738 54.874 77.8209 55.232 77.9045C55.5896 77.9889 55.8357 78.0624 55.9689 78.1251C56.1617 78.2174 56.3049 78.3343 56.3973 78.4766C56.4897 78.6186 56.5353 78.7815 56.5353 78.9669C56.5353 79.1512 56.4851 79.3236 56.3837 79.4865C56.2823 79.6491 56.1373 79.7754 55.9473 79.8656C55.7576 79.9558 55.5447 80.0003 55.3066 80.0003C55.0061 80.0003 54.7541 79.9547 54.5512 79.8638C54.3473 79.7729 54.1883 79.636 54.0729 79.4525C53.9562 79.2689 53.8962 79.0621 53.8899 78.8311ZM49.8965 79.942V76.4844H52.3004V76.89H50.3385V77.9527H52.1749V78.3582H50.3385V79.5365H52.3799V79.9424H49.8965V79.942ZM45.5465 78.267C45.5465 78.683 45.6542 79.0107 45.8697 79.2497C46.0847 79.4887 46.3556 79.6085 46.6808 79.6085C47.0127 79.6085 47.2842 79.4879 47.4993 79.2464C47.713 79.0049 47.82 78.662 47.82 78.2177C47.82 77.9368 47.7743 77.6913 47.683 77.482C47.5917 77.2727 47.4571 77.1101 47.2818 76.995C47.1051 76.8802 46.9074 76.8219 46.6885 76.8219C46.3765 76.8219 46.1088 76.9327 45.8836 77.155C45.6591 77.3773 45.5465 77.7478 45.5465 78.267ZM45.0909 78.2587C45.0909 77.6858 45.2398 77.2369 45.5364 76.9124C45.8334 76.588 46.2158 76.4261 46.6857 76.4261C46.9932 76.4261 47.2699 76.5022 47.5167 76.6546C47.7635 76.8071 47.9521 77.0192 48.0811 77.2919C48.2108 77.5638 48.2756 77.873 48.2756 78.2188C48.2756 78.5686 48.2076 78.8825 48.071 79.1588C47.9347 79.4358 47.7423 79.6447 47.4923 79.7863C47.2421 79.9286 46.9726 79.9996 46.6836 79.9996C46.3699 79.9996 46.09 79.921 45.8428 79.7639C45.5964 79.6067 45.4092 79.3927 45.282 79.1208C45.154 78.8496 45.0909 78.5621 45.0909 78.2587ZM42.1213 78.5849V78.179H43.53V79.4604C43.3142 79.6393 43.0907 79.7747 42.8603 79.8649C42.6306 79.955 42.3939 79.9996 42.1524 79.9996C41.8254 79.9996 41.5287 79.9271 41.2614 79.7812C40.9947 79.6364 40.7925 79.4257 40.6573 79.1512C40.5203 78.876 40.4527 78.5686 40.4527 78.2293C40.4527 77.893 40.5196 77.5794 40.6555 77.2868C40.7911 76.9953 40.9853 76.7792 41.2398 76.6383C41.4939 76.4964 41.7867 76.4258 42.1185 76.4258C42.3584 76.4258 42.5759 76.4656 42.7704 76.5471C42.9653 76.6286 43.1176 76.7408 43.2277 76.8853C43.3382 77.0301 43.4223 77.2195 43.4794 77.4519L43.082 77.5645C43.0319 77.3893 42.9694 77.251 42.8962 77.1492C42.822 77.0486 42.716 76.9682 42.5783 76.9077C42.4413 76.8473 42.2887 76.8168 42.121 76.8168C41.9199 76.8168 41.7463 76.8491 41.5992 76.9128C41.4524 76.9762 41.3346 77.0598 41.2443 77.1644C41.1547 77.2684 41.085 77.3828 41.0352 77.5066C40.9508 77.7217 40.9083 77.9531 40.9083 78.2036C40.9083 78.5128 40.9595 78.7714 41.0609 78.9799C41.1631 79.1874 41.3119 79.342 41.5064 79.4423C41.702 79.543 41.9083 79.5937 42.1276 79.5937C42.3186 79.5937 42.5041 79.5553 42.6857 79.4785C42.8673 79.4014 43.004 79.3199 43.0981 79.2323V78.5845H42.1213V78.5849ZM34.8648 79.942V76.4844H35.317L37.0641 79.1983V76.4844H37.4869V79.942H37.0348L35.2877 77.2278V79.942H34.8648ZM31.3152 78.5223H32.4502L32.103 77.5635C31.9981 77.2723 31.9193 77.0319 31.8642 76.8415C31.8182 77.067 31.7565 77.2879 31.6805 77.507L31.3152 78.5223ZM30.3576 79.942L31.6348 76.4844H32.119L33.4747 79.942H32.9734L32.5882 78.8941H31.1866L30.8251 79.942H30.3576ZM27.6185 78.5849V78.179H29.0271V79.4604C28.8113 79.6393 28.5875 79.7747 28.3575 79.8649C28.1277 79.955 27.891 79.9996 27.6495 79.9996C27.3225 79.9996 27.0259 79.9271 26.7585 79.7812C26.4918 79.6364 26.2896 79.4257 26.1544 79.1512C26.0174 78.876 25.9498 78.5686 25.9498 78.2293C25.9498 77.893 26.0167 77.5794 26.1526 77.2868C26.2882 76.9953 26.4824 76.7792 26.7372 76.6383C26.9913 76.4964 27.2838 76.4258 27.616 76.4258C27.8555 76.4258 28.0737 76.4656 28.2682 76.5471C28.4627 76.6286 28.6151 76.7408 28.7252 76.8853C28.8357 77.0301 28.9197 77.2195 28.9772 77.4519L28.5795 77.5645C28.5286 77.3893 28.4669 77.251 28.3937 77.1492C28.3195 77.0486 28.2135 76.9682 28.0758 76.9077C27.9388 76.8473 27.7861 76.8168 27.6185 76.8168C27.4173 76.8168 27.2437 76.8491 27.0966 76.9128C26.9499 76.9762 26.832 77.0598 26.7414 77.1644C26.6518 77.2684 26.5821 77.3828 26.5323 77.5066C26.4479 77.7217 26.4054 77.9531 26.4054 78.2036C26.4054 78.5128 26.4563 78.7714 26.5581 78.9799C26.6598 79.1874 26.809 79.342 27.0036 79.4423C27.1988 79.543 27.4055 79.5937 27.6244 79.5937C27.8154 79.5937 28.0008 79.5553 28.1825 79.4785C28.3641 79.4014 28.5011 79.3199 28.5948 79.2323V78.5845H27.6185V78.5849ZM21.7204 78.267C21.7204 78.683 21.8281 79.0107 22.0435 79.2497C22.2586 79.4887 22.5291 79.6085 22.8547 79.6085C23.1862 79.6085 23.4581 79.4879 23.6728 79.2464C23.8868 79.0049 23.9939 78.662 23.9939 78.2177C23.9939 77.9368 23.9482 77.6913 23.8565 77.482C23.7648 77.2727 23.631 77.1101 23.4549 76.995C23.2782 76.8802 23.0809 76.8219 22.862 76.8219C22.5504 76.8219 22.2823 76.9327 22.0571 77.155C21.8323 77.3773 21.7204 77.7478 21.7204 78.267ZM21.2644 78.2587C21.2644 77.6858 21.4129 77.2369 21.7096 76.9124C22.0066 76.588 22.3893 76.4261 22.8589 76.4261C23.1667 76.4261 23.4435 76.5022 23.6903 76.6546C23.9367 76.8071 24.1253 77.0192 24.2546 77.2919C24.3839 77.5638 24.4491 77.873 24.4491 78.2188C24.4491 78.5686 24.3811 78.8825 24.2445 79.1588C24.1082 79.4358 23.9154 79.6447 23.6658 79.7863C23.4156 79.9286 23.1461 79.9996 22.8571 79.9996C22.5434 79.9996 22.2635 79.921 22.0163 79.7639C21.7699 79.6067 21.5827 79.3927 21.4555 79.1208C21.3279 78.8496 21.2644 78.5621 21.2644 78.2587ZM17.749 79.942V76.4844H18.191V79.5361H19.8272V79.942H17.749ZM13.4771 78.8311L13.8912 78.7924C13.9103 78.9662 13.956 79.1085 14.0282 79.2207C14.1 79.3319 14.2119 79.422 14.3628 79.4912C14.5141 79.5596 14.6846 79.594 14.8738 79.594C15.0415 79.594 15.1896 79.5683 15.3183 79.5162C15.4469 79.464 15.5424 79.3924 15.6052 79.3015C15.6679 79.2106 15.6996 79.1114 15.6996 79.0053C15.6996 78.8974 15.6693 78.8029 15.6086 78.7218C15.548 78.6417 15.448 78.574 15.3089 78.5183C15.2196 78.4828 15.0223 78.4263 14.7159 78.3499C14.4102 78.2735 14.1962 78.2018 14.0735 78.1345C13.9149 78.0472 13.7971 77.9393 13.7193 77.8115C13.6409 77.6837 13.6022 77.5396 13.6022 77.381C13.6022 77.2057 13.6507 77.0421 13.7455 76.8907C13.841 76.7386 13.9794 76.6235 14.1631 76.5449C14.3461 76.4656 14.5496 76.4265 14.7738 76.4265C15.0202 76.4265 15.2377 76.4674 15.4263 76.5507C15.6146 76.6325 15.7596 76.7542 15.861 76.9153C15.9625 77.075 16.0168 77.2571 16.0248 77.4599L15.6013 77.4939C15.5794 77.276 15.5023 77.1105 15.3716 76.9997C15.2402 76.8878 15.0467 76.832 14.7912 76.832C14.5246 76.832 14.3304 76.8831 14.2084 76.9841C14.0864 77.0855 14.0254 77.2079 14.0254 77.3513C14.0254 77.4751 14.0686 77.5776 14.1547 77.658C14.2401 77.738 14.4611 77.8209 14.8191 77.9045C15.1767 77.9889 15.4222 78.0624 15.5557 78.1251C15.7488 78.2174 15.8921 78.3343 15.9841 78.4766C16.0765 78.6186 16.1221 78.7815 16.1221 78.9669C16.1221 79.1512 16.0716 79.3236 15.9698 79.4865C15.8687 79.6491 15.7237 79.7754 15.5337 79.8656C15.3441 79.9558 15.1311 80.0003 14.893 80.0003C14.5925 80.0003 14.3405 79.9547 14.1373 79.8638C13.9337 79.7729 13.7747 79.636 13.6594 79.4525C13.5436 79.2689 13.4833 79.0621 13.4771 78.8311Z" fill="#FF0600"/>
<path fill-rule="evenodd" clip-rule="evenodd" d="M36.3936 55.871C36.4322 55.8573 36.4521 55.8504 36.4716 55.8435C36.4915 55.8703 36.4978 55.8906 36.4978 55.9246C36.4783 55.9315 36.4591 55.9384 36.4197 55.9522C36.4197 55.9181 36.4131 55.8978 36.3936 55.871ZM37.7471 54.5614C37.7858 54.548 37.8057 54.5411 37.8252 54.5342C37.8315 54.5545 37.8381 54.5748 37.8384 54.6085C37.9622 54.6888 38.0797 54.783 38.1839 54.8702C38.1647 54.9448 38.1393 55.0325 38.1006 55.1139C37.9319 55.1958 37.7628 55.2776 37.5749 55.3659C37.3403 55.2454 37.1315 55.1382 37.0461 54.8753C37.3445 54.7931 37.5083 55.0625 37.8785 54.9325C37.8458 54.8311 37.8126 54.7301 37.7799 54.6287C37.7736 54.6088 37.767 54.5885 37.7471 54.5614ZM38.9598 52.1517C39.025 52.185 39.0902 52.2187 39.1554 52.252C39.1097 52.2792 39.0581 52.3201 38.9933 52.3541C38.9933 52.2864 38.9797 52.2122 38.9598 52.1517ZM37.2748 56.7114C37.3396 56.7451 37.4051 56.7784 37.4571 56.8052C37.4118 56.8324 37.3661 56.8595 37.3145 56.9005C37.3142 56.8327 37.2947 56.7723 37.2748 56.7114ZM37.6526 56.9059C37.997 56.8979 38.3355 56.9367 38.5126 57.2803C38.597 57.273 38.6813 57.2662 38.7597 57.2727C38.8054 57.3469 38.8385 57.4143 38.8647 57.4954C38.8263 57.5765 38.7873 57.6576 38.7486 57.739C38.3188 57.5515 38.3188 57.5515 37.6927 57.0953C37.692 57.0272 37.6725 56.9667 37.6526 56.9059ZM39.2544 54.1902C39.2872 54.1902 39.3063 54.1834 39.3258 54.1765C39.3457 54.2033 39.352 54.2236 39.359 54.2438C39.3391 54.2507 39.3199 54.2576 39.2805 54.2714C39.2805 54.2373 39.2739 54.217 39.2544 54.1902ZM38.6315 56.1448C39.0944 56.4334 39.1871 56.7502 39.436 57.2491C38.819 57.4208 38.6398 56.5706 38.6315 56.1448ZM41.0214 52.1492C41.0928 52.1691 41.0928 52.1691 41.0412 52.21C41.0217 52.2169 41.0025 52.2238 40.9761 52.244C40.9761 52.2104 40.9698 52.1901 40.9499 52.1629C40.9827 52.1629 41.0019 52.1561 41.0214 52.1492ZM40.5574 53.2253C40.5964 53.2115 40.616 53.2047 40.6355 53.1978C40.6554 53.2246 40.6616 53.2448 40.662 53.2789C40.6425 53.2858 40.6229 53.2926 40.5839 53.306C40.5835 53.2724 40.5773 53.2521 40.5574 53.2253ZM40.0809 54.3622C40.2043 54.3753 40.3217 54.4017 40.4256 54.4216C40.3674 54.4759 40.3092 54.5302 40.2447 54.598C40.1663 54.5914 40.0756 54.5784 39.9843 54.5654C40.0164 54.4977 40.0485 54.4299 40.0809 54.3622ZM40.753 53.3256C40.7916 53.3118 40.8112 53.3049 40.831 53.2984C40.8506 53.3252 40.8568 53.3455 40.8572 53.3792C40.8377 53.3861 40.8185 53.3929 40.7791 53.4067C40.7795 53.373 40.7725 53.3527 40.753 53.3256ZM39.0672 57.7506C39.0933 57.764 39.1327 57.7843 39.1718 57.8042C39.1589 57.8314 39.146 57.8585 39.1265 57.8991C39.1007 57.8857 39.0609 57.8658 39.0222 57.8455C39.0348 57.8183 39.0477 57.7912 39.0672 57.7506ZM40.3719 55.5227C40.5215 55.5492 40.6648 55.589 40.808 55.6288C40.9311 55.4728 41.0538 55.3171 41.1573 55.1682C41.3267 55.2551 41.4833 55.3355 41.6394 55.4159C41.6781 55.3011 41.7035 55.1791 41.729 55.0574C41.9441 55.1849 41.9441 55.1849 42.2386 55.589C42.0706 55.8059 41.7708 55.7193 41.5303 55.7135C41.5439 55.8214 41.5376 55.9362 41.5317 56.0514C41.4801 56.0919 41.4149 56.1263 41.3504 56.1604C41.2974 55.9645 41.2974 55.9645 41.089 55.8236C41.1151 55.8707 41.1218 55.9246 41.1284 55.9789C40.8938 55.892 40.6592 55.8051 40.4058 55.7255C40.4047 55.6578 40.3915 55.5835 40.3719 55.5227ZM42.1658 52.1644C42.1916 52.1441 42.2114 52.1372 42.231 52.1303C42.1386 51.8468 42.9916 52.0663 43.1282 52.1195C43.1286 52.2549 43.1226 52.4034 43.1038 52.5453C43.3579 52.6253 43.6117 52.705 43.8658 52.7854C43.8209 52.8799 43.7693 52.9885 43.7177 53.0964C43.4311 52.9827 42.8964 52.6746 42.6301 52.7231C42.5973 52.6554 42.5645 52.5884 42.5252 52.5344C42.6224 52.4664 42.7134 52.412 42.804 52.3574C42.5761 52.1897 42.576 52.1897 42.2574 52.2111C42.2379 52.218 42.2187 52.2248 42.1794 52.2386C42.179 52.2049 42.1724 52.1847 42.1658 52.1644ZM40.6219 56.2918C41.0252 56.3982 41.325 56.5185 41.6882 56.3005C41.988 56.4544 42.2815 56.622 42.5618 56.7831C42.5872 56.6952 42.5998 56.6006 42.6064 56.5195C42.9323 56.6868 42.9985 57.0583 43.1366 57.3817C42.9672 57.2271 42.7971 57.0724 42.621 56.9316C42.537 57.0062 42.4331 57.0877 42.3293 57.1691C42.2634 56.9667 42.2634 56.9667 41.9828 56.7386C41.8988 56.8469 41.8148 56.9555 41.7304 57.0638C41.6785 57.0033 41.6258 56.9428 41.554 56.8889C41.4254 57.1597 41.2964 57.4305 41.1674 57.701C40.6526 57.487 40.51 57.5486 40.3148 57.4479C40.3144 57.3806 40.3075 57.3263 40.3008 57.2723C40.5734 57.109 40.5734 57.109 40.9956 57.0395C40.8443 56.5746 40.8443 56.5746 40.6219 56.2918ZM40.0875 57.6518C40.1726 57.7459 40.251 57.8538 40.3165 57.9549C40.121 57.8542 40.121 57.8542 40.0875 57.6518ZM42.2167 53.4545C42.6649 53.331 42.8981 53.1474 43.0763 53.6938C42.9205 53.7485 42.9205 53.7485 42.6078 53.6554C42.5754 53.7232 42.5429 53.7909 42.5112 53.8586C42.4129 53.7239 42.3146 53.5892 42.2167 53.4545ZM40.5829 57.906C40.6477 57.9396 40.7132 57.973 40.7784 58.0063C40.7655 58.0334 40.7526 58.0606 40.7331 58.1011C40.6675 58.0678 40.6027 58.0341 40.5379 58.0005C40.5504 57.9737 40.5633 57.9469 40.5829 57.906ZM42.5056 54.1084C42.7071 54.128 42.8957 54.1403 43.0843 54.1533C43.0393 54.2482 42.994 54.3427 42.9424 54.4509C42.819 54.4379 42.6887 54.4386 42.5457 54.4325C42.5321 54.3246 42.5189 54.2163 42.5056 54.1084ZM42.5666 54.7634C42.6771 54.7359 42.7681 54.7153 42.8591 54.6946C42.8535 54.9108 43.0826 55.2475 43.0512 55.5177C42.8936 55.2685 42.7368 55.0194 42.5666 54.7634ZM40.6327 58.926C40.6651 58.926 40.6846 58.9191 40.7041 58.9118C40.7794 58.2427 41.5819 58.8065 41.7447 59.0085C41.7192 59.0625 41.6868 59.1302 41.6544 59.1982C41.485 59.0436 41.3149 58.889 41.1388 58.7482C41.1591 58.91 41.159 58.91 40.9712 59.1001C40.8931 59.0599 40.815 59.0197 40.7366 58.9796C40.7171 58.9861 40.6979 58.9929 40.6585 59.0067C40.6588 58.973 40.6522 58.9528 40.6327 58.926ZM43.5681 53.138C43.6072 53.1916 43.6466 53.2456 43.6793 53.3129C43.6141 53.3133 43.5427 53.327 43.4712 53.3408C43.5036 53.2731 43.5357 53.2057 43.5681 53.138ZM41.4086 57.9433C41.5519 57.9831 41.6889 58.0363 41.8256 58.0899C41.5788 58.0979 41.5787 58.0979 41.4086 57.9433ZM41.8946 57.4345C42.2069 57.528 42.2069 57.5279 42.2599 57.6898C42.11 57.6634 41.9542 57.6507 41.798 57.6377C41.8301 57.57 41.8622 57.5022 41.8946 57.4345ZM43.8233 53.5218C43.8491 53.5016 43.8686 53.4947 43.8878 53.4878C43.9076 53.515 43.9139 53.5349 43.9139 53.5689C43.9659 53.5957 44.0185 53.6225 44.0575 53.6428C44.1151 53.4197 44.1151 53.4197 44.0419 53.062C44.1851 53.0681 44.3281 53.0743 44.4518 53.087C44.5034 52.9787 44.5484 52.8842 44.5937 52.7893C44.6589 52.823 44.724 52.8563 44.7892 52.8896C44.648 53.3223 44.4727 53.4179 44.3573 53.7967C44.4549 53.864 44.5396 53.9241 44.6247 53.9846C44.3322 54.0197 44.0778 53.771 43.8365 53.5964C43.8362 53.5624 43.8299 53.5421 43.8233 53.5218ZM43.1422 55.5644C43.2659 55.6114 43.383 55.6715 43.5001 55.7316C43.4615 55.7791 43.4224 55.8265 43.3708 55.8671C43.1756 55.7671 43.1756 55.7671 43.1422 55.5644ZM42.0922 58.0414C42.3 58.0135 42.4948 57.9787 42.6834 57.9577C42.6573 57.8766 42.6308 57.7959 42.598 57.7285C42.6632 57.7619 42.728 57.7955 42.7936 57.8288C42.8528 57.9773 42.9055 58.1392 42.9452 58.2945C42.6329 58.2688 42.3139 58.2568 41.9957 58.2445C42.0277 58.1768 42.0598 58.1091 42.0922 58.0414ZM41.4153 59.4629C41.6422 59.3605 41.6551 59.2996 41.8893 59.4202C41.828 59.4923 41.7621 59.5625 41.6948 59.6313L41.4146 59.4629H41.4153ZM44.4581 54.6063C44.4842 54.6197 44.51 54.6331 44.5494 54.6534C44.5173 54.7207 44.4849 54.7888 44.4528 54.8565C44.427 54.8431 44.4009 54.8297 44.3615 54.8094C44.3939 54.7417 44.426 54.674 44.4581 54.6063ZM42.24 59.2634C42.3056 59.2967 42.3704 59.3304 42.4359 59.3637C42.423 59.3909 42.4101 59.4177 42.3906 59.4586C42.3251 59.4249 42.2602 59.3916 42.1951 59.3579C42.208 59.3311 42.2205 59.304 42.24 59.2634ZM45.1751 53.3401C45.2009 53.3535 45.2403 53.3737 45.2793 53.3937C45.2664 53.4208 45.2535 53.4476 45.234 53.4885C45.2079 53.4751 45.1688 53.4552 45.1298 53.4349C45.1427 53.4078 45.1556 53.381 45.1751 53.3401ZM43.3436 57.1851C43.8714 57.3719 43.9167 57.3444 44.4229 57.0992C44.5215 57.403 44.5215 57.403 44.4717 57.8828C44.3479 57.802 44.2109 57.7148 44.0677 57.6413C43.938 57.7094 43.8013 57.7908 43.6525 57.8661C43.5741 57.8259 43.4963 57.7858 43.4179 57.7456C43.3973 57.5493 43.3705 57.3672 43.3436 57.1851ZM42.6217 58.7011C42.6475 58.7145 42.6869 58.7344 42.726 58.7547C42.6935 58.8224 42.6615 58.8901 42.6294 58.9578C42.6032 58.9444 42.5638 58.9242 42.5252 58.9042C42.5569 58.8365 42.5893 58.7688 42.6217 58.7011ZM42.3453 59.5535C42.4886 59.5596 42.6315 59.5658 42.7552 59.5788C42.8012 59.6527 42.834 59.7204 42.8664 59.7877C42.8281 59.8688 42.789 59.9503 42.7441 60.0448C42.6395 59.9912 42.529 59.951 42.4052 59.9043C42.3983 59.7827 42.3718 59.6682 42.3453 59.5535ZM43.0069 59.1519C43.0916 59.246 43.1704 59.3539 43.2356 59.455C43.1641 59.4351 43.0728 59.4217 42.9818 59.409C42.9947 59.3141 43.001 59.233 43.0069 59.1519ZM43.025 60.4083C43.3276 60.4985 43.3374 60.5014 43.3855 60.648L43.0324 60.4359C43.0306 60.4268 43.0282 60.4178 43.025 60.4083ZM44.1813 58.4915C44.3047 58.5045 44.4156 58.5106 44.5198 58.5306C44.4874 58.5983 44.4553 58.666 44.4229 58.7337C44.3514 58.6464 44.2726 58.5722 44.1813 58.4915ZM43.8857 59.3507C44.1074 59.4984 44.3294 59.6458 44.5316 59.8004C44.5389 59.9894 44.5459 60.1784 44.547 60.3812C44.4689 60.4424 44.3849 60.517 44.3005 60.5919C44.1705 60.5249 44.0206 60.4648 43.8707 60.4044C44.0701 59.9174 44.1022 59.816 43.8857 59.3507ZM45.6216 56.0807C45.6603 56.0669 45.6802 56.0601 45.6997 56.0532C45.7318 55.9518 45.751 55.8435 45.7635 55.7487C45.5547 55.6078 45.5547 55.6078 45.1842 55.6027C45.4759 55.3315 45.6391 55.4318 46.0291 55.4304C46.1069 55.3355 46.1843 55.2407 46.262 55.1454C46.3272 55.1791 46.3924 55.2124 46.4579 55.2457C46.4126 55.3406 46.361 55.4489 46.3094 55.5571C46.4199 55.5969 46.5308 55.6371 46.635 55.6907C46.4091 56.1307 46.17 56.5641 45.9315 56.9971C45.8859 56.9906 45.8273 56.9772 45.7687 56.9642C45.7544 56.6872 45.7405 56.4106 45.7262 56.1336C45.7067 56.1404 45.6875 56.147 45.6481 56.1607C45.5052 56.1209 45.3619 56.0811 45.2121 56.0546C45.3553 56.0615 45.4982 56.0677 45.6216 56.0807ZM47.0411 56.4392C47.0669 56.4189 47.0864 56.412 47.1056 56.4051C47.1254 56.4323 47.1317 56.4522 47.1321 56.4862C47.1122 56.4931 47.093 56.4996 47.0606 56.5C47.054 56.4797 47.0474 56.4594 47.0411 56.4392ZM47.4312 56.5051C47.6006 56.5923 47.7571 56.6723 47.9136 56.7527C47.6811 57.1387 47.6811 57.1387 47.3374 57.3494C47.2896 56.9381 47.2896 56.9381 47.4312 56.5051ZM48.6934 56.6484C48.7195 56.6618 48.7453 56.6752 48.7847 56.6952C48.7722 56.7223 48.7526 56.7629 48.7335 56.8034C48.7073 56.79 48.6812 56.7766 48.6421 56.7567C48.6547 56.7292 48.6739 56.6886 48.6934 56.6484Z" fill="#FF0600"/>
</svg>
