<svg width="88" height="80" viewBox="0 0 88 80" fill="none" xmlns="http://www.w3.org/2000/svg">
<path fill-rule="evenodd" clip-rule="evenodd" d="M32.2796 54.1959C23.6249 49.784 17.6777 40.6397 17.6777 30.0729C17.6777 21.015 22.0469 13.0019 28.7456 8.11872L28.6501 10.4692C23.0424 15.0734 19.451 22.1433 19.451 30.0729C19.451 39.6184 24.6536 47.9201 32.3155 52.1715L32.2796 54.1959ZM49.4968 56.419C47.7239 56.805 45.8851 57.0091 43.9993 57.0091C42.0047 57.0091 40.0624 56.7811 38.195 56.3505L38.2518 54.5002C40.0955 54.9533 42.02 55.1944 43.9993 55.1944C45.8625 55.1944 47.6765 54.9811 49.4205 54.5783L49.4968 56.419ZM58.0235 7.27614C65.4118 12.0462 70.3209 20.4724 70.3209 30.0729C70.3209 40.572 64.4504 49.6673 55.8857 54.1114C55.8693 53.4111 55.8424 52.7419 55.8051 52.103C63.3997 47.8316 68.548 39.5678 68.548 30.0732C68.548 21.9549 64.7843 14.7377 58.9459 10.1453C58.6587 9.13252 58.3516 8.17579 58.0235 7.27614ZM43.9996 3.13672C45.7488 3.13672 47.4583 3.31294 49.112 3.64648L49.0747 5.49038C47.4374 5.13758 45.7398 4.95137 43.9993 4.95137C43.3241 4.95137 42.6559 4.98026 41.9946 5.0352L41.8137 3.22982C42.5346 3.16918 43.2631 3.13672 43.9996 3.13672Z" fill="#FF0600"/>
<path fill-rule="evenodd" clip-rule="evenodd" d="M40.8133 3.16891C40.7826 2.96558 40.6895 2.49863 40.472 2.40909C40.4152 2.38448 40.2322 2.31171 40.1726 2.36343C40.0666 2.45439 40.1011 3.00268 40.1011 3.14251V22.0884C40.1011 22.6467 39.8923 23.1843 39.5151 23.5885C39.1327 23.9983 38.612 24.2363 38.0556 24.2363C37.4989 24.2363 36.9785 23.9983 36.5957 23.5885C36.2189 23.1846 36.0101 22.6471 36.0101 22.0888V2.64489C36.0101 2.49934 35.9456 2.39161 35.8118 2.34203C35.7323 2.31242 35.6465 2.29851 35.5622 2.29922C35.4733 2.29958 35.383 2.3142 35.2994 2.34524C35.1739 2.39161 35.07 2.48222 35.07 2.62776V22.0881C35.07 22.6464 34.8612 23.1839 34.4844 23.5881C34.1016 23.998 33.5808 24.2359 33.0245 24.2359C33.0161 24.2359 33.0081 24.2356 33.0001 24.2341C32.983 24.2338 32.9666 24.2327 32.9513 24.2313C32.4215 24.2124 31.93 23.9794 31.5646 23.5881C31.1951 23.1925 30.9902 22.6674 30.9822 22.1216C30.9801 22.1109 30.979 22.1002 30.979 22.0888V3.14216C30.979 3.01552 31.0397 2.56712 30.9888 2.47829C30.9522 2.41373 30.8124 2.39875 30.75 2.39375C30.3955 2.36628 30.3063 2.90208 30.2665 3.16927L29.0513 21.6557C29.0496 21.6761 29.0475 21.696 29.0447 21.716C28.7896 23.5828 29.5052 24.3629 30.7605 25.5076C31.3625 26.0566 31.9251 26.5889 32.4284 27.2392C32.9454 27.907 33.4275 28.7096 33.7712 29.4876C34.0479 30.1136 34.2951 30.8727 34.2662 31.5673L33.2518 55.9072C33.2528 55.9422 33.2518 55.9771 33.2487 56.0121C33.1688 56.9524 33.355 58.0461 34.2209 58.5595C34.5133 58.7328 34.8476 58.8181 35.185 58.8174C35.534 58.817 35.8791 58.7243 36.1841 58.552C37.0681 58.0536 37.3504 57.0405 37.2779 56.066C37.2772 56.0553 37.2772 56.0449 37.2783 56.0349C37.2776 56.0274 37.2776 56.0196 37.2776 56.0118L36.8268 31.5616C36.8143 30.8777 37.0395 30.1482 37.3048 29.5268C37.6279 28.7709 38.0741 28.0054 38.5635 27.3512C39.0864 26.652 39.6807 26.0894 40.3193 25.5073C41.5659 24.3704 42.2843 23.5927 42.0389 21.7435C42.0337 21.7125 42.0305 21.6814 42.0284 21.65L40.8133 3.16891ZM43.8372 21.5034C44.0216 22.9011 43.8804 24.1532 43.0459 25.3093C42.6161 25.9054 42.0647 26.4041 41.5265 26.8949C40.9827 27.3911 40.4497 27.8838 40.0049 28.4784C39.603 29.0156 39.2314 29.6492 38.9665 30.2688C38.8117 30.6309 38.6308 31.1317 38.6381 31.5316L39.0878 55.9322C39.2161 57.6659 38.5928 59.3136 37.058 60.179C36.4859 60.5015 35.8379 60.6695 35.1854 60.6706C34.5293 60.6713 33.8806 60.5018 33.3117 60.1651C31.7926 59.2651 31.2934 57.5603 31.4381 55.8519C31.4388 55.8441 31.4395 55.8366 31.4402 55.8288L32.4542 31.4934C32.4699 31.1157 32.266 30.5909 32.1158 30.251C31.8317 29.6074 31.4346 28.9411 31.0069 28.3885C30.5778 27.8345 30.0661 27.3644 29.5523 26.8956C29.0141 26.4048 28.4622 25.9061 28.0321 25.31C27.1979 24.1539 27.0571 22.9018 27.2415 21.5041L28.4574 3.00874C28.4591 2.97699 28.4629 2.9456 28.4675 2.91778C28.6055 1.97282 29.0154 1.06638 29.928 0.689328C30.2324 0.563404 30.5576 0.516316 30.8842 0.542C31.1659 0.564117 31.4461 0.639743 31.7037 0.758532C32.2269 1.00003 32.7763 1.53726 32.7916 2.16259C32.7934 2.17294 32.7941 2.18293 32.7941 2.19363V22.0895C32.7941 22.0984 32.7937 22.107 32.7923 22.1155C32.7979 22.188 32.8269 22.2568 32.8764 22.3096C32.9095 22.3449 32.9524 22.372 32.9998 22.3788C33.0078 22.3777 33.0158 22.3774 33.0241 22.3774L33.0266 22.3777C33.0817 22.3767 33.1315 22.3503 33.1692 22.3103C33.2242 22.2511 33.2511 22.1705 33.2511 22.0899V2.62776C33.2511 1.65712 33.812 0.923694 34.6859 0.60086C34.9626 0.49848 35.2589 0.446756 35.5531 0.44533C35.8501 0.444259 36.1496 0.493488 36.4284 0.597651C37.3104 0.927263 37.8252 1.67353 37.8252 2.64453V22.0881C37.8252 22.1691 37.852 22.2493 37.9071 22.3082C37.9455 22.3496 37.997 22.376 38.0532 22.376C38.1096 22.376 38.1612 22.3496 38.1999 22.3085C38.255 22.2493 38.2818 22.1687 38.2818 22.0881V2.19256C38.2818 2.1287 38.2881 2.06556 38.2996 2.00849C38.3948 1.44665 38.8839 0.982555 39.3726 0.757462C39.6302 0.638674 39.9104 0.563047 40.1921 0.540931C40.5187 0.515603 40.8439 0.562691 41.1479 0.688258C42.0685 1.06781 42.4771 1.98602 42.6123 2.93847C42.6158 2.9613 42.6182 2.98448 42.6193 3.00767L43.8372 21.5034Z" fill="#FF0600"/>
<path fill-rule="evenodd" clip-rule="evenodd" d="M50.0258 1.87495C49.9052 1.86496 49.7487 1.84641 49.6113 1.83928C49.6166 1.98482 49.627 2.13571 49.6305 2.27698C49.6309 2.28589 49.6309 2.29481 49.6309 2.30159L50.2646 56.6776C50.265 56.6937 50.2646 56.709 50.2639 56.7247C50.2649 56.734 50.2649 56.744 50.2642 56.754C50.2127 57.5063 50.4309 58.2529 51.1294 58.6089C51.4386 58.7666 51.7903 58.8294 52.1344 58.8147C52.507 58.7991 52.8776 58.6927 53.2035 58.5065C54.1035 57.9918 54.4068 57.0112 54.3001 56.0052C54.2956 55.9656 54.2942 55.9278 54.2949 55.8918C54.2133 53.0005 53.7999 50.0868 53.4116 47.2237C52.9058 43.4985 52.3909 39.7293 52.4359 35.9606C52.4415 35.5011 52.7751 35.1158 53.2171 35.0538C53.2251 35.0516 53.2335 35.0498 53.2418 35.0491C54.6892 34.8858 55.9256 32.6388 56.4837 31.458C57.8815 28.4993 58.6271 24.8319 58.8941 21.5732C59.1967 17.8772 58.9527 13.8708 57.7822 10.3411C56.4697 6.38286 54.0192 3.18198 50.0258 1.87495ZM50.2852 0.0335434C50.3451 0.0399644 50.4044 0.051738 50.4619 0.0699309C55.0939 1.5407 57.9798 5.15823 59.501 9.74462C60.7507 13.513 61.0289 17.7727 60.705 21.7259C60.4195 25.2111 59.6115 29.1015 58.1171 32.2646C57.3339 33.9226 56.0263 36.0169 54.2461 36.6958C54.2719 40.1299 54.7474 43.573 55.2086 46.969C55.6066 49.9009 56.0218 52.8707 56.1065 55.8322C56.2874 57.6062 55.6408 59.2371 54.0851 60.1268C53.512 60.4542 52.8615 60.6397 52.2062 60.6679C51.5585 60.6954 50.9018 60.5691 50.3197 60.2723C48.934 59.566 48.3516 58.183 48.4526 56.6398L47.8193 2.3205C47.8046 1.63309 47.8141 0.889324 48.3603 0.40204C48.8828 -0.0641971 49.6159 -0.0206768 50.2632 0.0303346C50.2705 0.0310481 50.2778 0.0321165 50.2852 0.0335434Z" fill="#FF0600"/>
<path fill-rule="evenodd" clip-rule="evenodd" d="M54.2321 10.1911C54.0362 9.70634 54.266 9.14557 54.7397 8.94616C55.2134 8.74675 55.7603 8.98112 55.9555 9.46555C57.0016 12.0593 57.5315 14.8674 57.6458 17.6652C57.7675 20.647 57.4224 23.676 56.6677 26.5583C56.5349 27.0652 56.0207 27.3698 55.525 27.2346C55.0294 27.0991 54.7313 26.5722 54.8641 26.0653C55.5707 23.3671 55.897 20.5325 55.7833 17.7412C55.6788 15.1663 55.1949 12.5783 54.2321 10.1911Z" fill="#FF0600"/>
<path fill-rule="evenodd" clip-rule="evenodd" d="M88 66.071V66.5354H85.8928V72.8801H84.5821V66.5354H83.8662C83.5103 66.5354 83.2279 66.6264 83.0194 66.8087C82.811 66.991 82.7071 67.3124 82.7071 67.7732H82.4049V66.8964C82.4049 66.7933 82.4164 66.6917 82.4401 66.5921C82.4638 66.4926 82.5074 66.4049 82.5712 66.3292C82.6353 66.2536 82.7225 66.1915 82.8333 66.1434C82.9442 66.0952 83.0874 66.0713 83.2617 66.0713H88V66.071ZM78.0462 70.8168V66.071H78.5499V72.9108H78.0863L73.812 67.7732V72.8797H73.3079V67.3088C73.3079 67.1782 73.2946 67.0562 73.2678 66.9428C73.241 66.8294 73.1922 66.7313 73.1218 66.6485C73.051 66.5661 72.9569 66.5008 72.8394 66.4527C72.7219 66.4045 72.5755 66.3806 72.4009 66.3806H72.3503V66.071H73.0559C73.439 66.071 73.7495 66.1227 73.9883 66.2258C74.2271 66.3289 74.4237 66.4837 74.5781 66.6899L78.0462 70.8168ZM64.479 70.5382H66.7706L65.6547 67.8457L64.479 70.5382ZM68.617 71.5799C68.738 71.8827 68.8858 72.1231 69.0604 72.3022C69.2351 72.4809 69.4369 72.584 69.6652 72.6119V72.8698C69.6115 72.8833 69.5359 72.8954 69.4386 72.9058C69.341 72.9161 69.2556 72.9215 69.1814 72.9215C69.02 72.9215 68.8471 72.9058 68.6623 72.8751C68.4779 72.8441 68.296 72.7824 68.1178 72.6893C67.9397 72.5965 67.772 72.4624 67.6138 72.2869C67.4562 72.1114 67.3164 71.8759 67.1955 71.5799L66.9619 71.0023H64.2674L63.4356 72.8797H62.9316L65.9054 66.071H66.3589L68.617 71.5799ZM56.3747 69.7645H55.9714V72.8801H54.651V67.4122C54.651 67.1026 54.6088 66.8533 54.5252 66.6642C54.4412 66.4751 54.2477 66.3806 53.9455 66.3806H53.8444V66.071H56.6268C56.7882 66.071 56.9663 66.0777 57.1611 66.0917C57.356 66.1056 57.5543 66.1366 57.7558 66.1844C57.9573 66.2326 58.1543 66.2996 58.3453 66.3856C58.537 66.4716 58.7064 66.585 58.8546 66.7263C59.0024 66.8672 59.1219 67.0391 59.2122 67.2421C59.3032 67.4451 59.3485 67.6876 59.3485 67.9695C59.3485 68.2377 59.2997 68.4696 59.2021 68.6658C59.1049 68.8616 58.9769 69.0268 58.819 69.1609C58.6611 69.295 58.4847 69.4035 58.2899 69.4859C58.0947 69.5683 57.9033 69.6336 57.7154 69.6817L58.7737 71.4871C58.9013 71.7072 59.024 71.8877 59.1418 72.0286C59.2593 72.1695 59.3719 72.2812 59.4796 72.3639C59.5873 72.4463 59.6863 72.5063 59.7769 72.5444C59.8679 72.5822 59.9502 72.6079 60.0241 72.6218V72.8797C59.9704 72.9072 59.8745 72.9315 59.7368 72.9518C59.5988 72.9725 59.4667 72.9828 59.3384 72.9828C59.1638 72.9828 58.994 72.9589 58.8295 72.9104C58.6646 72.8623 58.5035 72.7799 58.3453 72.6629C58.1874 72.5458 58.0295 72.391 57.8716 72.1988C57.7136 72.0061 57.5509 71.7689 57.3828 71.4867L56.3747 69.7645ZM56.6268 66.4837C56.5462 66.4837 56.4654 66.4873 56.3848 66.494C56.304 66.5012 56.2336 66.5112 56.1733 66.5251C56.099 66.539 56.0321 66.5493 55.9714 66.5561V69.3518H56.5762C56.7376 69.3518 56.899 69.3275 57.0604 69.2793C57.2214 69.2312 57.3678 69.152 57.4989 69.0421C57.63 68.9319 57.7359 68.7842 57.8165 68.5984C57.8966 68.4125 57.9374 68.1856 57.9374 67.9174C57.9374 67.6491 57.897 67.424 57.8165 67.2414C57.7356 67.0591 57.6314 66.9114 57.5041 66.7976C57.3762 66.6842 57.235 66.6036 57.0806 66.5554C56.9262 66.508 56.7746 66.4837 56.6268 66.4837ZM45.9977 70.2182C46.0044 70.9335 46.1407 71.496 46.4063 71.9052C46.6719 72.3143 47.0696 72.5191 47.6009 72.5191C48.2862 72.5191 48.7854 72.3093 49.0977 71.8895C49.4104 71.47 49.5665 70.8097 49.5665 69.909V66.071H50.0706V69.909C50.0706 70.3969 50.0235 70.8304 49.9298 71.2089C49.8353 71.587 49.6826 71.9087 49.471 72.1734C49.2594 72.4381 48.9837 72.6393 48.6445 72.777C48.305 72.9143 47.8902 72.9832 47.3997 72.9832C45.585 72.9832 44.6777 71.9583 44.6777 69.909V67.4122C44.6777 67.1026 44.6355 66.8533 44.5518 66.6642C44.4678 66.4751 44.2743 66.3806 43.9721 66.3806V66.071H45.081C45.2556 66.071 45.402 66.0934 45.5198 66.138C45.6373 66.183 45.7314 66.2568 45.8018 66.3599C45.8726 66.4634 45.9214 66.6007 45.9482 66.7726C45.9751 66.9446 45.9883 67.1579 45.9883 67.4122L45.9977 70.2182ZM36.2813 70.5382H38.5733L37.4574 67.8457L36.2813 70.5382ZM40.4194 71.5799C40.5403 71.8827 40.6881 72.1231 40.8628 72.3022C41.0377 72.4809 41.2392 72.584 41.4675 72.6119V72.8698C41.4139 72.8833 41.3382 72.8954 41.2406 72.9058C41.143 72.9161 41.0576 72.9215 40.9837 72.9215C40.8223 72.9215 40.6491 72.9058 40.4643 72.8751C40.2796 72.8441 40.098 72.7824 39.9198 72.6893C39.7417 72.5965 39.5737 72.4624 39.4158 72.2869C39.2579 72.1114 39.1184 71.8759 38.9971 71.5799L38.7636 71.0023H36.0687L35.237 72.8797H34.7329L37.707 66.071H38.1605L40.4194 71.5799ZM32.3611 66.071V66.5354H30.2543V72.8801H28.9436V66.5354H28.228C27.8721 66.5354 27.5894 66.6264 27.3813 66.8087C27.1728 66.991 27.0689 67.3124 27.0689 67.7732H26.7664V66.8964C26.7664 66.7933 26.7782 66.6917 26.8016 66.5921C26.8253 66.4926 26.8689 66.4049 26.9326 66.3292C26.9964 66.2536 27.0839 66.1915 27.1948 66.1434C27.3056 66.0952 27.4485 66.0713 27.6232 66.0713H32.3611V66.071ZM20.754 73.0556C20.4786 73.0556 20.2046 73.0281 19.9324 72.9729C19.6601 72.9179 19.4165 72.8369 19.2017 72.7303C18.9867 72.6236 18.812 72.4931 18.6775 72.3382C18.5433 72.1834 18.476 72.0097 18.476 71.8171V70.6099H18.7786C18.8859 71.3252 19.101 71.8342 19.4252 72.1367C19.748 72.4396 20.1914 72.5904 20.7526 72.5904C21.1322 72.5904 21.4383 72.5063 21.6683 72.3379C21.8984 72.1695 22.0145 71.9202 22.0145 71.5898C22.0145 71.2941 21.9221 71.0483 21.7373 70.8521C21.5526 70.6559 21.2988 70.4587 20.9764 70.2589L19.7365 69.4955C19.2795 69.2205 18.957 68.9387 18.7688 68.6494C18.5806 68.3604 18.4864 68.0269 18.4864 67.6488C18.4864 67.1055 18.6897 66.6756 19.0965 66.3592C19.5033 66.0428 20.0526 65.8848 20.7446 65.8848C21.02 65.8848 21.2939 65.9122 21.5662 65.9675C21.8384 66.0225 22.0821 66.1031 22.2972 66.2097C22.5122 66.3164 22.6869 66.447 22.8211 66.6018C22.9556 66.7566 23.0229 66.9303 23.0229 67.1229V68.3297H22.7203C22.606 67.6145 22.3927 67.1055 22.0803 66.803C21.7659 66.5005 21.3543 66.3489 20.8471 66.3489C20.4873 66.3489 20.2018 66.4384 19.992 66.6171C19.7818 66.7958 19.6762 67.0398 19.6762 67.3495C19.6762 67.4939 19.7013 67.6227 19.7518 67.7365C19.802 67.8499 19.8728 67.9548 19.9634 68.0511C20.054 68.1475 20.1631 68.2402 20.2911 68.3297C20.419 68.4193 20.5633 68.512 20.7247 68.6083L21.9646 69.3614C22.4216 69.6364 22.7559 69.9065 22.9675 70.1711C23.1791 70.4362 23.285 70.7576 23.285 71.1357C23.285 71.7272 23.0669 72.1948 22.6297 72.5387C22.1926 72.8833 21.5672 73.0556 20.754 73.0556ZM13.6031 66.071C13.7781 66.071 13.9207 66.0949 14.0316 66.143C14.1424 66.1912 14.2299 66.2533 14.2937 66.3289C14.3575 66.4045 14.4014 66.4923 14.4248 66.5918C14.4481 66.6913 14.46 66.793 14.46 66.8961V67.7729H14.1574C14.1574 67.3327 14.0483 67.0163 13.8297 66.8237C13.6115 66.631 13.3006 66.5347 12.8973 66.5347H11.2742V69.1138H13.8953V69.5783H11.2742V72.4153H12.998C13.3678 72.4153 13.6819 72.3308 13.9406 72.1624C14.1992 71.994 14.416 71.6861 14.5907 71.2392L14.8629 71.3426L14.5708 72.1574C14.4969 72.3775 14.401 72.553 14.2832 72.6835C14.1658 72.8145 13.9692 72.8797 13.6938 72.8797H9.96358V67.4122C9.96358 67.1026 9.92175 66.8533 9.83774 66.6642C9.75373 66.4751 9.56062 66.3806 9.25805 66.3806H9.15731V66.071H13.6031ZM2.53037 69.7645H2.12707V72.8801H0.806281V67.4122C0.806281 67.1026 0.764443 66.8533 0.680434 66.6642C0.596426 66.4751 0.403312 66.3806 0.100741 66.3806H0V66.071H2.78239C2.94344 66.071 3.12157 66.0777 3.31643 66.0917C3.51164 66.1056 3.70963 66.1366 3.91146 66.1844C4.11329 66.2326 4.30989 66.2996 4.50126 66.3856C4.69263 66.4716 4.86241 66.585 5.01055 66.7263C5.15835 66.8672 5.27756 67.0391 5.36854 67.2421C5.45917 67.4451 5.50449 67.6876 5.50449 67.9695C5.50449 68.2377 5.45569 68.4696 5.35844 68.6658C5.26118 68.8616 5.13325 69.0268 4.97534 69.1609C4.81743 69.295 4.6414 69.4035 4.44619 69.4859C4.25133 69.5683 4.05995 69.6336 3.87172 69.6817L4.93038 71.4871C5.05831 71.7072 5.18066 71.8877 5.29848 72.0286C5.41595 72.1695 5.52889 72.2812 5.63626 72.3639C5.74397 72.4463 5.84296 72.5063 5.9336 72.5444C6.02423 72.5822 6.10685 72.6079 6.1804 72.6218V72.8797C6.12671 72.9072 6.03085 72.9315 5.89316 72.9518C5.75512 72.9725 5.62266 72.9828 5.49473 72.9828C5.32009 72.9828 5.15033 72.9589 4.9858 72.9104C4.82092 72.8623 4.65987 72.7799 4.50196 72.6629C4.34406 72.5458 4.18614 72.391 4.02824 72.1988C3.87033 72.0061 3.70755 71.7689 3.53953 71.4867L2.53037 69.7645ZM2.78239 66.4837C2.70152 66.4837 2.621 66.4873 2.54048 66.494C2.45995 66.5012 2.38919 66.5112 2.32889 66.5251C2.25499 66.539 2.18772 66.5493 2.12707 66.5561V69.3518H2.73185C2.8929 69.3518 3.05429 69.3275 3.21569 69.2793C3.37708 69.2312 3.52314 69.152 3.65421 69.0421C3.78527 68.9319 3.89125 68.7842 3.97177 68.5984C4.05229 68.4125 4.09272 68.1856 4.09272 67.9174C4.09272 67.6491 4.05229 67.424 3.97177 67.2414C3.8909 67.0591 3.78702 66.9114 3.65944 66.7976C3.53151 66.6842 3.39068 66.6036 3.23591 66.5554C3.08149 66.508 2.93019 66.4837 2.78239 66.4837Z" fill="#FF0600"/>
<path fill-rule="evenodd" clip-rule="evenodd" d="M72.4339 79.9427V76.5363H74.8377V76.9358H72.8759V77.9828H74.7126V78.3823H72.8759V79.5431H74.9172V79.943H72.4339V79.9427ZM68.4729 78.0395H69.4183C69.6198 78.0395 69.7763 78.0178 69.8896 77.9753C70.0025 77.9329 70.0886 77.8647 70.1468 77.7706C70.2057 77.6771 70.235 77.5754 70.235 77.4652C70.235 77.304 70.1786 77.1713 70.0649 77.0671C69.9509 76.9637 69.771 76.9119 69.5253 76.9119H68.4733L68.4729 78.0395ZM68.0309 79.9427V76.5363H69.5065C69.8031 76.5363 70.0286 76.5673 70.1827 76.6283C70.3368 76.6893 70.4598 76.7971 70.5522 76.9519C70.6446 77.1067 70.6903 77.2779 70.6903 77.4652C70.6903 77.7071 70.6136 77.9108 70.4612 78.0763C70.3086 78.2422 70.0733 78.3467 69.754 78.392C69.8711 78.4491 69.9593 78.5061 70.0196 78.5618C70.1482 78.6824 70.2702 78.834 70.3839 79.0155L70.9594 79.9434H70.4093L69.969 79.2346C69.8415 79.0291 69.7351 78.8728 69.6522 78.764C69.5689 78.6556 69.4943 78.5803 69.4284 78.5368C69.3632 78.4937 69.2956 78.4637 69.228 78.4466C69.1778 78.4359 69.0969 78.4309 68.9829 78.4309H68.4729V79.9437H68.0309V79.9427ZM63.8842 79.9427V76.5363H66.288V76.9358H64.3262V77.9828H66.1625V78.3823H64.3262V79.5431H66.3671V79.943H63.8842V79.9427ZM59.491 79.9427V76.5363H59.9326V77.9397H61.6529V76.5363H62.0949V79.9427H61.6529V78.3395H59.9326V79.9427H59.491ZM53.8903 78.8482L54.3037 78.8101C54.3232 78.9813 54.3689 79.1215 54.441 79.2321C54.5128 79.3416 54.6247 79.4304 54.7757 79.4985C54.927 79.566 55.0971 79.5998 55.2864 79.5998C55.4544 79.5998 55.6025 79.5745 55.7311 79.5231C55.8594 79.4718 55.9549 79.4012 56.0177 79.3116C56.0804 79.2221 56.1121 79.1243 56.1121 79.0198C56.1121 78.9135 56.0818 78.8204 56.0212 78.7405C55.9609 78.6617 55.8608 78.595 55.7214 78.54C55.6321 78.5051 55.4348 78.4494 55.1288 78.3742C54.8227 78.2989 54.609 78.2283 54.4863 78.1619C54.3277 78.0759 54.2099 77.9696 54.1318 77.8437C54.0538 77.7178 54.0151 77.5758 54.0151 77.4196C54.0151 77.2469 54.0635 77.0857 54.158 76.9366C54.2535 76.7867 54.3922 76.6733 54.5759 76.5959C54.7586 76.5178 54.9625 76.4792 55.1863 76.4792C55.4331 76.4792 55.6506 76.5195 55.8388 76.6016C56.0274 76.6822 56.1724 76.8021 56.2735 76.9608C56.3753 77.1181 56.4294 77.2976 56.4374 77.4973L56.0142 77.5309C55.9919 77.3161 55.9148 77.1531 55.7841 77.0439C55.6531 76.9337 55.4593 76.8788 55.2037 76.8788C54.9371 76.8788 54.7429 76.9291 54.6209 77.0286C54.4993 77.1285 54.4379 77.249 54.4379 77.3903C54.4379 77.5123 54.4811 77.6133 54.5669 77.6925C54.6526 77.7713 54.8733 77.853 55.2313 77.9354C55.5893 78.0185 55.8347 78.0909 55.9682 78.1526C56.1609 78.2436 56.3042 78.3588 56.3966 78.499C56.489 78.6388 56.5346 78.7994 56.5346 78.982C56.5346 79.1636 56.4844 79.3334 56.3826 79.4939C56.2812 79.6541 56.1362 79.7786 55.9462 79.8674C55.7566 79.9562 55.5436 80.0001 55.3055 80.0001C55.0054 80.0001 54.753 79.9551 54.5501 79.8656C54.3462 79.7761 54.1873 79.6412 54.0719 79.4604C53.9565 79.2795 53.8959 79.0758 53.8903 78.8482ZM49.8965 79.9427V76.5363H52.3004V76.9358H50.3382V77.9828H52.1752V78.3823H50.3382V79.5431H52.3795V79.943H49.8965V79.9427ZM45.5466 78.2925C45.5466 78.7023 45.6543 79.0252 45.8697 79.2606C46.0848 79.496 46.3556 79.6141 46.6809 79.6141C47.0127 79.6141 47.2842 79.4953 47.4993 79.2574C47.7134 79.0195 47.82 78.6816 47.82 78.2439C47.82 77.9671 47.7747 77.7253 47.6834 77.5191C47.5917 77.3129 47.4572 77.1527 47.2818 77.0393C47.1051 76.9262 46.9078 76.8688 46.6885 76.8688C46.3765 76.8688 46.1092 76.9779 45.884 77.197C45.6588 77.416 45.5466 77.7809 45.5466 78.2925ZM45.0906 78.2843C45.0906 77.7199 45.2395 77.2776 45.5361 76.958C45.8331 76.6383 46.2158 76.4789 46.6854 76.4789C46.9928 76.4789 47.2696 76.5538 47.5168 76.704C47.7632 76.8542 47.9518 77.0632 48.0808 77.3318C48.2104 77.5997 48.2753 77.9043 48.2753 78.245C48.2753 78.5896 48.2077 78.8989 48.0707 79.1711C47.9344 79.444 47.7419 79.6498 47.492 79.7893C47.2417 79.9295 46.9723 79.9994 46.6833 79.9994C46.3699 79.9994 46.0897 79.922 45.8429 79.7672C45.5961 79.6123 45.4089 79.4015 45.282 79.1336C45.1544 78.8664 45.0906 78.5832 45.0906 78.2843ZM42.1214 78.6057V78.2058H43.53V79.4682C43.3142 79.6444 43.0908 79.7779 42.8607 79.8667C42.6307 79.9555 42.3943 79.9994 42.1524 79.9994C41.8254 79.9994 41.5288 79.928 41.2614 79.7843C40.9948 79.6416 40.7926 79.434 40.6573 79.1636C40.5207 78.8925 40.4527 78.5896 40.4527 78.2554C40.4527 77.924 40.5196 77.615 40.6556 77.3268C40.7912 77.0396 40.9853 76.8267 41.2398 76.6879C41.4939 76.5481 41.7867 76.4785 42.1186 76.4785C42.3584 76.4785 42.5763 76.5178 42.7708 76.598C42.9656 76.6783 43.1176 76.7889 43.2281 76.9312C43.3386 77.0739 43.4226 77.2605 43.4802 77.4895L43.0828 77.6004C43.0319 77.4278 42.9698 77.2915 42.8966 77.1913C42.8224 77.0921 42.7164 77.0129 42.5791 76.9533C42.4417 76.8938 42.289 76.8638 42.1214 76.8638C41.9202 76.8638 41.7466 76.8955 41.5995 76.9583C41.4531 77.0207 41.3353 77.1031 41.2447 77.2062C41.1551 77.3086 41.085 77.4213 41.0359 77.5433C40.9512 77.7552 40.9087 77.9832 40.9087 78.23C40.9087 78.5347 40.9595 78.7894 41.0613 78.9948C41.1635 79.1992 41.3123 79.3516 41.5072 79.4504C41.7024 79.5496 41.9091 79.5995 42.128 79.5995C42.319 79.5995 42.5048 79.5617 42.6857 79.486C42.8674 79.4101 43.0043 79.3298 43.0981 79.2435V78.6053H42.1214V78.6057ZM34.8646 79.9427V76.5363H35.3167L37.0634 79.2099V76.5363H37.4863V79.9427H37.0338L35.287 77.2687V79.9427H34.8646ZM31.3153 78.5439H32.4499L32.1027 77.5993C31.9978 77.3125 31.919 77.0757 31.8639 76.888C31.8179 77.1103 31.7566 77.3279 31.6802 77.5437L31.3153 78.5439ZM30.3577 79.9427L31.6349 76.5363H32.1191L33.4744 79.9427H32.9728L32.5876 78.9103H31.186L30.8248 79.9427H30.3577ZM27.6182 78.6057V78.2058H29.0272V79.4682C28.811 79.6444 28.588 79.7779 28.3579 79.8667C28.1278 79.9555 27.8915 79.9994 27.6496 79.9994C27.3229 79.9994 27.0259 79.928 26.7586 79.7843C26.4919 79.6416 26.2897 79.434 26.1545 79.1636C26.0178 78.8925 25.9499 78.5896 25.9499 78.2554C25.9499 77.924 26.0171 77.615 26.1531 77.3268C26.2887 77.0396 26.4829 76.8267 26.7373 76.6879C26.9914 76.5481 27.2842 76.4785 27.6161 76.4785C27.8559 76.4785 28.0738 76.5178 28.2683 76.598C28.4632 76.6783 28.6155 76.7889 28.7256 76.9312C28.8365 77.0739 28.9198 77.2605 28.9773 77.4895L28.5799 77.6004C28.5294 77.4278 28.4673 77.2915 28.3938 77.1913C28.3196 77.0921 28.2139 77.0129 28.0759 76.9533C27.9389 76.8938 27.7862 76.8638 27.6182 76.8638C27.4171 76.8638 27.2435 76.8955 27.0964 76.9583C26.9499 77.0207 26.8321 77.1031 26.7415 77.2062C26.6519 77.3086 26.5819 77.4213 26.5327 77.5433C26.4484 77.7552 26.4055 77.9832 26.4055 78.23C26.4055 78.5347 26.4564 78.7894 26.5582 78.9948C26.6603 79.1992 26.8091 79.3516 27.0036 79.4504C27.1988 79.5496 27.4059 79.5995 27.6248 79.5995C27.8155 79.5995 28.0013 79.5617 28.1829 79.486C28.3645 79.4101 28.5012 79.3298 28.5953 79.2435V78.6053H27.6182V78.6057ZM21.7202 78.2925C21.7202 78.7023 21.8279 79.0252 22.0433 79.2606C22.2584 79.496 22.5292 79.6141 22.8545 79.6141C23.1863 79.6141 23.4578 79.4953 23.6726 79.2574C23.8866 79.0195 23.9933 78.6816 23.9933 78.2439C23.9933 77.9671 23.9476 77.7253 23.8563 77.5191C23.7646 77.3129 23.6304 77.1527 23.4547 77.0393C23.278 76.9262 23.0807 76.8688 22.8614 76.8688C22.5494 76.8688 22.2817 76.9779 22.0569 77.197C21.8324 77.416 21.7202 77.7809 21.7202 78.2925ZM21.2642 78.2843C21.2642 77.7199 21.4131 77.2776 21.71 76.958C22.007 76.6383 22.3894 76.4789 22.8593 76.4789C23.1668 76.4789 23.4435 76.5538 23.6903 76.704C23.9371 76.8542 24.1254 77.0632 24.2547 77.3318C24.3844 77.5997 24.4492 77.9043 24.4492 78.245C24.4492 78.5896 24.3812 78.8989 24.2446 79.1711C24.1083 79.444 23.9155 79.6498 23.666 79.7893C23.4157 79.9295 23.1459 79.9994 22.8572 79.9994C22.5435 79.9994 22.2636 79.922 22.0164 79.7672C21.7696 79.6123 21.5825 79.4015 21.4552 79.1336C21.328 78.8664 21.2642 78.5832 21.2642 78.2843ZM17.7491 79.9427V76.5363H18.1907V79.5428H19.8273V79.9427H17.7491ZM13.4775 78.8482L13.8913 78.8101C13.9108 78.9813 13.9561 79.1215 14.0286 79.2321C14.1005 79.3416 14.2124 79.4304 14.3633 79.4985C14.5142 79.566 14.6847 79.5998 14.874 79.5998C15.042 79.5998 15.1901 79.5745 15.3188 79.5231C15.447 79.4718 15.5426 79.4012 15.6053 79.3116C15.668 79.2221 15.6998 79.1243 15.6998 79.0198C15.6998 78.9135 15.6698 78.8204 15.6091 78.7405C15.5488 78.6617 15.4488 78.595 15.3093 78.54C15.2205 78.5051 15.0228 78.4494 14.7164 78.3742C14.4107 78.2989 14.1967 78.2283 14.0743 78.1619C13.9157 78.0759 13.7979 77.9696 13.7201 77.8437C13.6421 77.7178 13.6034 77.5758 13.6034 77.4196C13.6034 77.2469 13.6515 77.0857 13.7466 76.9366C13.8418 76.7867 13.9805 76.6733 14.1646 76.5959C14.3473 76.5178 14.5512 76.4792 14.775 76.4792C15.0218 76.4792 15.2393 76.5195 15.4275 76.6016C15.6161 76.6822 15.7608 76.8021 15.8622 76.9608C15.964 77.1181 16.018 77.2976 16.026 77.4973L15.6028 77.5309C15.5805 77.3161 15.5035 77.1531 15.3728 77.0439C15.2417 76.9337 15.0482 76.8788 14.7924 76.8788C14.5257 76.8788 14.3316 76.9291 14.2099 77.0286C14.0883 77.1285 14.0269 77.249 14.0269 77.3903C14.0269 77.5123 14.0701 77.6133 14.1559 77.6925C14.2416 77.7713 14.4623 77.853 14.8203 77.9354C15.1783 78.0185 15.4237 78.0909 15.5572 78.1526C15.75 78.2436 15.8932 78.3588 15.9856 78.499C16.078 78.6388 16.1236 78.7994 16.1236 78.982C16.1236 79.1636 16.0731 79.3334 15.9717 79.4939C15.8702 79.6541 15.7256 79.7786 15.5352 79.8674C15.3456 79.9562 15.1323 80.0001 14.8945 80.0001C14.5941 80.0001 14.342 79.9551 14.1392 79.8656C13.9352 79.7761 13.7763 79.6412 13.6609 79.4604C13.5438 79.2795 13.4835 79.0758 13.4775 78.8482Z" fill="#FF0600"/>
</svg>
