<svg width="17" height="16" viewBox="0 0 17 16" fill="none" xmlns="http://www.w3.org/2000/svg">
<g clip-path="url(#clip0_2271_9124)">
<path d="M6.49768 2.25H0.472656C0.213745 2.25 0.00390625 2.45984 0.00390625 2.71875V8.74377C0.00390625 9.00269 0.213745 9.21252 0.472656 9.21252H3.01636V13.2626C3.01636 13.5214 3.2262 13.7313 3.48511 13.7313H4.99146C5.19324 13.7313 5.37231 13.6022 5.43604 13.4108L6.94226 8.89197C6.95825 8.84424 6.96643 8.79419 6.96643 8.74377V2.71875C6.96643 2.45984 6.75659 2.25 6.49768 2.25Z" fill="white"/>
<path d="M15.5348 2.25H9.50977C9.25085 2.25 9.04102 2.45984 9.04102 2.71875V8.74377C9.04102 9.00269 9.25085 9.21252 9.50977 9.21252H12.0536V13.2626C12.0536 13.5214 12.2634 13.7313 12.5223 13.7313H14.0286C14.2303 13.7313 14.4094 13.6022 14.4733 13.4108L15.9795 8.89197C15.9954 8.84424 16.0035 8.79419 16.0035 8.74377V2.71875C16.0035 2.45984 15.7937 2.25 15.5348 2.25Z" fill="white"/>
</g>
<defs>
<clipPath id="clip0_2271_9124">
<rect width="16" height="16" fill="white" transform="translate(0.00390625)"/>
</clipPath>
</defs>
</svg>
