<svg width="98" height="80" viewBox="0 0 98 80" fill="none" xmlns="http://www.w3.org/2000/svg">
<path fill-rule="evenodd" clip-rule="evenodd" d="M43.2381 28.985C41.7325 27.9698 40.2131 27.9613 36.8459 28.1341C27.8499 28.5948 18.5871 14.9208 20.1084 7.05928C20.5695 4.67547 22.2342 2.93976 24.6563 2.45407C32.4613 0.889241 46.0854 10.227 45.627 19.2955C45.4603 22.5956 45.4637 24.1323 46.3951 25.6102C45.7203 26.6408 44.9036 27.384 44.1439 28.1045L43.2381 28.985ZM69.1333 51.7955C67.9805 53.0498 65.7099 53.1903 63.5967 50.721L46.7357 32.4603L47.6637 31.4504C48.3247 30.6942 49.0137 29.9218 49.9573 29.281L68.0658 46.2224C70.5185 48.3495 70.3789 50.6356 69.1333 51.7955Z" fill="#FF0600"/>
<path fill-rule="evenodd" clip-rule="evenodd" d="M68.0337 0.628176L52.1106 14.7921C48.8841 17.3006 50.3171 19.5536 49.7635 22.744C49.219 25.8879 47.6259 27.2927 46.225 28.6216L27.8595 46.479C23.6462 50.1663 28.4682 55.4881 32.3546 50.8987L49.7444 31.9675C51.0325 30.4947 52.4245 28.961 55.6021 28.4561C58.6975 27.9646 60.9055 29.317 63.3608 26.1173L77.4319 10.0888C79.2063 7.75343 76.6802 6.95062 76.2222 7.44093L60.1098 23.6596C59.5673 24.2053 58.7342 24.2604 58.259 23.7816H58.2586C57.7826 23.3025 57.8372 22.4642 58.3798 21.9181L74.1396 6.05429C75.4564 4.72884 73.4407 2.53438 72.028 3.95643L56.2819 19.806C55.7394 20.3517 54.9063 20.4068 54.4306 19.928H54.4303C53.9546 19.4489 54.0093 18.6107 54.5518 18.0645L70.6642 1.84587C71.1513 1.38519 70.3537 -1.15795 68.0337 0.628176Z" fill="#FF0600"/>
<path fill-rule="evenodd" clip-rule="evenodd" d="M93.0699 72.5743C93.0699 72.7501 93.0516 72.8818 92.9235 72.9841L92.3737 73.409C92.3187 73.4529 92.2456 73.4968 92.2456 73.5406C92.2456 73.5845 92.2636 73.6284 92.3554 73.6284H95.1946C95.2863 73.6284 95.3047 73.5845 95.3047 73.5406C95.3047 73.4968 95.2313 73.4525 95.1766 73.409L94.6268 72.9841C94.4987 72.8818 94.4804 72.7501 94.4804 72.5743V63.3496H95.1583C95.2684 63.3496 95.323 63.4227 95.3598 63.5109L96.3125 66.4246C96.3305 66.4831 96.3856 66.5127 96.459 66.5127C96.5324 66.5127 96.5507 66.4835 96.5507 66.41V62.7053C96.5507 62.6761 96.514 62.6469 96.459 62.6469H91.0918C91.0367 62.6469 91 62.6761 91 62.7053V66.41C91 66.4831 91.0183 66.5127 91.0918 66.5127C91.1648 66.5127 91.2198 66.4835 91.2382 66.4246L92.191 63.5109C92.2277 63.4227 92.2823 63.3496 92.3924 63.3496H93.0703V72.5743H93.0699ZM81.2742 72.5743C81.2742 72.7501 81.2191 72.8671 81.1094 72.9841L80.6513 73.409C80.6146 73.4529 80.5233 73.4968 80.5233 73.5553C80.5233 73.5845 80.56 73.6284 80.633 73.6284H83.0513C83.1243 73.6284 83.161 73.5845 83.161 73.5553C83.161 73.4968 83.0876 73.4525 83.0329 73.409L82.5382 72.9695C82.4101 72.8672 82.355 72.7501 82.355 72.5743V65.2824H82.3917L84.5351 73.2624C84.5898 73.4818 84.7366 73.6284 84.9014 73.6284H85.6706C85.7991 73.6284 85.8538 73.5699 85.8538 73.4675V63.701C85.8538 63.5251 85.9088 63.4081 86.0185 63.2911L86.4766 62.8662C86.5313 62.8224 86.6047 62.7785 86.6047 62.72C86.6047 62.6907 86.568 62.6469 86.4949 62.6469H84.0767C84.0033 62.6469 83.9669 62.6907 83.9669 62.72C83.9669 62.7785 84.0583 62.8224 84.095 62.8662L84.6081 63.3057C84.7366 63.4081 84.7729 63.5255 84.7729 63.701V69.1917H84.7362L83.0509 62.8955C83.0142 62.7492 82.9591 62.6465 82.831 62.6465H80.633C80.56 62.6465 80.5233 62.6904 80.5233 62.7196C80.5233 62.7781 80.6146 62.822 80.6513 62.8658L81.1094 63.2907C81.2191 63.4077 81.2742 63.5251 81.2742 63.7006V72.5743ZM72.4457 70.2755C72.409 70.2755 72.3723 70.2463 72.3906 70.1878L72.9951 66.5859H73.0318L73.673 70.1731C73.6913 70.2316 73.6546 70.2755 73.5996 70.2755H72.4457ZM74.131 72.7209C74.1493 72.8529 74.1127 72.9553 74.0396 73.0138L73.5449 73.409C73.4898 73.4529 73.4168 73.4968 73.4168 73.5406C73.4168 73.5845 73.4535 73.6284 73.5449 73.6284H76.1826C76.2744 73.6284 76.3107 73.5845 76.3107 73.5406C76.3107 73.4968 76.256 73.4525 76.201 73.409L75.6699 73.0284C75.5414 72.9406 75.4868 72.7794 75.4684 72.6331L73.728 62.8081C73.7097 62.7204 73.6546 62.6469 73.5632 62.6469H72.8857C72.794 62.6469 72.7573 62.7054 72.7389 62.7789L71.0719 72.6185C71.0536 72.7505 71.0352 72.8968 70.9255 72.9845L70.4124 73.3944C70.3574 73.4383 70.2843 73.4968 70.2843 73.5406C70.2843 73.5845 70.321 73.6284 70.3944 73.6284H72.5011C72.5925 73.6284 72.6292 73.5845 72.6292 73.5406C72.6292 73.4968 72.5191 73.4383 72.4461 73.3648L72.0431 73.028C71.97 72.9549 71.9333 72.8671 71.9513 72.7644L72.2262 71.1538C72.2446 71.0953 72.2809 71.051 72.3359 71.051H73.6917C73.7831 71.051 73.8381 71.1095 73.8565 71.183L74.131 72.7209ZM62.5367 63.3793H62.8116C63.7093 63.3793 64.0756 63.8622 64.0756 65.3559C64.0756 67.1131 63.7093 67.6839 62.8116 67.6839H62.5367V63.3793ZM62.5367 68.4159H62.8479C63.4891 68.4159 63.9838 68.8993 63.9838 69.5435V72.6916C63.9838 73.1896 64.3134 73.6288 65.1561 73.6288H66.1085C66.2002 73.6288 66.2916 73.6288 66.2916 73.5849C66.2916 73.541 66.2186 73.4821 66.1452 73.424L65.5591 72.926C65.4673 72.8529 65.3943 72.7652 65.3943 72.6624V69.602C65.3943 68.7965 64.8445 68.2254 64.2217 67.9621C64.8628 67.64 65.5774 66.9811 65.5774 65.3559C65.5774 63.4524 64.5883 62.6469 62.6831 62.6469H60.3933C60.3203 62.6469 60.2836 62.6907 60.2836 62.735C60.2836 62.7789 60.3754 62.8227 60.4117 62.8666L60.9615 63.2915C61.0896 63.3939 61.1267 63.5259 61.1267 63.7014V72.5747C61.1267 72.7505 61.09 72.8822 60.9615 72.9845L60.4117 73.4094C60.3754 73.4533 60.2836 73.4972 60.2836 73.541C60.2836 73.5849 60.3203 73.6288 60.3933 73.6288H63.2696C63.343 73.6288 63.3798 73.5849 63.3798 73.541C63.3798 73.4972 63.288 73.4529 63.2513 73.4094L62.7019 72.9845C62.5734 72.8822 62.5367 72.7505 62.5367 72.5747V68.4159ZM50.9057 72.0474C50.9057 72.9553 51.6566 73.6288 53.1038 73.6288C54.3494 73.6288 55.2288 72.9553 55.2288 72.0474V63.7014C55.2288 63.5255 55.2838 63.3792 55.3752 63.2915L55.943 62.8666C55.9976 62.8227 56.0347 62.7789 56.0347 62.735C56.0347 62.6911 55.998 62.6469 55.9246 62.6469H53.415C53.3416 62.6469 53.3049 62.6907 53.3049 62.735C53.3049 62.7789 53.3416 62.8227 53.3966 62.8666L53.9644 63.2915C54.0745 63.3796 54.1108 63.5259 54.1108 63.7014V71.6668C54.1108 72.311 53.9277 72.8968 53.2502 72.8968C52.3888 72.8968 52.3158 72.311 52.3158 71.6668V63.7014C52.3158 63.5255 52.3708 63.3792 52.4626 63.2915L53.0303 62.8666C53.0854 62.8227 53.1217 62.7789 53.1217 62.735C53.1217 62.6911 53.085 62.6469 53.012 62.6469H50.2091C50.1361 62.6469 50.0994 62.6907 50.0994 62.735C50.0994 62.7789 50.1361 62.8227 50.1907 62.8666L50.7585 63.2915C50.8686 63.3796 50.9053 63.5259 50.9053 63.7014V72.0474H50.9057ZM42.7551 70.2755C42.7184 70.2755 42.6817 70.2463 42.7 70.1878L43.3045 66.5859H43.3412L43.9824 70.1731C44.0007 70.2316 43.964 70.2755 43.909 70.2755H42.7551ZM44.4404 72.7209C44.4588 72.8529 44.4225 72.9553 44.3491 73.0138L43.8543 73.409C43.7993 73.4529 43.7262 73.4968 43.7262 73.5406C43.7262 73.5845 43.7629 73.6284 43.8543 73.6284H46.492C46.5838 73.6284 46.6201 73.5845 46.6201 73.5406C46.6201 73.4968 46.5651 73.4525 46.51 73.409L45.9789 73.0284C45.8509 72.9406 45.7958 72.7794 45.7775 72.6331L44.0374 62.8081C44.0191 62.7204 43.9644 62.6469 43.8727 62.6469H43.1948C43.103 62.6469 43.0663 62.7054 43.0484 62.7789L41.3814 72.6185C41.363 72.7505 41.3447 72.8968 41.2349 72.9845L40.7222 73.3944C40.6672 73.4383 40.5941 73.4968 40.5941 73.5406C40.5941 73.5845 40.6308 73.6284 40.7043 73.6284H42.8109C42.9023 73.6284 42.939 73.5845 42.939 73.5406C42.939 73.4968 42.8289 73.4383 42.7559 73.3648L42.3529 73.028C42.2799 72.9549 42.2432 72.8671 42.2615 72.7644L42.5364 71.1538C42.5548 71.0953 42.5915 71.051 42.6465 71.051H44.0019C44.0933 71.051 44.1483 71.1095 44.1667 71.183L44.4404 72.7209ZM33.4873 72.5743C33.4873 72.7501 33.469 72.8818 33.3409 72.9841L32.7911 73.409C32.736 73.4529 32.663 73.4968 32.663 73.5406C32.663 73.5845 32.681 73.6284 32.7727 73.6284H35.6123C35.7037 73.6284 35.7221 73.5845 35.7221 73.5406C35.7221 73.4968 35.6486 73.4525 35.594 73.409L35.0442 72.9841C34.9157 72.8818 34.8974 72.7501 34.8974 72.5743V63.3496H35.5752C35.6854 63.3496 35.74 63.4227 35.7767 63.5109L36.7295 66.4246C36.7475 66.4831 36.8025 66.5127 36.8759 66.5127C36.9494 66.5127 36.9673 66.4835 36.9673 66.41V62.7053C36.9673 62.6761 36.931 62.6469 36.8759 62.6469H31.5087C31.4537 62.6469 31.417 62.6761 31.417 62.7053V66.41C31.417 66.4831 31.4353 66.5127 31.5087 66.5127C31.5818 66.5127 31.6368 66.4835 31.6552 66.4246L32.6079 63.5109C32.6446 63.4227 32.6997 63.3496 32.8094 63.3496H33.4873V72.5743ZM26.5089 62.8077C26.5089 62.72 26.4722 62.6465 26.3809 62.6465C26.2707 62.6465 26.161 62.7196 25.9962 62.837C25.8311 62.969 25.6479 63.0713 25.5749 63.0713C25.5019 63.0713 25.3918 63.0275 25.3 62.9836C25.0251 62.8077 24.6225 62.6469 24.2742 62.6469C23.3401 62.6469 22.5889 63.0864 22.5889 64.4772C22.5889 65.546 22.9551 66.659 23.9446 68.3281C24.9888 70.085 25.5386 71.1541 25.5386 72.1351C25.5386 72.5889 25.3551 72.8968 25.0071 72.8968C23.9263 72.8968 23.3585 71.0371 23.0289 69.866C23.0106 69.8221 22.9739 69.7633 22.9188 69.7633C22.8454 69.7633 22.8274 69.8218 22.8274 69.866V73.5556C22.8274 73.5995 22.8454 73.6288 22.9188 73.6288C22.9918 73.6288 23.0653 73.5703 23.1387 73.5264C23.5053 73.3066 23.6518 73.2043 23.7252 73.2043C23.7798 73.2043 23.8899 73.2482 24.0914 73.3505C24.3113 73.4679 24.6229 73.6288 25.1172 73.6288C25.7951 73.6288 26.8026 73.1604 26.8026 71.6083C26.8026 70.4514 26.6561 69.9684 25.3738 67.8013C24.018 65.5021 23.7798 64.7851 23.7798 64.0674C23.7798 63.6867 23.8165 63.3793 24.2746 63.3793C25.1172 63.3793 25.9966 65.2239 26.2895 66.41C26.3078 66.4685 26.3445 66.5127 26.3996 66.5127C26.473 66.5127 26.5097 66.4835 26.5097 66.4396V62.8077H26.5089ZM15.0064 63.3793H16.0506C16.2888 63.3793 16.4535 63.467 16.5269 63.6575L17.516 66.41C17.5344 66.4685 17.5891 66.5127 17.6625 66.5127C17.7175 66.5127 17.7542 66.4835 17.7542 66.4246V62.7789C17.7542 62.7054 17.6812 62.6469 17.6078 62.6469H12.8634C12.7904 62.6469 12.7537 62.6907 12.7537 62.735C12.7537 62.7789 12.8451 62.8227 12.8818 62.8666L13.4316 63.2915C13.5597 63.3939 13.5964 63.5259 13.5964 63.7014V72.5747C13.5964 72.7505 13.5597 72.8822 13.4316 72.9845L12.8818 73.4094C12.8451 73.4679 12.7537 73.4972 12.7537 73.541C12.7537 73.5849 12.7904 73.6288 12.8634 73.6288H17.6078C17.6996 73.6288 17.7542 73.5703 17.7542 73.4972V69.8221C17.7542 69.7783 17.7175 69.734 17.6625 69.734C17.6078 69.734 17.5527 69.7633 17.5344 69.8221L16.5453 72.6335C16.4719 72.809 16.2888 72.8972 16.0506 72.8972H15.0064V68.4459H15.4094C15.5011 68.4459 15.5742 68.4752 15.6109 68.5487L16.2337 69.6174C16.2704 69.6759 16.2888 69.7198 16.3618 69.7198C16.4168 69.7198 16.4352 69.6905 16.4352 69.6466V66.5428C16.4352 66.4843 16.4168 66.4546 16.3618 66.4546C16.3067 66.4546 16.2884 66.4839 16.2517 66.5428L15.6105 67.5677C15.5738 67.6408 15.5004 67.6704 15.409 67.6704H15.006L15.0064 63.3793ZM4.82254 63.3793H5.09744C5.99516 63.3793 6.36144 63.8622 6.36144 65.3559C6.36144 67.1131 5.99516 67.6839 5.09744 67.6839H4.82254V63.3793ZM4.82254 68.4159H5.13376C5.77493 68.4159 6.26967 68.8993 6.26967 69.5435V72.6916C6.26967 73.1896 6.59925 73.6288 7.44191 73.6288H8.39469C8.48607 73.6288 8.57783 73.6288 8.57783 73.5849C8.57783 73.541 8.5048 73.4821 8.43139 73.424L7.84528 72.926C7.7539 72.8529 7.68049 72.7652 7.68049 72.6624V69.602C7.68049 68.7965 7.13069 68.2254 6.50825 67.9621C7.14943 67.64 7.86363 66.9811 7.86363 65.3559C7.86363 63.4524 6.87453 62.6469 4.96935 62.6469H2.67955C2.60653 62.6469 2.56982 62.6907 2.56982 62.735C2.56982 62.7789 2.6612 62.8227 2.69791 62.8666L3.2477 63.2915C3.37617 63.3939 3.41249 63.5259 3.41249 63.7014V72.5747C3.41249 72.7505 3.37578 72.8822 3.2477 72.9845L2.69791 73.4094C2.6612 73.4533 2.56982 73.4972 2.56982 73.541C2.56982 73.5849 2.60653 73.6288 2.67955 73.6288H5.55547C5.62888 73.6288 5.66559 73.5849 5.66559 73.541C5.66559 73.4972 5.57382 73.4529 5.53712 73.4094L4.98771 72.9845C4.85924 72.8822 4.82292 72.7505 4.82292 72.5747L4.82254 68.4159Z" fill="#FF0600"/>
<path d="M98 58.4688H0V59.5771H98V58.4688Z" fill="#FF0600"/>
<path fill-rule="evenodd" clip-rule="evenodd" d="M86.0712 78.0449H98V79.1533H86.0712V78.0449ZM0 78.0449H11.9288V79.1533H0V78.0449Z" fill="#FF0600"/>
<path fill-rule="evenodd" clip-rule="evenodd" d="M80.6164 77.2477V77.8662H80.4964C80.4417 77.7049 80.3779 77.5975 80.3064 77.5437C80.2341 77.489 80.1336 77.4621 80.0059 77.4621H79.1873V78.4077H79.8961C80.0231 78.4077 80.1137 78.3815 80.1668 78.3284C80.2203 78.2753 80.2471 78.1791 80.2471 78.0401H80.3794V79.0104H80.2471C80.2471 78.8587 80.2223 78.7556 80.1733 78.7025C80.1248 78.6493 80.0315 78.6224 79.8957 78.6224H79.1869V79.4506C79.1869 79.5268 79.1922 79.5826 79.2022 79.6177C79.2129 79.6519 79.2335 79.6762 79.2645 79.69C79.2955 79.7027 79.3448 79.7096 79.4132 79.7096H80.0135C80.15 79.7096 80.2624 79.69 80.3507 79.6511C80.439 79.6127 80.514 79.5542 80.5763 79.4768C80.6386 79.3987 80.7028 79.2909 80.7694 79.152H80.8971L80.6738 79.9236H78.2398V79.7947C78.3496 79.7947 78.4326 79.7839 78.4884 79.7627C78.545 79.742 78.5843 79.7023 78.6069 79.6434C78.6298 79.5849 78.6409 79.4976 78.6409 79.3802V77.788C78.6409 77.6722 78.6294 77.5848 78.6073 77.526C78.5851 77.4667 78.5465 77.4263 78.4903 77.4055C78.4341 77.3843 78.3504 77.3739 78.2395 77.3739V77.2485H80.6164V77.2477ZM74.6784 78.525H74.9996C75.1938 78.525 75.3441 78.4723 75.4503 78.3673C75.557 78.2622 75.6098 78.1309 75.6098 77.9747C75.6098 77.8931 75.5956 77.8211 75.5677 77.758C75.5398 77.6945 75.4993 77.6406 75.4473 77.5952C75.3949 77.5498 75.3322 77.5152 75.2584 77.4909C75.185 77.4667 75.1013 77.4544 75.0068 77.4544C74.8677 77.4544 74.7583 77.4717 74.6784 77.5075V78.525ZM75.541 78.6601L76.3358 79.6046C76.3894 79.6673 76.449 79.7131 76.5148 79.7404C76.5794 79.7681 76.6685 79.7855 76.7824 79.7939V79.9228H75.9393L74.9392 78.7309H74.6788V79.3794C74.6788 79.4968 74.6914 79.5842 74.7163 79.6427C74.7407 79.7012 74.7832 79.7412 74.844 79.762C74.9044 79.7832 74.9977 79.7939 75.1242 79.7939V79.9228H73.695V79.7939C73.8216 79.7939 73.9145 79.7831 73.9734 79.7612C74.033 79.7389 74.0739 79.6992 74.0973 79.6411C74.121 79.5842 74.1328 79.4964 74.1328 79.3791V77.7396C74.1328 77.5975 74.1026 77.5005 74.0418 77.4486C73.9814 77.3966 73.8866 77.3705 73.7574 77.3705C73.7447 77.3705 73.7333 77.3712 73.7245 77.3716C73.7153 77.3724 73.7057 77.3724 73.695 77.3724V77.2469H75.2534C75.3907 77.2469 75.5172 77.2596 75.6331 77.2847C75.7493 77.3093 75.8526 77.3493 75.9428 77.4047C76.0323 77.4602 76.1022 77.5306 76.1508 77.6175C76.1997 77.7045 76.2242 77.808 76.2242 77.9285C76.2242 78.1032 76.1607 78.2579 76.0342 78.3934C75.9076 78.5297 75.7436 78.6186 75.541 78.6601ZM71.9485 77.2477V77.8662H71.8281C71.773 77.7049 71.7096 77.5975 71.6381 77.5437C71.5658 77.489 71.4657 77.4621 71.3376 77.4621H70.5194V78.4077H71.2278C71.3552 78.4077 71.4454 78.3815 71.4989 78.3284C71.5524 78.2753 71.5792 78.1791 71.5792 78.0401H71.7119V79.0104H71.5792C71.5792 78.8587 71.5544 78.7556 71.5054 78.7025C71.4569 78.6493 71.3636 78.6224 71.2278 78.6224H70.5194V79.4506C70.5194 79.5268 70.5247 79.5826 70.5347 79.6177C70.5454 79.6519 70.5664 79.6762 70.597 79.69C70.628 79.7027 70.6769 79.7096 70.7453 79.7096H71.3456C71.4821 79.7096 71.5945 79.69 71.6828 79.6511C71.7708 79.6127 71.8461 79.5542 71.908 79.4768C71.9703 79.3987 72.0346 79.2909 72.1015 79.152H72.2292L72.0055 79.9236H69.5716V79.7947C69.6813 79.7947 69.7643 79.7839 69.8205 79.7627C69.8767 79.742 69.916 79.7023 69.939 79.6434C69.9615 79.5849 69.973 79.4976 69.973 79.3802V77.788C69.973 77.6722 69.9615 77.5848 69.9398 77.526C69.9176 77.4667 69.879 77.4263 69.8228 77.4055C69.7666 77.3843 69.6828 77.3739 69.5719 77.3739V77.2485H71.9485V77.2477ZM65.7891 78.6705V79.3798C65.7891 79.4891 65.8006 79.5738 65.8228 79.633C65.8449 79.6931 65.8836 79.7347 65.939 79.7581C65.9948 79.782 66.0736 79.7939 66.1768 79.7939H66.2628V79.9228H64.7897V79.7939H64.8662C64.9671 79.7939 65.0447 79.7816 65.0983 79.7581C65.1518 79.7347 65.19 79.6931 65.2133 79.633C65.2363 79.573 65.2474 79.4887 65.2474 79.3798V77.7519C65.2474 77.6245 65.2221 77.5298 65.1713 77.4671C65.1197 77.4043 65.0294 77.3732 64.8994 77.3732H64.7897V77.2477H66.2628V77.3732H66.1764C66.0732 77.3732 65.9944 77.3855 65.9386 77.409C65.8832 77.4328 65.8442 77.4744 65.8224 77.5336C65.8002 77.5921 65.7888 77.6764 65.7888 77.7842V78.4281H67.1258V77.7484C67.1258 77.6129 67.0982 77.5167 67.0436 77.4598C66.9881 77.4024 66.904 77.3736 66.7901 77.3736H66.6563V77.2481H68.1298V77.3736H68.0097C67.8828 77.3736 67.7941 77.4032 67.7455 77.4632C67.6966 77.5233 67.6721 77.6303 67.6721 77.7838V79.3802C67.6721 79.4864 67.6836 79.5707 67.7054 79.6315C67.7276 79.6927 67.765 79.7354 67.8186 79.7589C67.8713 79.7828 67.9482 79.7947 68.0495 79.7947H68.1298V79.9236H66.6563V79.7947H66.7465C66.8474 79.7947 66.9247 79.7824 66.9786 79.7589C67.0321 79.7354 67.0703 79.6939 67.0921 79.6338C67.1143 79.5746 67.1254 79.4895 67.1254 79.3806V78.6713H65.7891V78.6705ZM59.169 79.0661H59.2933C59.3506 79.2124 59.4271 79.3409 59.5208 79.4514C59.6152 79.5626 59.7196 79.6469 59.8331 79.7054C59.9467 79.7639 60.0652 79.7935 60.1883 79.7935C60.2774 79.7935 60.3562 79.7766 60.4254 79.742C60.4934 79.7077 60.5469 79.6608 60.5852 79.6015C60.6234 79.5422 60.6421 79.4757 60.6421 79.4002C60.6421 79.2801 60.5951 79.1732 60.5011 79.0785C60.459 79.0338 60.3986 78.9884 60.3194 78.9415C60.2403 78.8945 60.1187 78.8256 59.9555 78.7348C59.7922 78.6444 59.6702 78.5735 59.5915 78.5239C59.5127 78.4742 59.4424 78.4196 59.3808 78.3615C59.2451 78.2248 59.1767 78.0659 59.1767 77.8839C59.1767 77.7877 59.1973 77.6972 59.2397 77.6125C59.281 77.5275 59.3388 77.4552 59.4118 77.3936C59.4848 77.3324 59.572 77.2847 59.6722 77.2504C59.7727 77.2162 59.8801 77.1992 59.9968 77.1992C60.082 77.1992 60.157 77.2054 60.2231 77.2173C60.2885 77.2289 60.3585 77.2462 60.4311 77.2685C60.5037 77.2912 60.5634 77.3081 60.6089 77.3197C60.6544 77.3312 60.6903 77.3366 60.7167 77.3366C60.7882 77.3366 60.8371 77.2908 60.8631 77.1992H60.9954V78.0721H60.8712C60.8161 77.9347 60.7461 77.815 60.659 77.7118C60.5726 77.6087 60.477 77.5294 60.3718 77.4732C60.2675 77.4174 60.1596 77.3889 60.0495 77.3889C59.931 77.3889 59.8358 77.4186 59.7651 77.4771C59.6943 77.536 59.6588 77.6133 59.6588 77.7111C59.6588 77.8003 59.6951 77.8812 59.7666 77.9539C59.8067 77.9916 59.8855 78.0428 60.0036 78.1067C60.1206 78.1706 60.233 78.2306 60.3401 78.2864C60.4472 78.3422 60.5538 78.4023 60.6593 78.4669C60.7649 78.5316 60.8505 78.5963 60.9155 78.6624C61.0057 78.7533 61.0688 78.8456 61.1055 78.9399C61.1422 79.0342 61.1606 79.1347 61.1606 79.2409C61.1606 79.3817 61.1231 79.5103 61.0486 79.6269C60.9744 79.7435 60.8708 79.8351 60.7389 79.9001C60.607 79.9659 60.4624 79.999 60.3053 79.999C60.1983 79.999 60.1019 79.9875 60.0163 79.9652C59.9306 79.9429 59.8335 79.9136 59.7253 79.8767C59.6167 79.8401 59.5437 79.8213 59.507 79.8213C59.4546 79.8213 59.4095 79.8374 59.3697 79.8694C59.3307 79.9021 59.3055 79.9436 59.2933 79.9948H59.169V79.0661ZM57.286 77.2477V77.8662H57.1656C57.1109 77.7049 57.047 77.5975 56.9756 77.5437C56.9033 77.489 56.8027 77.4621 56.675 77.4621H55.8568V78.4077H56.5653C56.6922 78.4077 56.7829 78.3815 56.8364 78.3284C56.8899 78.2753 56.9167 78.1791 56.9167 78.0401H57.049V79.0104H56.9167C56.9167 78.8587 56.8918 78.7556 56.8429 78.7025C56.7943 78.6493 56.701 78.6224 56.5653 78.6224H55.8568V79.4506C55.8568 79.5268 55.8622 79.5826 55.8721 79.6177C55.8828 79.6519 55.9039 79.6762 55.9345 79.69C55.9654 79.7027 56.0147 79.7096 56.0832 79.7096H56.6835C56.8199 79.7096 56.9323 79.69 57.0207 79.6511C57.109 79.6127 57.1839 79.5542 57.2462 79.4768C57.3086 79.3987 57.3728 79.2909 57.4393 79.152H57.567L57.3437 79.9236H54.9098V79.7947C55.0195 79.7947 55.1025 79.7839 55.1583 79.7627C55.2145 79.742 55.2539 79.7023 55.2768 79.6434C55.2998 79.5849 55.3109 79.4976 55.3109 79.3802V77.788C55.3109 77.6722 55.2994 77.5848 55.2772 77.526C55.255 77.4667 55.2164 77.4263 55.1602 77.4055C55.104 77.3843 55.0203 77.3739 54.9094 77.3739V77.2485H57.286V77.2477ZM51.0505 78.5997C51.0505 78.7918 51.0692 78.9611 51.1075 79.1089C51.1449 79.2563 51.2019 79.3837 51.2769 79.4899C51.3518 79.5965 51.4428 79.6765 51.5483 79.73C51.6546 79.7831 51.7773 79.8101 51.9157 79.8101C52.0557 79.8101 52.178 79.7831 52.2835 79.73C52.3891 79.6765 52.4797 79.598 52.5539 79.4941C52.628 79.3902 52.6842 79.2632 52.7232 79.1131C52.7615 78.9626 52.7806 78.7917 52.7806 78.6001C52.7806 78.3445 52.7473 78.1267 52.6796 77.9466C52.6127 77.7661 52.5137 77.6279 52.3826 77.5333C52.2514 77.4374 52.0954 77.3897 51.9154 77.3897C51.7326 77.3897 51.5762 77.4378 51.4462 77.5333C51.3162 77.6283 51.218 77.7661 51.1511 77.9466C51.0842 78.1263 51.0505 78.3442 51.0505 78.5997ZM50.4365 78.6001C50.4365 78.3449 50.5019 78.1098 50.6334 77.895C50.7645 77.6795 50.9438 77.5098 51.1698 77.3859C51.3965 77.2612 51.6454 77.1996 51.9173 77.1996C52.1883 77.1996 52.438 77.2616 52.664 77.3859C52.8907 77.5098 53.0696 77.6795 53.2011 77.895C53.3331 78.1098 53.3992 78.3449 53.3992 78.6001C53.3992 78.8556 53.3331 79.0904 53.2011 79.3055C53.0692 79.5195 52.8907 79.6896 52.664 79.8132C52.438 79.9379 52.1883 79.9998 51.9173 79.9998C51.6458 79.9998 51.3969 79.9379 51.1698 79.8132C50.9438 79.6892 50.7641 79.5195 50.6334 79.3055C50.5019 79.0904 50.4365 78.8556 50.4365 78.6001ZM48.2958 77.2034H48.4204L48.4724 78.1167H48.344C48.2797 77.9505 48.1918 77.8123 48.0809 77.703C47.97 77.5948 47.8473 77.5144 47.7131 77.4648C47.5793 77.4144 47.4428 77.3893 47.3044 77.3893C47.1564 77.3893 47.0199 77.4163 46.8942 77.4694C46.7684 77.5229 46.6579 77.6006 46.5615 77.7045C46.4652 77.8077 46.391 77.932 46.3386 78.0775C46.2866 78.2229 46.2602 78.3838 46.2602 78.5597C46.2602 78.7471 46.2889 78.9176 46.3467 79.0715C46.404 79.2251 46.4858 79.3579 46.5913 79.4683C46.6973 79.5788 46.8204 79.6635 46.9607 79.7223C47.101 79.7808 47.2516 79.8101 47.413 79.8101C47.5269 79.8101 47.6378 79.7947 47.7464 79.7635C47.855 79.7331 47.9456 79.6912 48.0186 79.6388V79.065C48.0186 78.9465 48.0037 78.8568 47.9743 78.7956C47.9448 78.734 47.902 78.6944 47.8458 78.6771C47.7903 78.659 47.7101 78.6501 47.6049 78.6501V78.5247H48.9018V78.6501C48.7664 78.654 48.6755 78.6871 48.6296 78.7498C48.5833 78.8125 48.5608 78.9176 48.5608 79.065V79.6942C48.4759 79.7493 48.3646 79.8005 48.2274 79.8478C48.0901 79.8955 47.9429 79.9325 47.785 79.9598C47.6271 79.9867 47.4749 80.0002 47.3308 80.0002C47.0234 80.0002 46.7412 79.9475 46.4831 79.8424C46.2255 79.7366 46.0213 79.5796 45.8714 79.3702C45.7208 79.1616 45.6458 78.9107 45.6458 78.6205C45.6458 78.4192 45.6867 78.2318 45.7682 78.0586C45.85 77.8858 45.9636 77.7349 46.11 77.606C46.2564 77.4767 46.4246 77.377 46.6147 77.3058C46.8047 77.235 47.0073 77.1996 47.2214 77.1996C47.3858 77.1996 47.6214 77.2427 47.9284 77.3293C47.9792 77.3501 48.037 77.3609 48.1012 77.3609C48.1922 77.3609 48.2564 77.3085 48.2958 77.2034ZM40.8426 77.2477H41.9869V77.3732H41.8611C41.7762 77.3732 41.7101 77.3866 41.6631 77.4136C41.6156 77.4405 41.5812 77.4852 41.5606 77.5456C41.5399 77.6068 41.5289 77.6876 41.5289 77.7873V79.9471H41.452L39.3729 77.8519V79.3794C39.3729 79.4887 39.3843 79.5734 39.4065 79.6327C39.4287 79.6927 39.4665 79.7343 39.5208 79.7577C39.5744 79.7816 39.6512 79.7935 39.751 79.7935H39.8707V79.9225H38.6866V79.7935H38.8372C38.9523 79.7935 39.0372 79.765 39.0915 79.7077C39.1458 79.6504 39.1725 79.5565 39.1725 79.4241V77.6568C39.1083 77.5725 39.0345 77.5059 38.9504 77.4574C38.8663 77.409 38.7783 77.3805 38.687 77.3724V77.2469H39.538L41.3285 79.0723V77.7434C41.3285 77.6145 41.3033 77.5206 41.252 77.4613C41.2012 77.402 41.1163 77.3724 40.997 77.3724H40.8426V77.2477ZM35.9754 78.9934L35.4463 77.9347L34.9607 78.9934H35.9754ZM34.8667 79.2078L34.7906 79.3713C34.7432 79.471 34.7195 79.5411 34.7195 79.5815C34.7195 79.7189 34.8292 79.7897 35.0487 79.7939V79.9228H34.0932V79.7939C34.1869 79.7912 34.2706 79.7566 34.3436 79.6912C34.4167 79.6254 34.4874 79.5184 34.5551 79.3698L35.5514 77.1992H35.6658L36.8521 79.5699C36.8823 79.6284 36.9133 79.6738 36.9447 79.7042C36.976 79.7354 37.0116 79.7566 37.0517 79.7693C37.0915 79.7816 37.1454 79.7897 37.2138 79.7939V79.9228H36.0045V79.7939C36.1123 79.7924 36.1865 79.7816 36.2259 79.7612C36.2656 79.7412 36.2855 79.7058 36.2855 79.6561C36.2855 79.6042 36.261 79.5311 36.2125 79.4379L36.0886 79.2074H34.8667V79.2078ZM32.029 77.2034H32.1536L32.2056 78.1167H32.0772C32.0129 77.9505 31.9254 77.8123 31.8141 77.703C31.7032 77.5948 31.5805 77.5144 31.4463 77.4648C31.3125 77.4144 31.176 77.3893 31.0376 77.3893C30.8896 77.3893 30.7531 77.4163 30.6273 77.4694C30.5016 77.5229 30.3911 77.6006 30.2947 77.7045C30.1984 77.8077 30.1242 77.932 30.0722 78.0775C30.0202 78.2229 29.9938 78.3838 29.9938 78.5597C29.9938 78.7471 30.0225 78.9176 30.0802 79.0715C30.1376 79.2251 30.2194 79.3579 30.3253 79.4683C30.4312 79.5788 30.5539 79.6635 30.6946 79.7223C30.8353 79.7808 30.9856 79.8101 31.1469 79.8101C31.2605 79.8101 31.3718 79.7947 31.4803 79.7635C31.5889 79.7331 31.6795 79.6912 31.7526 79.6388V79.065C31.7526 78.9465 31.7376 78.8568 31.7082 78.7956C31.6788 78.734 31.6359 78.6944 31.5797 78.6771C31.5239 78.659 31.444 78.6501 31.3389 78.6501V78.5247H32.6358V78.6501C32.5004 78.654 32.4094 78.6871 32.3635 78.7498C32.3173 78.8125 32.2947 78.9176 32.2947 79.065V79.6942C32.2095 79.7493 32.0986 79.8005 31.9613 79.8478C31.8241 79.8955 31.6769 79.9325 31.519 79.9598C31.361 79.9867 31.2089 80.0002 31.0644 80.0002C30.7573 80.0002 30.4748 79.9475 30.2167 79.8424C29.959 79.7366 29.7549 79.5796 29.605 79.3702C29.4547 79.1616 29.3798 78.9107 29.3798 78.6205C29.3798 78.4192 29.4203 78.2318 29.5021 78.0586C29.584 77.8858 29.6975 77.7349 29.8443 77.606C29.9908 77.4767 30.1586 77.377 30.3486 77.3058C30.5386 77.235 30.7413 77.1996 30.9554 77.1996C31.1198 77.1996 31.3557 77.2427 31.6627 77.3293C31.7136 77.3501 31.7713 77.3609 31.8355 77.3609C31.925 77.3609 31.9896 77.3085 32.029 77.2034ZM25.4161 78.5997C25.4161 78.7918 25.4349 78.9611 25.4727 79.1089C25.5102 79.2563 25.5671 79.3837 25.6421 79.4899C25.717 79.5965 25.808 79.6765 25.9139 79.73C26.0202 79.7831 26.1429 79.8101 26.2813 79.8101C26.4213 79.8101 26.5436 79.7831 26.6492 79.73C26.7547 79.6765 26.8453 79.598 26.9195 79.4941C26.9936 79.3902 27.0498 79.2632 27.0888 79.1131C27.1271 78.9626 27.1462 78.7917 27.1462 78.6001C27.1462 78.3445 27.1129 78.1267 27.0453 77.9466C26.9783 77.7661 26.8793 77.6279 26.7482 77.5333C26.617 77.4374 26.461 77.3897 26.281 77.3897C26.0982 77.3897 25.9418 77.4378 25.8118 77.5333C25.6819 77.6283 25.5836 77.7661 25.5167 77.9466C25.4498 78.1263 25.4161 78.3442 25.4161 78.5997ZM24.8021 78.6001C24.8021 78.3449 24.8675 78.1098 24.999 77.895C25.1301 77.6795 25.3095 77.5098 25.5354 77.3859C25.7621 77.2612 26.011 77.1996 26.2825 77.1996C26.5536 77.1996 26.8029 77.2616 27.0292 77.3859C27.2559 77.5098 27.4349 77.6795 27.5664 77.895C27.6983 78.1098 27.7644 78.3449 27.7644 78.6001C27.7644 78.8556 27.6983 79.0904 27.5664 79.3055C27.4345 79.5195 27.2559 79.6896 27.0292 79.8132C26.8029 79.9379 26.5536 79.9998 26.2825 79.9998C26.011 79.9998 25.7621 79.9379 25.5354 79.8132C25.3091 79.6892 25.1298 79.5195 24.999 79.3055C24.8675 79.0904 24.8021 78.8556 24.8021 78.6001ZM23.1439 79.1997H23.2724L23.0323 79.9228H20.619V79.7939H20.7111C20.8109 79.7939 20.887 79.7824 20.9401 79.7597C20.9937 79.7366 21.0311 79.6954 21.0545 79.6361C21.0774 79.5769 21.0885 79.4933 21.0885 79.3856V77.7873C21.0885 77.6326 21.0636 77.5248 21.0143 77.464C20.9642 77.4032 20.8637 77.3732 20.7119 77.3732H20.6431V77.2477H22.1005V77.3732H22.0103C21.9097 77.3732 21.8329 77.3855 21.7794 77.409C21.7258 77.4328 21.6876 77.4744 21.6647 77.5344C21.6421 77.5945 21.6306 77.6787 21.6306 77.7884V79.4352C21.6306 79.5226 21.6364 79.5849 21.6459 79.6203C21.6566 79.6557 21.6788 79.6796 21.7121 79.6915C21.7453 79.7031 21.8004 79.7093 21.8761 79.7093H22.3597C22.4936 79.7093 22.6029 79.6962 22.6878 79.6715C22.7734 79.6465 22.851 79.5988 22.921 79.5272C22.9906 79.4564 23.0659 79.3471 23.1439 79.1997ZM17.1034 79.0661H17.2277C17.285 79.2124 17.3615 79.3409 17.4552 79.4514C17.5496 79.5626 17.654 79.6469 17.7675 79.7054C17.8811 79.7639 17.9996 79.7935 18.1227 79.7935C18.2114 79.7935 18.2906 79.7766 18.3594 79.742C18.4278 79.7077 18.4813 79.6608 18.5192 79.6015C18.5574 79.5422 18.5762 79.4757 18.5762 79.4002C18.5762 79.2801 18.5291 79.1732 18.4347 79.0785C18.3926 79.0338 18.3322 78.9884 18.2535 78.9415C18.1743 78.8945 18.0527 78.8256 17.8895 78.7348C17.7262 78.6444 17.6043 78.5735 17.5255 78.5239C17.4464 78.4742 17.376 78.4196 17.3148 78.3615C17.1791 78.2248 17.1107 78.0659 17.1107 77.8839C17.1107 77.7877 17.1317 77.6972 17.1738 77.6125C17.2151 77.5275 17.2728 77.4552 17.3454 77.3936C17.4185 77.3324 17.5052 77.2847 17.6058 77.2504C17.706 77.2162 17.8138 77.1992 17.9304 77.1992C18.0153 77.1992 18.0902 77.2054 18.1567 77.2173C18.2221 77.2289 18.2917 77.2462 18.3647 77.2685C18.4378 77.2912 18.4974 77.3081 18.5425 77.3197C18.588 77.3312 18.6243 77.3366 18.6503 77.3366C18.7222 77.3366 18.7708 77.2908 18.7968 77.1992H18.9294V78.0721H18.8048C18.7501 77.9347 18.6798 77.815 18.5926 77.7118C18.5062 77.6087 18.4106 77.5294 18.3055 77.4732C18.2011 77.4174 18.0933 77.3889 17.9832 77.3889C17.8646 77.3889 17.7698 77.4186 17.6987 77.4771C17.6276 77.536 17.5924 77.6133 17.5924 77.7111C17.5924 77.8003 17.6287 77.8812 17.7002 77.9539C17.7404 77.9916 17.8191 78.0428 17.9373 78.1067C18.0543 78.1706 18.1667 78.2306 18.2737 78.2864C18.3808 78.3422 18.4871 78.4023 18.5926 78.4669C18.6981 78.5316 18.7842 78.5963 18.8488 78.6624C18.939 78.7533 19.0017 78.8456 19.0388 78.9399C19.0755 79.0342 19.0935 79.1347 19.0935 79.2409C19.0935 79.3817 19.056 79.5103 18.9818 79.6269C18.9076 79.7435 18.804 79.8351 18.6721 79.9001C18.5402 79.9659 18.3957 79.999 18.2386 79.999C18.1315 79.999 18.0352 79.9875 17.9495 79.9652C17.8639 79.9429 17.7668 79.9136 17.6586 79.8767C17.55 79.8401 17.4769 79.8213 17.4406 79.8213C17.3882 79.8213 17.3428 79.8374 17.3034 79.8694C17.2648 79.9021 17.2395 79.9436 17.2273 79.9948H17.103V79.0661H17.1034Z" fill="#FF0600"/>
</svg>
