<svg width="60" height="60" viewBox="0 0 60 60" fill="none" xmlns="http://www.w3.org/2000/svg">
<g clip-path="url(#clip0_2271_9226)">
<path d="M7.29475 55.7654C7.29475 57.177 6.16549 58.3064 4.75382 58.3064C3.34228 58.3064 2.21289 57.1771 2.21289 55.7654V32.8505C2.21289 31.439 3.34215 30.3096 4.75382 30.3096C6.16536 30.3096 7.29475 31.4388 7.29475 32.8505V55.7654Z" fill="#80C3FF"/>
<path d="M4.75391 30.3096C6.16545 30.3096 7.29484 31.4388 7.29484 32.8505V55.7654C7.29484 57.177 6.16558 58.3064 4.75391 58.3064" fill="#2A8BF4"/>
<path d="M4.75347 59.0117C2.96547 59.0117 1.50684 57.5531 1.50684 55.7651V32.8502C1.50684 31.0621 2.96547 29.6035 4.75347 29.6035C6.54148 29.6035 8.00011 31.0621 8.00011 32.8502V55.7651C8.00011 57.5531 6.54148 59.0117 4.75347 59.0117ZM4.75347 31.0151C3.71826 31.0151 2.91838 31.862 2.91838 32.8502V55.7651C2.91838 56.8003 3.76535 57.6002 4.75347 57.6002C5.74159 57.6002 6.58857 56.7532 6.58857 55.7651V32.8502C6.58857 31.862 5.78868 31.0151 4.75347 31.0151Z" fill="#33363A"/>
<path d="M4.75369 55.1532C4.37722 55.1532 4.04785 54.8238 4.04785 54.4474V53.8357C4.04785 53.4593 4.37722 53.1299 4.75369 53.1299C5.13015 53.1299 5.45952 53.4593 5.45952 53.8357V54.4474C5.45952 54.8238 5.17711 55.1532 4.75369 55.1532Z" fill="#33363A"/>
<path d="M4.75369 20.8517C4.37722 20.8517 4.04785 20.5224 4.04785 20.1459V10.1707C4.04785 9.79422 4.37722 9.46484 4.75369 9.46484C5.13015 9.46484 5.45952 9.79422 5.45952 10.1707V20.1459C5.45952 20.5695 5.17711 20.8517 4.75369 20.8517Z" fill="#33363A"/>
<path d="M4.7535 30.9207C4.09475 30.9207 3.57715 30.4031 3.57715 29.7443V22.1217C3.57715 21.4629 4.09475 20.9453 4.7535 20.9453C5.41224 20.9453 5.92985 21.4629 5.92985 22.1217V29.7443C5.92985 30.356 5.41224 30.9207 4.7535 30.9207Z" fill="#33363A"/>
<path d="M4.75325 20.6635C2.58879 20.6635 0.800781 18.8755 0.800781 16.711V10.4529C0.800781 10.0764 1.13015 9.74707 1.50662 9.74707C1.88308 9.74707 2.21245 10.0764 2.21245 10.4529V16.711C2.21245 18.1225 3.34171 19.2519 4.75338 19.2519C6.16505 19.2519 7.29431 18.1227 7.29431 16.711V10.4529C7.29431 10.0764 7.62369 9.74707 8.00015 9.74707C8.37661 9.74707 8.70598 10.0764 8.70598 10.4529V16.711C8.70573 18.9225 6.96468 20.6635 4.75325 20.6635Z" fill="#33363A"/>
<path d="M8.2354 21.6989C8.2354 22.7811 7.34133 23.6752 6.25916 23.6752H3.24772C2.16555 23.6752 1.27148 22.7811 1.27148 21.6989V18.0758C1.27148 16.9937 2.16555 16.0996 3.24772 16.0996H6.25916C7.34133 16.0996 8.2354 16.9937 8.2354 18.0758V21.6989Z" fill="#33363A"/>
<path d="M6.25895 24.3339H3.2475C1.78887 24.3339 0.56543 23.1576 0.56543 21.6519V18.0288C0.56543 16.5701 1.74178 15.3467 3.2475 15.3467H6.25895C7.71758 15.3467 8.94102 16.523 8.94102 18.0288V21.6519C8.94089 23.1576 7.71758 24.3339 6.25895 24.3339ZM3.2475 16.8054C2.54167 16.8054 1.9771 17.3701 1.9771 18.0758V21.6989C1.9771 22.4048 2.54179 22.9693 3.2475 22.9693H6.25895C6.96478 22.9693 7.52935 22.4046 7.52935 21.6989V18.0758C7.52935 17.37 6.96465 16.8054 6.25895 16.8054H3.2475Z" fill="#33363A"/>
<path d="M58.6761 35.1561C58.6761 48.5192 47.8539 59.3414 34.4908 59.3414C21.1277 59.3414 10.3525 48.5192 10.3525 35.1561C10.3525 21.7929 21.1747 10.9707 34.4908 10.9707C47.8539 10.9707 58.6761 21.7929 58.6761 35.1561Z" fill="white"/>
<path d="M34.5381 10.9707C47.9012 10.9707 58.7234 21.7929 58.7234 35.1561C58.7234 48.5192 47.9012 59.3414 34.5381 59.3414" fill="#C8DBDB"/>
<path d="M34.5384 60.0001C20.8459 60.0001 9.69434 48.8486 9.69434 35.109C9.69434 21.4164 20.8459 10.2178 34.5384 10.2178C48.2309 10.2178 59.4296 21.3694 59.4296 35.109C59.3825 48.8486 48.2309 60.0001 34.5384 60.0001ZM34.5384 11.6765C21.5988 11.6765 11.1059 22.2165 11.1059 35.156C11.1059 48.0956 21.6458 58.6356 34.5384 58.6356C47.478 58.6356 58.0179 48.0956 58.0179 35.156C57.971 22.2165 47.478 11.6765 34.5384 11.6765Z" fill="#33363A"/>
<path d="M34.5384 51.2008C43.3999 51.2008 50.5836 44.0171 50.5836 35.1556C50.5836 26.294 43.3999 19.1104 34.5384 19.1104C25.6769 19.1104 18.4932 26.294 18.4932 35.1556C18.4932 44.0171 25.6769 51.2008 34.5384 51.2008Z" fill="white"/>
<path d="M18.4932 35.1556C18.4932 26.3096 25.6923 19.1104 34.5384 19.1104C43.3845 19.1104 50.5836 26.3095 50.5836 35.1556" fill="#C8DBDB"/>
<path d="M34.538 51.9071C25.3156 51.9071 17.7871 44.3786 17.7871 35.1562C17.7871 25.9338 25.3156 18.4053 34.538 18.4053C43.7605 18.4053 51.2889 25.9338 51.2889 35.1562C51.2889 44.3786 43.7605 51.9071 34.538 51.9071ZM34.538 19.8168C26.0684 19.8168 19.1987 26.6866 19.1987 35.1562C19.1987 43.6258 26.0684 50.4956 34.538 50.4956C43.0077 50.4956 49.8774 43.6258 49.8774 35.1562C49.8774 26.6867 43.0077 19.8168 34.538 19.8168Z" fill="#33363A"/>
<path d="M34.5387 44.8488C39.8919 44.8488 44.2316 40.5091 44.2316 35.1558C44.2316 29.8026 39.8919 25.4629 34.5387 25.4629C29.1854 25.4629 24.8457 29.8026 24.8457 35.1558C24.8457 40.5091 29.1854 44.8488 34.5387 44.8488Z" fill="#C8DBDB"/>
<path d="M34.5387 44.8488C29.1746 44.8488 24.8457 40.5199 24.8457 35.1558C24.8457 29.7918 29.1746 25.4629 34.5387 25.4629" fill="white"/>
<path d="M57.5941 26.0274C54.2533 10.9233 39.3375 1.41853 24.2334 4.75935L30.2562 32.0973L57.5941 26.0274Z" fill="#83ED88"/>
<path d="M54.583 26.6865C51.6186 13.2762 38.3497 4.80673 24.9395 7.77108L30.3035 32.0506L54.583 26.6865Z" fill="#5FCE96"/>
<path d="M52.7012 27.1098C49.9722 14.7348 37.7383 6.92404 25.3633 9.65308L30.3039 32.0504L52.7012 27.1098Z" fill="#F42535"/>
<path d="M30.3037 32.0509L52.7011 27.1103C51.3365 20.9462 47.5722 15.8645 42.6316 12.7119L30.3037 32.0509Z" fill="#FC4259"/>
<path d="M51.1484 27.4392L52.7012 27.1098C49.9722 14.7348 37.7383 6.92404 25.3633 9.65308L25.6927 11.2059C37.0325 9.46485 47.9489 16.4288 51.1484 27.4392Z" fill="#D60024"/>
<path d="M51.4776 23.3459C49.6425 18.8758 46.4899 15.2056 42.5846 12.7119L41.4082 14.547C45.9723 17.4643 49.5014 21.9344 51.1012 27.4396L52.654 27.1103C52.4657 26.1692 52.1835 25.2281 51.8541 24.3341C51.7599 24.0046 51.6188 23.6753 51.4776 23.3459Z" fill="#F42535"/>
<path d="M25.3154 9.7002L30.3031 32.0504L52.7005 27.1099L32.044 29.3214L25.3154 9.7002Z" fill="#FC4259"/>
<path d="M32.0446 29.3209L30.3037 32.05L52.7011 27.1094L32.0446 29.3209Z" fill="#FF647E"/>
<path d="M30.3037 32.7558C29.9743 32.7558 29.6921 32.5205 29.5979 32.1911L23.5751 4.85316C23.528 4.66493 23.5751 4.4767 23.6692 4.33556C23.7632 4.19442 23.9515 4.05327 24.0926 4.00618C39.5261 0.571316 54.8655 10.3584 58.3004 25.7919C58.3475 25.9801 58.3004 26.1683 58.2063 26.3095C58.1123 26.4506 57.9241 26.5918 57.7829 26.6389L30.4921 32.6616C30.3978 32.7558 30.3507 32.7558 30.3037 32.7558ZM25.0807 5.32368L30.8212 31.2501L56.7476 25.5096C53.2656 11.4406 39.2908 2.54755 25.0807 5.32368Z" fill="#33363A"/>
<path d="M52.7012 27.815C52.3719 27.815 52.0896 27.5797 51.9954 27.2503C49.3604 15.2989 37.4559 7.72331 25.5044 10.3583C25.128 10.4523 24.7516 10.2171 24.6575 9.84068C24.5634 9.46422 24.7986 9.08789 25.1751 8.99371C37.9265 6.17049 50.5368 14.2637 53.36 26.9681C53.454 27.3445 53.2188 27.7209 52.8424 27.815C52.7953 27.815 52.7482 27.815 52.7012 27.815Z" fill="#33363A"/>
<path d="M38.3967 26.3573C38.3967 33.8388 32.3268 39.9087 24.8453 39.9087C17.3638 39.9087 11.2939 33.8388 11.2939 26.3573C11.2939 18.8758 17.3638 12.8059 24.8453 12.8059C32.3267 12.7588 38.3967 18.8287 38.3967 26.3573Z" fill="#A07F3C"/>
<path d="M38.3967 26.3574C38.3967 33.8389 32.3268 39.9088 24.8453 39.9088C17.3638 39.9088 11.2939 33.8389 11.2939 26.3574" fill="#84692C"/>
<path d="M24.8457 12.7588V39.9085C32.3272 39.9085 38.3971 33.8386 38.3971 26.3571C38.3971 18.8756 32.3271 12.7588 24.8457 12.7588Z" fill="#84692C"/>
<path d="M24.8457 26.3574V39.9088C32.3272 39.9088 38.3971 33.8389 38.3971 26.3574H24.8457Z" fill="#705622"/>
<path d="M24.845 40.6138C16.9871 40.6138 10.5879 34.2145 10.5879 26.3567C10.5879 18.4988 16.9871 12.0996 24.845 12.0996C28.6563 12.0996 32.2323 13.6053 34.9144 16.2874C37.5965 18.9695 39.1022 22.5455 39.1022 26.3568C39.102 34.2145 32.7028 40.6138 24.845 40.6138ZM24.845 13.4641C17.7399 13.4641 11.9994 19.2516 11.9994 26.3096C11.9994 33.4147 17.787 39.1551 24.845 39.1551C31.95 39.1551 37.6905 33.3676 37.6905 26.3096C37.6905 22.8747 36.373 19.6281 33.9263 17.2283C31.4795 14.8286 28.2798 13.4641 24.845 13.4641Z" fill="#33363A"/>
<path d="M24.8452 35.4853C29.8867 35.4853 33.9736 31.3984 33.9736 26.3569C33.9736 21.3154 29.8867 17.2285 24.8452 17.2285C19.8037 17.2285 15.7168 21.3154 15.7168 26.3569C15.7168 31.3984 19.8037 35.4853 24.8452 35.4853Z" fill="#BEDD05"/>
<path d="M15.7168 26.3569C15.7168 21.3223 19.8104 17.2285 24.8452 17.2285L15.7168 26.3569Z" fill="#DEF21D"/>
<path d="M15.7168 26.3574C15.7168 31.3921 19.8104 35.4858 24.8452 35.4858C29.88 35.4858 33.9736 31.3922 33.9736 26.3574H15.7168Z" fill="#85C606"/>
<path d="M15.7168 26.3574C15.7168 31.3921 19.8104 35.4858 24.8452 35.4858L15.7168 26.3574Z" fill="#BEDD05"/>
<path d="M24.8457 17.2285V35.4852C29.8803 35.4852 33.9741 31.3915 33.9741 26.3568C33.927 21.3221 29.8803 17.2285 24.8457 17.2285Z" fill="#85C606"/>
<path d="M33.9262 26.3569C33.9262 21.3223 29.8326 17.2285 24.7979 17.2285L33.9262 26.3569Z" fill="#52C408"/>
<path d="M24.8447 26.3564V35.4848C29.8794 35.4848 33.9731 31.3912 33.9731 26.3564H24.8447Z" fill="#52C408"/>
<path d="M24.8457 35.438C29.8803 35.438 33.9741 31.3443 33.9741 26.3096L24.8457 35.438Z" fill="#25C10A"/>
<path d="M24.8453 29.6036C26.6383 29.6036 28.0919 28.1501 28.0919 26.357C28.0919 24.5639 26.6383 23.1104 24.8453 23.1104C23.0522 23.1104 21.5986 24.5639 21.5986 26.357C21.5986 28.1501 23.0522 29.6036 24.8453 29.6036Z" fill="#BEDD05"/>
<path d="M24.8457 29.5568C26.6337 29.5568 28.0923 28.0981 28.0923 26.3101C28.0923 24.5221 26.6337 23.0635 24.8457 23.0635C24.8457 23.1104 24.8457 29.5568 24.8457 29.5568Z" fill="#85C606"/>
<path d="M21.5986 26.357H28.092C28.092 24.569 26.6334 23.1104 24.8454 23.1104C23.0573 23.1102 21.5986 24.5689 21.5986 26.357Z" fill="#85C606"/>
<path d="M24.8457 26.357H28.0923C28.0923 24.569 26.6337 23.1104 24.8457 23.1104V26.357Z" fill="#52C408"/>
<path d="M24.8452 28.286C25.9106 28.286 26.7743 27.4223 26.7743 26.3569C26.7743 25.2914 25.9106 24.4277 24.8452 24.4277C23.7797 24.4277 22.916 25.2914 22.916 26.3569C22.916 27.4223 23.7797 28.286 24.8452 28.286Z" fill="#BEDD05"/>
<path d="M26.7743 26.3569C26.7743 25.2747 25.9273 24.4277 24.8452 24.4277C23.763 24.4277 22.916 25.2747 22.916 26.3569H26.7743Z" fill="#85C606"/>
<path d="M24.845 28.2862V24.3809C23.7628 24.3809 22.9158 25.2278 22.9158 26.31C22.8688 27.3922 23.7627 28.2862 24.845 28.2862Z" fill="#85C606"/>
<path d="M24.8452 26.3571V24.3809C23.763 24.3809 22.916 25.2278 22.916 26.31H24.8452V26.3571Z" fill="#52C408"/>
<path d="M24.8448 36.1438C19.4337 36.1438 15.0107 31.7208 15.0107 26.3097C15.0107 20.8986 19.4337 16.4756 24.8448 16.4756C30.2559 16.4756 34.6789 20.8986 34.6789 26.3097C34.6318 31.7679 30.2559 36.1438 24.8448 36.1438ZM24.8448 17.9342C20.1865 17.9342 16.4223 21.6985 16.4223 26.3568C16.4223 31.0151 20.1865 34.7793 24.8448 34.7793C29.5031 34.7793 33.2674 31.0151 33.2674 26.3568C33.2203 21.6985 29.4561 17.9342 24.8448 17.9342Z" fill="#33363A"/>
<path d="M41.9254 15.9582C40.7491 19.4872 33.9734 48.8955 37.5024 50.0718C41.0315 51.2481 53.5476 23.816 54.7239 20.2871C55.9001 16.7582 53.6887 13.935 50.1597 12.7586C46.6308 11.5822 43.1489 12.4291 41.9254 15.9582Z" fill="#FFE108"/>
<path d="M41.9254 15.9583C40.7491 19.4873 33.9734 48.8956 37.5024 50.0719C41.0315 51.2483 53.5476 23.8161 54.7239 20.2872C55.9001 16.7583 52.9829 15.9583 49.4539 14.7819C45.925 13.5585 43.1489 12.4292 41.9254 15.9583Z" fill="#FFB206"/>
<path d="M41.9254 15.958C40.7491 19.4871 33.9734 48.8953 37.5024 50.0716C41.0315 51.248 53.5476 23.8159 54.7239 20.2869" fill="#FF8103"/>
<path d="M37.5023 50.0719C34.8202 49.1778 38.067 32.0975 40.3255 22.3105L52.1358 26.3101C47.9951 35.4853 40.1843 51.0129 37.5023 50.0719Z" fill="#FF6B06"/>
<path d="M37.5025 50.0719C35.5263 49.4132 36.7967 39.7673 38.5377 30.8271L48.4189 34.168C44.3253 42.3081 39.4788 50.7776 37.5025 50.0719Z" fill="#ED4706"/>
<path d="M37.5022 50.0719C36.0907 49.6014 36.3259 44.7549 37.1729 38.8262L44.6073 41.3671C41.69 46.59 38.8668 50.5424 37.5022 50.0719Z" fill="#D83705"/>
<path d="M37.7853 50.8719C37.55 50.8719 37.4088 50.8248 37.2677 50.7779C36.4207 50.4956 34.4445 49.7898 37.2677 33.7916C38.6792 25.7926 40.6555 17.5583 41.2673 15.7702C42.4907 12.1471 46.1608 10.6885 50.3956 12.1C54.6304 13.5115 56.6066 16.9465 55.3833 20.5226C54.7717 22.3576 51.3368 30.0744 47.6195 37.2735C41.3614 49.3662 38.9146 50.8719 37.7853 50.8719ZM42.6318 16.1936C42.0202 17.9345 40.0909 25.9807 38.6794 33.8857C36.0915 48.5192 37.7383 49.4133 37.7383 49.4133C37.7383 49.4133 39.6205 49.6956 46.4432 36.5207C50.1134 29.4156 53.5011 21.84 54.0658 20.052C55.2422 16.5701 52.5601 14.3116 49.9251 13.4175C47.2901 12.5236 43.8082 12.7117 42.6318 16.1936Z" fill="#33363A"/>
<path d="M50.3484 13.0407C51.0072 12.8995 51.4306 12.2879 51.2894 11.6291C50.7718 9.08821 52.4187 6.5945 54.9596 6.12386C55.6184 5.98271 56.0418 5.37106 55.9007 4.71231C55.7595 4.05357 55.1479 3.63014 54.4891 3.77129C50.6778 4.52408 48.1839 8.28845 48.9369 12.0997C49.078 12.7584 49.6897 13.182 50.3484 13.0407Z" fill="#92FC6B"/>
<path d="M54.8177 5.3709C55.1471 5.32381 55.5235 5.3709 55.7587 5.60622C55.5705 5.88851 55.3353 6.07674 54.9588 6.17092C52.4179 6.68852 50.771 9.13527 51.2887 11.6762C51.4298 12.3349 51.0064 12.9466 50.3476 13.0877C49.8771 13.1818 49.4066 12.9937 49.1242 12.6172C48.983 9.13514 51.3357 6.02965 54.8177 5.3709Z" fill="#70D63A"/>
<path d="M50.1132 13.7934C49.7367 13.7934 49.3604 13.6994 49.078 13.464C48.6546 13.1818 48.3722 12.7582 48.2781 12.2406C47.4311 8.05281 50.1603 3.91223 54.395 3.06525C55.4302 2.87702 56.4184 3.53577 56.6066 4.57098C56.7948 5.60618 56.1361 6.5943 55.1009 6.78253C52.9364 7.20596 51.5249 9.32347 51.9483 11.4878C52.0423 12.0054 51.9483 12.4759 51.666 12.8993C51.3837 13.3228 50.9602 13.6052 50.4426 13.6992C50.3485 13.7934 50.2074 13.7934 50.1132 13.7934ZM54.7244 4.4768C54.6773 4.4768 54.6773 4.4768 54.6304 4.4768C51.1955 5.18263 48.937 8.52332 49.6427 11.9583C49.6898 12.0995 49.7367 12.1936 49.8309 12.2877C49.925 12.3817 50.0662 12.3817 50.2074 12.3817C50.3485 12.3347 50.4427 12.2877 50.5368 12.1935C50.6308 12.0995 50.6308 11.9582 50.6308 11.817C50.0661 8.89978 51.9483 6.02948 54.8656 5.46492C55.1478 5.41783 55.289 5.13554 55.242 4.90022C55.148 4.61807 54.9597 4.4768 54.7244 4.4768Z" fill="#33363A"/>
<path d="M50.9128 12.8052C51.4304 12.3818 51.4774 11.6289 51.0068 11.1113C49.3128 9.18214 49.5011 6.17069 51.4302 4.47674C51.9007 4.05332 51.9949 3.30039 51.5243 2.78279C51.1009 2.26518 50.3479 2.21809 49.8303 2.68874C46.9131 5.27663 46.5837 9.7467 49.1716 12.664C49.6893 13.1817 50.4421 13.2287 50.9128 12.8052Z" fill="#92FC6B"/>
<path d="M50.9599 3.86535C51.2422 3.63003 51.5715 3.53598 51.9009 3.58307C51.9009 3.91244 51.7598 4.24182 51.4775 4.47714C49.5484 6.17109 49.3601 9.18241 51.0541 11.1117C51.4775 11.6293 51.4305 12.3821 50.96 12.8056C50.5836 13.135 50.066 13.1821 49.6425 12.9939C47.8073 10.0763 48.2779 6.21805 50.9599 3.86535Z" fill="#70D63A"/>
<path d="M50.1594 13.7941C50.1123 13.7941 50.0654 13.7941 50.0183 13.7941C49.5007 13.747 49.0302 13.5118 48.7008 13.1353C47.3362 11.5825 46.6305 9.55933 46.7717 7.48891C46.9128 5.41863 47.8538 3.48935 49.4066 2.1249C50.2065 1.41906 51.3829 1.51324 52.0887 2.31313C52.7946 3.11302 52.7004 4.28937 51.9005 4.9952C51.1006 5.70104 50.6301 6.68916 50.5359 7.72424C50.4888 8.80641 50.8182 9.79453 51.524 10.5945C51.8534 10.971 52.0416 11.4415 51.9945 11.9591C51.9474 12.4767 51.7122 12.9472 51.3358 13.2766C51.0535 13.6529 50.583 13.7941 50.1594 13.7941ZM50.677 3.11302C50.583 3.11302 50.4417 3.16011 50.3477 3.25416C49.0773 4.38342 48.3243 5.93623 48.1832 7.63006C48.0892 9.32401 48.6066 10.9709 49.736 12.2413C49.8301 12.3353 49.9242 12.3824 50.0654 12.4295C50.2065 12.4295 50.3007 12.3824 50.4418 12.2884C50.5359 12.1943 50.583 12.1001 50.583 11.959C50.583 11.8179 50.5359 11.7237 50.4418 11.6296C49.5008 10.5475 49.0303 9.13578 49.1244 7.72424C49.2184 6.2656 49.8772 4.94811 50.9595 4.00709C51.1477 3.81885 51.1948 3.53657 51.0065 3.30125C50.9593 3.15998 50.8182 3.11302 50.677 3.11302Z" fill="#33363A"/>
<path d="M50.4426 11.0179C50.0192 10.5003 50.0662 9.74746 50.5367 9.32391C52.4658 7.62996 52.6541 4.61864 50.9601 2.68937C50.5367 2.17176 50.5836 1.41897 51.0542 0.995413C51.5247 0.571861 52.3246 0.618951 52.7481 1.08946C55.336 4.00673 55.0537 8.5239 52.0894 11.0647C51.619 11.5824 50.8662 11.5355 50.4426 11.0179Z" fill="#92FC6B"/>
<path d="M51.5719 2.21835C51.3366 1.93606 51.0072 1.84188 50.6778 1.79492C50.6307 2.12429 50.7249 2.45367 50.9601 2.73595C52.6541 4.6651 52.4658 7.67654 50.5367 9.3705C50.0191 9.79392 49.972 10.5468 50.4426 11.0644C50.772 11.4409 51.2896 11.535 51.713 11.3938C53.8775 8.75871 53.9245 4.85333 51.5719 2.21835Z" fill="#70D63A"/>
<path d="M51.3367 12.147C51.2896 12.147 51.2427 12.147 51.1956 12.147C50.678 12.0999 50.2074 11.8647 49.8781 11.4882C49.5487 11.1118 49.3605 10.6413 49.4076 10.1237C49.4546 9.60606 49.6898 9.13555 50.0663 8.80618C51.7132 7.34754 51.9014 4.80661 50.4428 3.15975C49.7369 2.35986 49.8311 1.18351 50.631 0.477679C51.0075 0.148306 51.478 -0.0399254 51.9956 0.00716465C52.5132 0.0542547 52.9837 0.289447 53.3131 0.66591C54.6776 2.21872 55.3834 4.24192 55.2422 6.31234C55.1011 8.38262 54.16 10.3119 52.6072 11.6764C52.2308 12.0059 51.8072 12.147 51.3367 12.147ZM51.9014 1.46593C51.7603 1.46593 51.6661 1.51302 51.572 1.60707C51.3838 1.7953 51.3367 2.07758 51.5249 2.3129C53.5012 4.57142 53.2658 7.95933 51.0073 9.93556C50.8191 10.1238 50.772 10.4061 50.9602 10.6414C51.0543 10.7355 51.1485 10.7825 51.2896 10.7825C51.4308 10.7825 51.5249 10.7355 51.619 10.6414C52.8894 9.51214 53.6423 7.95933 53.7835 6.2655C53.9246 4.57155 53.36 2.92469 52.2306 1.65429C52.1837 1.51289 52.0425 1.46593 51.9014 1.46593Z" fill="#33363A"/>
<path d="M50.16 10.4532C50.0188 9.79443 50.4422 9.18277 51.101 9.04163C53.6419 8.52402 55.2888 6.07727 54.7712 3.53634C54.63 2.8776 55.0535 2.26594 55.7122 2.1248C56.371 1.98366 56.9826 2.40708 57.1237 3.06583C57.8765 6.87716 55.3828 10.6414 51.5715 11.3942C50.9129 11.5355 50.2541 11.1119 50.16 10.4532Z" fill="#92FC6B"/>
<path d="M55.5243 3.39461C55.4772 3.06524 55.242 2.78296 54.9596 2.59473C54.7714 2.87701 54.6773 3.20638 54.7243 3.53575C55.2419 6.07668 53.595 8.5704 51.0541 9.04104C50.3954 9.18218 49.9719 9.79384 50.1131 10.4526C50.2071 10.9231 50.5836 11.2996 51.0541 11.3936C54.2538 10.2174 56.23 6.82948 55.5243 3.39461Z" fill="#70D63A"/>
<path d="M51.2892 12.1469C50.3952 12.1469 49.5953 11.5353 49.4071 10.6412C49.2188 9.60598 49.8776 8.61786 50.9128 8.42963C53.0772 8.00621 54.4888 5.8887 54.0654 3.72436C53.8771 2.68916 54.5359 1.70104 55.5711 1.51281C56.0887 1.41875 56.5592 1.51281 56.9826 1.79509C57.406 2.07737 57.6885 2.50092 57.7825 3.01853C58.6295 7.20632 55.9003 11.3469 51.6656 12.1939C51.5717 12.1469 51.4304 12.1469 51.2892 12.1469ZM50.8187 10.3589C50.8658 10.6412 51.1481 10.7823 51.3834 10.7354C54.8183 10.0295 57.0768 6.68885 56.3711 3.25385C56.324 3.11271 56.277 3.01853 56.1829 2.92448C56.0888 2.83043 55.9475 2.83043 55.8064 2.83043C55.5241 2.87752 55.383 3.1598 55.4299 3.39512C55.9946 6.31238 54.1125 9.18269 51.1952 9.74725C50.9599 9.79421 50.7716 10.0765 50.8187 10.3589Z" fill="#33363A"/>
<path d="M49.6427 14.1698C49.031 13.9816 48.7017 13.2758 48.8899 12.6641C49.7369 10.2174 48.4194 7.5353 45.9726 6.68832C45.361 6.50009 45.0316 5.79426 45.2198 5.1826C45.4552 4.57094 46.1139 4.24157 46.7256 4.4298C50.4427 5.7002 52.4189 9.69977 51.1485 13.4169C50.9602 14.0286 50.3014 14.3579 49.6427 14.1698Z" fill="#92FC6B"/>
<path d="M46.2076 5.93567C45.8783 5.84161 45.5489 5.88858 45.2666 6.02972C45.4077 6.312 45.6431 6.59441 45.9724 6.68846C48.4192 7.53544 49.7367 10.1704 48.8897 12.6643C48.7015 13.2759 49.0308 13.9818 49.6425 14.17C50.113 14.3111 50.5835 14.17 50.9129 13.8406C51.4776 10.4527 49.5484 7.06493 46.2076 5.93567Z" fill="#70D63A"/>
<path d="M50.0191 14.9233C49.8309 14.9233 49.5957 14.8762 49.4075 14.8293C48.4194 14.4999 47.9018 13.4177 48.2311 12.4296C48.5605 11.4415 48.5134 10.3593 48.0429 9.37122C47.5724 8.43019 46.7725 7.67726 45.7373 7.34789C44.7492 7.01852 44.2316 5.93635 44.5609 4.94823C44.8903 3.96011 45.9725 3.44251 46.9606 3.77188C48.9368 4.43063 50.5366 5.84217 51.4307 7.72435C52.3717 9.60654 52.5129 11.7239 51.8071 13.6531C51.666 14.1236 51.2895 14.5 50.8661 14.7352C50.6308 14.8762 50.3485 14.9233 50.0191 14.9233ZM46.3489 5.08924C46.1607 5.08924 45.9725 5.23038 45.8784 5.41862C45.7844 5.65394 45.9255 5.93622 46.1607 6.03027C47.5253 6.50079 48.6075 7.44181 49.2662 8.7593C49.925 10.0768 50.019 11.5354 49.5485 12.9C49.4544 13.1353 49.5956 13.4176 49.8308 13.5117C49.9719 13.5588 50.0661 13.5588 50.2072 13.4646C50.3013 13.4175 50.3955 13.3234 50.4426 13.1823C51.0073 11.5825 50.866 9.84147 50.1132 8.33575C49.3604 6.83003 48.0429 5.65368 46.443 5.13608C46.4431 5.08924 46.396 5.08924 46.3489 5.08924Z" fill="#33363A"/>
<path d="M49.6894 14.1704C50.301 14.3586 51.0069 14.0293 51.1951 13.4176C52.0421 10.9708 54.677 9.65336 57.1709 10.4532C57.7825 10.6415 58.4884 10.3121 58.6766 9.70045C58.8648 9.08879 58.5355 8.38296 57.9238 8.19472C54.2067 6.92432 50.2071 8.94752 48.9367 12.6177C48.7483 13.2763 49.0777 13.9822 49.6894 14.1704Z" fill="#92FC6B"/>
<path d="M57.4062 9.74744C57.7356 9.84149 57.9709 10.1239 58.1121 10.4062C57.8298 10.5473 57.5004 10.5944 57.1711 10.5002C54.7243 9.65326 52.0422 10.9708 51.1953 13.4646C51.007 14.0762 50.3012 14.4056 49.6895 14.2174C49.219 14.0762 48.9367 13.6527 48.8896 13.1822C50.4894 10.1239 54.0654 8.61818 57.4062 9.74744Z" fill="#70D63A"/>
<path d="M50.0659 14.9704C49.8777 14.9704 49.6425 14.9234 49.4543 14.8764C48.9838 14.7353 48.6073 14.3588 48.3721 13.9354C48.1368 13.5119 48.1368 12.9472 48.2781 12.4767C49.6426 8.43021 54.0656 6.21865 58.1592 7.58323C59.1474 7.9126 59.665 8.99477 59.3356 9.98289C59.0062 10.971 57.9241 11.4886 56.9359 11.1592C54.8656 10.4534 52.56 11.5827 51.8542 13.6531C51.6186 14.4528 50.8658 14.9704 50.0659 14.9704ZM49.9248 13.5118C50.1601 13.6059 50.4424 13.4647 50.5365 13.2295C51.4775 10.4063 54.583 8.90059 57.4062 9.84175C57.6415 9.9358 57.9238 9.79466 58.0178 9.55947C58.1119 9.32415 57.9708 9.04186 57.6885 8.94781C54.3477 7.81855 50.7246 9.60656 49.5953 12.9474C49.5482 13.0885 49.5482 13.1827 49.6424 13.3238C49.6895 13.3705 49.7835 13.4647 49.9248 13.5118Z" fill="#33363A"/>
<path d="M54.2535 20.852C54.1595 20.852 54.1124 20.852 54.0182 20.8049L50.9127 19.7697C50.5363 19.6285 50.348 19.2521 50.4893 18.8756C50.6304 18.4992 51.0069 18.3109 51.3834 18.4522L54.4889 19.4874C54.8653 19.6285 55.0536 20.005 54.9123 20.3815C54.8182 20.6638 54.536 20.852 54.2535 20.852Z" fill="#33363A"/>
<path d="M48.8891 18.9696C48.795 18.9696 48.7479 18.9696 48.6537 18.9225L48.1361 18.7343C47.7597 18.5932 47.5714 18.2167 47.6656 17.8402C47.8068 17.4638 48.1832 17.2755 48.5597 17.3697L49.0773 17.5579C49.4537 17.6991 49.642 18.0755 49.5478 18.452C49.4536 18.7815 49.1713 18.9696 48.8891 18.9696Z" fill="#33363A"/>
<path d="M46.2542 18.1234C46.1602 18.1234 46.1131 18.1234 46.0189 18.0763L45.7836 18.0292C45.4071 17.8881 45.2189 17.5116 45.3131 17.1352C45.4542 16.7587 45.8307 16.5705 46.2071 16.6646L46.4425 16.7117C46.8189 16.8529 47.0072 17.2293 46.913 17.6058C46.8188 17.9352 46.5365 18.1234 46.2542 18.1234Z" fill="#33363A"/>
<path d="M44.2308 17.4173C44.1367 17.4173 44.0897 17.4173 43.9955 17.3703L43.7602 17.3232C43.3837 17.182 43.1955 16.8056 43.2896 16.4291C43.4308 16.0526 43.8072 15.8644 44.1837 15.9586L44.419 16.0057C44.7955 16.1468 44.9837 16.5233 44.8895 16.8997C44.8424 17.2291 44.5602 17.4173 44.2308 17.4173Z" fill="#33363A"/>
<path d="M52.983 24.5688C52.889 24.5688 52.8419 24.5688 52.7477 24.5217L49.6422 23.4865C49.2658 23.3453 49.0775 22.9689 49.2188 22.5924C49.3599 22.216 49.7364 22.0277 50.1129 22.169L53.2184 23.2042C53.5948 23.3453 53.7831 23.7218 53.6418 24.0983C53.5477 24.3807 53.2653 24.5688 52.983 24.5688Z" fill="#33363A"/>
<path d="M47.6185 22.7343C47.5245 22.7343 47.4774 22.7343 47.3832 22.6872L46.8656 22.4989C46.4892 22.3578 46.3009 21.9813 46.3951 21.6049C46.5362 21.2284 46.9127 21.0402 47.2892 21.1344L47.8068 21.3226C48.1832 21.4637 48.3715 21.8402 48.2773 22.2167C48.1831 22.546 47.9008 22.7343 47.6185 22.7343Z" fill="#33363A"/>
<path d="M44.9837 21.8402C44.9366 21.8402 44.8426 21.8402 44.7484 21.7931L44.5131 21.746C44.1366 21.652 43.9484 21.2284 44.0426 20.8519C44.1367 20.4755 44.5602 20.2873 44.9366 20.3814L45.172 20.4285C45.5484 20.5226 45.7367 20.9461 45.6425 21.3226C45.5483 21.652 45.266 21.8402 44.9837 21.8402Z" fill="#33363A"/>
<path d="M42.9603 21.181C42.9132 21.181 42.8191 21.181 42.725 21.1339L42.4896 21.0868C42.1132 20.9457 41.9249 20.5692 42.0191 20.1928C42.1132 19.8163 42.5367 19.6281 42.9132 19.7223L43.1485 19.7693C43.525 19.9105 43.7132 20.2869 43.619 20.6634C43.5719 20.9928 43.2897 21.181 42.9603 21.181Z" fill="#33363A"/>
<path d="M51.5241 28.2397C51.43 28.2397 51.3829 28.2397 51.2887 28.1926L48.1832 27.1574C47.8068 27.0162 47.6185 26.6398 47.7598 26.2633C47.901 25.8869 48.2774 25.6986 48.6539 25.8399L51.7594 26.8751C52.1358 27.0162 52.3241 27.3927 52.1828 27.7692C52.0886 28.0985 51.8063 28.2397 51.5241 28.2397Z" fill="#33363A"/>
<path d="M46.1605 26.4042C46.1134 26.4042 46.0194 26.4042 45.9252 26.3571L45.4076 26.1689C45.0311 26.0277 44.8429 25.6513 44.9371 25.2748C45.0782 24.8983 45.4547 24.7101 45.8312 24.8043L46.3488 24.9925C46.7252 25.1337 46.9135 25.5101 46.8193 25.8866C46.7252 26.216 46.4429 26.4042 46.1605 26.4042Z" fill="#33363A"/>
<path d="M43.5247 25.557C43.4307 25.557 43.3836 25.557 43.2894 25.5099L43.0541 25.4628C42.6776 25.3217 42.4894 24.9452 42.5836 24.5687C42.7247 24.1923 43.1012 24.0041 43.4776 24.0982L43.713 24.1453C44.0894 24.2865 44.2777 24.6629 44.1835 25.0394C44.0894 25.3218 43.8072 25.557 43.5247 25.557Z" fill="#33363A"/>
<path d="M41.5023 24.8519C41.4552 24.8519 41.3611 24.8519 41.267 24.8048L41.0316 24.7577C40.6552 24.6637 40.4669 24.2401 40.5611 23.8637C40.7023 23.4872 41.0787 23.299 41.4552 23.3932L41.6905 23.4402C42.067 23.5343 42.2552 23.9578 42.161 24.3343C42.1139 24.6637 41.8317 24.8519 41.5023 24.8519Z" fill="#33363A"/>
<path d="M49.7828 31.8159C49.6888 31.8159 49.6417 31.8159 49.5475 31.7688L46.442 30.7336C46.0656 30.5924 45.8773 30.216 46.0186 29.8395C46.1597 29.463 46.5362 29.2748 46.9127 29.4161L50.0182 30.4513C50.3946 30.5924 50.5829 30.9689 50.4416 31.3453C50.3475 31.6747 50.0653 31.8159 49.7828 31.8159Z" fill="#33363A"/>
<path d="M44.4195 29.9804C44.3255 29.9804 44.2784 29.9804 44.1842 29.9333L43.6195 29.745C43.2431 29.6039 43.0548 29.2274 43.149 28.851C43.2902 28.4745 43.6666 28.2863 44.0431 28.3805L44.6078 28.5687C44.9842 28.7098 45.1725 29.0863 45.0783 29.4628C44.9842 29.7921 44.7018 29.9804 44.4195 29.9804Z" fill="#33363A"/>
<path d="M41.7845 29.1332C41.6905 29.1332 41.6434 29.1332 41.5492 29.0861L41.3139 29.039C40.9374 28.8978 40.7492 28.5214 40.8433 28.1449C40.9845 27.7685 41.361 27.5802 41.7374 27.6744L41.9727 27.7215C42.3492 27.8626 42.5374 28.2391 42.4432 28.6156C42.3492 28.8978 42.0668 29.1332 41.7845 29.1332Z" fill="#33363A"/>
<path d="M39.7611 28.4281C39.667 28.4281 39.6199 28.4281 39.5257 28.381L39.2904 28.3339C38.914 28.1928 38.7257 27.8163 38.8199 27.4398C38.9611 27.0634 39.3375 26.8751 39.714 26.9693L39.9493 27.0164C40.3258 27.1576 40.514 27.534 40.4198 27.9105C40.3258 28.2399 40.0904 28.4281 39.7611 28.4281Z" fill="#33363A"/>
<path d="M47.995 35.4387C47.9009 35.4387 47.8539 35.4387 47.7597 35.3916L44.8424 34.4035C44.466 34.2623 44.2777 33.8859 44.419 33.5094C44.5601 33.1329 44.9366 32.9447 45.3131 33.086L48.2303 34.0741C48.6068 34.2152 48.795 34.5917 48.6537 34.9682C48.5597 35.2506 48.3244 35.4387 47.995 35.4387Z" fill="#33363A"/>
<path d="M43.0072 33.6979C42.9601 33.6979 42.8661 33.6979 42.7719 33.6508L42.2543 33.5097C41.8778 33.4156 41.6896 32.9921 41.7838 32.6156C41.8778 32.2392 42.3014 32.0509 42.6778 32.1451L43.1954 32.2862C43.5719 32.3803 43.7601 32.8039 43.666 33.1803C43.5718 33.5097 43.2895 33.6979 43.0072 33.6979Z" fill="#33363A"/>
<path d="M40.5607 32.8978C40.5136 32.8978 40.4195 32.8978 40.3253 32.8507L40.1371 32.8036C39.7606 32.6625 39.5724 32.286 39.6666 31.9096C39.7606 31.5331 40.1842 31.3449 40.5607 31.4391L40.7489 31.4861C41.1254 31.6273 41.3136 32.0037 41.2194 32.3802C41.1254 32.6625 40.89 32.8978 40.5607 32.8978Z" fill="#33363A"/>
<path d="M38.6788 32.2386C38.6317 32.2386 38.5377 32.2386 38.4435 32.1915L38.2553 32.1445C37.8788 32.0033 37.6906 31.6268 37.7848 31.2504C37.8788 30.8739 38.3024 30.6857 38.6788 30.7799L38.8671 30.827C39.2435 30.9681 39.4317 31.3446 39.3376 31.721C39.2905 32.0504 39.0082 32.2386 38.6788 32.2386Z" fill="#33363A"/>
<path d="M46.1598 38.9672C46.0657 38.9672 46.0187 38.9672 45.9245 38.9201L42.819 37.8849C42.4425 37.7438 42.2543 37.3673 42.3956 36.9909C42.5367 36.6144 42.9132 36.4262 43.2896 36.5674L46.3951 37.6026C46.7716 37.7438 46.9598 38.1202 46.8185 38.4967C46.7245 38.779 46.4422 38.9672 46.1598 38.9672Z" fill="#33363A"/>
<path d="M40.7963 37.0858C40.7492 37.0858 40.6551 37.0858 40.561 37.0387L40.0434 36.8505C39.6669 36.7094 39.4787 36.3329 39.5728 35.9564C39.6669 35.58 40.0904 35.3917 40.4669 35.4859L40.9845 35.6742C41.361 35.8153 41.5492 36.1918 41.455 36.5682C41.361 36.8977 41.0786 37.0858 40.7963 37.0858Z" fill="#33363A"/>
<path d="M38.1615 36.2386C38.0674 36.2386 38.0203 36.2386 37.9261 36.1915L37.6908 36.1445C37.3144 36.0033 37.1261 35.6268 37.2203 35.2504C37.3614 34.8739 37.7379 34.6857 38.1144 34.7799L38.3497 34.827C38.7262 34.9681 38.9144 35.3446 38.8202 35.721C38.7731 36.0504 38.4908 36.2386 38.1615 36.2386Z" fill="#33363A"/>
<path d="M44.2311 42.4965C44.137 42.4965 44.0899 42.4965 43.9958 42.4494L40.8903 41.4142C40.5138 41.2731 40.3256 40.8966 40.4668 40.5202C40.608 40.1437 40.9844 39.9555 41.3609 40.0967L44.4664 41.1319C44.8429 41.2731 45.0311 41.6495 44.8898 42.026C44.7958 42.3083 44.5134 42.4965 44.2311 42.4965Z" fill="#33363A"/>
<path d="M38.8666 40.6141C38.8195 40.6141 38.7255 40.6141 38.6313 40.5671L38.1137 40.3788C37.7372 40.2377 37.549 39.8612 37.6432 39.4848C37.7372 39.1083 38.1608 38.9201 38.5372 39.0142L39.0548 39.2025C39.4313 39.3436 39.6195 39.7201 39.5253 40.0965C39.4312 40.4259 39.1489 40.6141 38.8666 40.6141Z" fill="#33363A"/>
<path d="M42.1608 45.9311C42.0667 45.9311 42.0196 45.9311 41.9255 45.884L38.82 44.8488C38.4435 44.7076 38.2553 44.3312 38.3965 43.9547C38.5377 43.5783 38.9141 43.39 39.2906 43.5313L42.3961 44.5665C42.7726 44.7076 42.9608 45.0841 42.8195 45.4606C42.7253 45.7429 42.4431 45.9311 42.1608 45.9311Z" fill="#33363A"/>
<path d="M37.267 44.2372C37.1729 44.2372 37.1258 44.2372 37.0317 44.1901L36.5141 44.0019C36.1376 43.8607 35.9494 43.4843 36.0435 43.1078C36.1847 42.7313 36.5611 42.5431 36.9376 42.6373L37.4552 42.8255C37.8317 42.9667 38.0199 43.3431 37.9257 43.7196C37.8317 44.049 37.5494 44.2372 37.267 44.2372Z" fill="#33363A"/>
<path d="M39.8551 49.3188C39.7611 49.3188 39.714 49.3188 39.6198 49.2717L36.5143 48.2365C36.1378 48.0953 35.9496 47.7189 36.0909 47.3424C36.232 46.966 36.6085 46.7777 36.9849 46.919L40.0904 47.9542C40.4669 48.0953 40.6551 48.4718 40.5139 48.8483C40.4197 49.1306 40.1374 49.3188 39.8551 49.3188Z" fill="#33363A"/>
<path d="M51.6659 44.896C51.6659 52.9421 43.9963 53.2715 34.5385 53.2715C25.0808 53.2715 17.4111 52.9421 17.4111 44.896C17.4111 36.8499 25.0808 30.3096 34.5385 30.3096C43.9963 30.3096 51.6659 36.8499 51.6659 44.896Z" fill="#C17E25"/>
<path d="M51.6659 44.896C51.6659 52.9421 43.9963 53.2715 34.5385 53.2715C25.0808 53.2715 17.4111 52.9421 17.4111 44.896C17.4111 36.8499 25.0808 30.3096 34.5385 30.3096C43.9963 30.3096 51.6659 36.8499 51.6659 44.896Z" fill="white"/>
<path d="M51.6659 44.8959C51.6659 52.942 43.9963 53.2714 34.5385 53.2714C25.0808 53.2714 17.4111 52.942 17.4111 44.8959C17.4111 36.8498 25.0808 44.943 34.5385 44.943C43.9963 44.943 51.6659 36.8498 51.6659 44.8959Z" fill="#F4F3E9"/>
<path d="M34.5378 49.0834C26.0212 49.0834 18.9632 42.5431 17.5986 47.0601C18.9161 52.9888 26.0212 53.2241 34.5378 53.2241C43.0544 53.2241 50.1124 52.9418 51.4769 47.0601C50.1124 42.59 43.0544 49.0834 34.5378 49.0834Z" fill="#E0DECE"/>
<path d="M34.5383 53.9771C25.7393 53.9771 16.7051 53.9771 16.7051 44.8958C16.7051 36.4733 24.7041 29.6035 34.5383 29.6035C44.3725 29.6035 52.3715 36.4733 52.3715 44.8958C52.3715 53.9771 43.2902 53.9771 34.5383 53.9771ZM34.5383 31.0151C25.457 31.0151 18.1167 37.226 18.1167 44.8958C18.1167 52.0479 24.6102 52.5654 34.5383 52.5654C44.4664 52.5654 50.9598 52.0478 50.9598 44.8958C50.9598 37.2262 43.6196 31.0151 34.5383 31.0151Z" fill="#33363A"/>
<path d="M42.8197 42.5429C42.8197 50.3067 39.1025 51.1536 34.5382 51.1536C29.9741 51.1536 26.2568 50.3067 26.2568 42.5429C26.2568 38.5433 29.974 35.3438 34.5382 35.3438C39.1024 35.3438 42.8197 38.5434 42.8197 42.5429Z" fill="#D3D1C1"/>
<path d="M42.8197 42.5429C42.8197 46.5424 39.1025 48.2833 34.5382 48.2833C29.9741 48.2833 26.2568 46.5424 26.2568 42.5429C26.2568 38.5433 29.974 35.3438 34.5382 35.3438C39.1024 35.3438 42.8197 38.5434 42.8197 42.5429Z" fill="#FFBC00"/>
<path d="M34.5381 36.7084C38.867 36.7084 42.396 39.5787 42.8195 43.2018C42.8666 42.9665 42.8666 42.7313 42.8666 42.496C42.8666 38.4964 39.1495 35.2969 34.5852 35.2969C30.0211 35.2969 26.2568 38.5435 26.2568 42.496C26.2568 42.7313 26.2568 42.9665 26.3039 43.2018C26.6803 39.5786 30.2092 36.7084 34.5381 36.7084Z" fill="#FFCE00"/>
<path d="M42.8197 42.5432C42.8197 46.5428 39.1025 48.2837 34.5382 48.2837C29.9741 48.2837 26.2568 46.5428 26.2568 42.5432C26.2568 38.5436 29.974 42.5432 34.5382 42.5432C39.1024 42.5432 42.8197 38.5438 42.8197 42.5432Z" fill="#FF9100"/>
<path d="M34.5379 48.9899C28.9856 48.9899 25.5508 46.5432 25.5508 42.5436C25.5508 38.1677 29.5973 34.6387 34.5379 34.6387C39.5256 34.6387 43.5721 38.1677 43.5721 42.5436C43.525 46.4961 40.0901 48.9899 34.5379 48.9899ZM34.5379 36.0503C30.3501 36.0503 26.9623 38.9676 26.9623 42.5437C26.9623 47.2021 32.797 47.5784 34.5379 47.5784C36.2788 47.5784 42.1606 47.2019 42.1606 42.5437C42.1135 38.9676 38.7257 36.0503 34.5379 36.0503Z" fill="#33363A"/>
<path d="M28.7036 41.2724C28.6565 41.2724 28.6095 41.2724 28.5624 41.2724C28.0448 41.1784 27.6684 40.7077 27.7625 40.1903C28.139 37.5553 31.8561 35.8613 33.6912 35.8613C34.2088 35.8613 34.6323 36.2848 34.6323 36.8024C34.6323 37.32 34.2088 37.7434 33.6912 37.7434C32.4678 37.7434 29.8328 38.9668 29.5976 40.4255C29.5505 40.9431 29.1271 41.2724 28.7036 41.2724Z" fill="#FFEF5A"/>
<path d="M28.562 43.3896C28.5149 43.3896 28.4679 43.3896 28.4208 43.3896C27.9032 43.2956 27.5267 42.8249 27.6209 42.3075C27.715 41.6958 28.2797 41.3193 28.7973 41.3193C29.3149 41.3193 29.7383 41.7428 29.7383 42.2604C29.7383 42.6368 29.503 42.9662 29.2207 43.1073C29.0325 43.2956 28.7973 43.3896 28.562 43.3896Z" fill="#FFEF5A"/>
<path d="M28.6565 44.4723C28.6565 44.4723 28.6094 44.4723 28.5624 44.4723C28.3271 44.4252 28.139 44.19 28.1859 43.9547C28.233 43.6724 28.4682 43.5312 28.7036 43.5312C28.9858 43.5312 29.1741 43.7195 29.1741 44.0018C29.1741 44.19 29.08 44.3311 28.9387 44.4252C28.8917 44.4252 28.7976 44.4723 28.6565 44.4723Z" fill="#FFEF5A"/>
</g>
<defs>
<clipPath id="clip0_2271_9226">
<rect width="60" height="60" fill="white"/>
</clipPath>
</defs>
</svg>
