<svg width="90" height="80" viewBox="0 0 90 80" fill="none" xmlns="http://www.w3.org/2000/svg">
<path fill-rule="evenodd" clip-rule="evenodd" d="M31.4332 41.3535C30.6574 41.3535 30.0225 41.9988 30.0225 42.7873V49.8161C30.0225 50.6045 30.6574 51.2499 31.4332 51.2499C32.2089 51.2499 32.8438 50.6042 32.8438 49.8161V42.7873C32.8438 41.9988 32.2089 41.3535 31.4332 41.3535ZM54.3518 41.3535C53.5764 41.3535 52.9411 41.9988 52.9411 42.7873V49.8161C52.9411 50.6045 53.576 51.2499 54.3518 51.2499C55.1275 51.2499 55.7625 50.6042 55.7625 49.8161V42.7873C55.7628 41.9988 55.1275 41.3535 54.3518 41.3535ZM42.8923 41.3535C42.1165 41.3535 41.4816 41.9988 41.4816 42.7873V49.8161C41.4816 50.6045 42.1165 51.2499 42.8923 51.2499C43.668 51.2499 44.303 50.6042 44.303 49.8161V42.7873C44.3033 41.9988 43.668 41.3535 42.8923 41.3535Z" fill="#FF0600"/>
<path fill-rule="evenodd" clip-rule="evenodd" d="M55.1146 10.7964L55.3168 10.7431C55.8102 10.6138 56.3118 10.5152 56.8173 10.45C57.326 10.3844 57.8387 10.3576 58.3513 10.3576C61.4347 10.3576 64.4037 11.5359 66.6247 13.7186C68.7869 15.8429 70.0222 18.7184 70.0222 21.7804C70.0222 24.1979 69.2557 26.519 67.8308 28.4535C66.3741 30.4311 64.326 31.8895 62.0112 32.6359C61.5866 32.7728 61.2608 33.1236 61.1506 33.562C61.1399 33.6051 61.1246 33.6453 61.1053 33.6834V53.1847C61.1053 53.5848 60.9413 53.9605 60.6593 54.2373C60.3538 54.5377 59.9438 54.6986 59.52 54.6986H26.263C25.8392 54.6986 25.4295 54.5377 25.124 54.2373C24.842 53.9601 24.678 53.5848 24.678 53.1847V33.8856C24.678 33.2757 24.2648 32.7438 23.6809 32.604C23.6645 32.6 23.6509 32.5964 23.6349 32.5909C21.3761 31.8308 19.38 30.3912 17.9529 28.4538C16.528 26.5194 15.7615 24.1983 15.7615 21.7808C15.7615 18.7187 16.9971 15.8433 19.1593 13.7189C21.3807 11.5363 24.3493 10.358 27.4331 10.358C27.9454 10.358 28.4584 10.3848 28.9668 10.4503C29.4727 10.5156 29.9739 10.6138 30.4673 10.7435C31.1051 10.9112 31.7778 10.5536 32.0035 9.92425C32.0056 9.91772 32.0078 9.91265 32.0106 9.90613C32.8691 7.75026 34.3767 5.92194 36.2808 4.63892C38.2434 3.31605 40.54 2.63342 42.8926 2.63342C45.2451 2.63342 47.5421 3.31569 49.5047 4.63892C51.4237 5.93244 52.9414 7.77852 53.7948 9.95649C53.9909 10.4565 54.4708 10.7866 54.9995 10.7848C55.0383 10.7844 55.0772 10.7884 55.1146 10.7964ZM55.5649 7.61692C54.4715 5.52953 52.8683 3.75447 50.9303 2.44791C48.5435 0.839522 45.7539 0 42.8915 0C40.0295 0 37.2398 0.839522 34.853 2.44791C32.9151 3.75447 31.3119 5.52953 30.2185 7.61692C30.109 7.82599 29.8916 7.9365 29.6612 7.90099C29.5375 7.88179 29.4138 7.86403 29.2898 7.84809C28.6737 7.76874 28.0531 7.72381 27.4324 7.72381C23.6784 7.72381 20.0709 9.16987 17.3683 11.8254C14.6984 14.4487 13.1704 17.9981 13.1704 21.7801C13.1704 24.7693 14.1276 27.6357 15.8888 30.0267C17.3989 32.0768 19.4367 33.6779 21.7572 34.6714C21.9615 34.7588 22.087 34.9512 22.087 35.1762V53.1844C22.087 54.3036 22.5436 55.3537 23.3336 56.1294C24.1201 56.9023 25.1696 57.3313 26.2634 57.3313H59.5207C60.6144 57.3313 61.664 56.9023 62.4504 56.1294C63.2401 55.3537 63.6968 54.3036 63.6968 53.1844V35.1762C63.6968 34.9512 63.8226 34.7588 64.0265 34.6714C66.3474 33.6779 68.3852 32.0768 69.8953 30.0267C71.6564 27.6357 72.6137 24.7693 72.6137 21.7801C72.6137 17.9984 71.0857 14.449 68.4158 11.8254C65.7132 9.16987 62.1057 7.72381 58.352 7.72381C57.731 7.72381 57.1103 7.76874 56.4943 7.84809C56.3702 7.86403 56.2462 7.88142 56.1225 7.90063C55.8914 7.9365 55.6743 7.82599 55.5649 7.61692Z" fill="#FF0600"/>
<path fill-rule="evenodd" clip-rule="evenodd" d="M90 65.8512V66.323H87.8453V72.7674H86.5052V66.323H85.7729C85.4089 66.323 85.1202 66.4154 84.907 66.6005C84.6938 66.7857 84.5875 67.1121 84.5875 67.5803H84.2781V66.6897C84.2781 66.585 84.2902 66.4817 84.3141 66.3806C84.338 66.2795 84.3829 66.1904 84.4481 66.1136C84.5134 66.0368 84.6029 65.9737 84.7159 65.9248C84.8293 65.8759 84.9754 65.8516 85.154 65.8516H90V65.8512ZM79.82 70.6717V65.8512H80.3355V72.7986H79.861L75.4895 67.5803V72.767H74.974V67.1085C74.974 66.9759 74.9601 66.852 74.9327 66.7368C74.9052 66.6216 74.8553 66.5219 74.7833 66.4379C74.7113 66.3542 74.6147 66.2878 74.4945 66.2389C74.3744 66.19 74.2247 66.1657 74.0461 66.1657H73.9944V65.8512H74.7159C75.1077 65.8512 75.4257 65.9038 75.6696 66.0085C75.9138 66.1132 76.1145 66.2705 76.2724 66.4799L79.82 70.6717ZM65.9445 70.3887H68.2881L67.1473 67.6538L65.9445 70.3887ZM70.1766 71.4467C70.3003 71.7543 70.4514 71.9985 70.63 72.1804C70.809 72.362 71.0147 72.4667 71.2486 72.4949V72.7569C71.1937 72.7707 71.1163 72.783 71.0168 72.7935C70.917 72.804 70.8297 72.8094 70.7537 72.8094C70.589 72.8094 70.4118 72.7935 70.2229 72.7623C70.034 72.7308 69.8482 72.6681 69.666 72.5736C69.4839 72.4794 69.312 72.3431 69.1505 72.1649C68.9887 71.9866 68.8464 71.7475 68.7224 71.4467L68.4835 70.8601H65.7274L64.8768 72.767H64.3612L67.4029 65.8512H67.8668L70.1766 71.4467ZM57.6565 69.6028H57.244V72.7674H55.8932V67.2136C55.8932 66.8991 55.8501 66.6458 55.7645 66.4538C55.6786 66.2618 55.4811 66.1657 55.1716 66.1657H55.0682V65.8512H57.9142C58.0789 65.8512 58.2614 65.8581 58.4607 65.8723C58.66 65.8864 58.8629 65.9179 59.0689 65.9665C59.2753 66.0154 59.4764 66.0835 59.6721 66.1708C59.8679 66.2581 60.0415 66.3734 60.193 66.5168C60.3441 66.66 60.4661 66.8346 60.5588 67.0408C60.6515 67.2469 60.6978 67.4933 60.6978 67.7796C60.6978 68.052 60.6482 68.2876 60.5484 68.4868C60.4486 68.6858 60.3181 68.8535 60.1566 68.9898C59.9951 69.126 59.8147 69.2361 59.6151 69.3198C59.4158 69.4035 59.2201 69.4698 59.0276 69.5188L60.1099 71.3525C60.2408 71.5761 60.3659 71.7594 60.4864 71.9025C60.6065 72.0457 60.7217 72.1591 60.8318 72.2431C60.9416 72.3268 61.0433 72.3877 61.1359 72.4265C61.2286 72.4649 61.3131 72.491 61.3887 72.5051V72.767C61.3338 72.7949 61.2358 72.8196 61.0949 72.8402C60.9541 72.8613 60.8183 72.8718 60.6878 72.8718C60.5092 72.8718 60.3356 72.8475 60.1673 72.7982C59.9987 72.7493 59.8336 72.6656 59.6721 72.5468C59.5106 72.4279 59.3491 72.2707 59.1876 72.0754C59.0261 71.8797 58.8593 71.6387 58.6878 71.3521L57.6565 69.6028ZM57.9142 66.2705C57.8315 66.2705 57.7492 66.2741 57.6668 66.281C57.5844 66.2882 57.5121 66.2984 57.4504 66.3125C57.3748 66.3266 57.306 66.3371 57.244 66.344V69.1836H57.8625C58.0272 69.1836 58.1923 69.159 58.3573 69.11C58.5224 69.0611 58.6718 68.9807 58.8058 68.8691C58.9399 68.7571 59.0483 68.6071 59.1306 68.4184C59.213 68.2296 59.2543 67.9991 59.2543 67.7267C59.2543 67.4542 59.2133 67.2256 59.1306 67.04C59.0479 66.8549 58.9417 66.7049 58.8108 66.5893C58.68 66.4741 58.536 66.3922 58.378 66.3433C58.2201 66.2951 58.0654 66.2705 57.9142 66.2705ZM47.0437 70.0637C47.0504 70.7902 47.1898 71.3616 47.4611 71.7772C47.7328 72.1928 48.1399 72.4007 48.6829 72.4007C49.3841 72.4007 49.8943 72.1877 50.2137 71.7612C50.5335 71.3351 50.6932 70.6644 50.6932 69.7496V65.8512H51.2087V69.7496C51.2087 70.2452 51.1606 70.6855 51.0647 71.0699C50.9684 71.454 50.8119 71.7808 50.5955 72.0496C50.3791 72.3185 50.0971 72.5228 49.7499 72.6627C49.403 72.8022 48.9784 72.8721 48.4768 72.8721C46.6208 72.8721 45.6929 71.8311 45.6929 69.7496V67.2136C45.6929 66.8991 45.6497 66.6458 45.5642 66.4538C45.4783 66.2618 45.2807 66.1657 44.9713 66.1657V65.8512H46.1053C46.284 65.8512 46.4337 65.8741 46.5538 65.9194C46.674 65.965 46.7702 66.04 46.8426 66.1447C46.9146 66.2498 46.9645 66.3893 46.992 66.5639C47.0194 66.7386 47.033 66.9553 47.033 67.2136L47.0437 70.0637ZM37.1061 70.3887H39.4498L38.3089 67.6538L37.1061 70.3887ZM41.3382 71.4467C41.4622 71.7543 41.613 71.9985 41.792 72.1804C41.9706 72.362 42.177 72.4667 42.4105 72.4949V72.7569C42.3556 72.7707 42.2783 72.783 42.1788 72.7935C42.079 72.804 41.9916 72.8094 41.9161 72.8094C41.751 72.8094 41.5738 72.7935 41.3849 72.7623C41.1959 72.7308 41.0102 72.6681 40.828 72.5736C40.6458 72.4794 40.474 72.3431 40.3125 72.1649C40.151 71.9866 40.0084 71.7475 39.8847 71.4467L39.6462 70.8601H36.8901L36.0394 72.767H35.5239L38.5656 65.8512H39.0294L41.3382 71.4467ZM33.0968 65.8512V66.323H30.9421V72.7674H29.6017V66.323H28.8694C28.5054 66.323 28.2163 66.4154 28.0035 66.6005C27.7906 66.7857 27.684 67.1121 27.684 67.5803H27.3746V66.6897C27.3746 66.585 27.3867 66.4817 27.4106 66.3806C27.4348 66.2795 27.4794 66.1904 27.5446 66.1136C27.6099 66.0368 27.6994 65.9737 27.8127 65.9248C27.9261 65.8759 28.0719 65.8516 28.2509 65.8516H33.0968V65.8512ZM21.2263 72.9457C20.9447 72.9457 20.6644 72.9178 20.386 72.8616C20.1076 72.8058 19.8587 72.7236 19.6388 72.6152C19.4188 72.5069 19.2399 72.3743 19.1026 72.217C18.9653 72.0598 18.8965 71.8833 18.8965 71.6877V70.4615H19.206C19.3161 71.188 19.5358 71.7051 19.8673 72.0123C20.1974 72.3199 20.6509 72.4732 21.2249 72.4732C21.6131 72.4732 21.9258 72.3877 22.1611 72.2167C22.3967 72.0457 22.5151 71.7924 22.5151 71.4569C22.5151 71.1565 22.4206 70.9068 22.2316 70.7076C22.0427 70.5083 21.7832 70.3079 21.453 70.105L20.1849 69.3296C19.7176 69.0503 19.3878 68.764 19.1949 68.4702C19.0024 68.1767 18.9062 67.8379 18.9062 67.4538C18.9062 66.902 19.114 66.4654 19.53 66.144C19.9457 65.8226 20.5079 65.6621 21.216 65.6621C21.4976 65.6621 21.7778 65.69 22.0559 65.7462C22.3343 65.802 22.5835 65.8838 22.8035 65.9922C23.0234 66.1005 23.202 66.2331 23.3393 66.3904C23.4769 66.5476 23.5457 66.7241 23.5457 66.9198V68.1455H23.2363C23.1193 67.419 22.9012 66.902 22.5817 66.5947C22.2605 66.2875 21.8391 66.1335 21.3204 66.1335C20.9529 66.1335 20.6605 66.2244 20.4459 66.406C20.2313 66.5875 20.1229 66.8353 20.1229 67.1498C20.1229 67.2966 20.1486 67.4274 20.2003 67.543C20.252 67.6582 20.324 67.7647 20.4167 67.8625C20.5094 67.9604 20.6213 68.0546 20.7518 68.1455C20.8823 68.2365 21.0302 68.3307 21.1953 68.4285L22.4634 69.1934C22.9308 69.4727 23.2726 69.747 23.4894 70.0159C23.7058 70.2851 23.8142 70.6115 23.8142 70.9956C23.8142 71.5964 23.5906 72.0714 23.1439 72.4207C22.6972 72.7707 22.058 72.9457 21.2263 72.9457ZM13.9126 65.8512C14.0912 65.8512 14.2374 65.8755 14.3507 65.9244C14.4641 65.9734 14.5536 66.0364 14.6188 66.1132C14.6841 66.19 14.7286 66.2792 14.7529 66.3802C14.7771 66.4813 14.7892 66.5846 14.7892 66.6893V67.5799H14.4798C14.4798 67.1328 14.3679 66.8114 14.1447 66.6158C13.9215 66.4201 13.6035 66.3223 13.191 66.3223H11.5311V68.9419H14.2117V69.4137H11.5311V72.2953H13.2941C13.6723 72.2953 13.9935 72.2094 14.2584 72.0384C14.5229 71.8674 14.7447 71.5547 14.9233 71.1007L15.2017 71.2058L14.903 72.0333C14.8274 72.2569 14.7294 72.4352 14.6089 72.5678C14.4887 72.7007 14.2876 72.767 14.006 72.767H10.191V67.2136C10.191 66.8991 10.1479 66.6458 10.0624 66.4538C9.97643 66.2618 9.77893 66.1657 9.46948 66.1657H9.36645V65.8512H13.9126ZM2.58823 69.6028H2.17575V72.7674H0.824953V67.2136C0.824953 66.8991 0.781816 66.6458 0.696255 66.4538C0.610337 66.2618 0.412833 66.1657 0.103387 66.1657H0V65.8512H2.84562C3.01068 65.8512 3.19286 65.8581 3.39214 65.8723C3.59179 65.8864 3.79428 65.9179 4.00034 65.9665C4.20676 66.0154 4.40783 66.0835 4.60355 66.1708C4.79927 66.2581 4.97289 66.3734 5.1244 66.5168C5.27556 66.66 5.39748 66.8346 5.49017 67.0408C5.58322 67.2469 5.62957 67.4933 5.62957 67.7796C5.62957 68.052 5.57966 68.2876 5.47984 68.4868C5.38037 68.6858 5.24953 68.8535 5.08804 68.9898C4.92654 69.126 4.74615 69.2361 4.54686 69.3198C4.34722 69.4035 4.15186 69.4698 3.95934 69.5188L5.04205 71.3525C5.17253 71.5761 5.29802 71.7594 5.41852 71.9025C5.53866 72.0457 5.65381 72.1591 5.76397 72.2431C5.87413 72.3268 5.97538 72.3877 6.06807 72.4265C6.16076 72.4649 6.2449 72.491 6.32048 72.5051V72.767C6.26557 72.7949 6.16753 72.8196 6.02671 72.8402C5.88589 72.8613 5.75007 72.8718 5.61959 72.8718C5.44098 72.8718 5.26736 72.8475 5.09909 72.7982C4.93046 72.7493 4.7654 72.6656 4.60426 72.5468C4.44241 72.4279 4.28127 72.2707 4.11977 72.0754C3.95827 71.8797 3.79143 71.6387 3.61959 71.3521L2.58823 69.6028ZM2.84598 66.2705C2.76363 66.2705 2.68127 66.2741 2.59856 66.281C2.51621 66.2882 2.44384 66.2984 2.38216 66.3125C2.30659 66.3266 2.23778 66.3371 2.17575 66.344V69.1836H2.79429C2.95935 69.1836 3.12405 69.159 3.28912 69.11C3.45418 69.0611 3.60355 68.9807 3.7376 68.8691C3.87164 68.7571 3.98002 68.6071 4.06237 68.4184C4.14473 68.2296 4.18608 67.9991 4.18608 67.7267C4.18608 67.4542 4.14473 67.2256 4.06237 67.04C3.97966 66.8549 3.87343 66.7049 3.74294 66.5893C3.61246 66.4741 3.46772 66.3922 3.30979 66.3433C3.15186 66.2951 2.99749 66.2705 2.84598 66.2705Z" fill="#FF0600"/>
<path fill-rule="evenodd" clip-rule="evenodd" d="M74.0815 79.9424V76.4825H76.54V76.8883H74.5336V77.9518H76.412V78.3576H74.5336V79.5366H76.6209V79.9428H74.0815V79.9424ZM70.0302 78.0094H70.9971C71.2031 78.0094 71.3632 77.9873 71.4791 77.9442C71.5946 77.9011 71.6826 77.8318 71.7421 77.7362C71.8024 77.6413 71.8324 77.538 71.8324 77.426C71.8324 77.2623 71.7746 77.1275 71.658 77.0217C71.5414 76.9166 71.3575 76.8641 71.1065 76.8641H70.0302V78.0094ZM69.5785 79.9424V76.4825H71.0876C71.3913 76.4825 71.6217 76.5141 71.7792 76.576C71.9372 76.638 72.0626 76.7474 72.1571 76.9047C72.2516 77.0619 72.2983 77.2358 72.2983 77.426C72.2983 77.6717 72.2199 77.8786 72.0637 78.0467C71.9079 78.2152 71.6673 78.3214 71.3407 78.3674C71.4605 78.4253 71.5507 78.4833 71.612 78.5399C71.7439 78.6623 71.8684 78.8163 71.9846 79.0007L72.5732 79.9432H72.0106L71.5607 79.2232C71.4302 79.0145 71.3211 78.8558 71.2366 78.7453C71.1511 78.6351 71.0748 78.5587 71.0077 78.5145C70.9411 78.4706 70.8719 78.4402 70.8028 78.4228C70.7514 78.4119 70.6684 78.4069 70.5521 78.4069H70.0306V79.9435H69.5785V79.9424ZM65.3375 79.9424V76.4825H67.796V76.8883H65.7892V77.9518H67.6677V78.3576H65.7892V79.5366H67.8769V79.9428H65.3375V79.9424ZM60.8442 79.9424V76.4825H61.2958V77.9079H63.0552V76.4825H63.5069V79.9424H63.0552V78.3141H61.2958V79.9424H60.8442ZM55.1162 78.8308L55.5394 78.792C55.5593 78.9659 55.6057 79.1083 55.6798 79.2207C55.7533 79.3319 55.8677 79.4221 56.0221 79.4913C56.1768 79.5598 56.3508 79.5942 56.5443 79.5942C56.7162 79.5942 56.8677 79.5685 56.9992 79.5163C57.1308 79.4641 57.2281 79.3924 57.2927 79.3015C57.3568 79.2105 57.3893 79.1112 57.3893 79.0051C57.3893 78.8971 57.3583 78.8025 57.2966 78.7214C57.2345 78.6413 57.1322 78.5735 56.9896 78.5177C56.8987 78.4822 56.6966 78.4257 56.3832 78.3493C56.0706 78.2728 55.8517 78.2011 55.7262 78.1337C55.564 78.0464 55.4435 77.9384 55.364 77.8105C55.2841 77.6826 55.2445 77.5384 55.2445 77.3797C55.2445 77.2043 55.2941 77.0405 55.3911 76.8891C55.4887 76.7369 55.6303 76.6217 55.8181 76.543C56.0053 76.4637 56.2139 76.4246 56.4424 76.4246C56.6948 76.4246 56.9173 76.4655 57.1098 76.5488C57.3023 76.6307 57.4506 76.7525 57.5543 76.9137C57.6584 77.0735 57.7137 77.2557 57.7219 77.4587L57.2891 77.4927C57.2663 77.2746 57.1875 77.109 57.0538 76.9981C56.9197 76.8862 56.7215 76.8304 56.4602 76.8304C56.1875 76.8304 55.9889 76.8815 55.8645 76.9826C55.7397 77.084 55.6773 77.2065 55.6773 77.3499C55.6773 77.4739 55.7215 77.5764 55.8096 77.6568C55.8973 77.7369 56.1226 77.8199 56.4891 77.9036C56.8552 77.988 57.1062 78.0616 57.2427 78.1243C57.4399 78.2166 57.5864 78.3337 57.6809 78.4761C57.7754 78.6181 57.8217 78.7812 57.8217 78.9667C57.8217 79.1511 57.77 79.3236 57.6663 79.4866C57.5625 79.6493 57.4146 79.7758 57.2199 79.866C57.026 79.9562 56.8082 80.0008 56.5647 80.0008C56.2574 80.0008 55.9996 79.9551 55.7921 79.8642C55.5836 79.7732 55.421 79.6363 55.303 79.4526C55.1839 79.2689 55.1223 79.062 55.1162 78.8308ZM51.0321 79.9424V76.4825H53.4902V76.8883H51.4838V77.9518H53.3622V78.3576H51.4838V79.5366H53.5715V79.9428H51.0321V79.9424ZM46.5832 78.2663C46.5832 78.6826 46.6934 79.0105 46.9137 79.2497C47.1337 79.4888 47.4103 79.6087 47.7433 79.6087C48.0827 79.6087 48.3604 79.4881 48.5804 79.2464C48.7993 79.0047 48.9084 78.6616 48.9084 78.217C48.9084 77.9358 48.8617 77.6902 48.7683 77.4808C48.6749 77.2713 48.5376 77.1086 48.3576 76.9934C48.1768 76.8786 47.9747 76.8202 47.7508 76.8202C47.4317 76.8202 47.1579 76.9311 46.928 77.1536C46.698 77.376 46.5832 77.7467 46.5832 78.2663ZM46.1169 78.258C46.1169 77.6847 46.2692 77.2355 46.5726 76.9108C46.8763 76.5862 47.2677 76.4242 47.748 76.4242C48.0624 76.4242 48.3455 76.5003 48.5979 76.6528C48.8503 76.8054 49.0428 77.0177 49.175 77.2905C49.3077 77.5626 49.374 77.8721 49.374 78.2181C49.374 78.5681 49.3045 78.8822 49.1647 79.1587C49.0253 79.4359 48.8282 79.645 48.5729 79.7866C48.3169 79.929 48.0413 80 47.7458 80C47.425 80 47.1387 79.9214 46.8863 79.7642C46.6342 79.6069 46.4424 79.3928 46.3123 79.1207C46.1822 78.8493 46.1169 78.5616 46.1169 78.258ZM43.0799 78.5844V78.1782H44.5205V79.4605C44.2998 79.6395 44.0713 79.775 43.836 79.8653C43.6004 79.9555 43.359 80 43.1116 80C42.7772 80 42.4738 79.9276 42.2004 79.7815C41.9277 79.6366 41.7209 79.4257 41.5826 79.1511C41.4428 78.8757 41.3733 78.5681 41.3733 78.2286C41.3733 77.892 41.4417 77.5782 41.5808 77.2855C41.7194 76.9938 41.918 76.7775 42.1783 76.6365C42.4382 76.4945 42.7376 76.4238 43.077 76.4238C43.3223 76.4238 43.5451 76.4637 43.744 76.5452C43.9433 76.6267 44.0991 76.7391 44.2118 76.8836C44.3248 77.0286 44.4103 77.2181 44.4692 77.4507L44.0628 77.5634C44.0111 77.388 43.9476 77.2496 43.8724 77.1478C43.7964 77.047 43.6884 76.9666 43.5476 76.9061C43.4075 76.8456 43.2514 76.8152 43.0795 76.8152C42.8738 76.8152 42.6966 76.8474 42.5458 76.9112C42.3961 76.9746 42.2756 77.0583 42.1829 77.163C42.0913 77.267 42.0196 77.3815 41.969 77.5054C41.8827 77.7206 41.8389 77.9521 41.8389 78.2029C41.8389 78.5123 41.8909 78.771 41.995 78.9797C42.0995 79.1873 42.2517 79.342 42.4506 79.4424C42.6503 79.5431 42.862 79.5939 43.0859 79.5939C43.2809 79.5939 43.471 79.5555 43.6563 79.4786C43.8417 79.4015 43.9822 79.3199 44.0781 79.2323V78.584H43.0799V78.5844ZM35.6585 79.9424V76.4825H36.1213L37.9077 79.1982V76.4825H38.3401V79.9424H37.8774L36.091 77.2264V79.9424H35.6585ZM32.0286 78.5217H33.189L32.8339 77.5623C32.7266 77.271 32.646 77.0304 32.5897 76.8398C32.5427 77.0655 32.4799 77.2865 32.4018 77.5058L32.0286 78.5217ZM31.0489 79.9424L32.3551 76.4825H32.8503L34.2364 79.9424H33.7238L33.3298 78.8938H31.8963L31.527 79.9424H31.0489ZM28.2475 78.5844V78.1782H29.6881V79.4605C29.4671 79.6395 29.2386 79.775 29.0033 79.8653C28.768 79.9555 28.5263 80 28.2789 80C27.9448 80 27.6414 79.9276 27.3676 79.7815C27.0949 79.6366 26.8881 79.4257 26.7498 79.1511C26.6101 78.8757 26.5405 78.5681 26.5405 78.2286C26.5405 77.892 26.6093 77.5782 26.7484 77.2855C26.8867 76.9938 27.0856 76.7775 27.3459 76.6365C27.6058 76.4945 27.9052 76.4238 28.2446 76.4238C28.4899 76.4238 28.7127 76.4637 28.9117 76.5452C29.1109 76.6267 29.2667 76.7391 29.3794 76.8836C29.4928 77.0286 29.5783 77.2181 29.6368 77.4507L29.2304 77.5634C29.1787 77.388 29.1152 77.2496 29.04 77.1478C28.9641 77.047 28.856 76.9666 28.7149 76.9061C28.5748 76.8456 28.4186 76.8152 28.2468 76.8152C28.0411 76.8152 27.8635 76.8474 27.7131 76.9112C27.5634 76.9746 27.4429 77.0583 27.3502 77.163C27.2589 77.267 27.1872 77.3815 27.1366 77.5054C27.0503 77.7206 27.0065 77.9521 27.0065 78.2029C27.0065 78.5123 27.0585 78.771 27.1626 78.9797C27.2671 79.1873 27.4193 79.342 27.6183 79.4424C27.8179 79.5431 28.0293 79.5939 28.2535 79.5939C28.4486 79.5939 28.6386 79.5555 28.8243 79.4786C29.0101 79.4015 29.1498 79.3199 29.2461 79.2323V78.584H28.2475V78.5844ZM22.2154 78.2663C22.2154 78.6826 22.3256 79.0105 22.5459 79.2497C22.7659 79.4888 23.0425 79.6087 23.3755 79.6087C23.7149 79.6087 23.9926 79.4881 24.2122 79.2464C24.4311 79.0047 24.5402 78.6616 24.5402 78.217C24.5402 77.9358 24.4935 77.6902 24.4001 77.4808C24.3067 77.2713 24.1691 77.1086 23.9894 76.9934C23.8086 76.8786 23.6069 76.8202 23.3826 76.8202C23.0636 76.8202 22.7898 76.9311 22.5598 77.1536C22.3302 77.376 22.2154 77.7467 22.2154 78.2663ZM21.7491 78.258C21.7491 77.6847 21.9013 77.2355 22.2047 76.9108C22.5085 76.5862 22.8999 76.4242 23.3801 76.4242C23.6946 76.4242 23.9776 76.5003 24.23 76.6528C24.4821 76.8054 24.675 77.0177 24.8072 77.2905C24.9395 77.5626 25.0058 77.8721 25.0058 78.2181C25.0058 78.5681 24.9363 78.8822 24.7965 79.1587C24.6571 79.4359 24.46 79.645 24.2047 79.7866C23.9491 79.929 23.6732 80 23.3776 80C23.0568 80 22.7705 79.9214 22.5177 79.7642C22.2657 79.6069 22.0743 79.3928 21.9441 79.1207C21.8144 78.8493 21.7491 78.5616 21.7491 78.258ZM18.1541 79.9424V76.4825H18.6058V79.5363H20.2792V79.9424H18.1541ZM13.7852 78.8308L14.2083 78.792C14.2283 78.9659 14.2746 79.1083 14.3484 79.2207C14.4219 79.3319 14.5363 79.4221 14.6907 79.4913C14.8454 79.5598 15.0194 79.5942 15.213 79.5942C15.3848 79.5942 15.536 79.5685 15.6679 79.5163C15.7994 79.4641 15.8967 79.3924 15.9609 79.3015C16.0251 79.2105 16.0575 79.1112 16.0575 79.0051C16.0575 78.8971 16.0269 78.8025 15.9648 78.7214C15.9032 78.6413 15.8008 78.5735 15.6582 78.5177C15.567 78.4822 15.3652 78.4257 15.0518 78.3493C14.7392 78.2728 14.5203 78.2011 14.3951 78.1337C14.2329 78.0464 14.1124 77.9384 14.0329 77.8105C13.9531 77.6826 13.9131 77.5384 13.9131 77.3797C13.9131 77.2043 13.9627 77.0405 14.06 76.8891C14.1573 76.7369 14.2992 76.6217 14.4871 76.543C14.6743 76.4637 14.8828 76.4246 15.1114 76.4246C15.3638 76.4246 15.5862 76.4655 15.7787 76.5488C15.9716 76.6307 16.1196 76.7525 16.2233 76.9137C16.3274 77.0735 16.3827 77.2557 16.3905 77.4587L15.9577 77.4927C15.9349 77.2746 15.8561 77.109 15.7224 76.9981C15.5884 76.8862 15.3901 76.8304 15.1288 76.8304C14.8561 76.8304 14.6575 76.8815 14.5331 76.9826C14.4083 77.084 14.3459 77.2065 14.3459 77.3499C14.3459 77.4739 14.3901 77.5764 14.4782 77.6568C14.5659 77.7369 14.7916 77.8199 15.1577 77.9036C15.5238 77.988 15.7748 78.0616 15.9114 78.1243C16.1085 78.2166 16.255 78.3337 16.3495 78.4761C16.444 78.6181 16.4907 78.7812 16.4907 78.9667C16.4907 79.1511 16.439 79.3236 16.3352 79.4866C16.2315 79.6493 16.0832 79.7758 15.8893 79.866C15.6953 79.9562 15.4771 80.0008 15.234 80.0008C14.927 80.0008 14.6693 79.9551 14.4614 79.8642C14.2529 79.7732 14.0907 79.6363 13.9723 79.4526C13.8529 79.2689 13.7912 79.062 13.7852 78.8308Z" fill="#FF0600"/>
</svg>
