<svg width="60" height="60" viewBox="0 0 60 60" fill="none" xmlns="http://www.w3.org/2000/svg">
<g clip-path="url(#clip0_1800_30645)">
<path d="M46.1133 18.5742C46.1133 9.67512 38.8991 2.46094 30 2.46094C25.3007 2.46094 21.0711 4.4727 18.1257 7.68187C18.1257 7.68187 17.8993 7.99395 17.7687 8.14746C15.3748 10.9595 14.4082 14.5918 14.4082 18.5742C14.4082 27.4733 21.1009 34.0324 30 34.0324C33.8796 34.0324 37.137 33.0484 39.9179 30.7644C40.1154 30.6022 40.8002 30.5324 40.8002 30.5324C44.0631 27.5836 46.1133 23.3183 46.1133 18.5742Z" fill="#91DAFA"/>
<path d="M40.2199 31.0324C37.4391 33.3164 33.8801 34.6875 30 34.6875C21.1008 34.6875 13.8867 27.4734 13.8867 18.5742C13.8867 14.3625 15.5027 10.5293 18.1477 7.6582C16.3477 10.2586 15.293 13.4145 15.293 16.8164C15.293 25.7156 22.507 32.9297 31.4062 32.9297C34.3172 32.9297 37.0477 32.1574 39.4043 30.8074C39.4477 30.7828 39.777 30.8824 40.2199 31.0324Z" fill="#75CFF9"/>
<path d="M40.8002 30.5326C37.942 33.1153 34.1555 34.6877 30 34.6877C26.4516 34.6877 23.1703 33.5404 20.5078 31.5963C21.1828 30.2756 21.8848 29.3264 22.2281 28.8963C22.7203 28.2787 23.4551 27.9248 24.2426 27.9248C24.3902 27.9248 24.5391 27.9377 24.6844 27.9635C25.4613 28.0982 27.5004 28.5459 29.6414 29.7893C30.4504 30.2598 31.1932 30.7992 31.8675 31.3995C31.9778 31.4977 32.1357 31.5174 32.2666 31.4492C32.7116 31.2174 33.1745 31.0066 33.6539 30.8183C35.9426 29.9206 38.0227 29.7472 38.8102 29.7155C38.8465 29.7144 38.8816 29.7132 38.9168 29.7132C39.634 29.7131 40.3174 30.018 40.8002 30.5326Z" fill="#75CFF9"/>
<path d="M39.7669 19.415C39.7669 19.3775 39.8314 19.3017 39.8314 19.3017C39.774 18.4423 39.0588 17.7631 38.185 17.7631H37.7542C38.6655 17.7631 39.2985 17.0132 39.2985 16.1019C39.2985 16.0645 39.4008 16.0018 39.4008 16.0018C39.3436 15.1422 38.6283 14.4628 37.7542 14.4628H34.0641C32.335 14.4628 31.0785 12.9113 31.3971 11.2035L31.787 9.11374C32.0278 7.8228 31.382 6.52905 30.2082 5.95131C29.7238 5.71284 29.141 5.9567 28.9682 6.47022L27.172 12.156C26.6188 13.6928 25.4377 15.2553 23.9502 16.0233L23.9655 24.7652C23.9655 25.99 25.1179 26.9971 27.9579 26.9971H36.7765C37.5885 26.9971 38.0906 26.6496 38.0906 25.8377C38.0906 25.7392 38.2186 25.5468 38.2186 25.5468C38.0849 24.8725 37.49 24.3643 36.7765 24.3643L37.6406 24.2412C38.552 24.2412 39.2565 23.648 39.2565 22.7367C39.2565 22.6994 39.4008 22.6032 39.4008 22.6032C39.3437 21.7435 38.6283 21.0639 37.7542 21.0639L38.0986 20.9595C39.01 20.959 39.7669 19.415 39.7669 19.415Z" fill="#E3A76F"/>
<path d="M38.2463 25.8336C38.2463 26.6457 37.5889 27.3043 36.7768 27.3043H27.9584C25.1178 27.3043 23.9658 26.3117 23.9658 25.0859V23.3281C23.9658 24.5539 25.1178 25.5465 27.9584 25.5465L38.2186 25.5464C38.2374 25.6401 38.2463 25.7352 38.2463 25.8336Z" fill="#D6995C"/>
<path d="M20.3008 15.677C20.3008 15.0402 20.817 14.524 21.4538 14.524L21.9217 14.4619H22.9142C23.551 14.4619 24.0672 14.9781 24.0672 15.6149V25.5461L23.8729 25.908C23.8729 26.5448 23.3567 27.061 22.7199 27.061L21.5332 27.0512C20.8964 27.0512 20.3802 26.535 20.3802 25.8982L20.3008 15.677Z" fill="#857E87"/>
<path d="M24.0676 25.546V26.1507C24.0676 26.7882 23.5508 27.3038 22.9145 27.3038H21.3172C20.6809 27.3038 20.1641 26.7882 20.1641 26.1507V15.6143C20.1641 14.978 20.6809 14.4624 21.3172 14.4624L21.9219 14.4619V24.8429C21.9219 25.2307 22.2371 25.546 22.625 25.546H24.0676Z" fill="#766E7A"/>
<path d="M39.4007 22.6035C39.4042 22.6398 39.4041 22.6775 39.4041 22.715C39.4041 23.6255 38.6658 24.365 37.7541 24.365H35.5041C35.0178 24.365 34.624 23.9712 34.624 23.4849V23.4837C34.624 22.9974 35.0178 22.6036 35.5041 22.6036L39.4007 22.6035Z" fill="#D6995C"/>
<path d="M34.624 16.8833V16.8821C34.624 16.3958 35.0178 16.0021 35.5041 16.0021L39.4007 16.002C39.4042 16.0383 39.4041 16.0759 39.4041 16.1134C39.4041 17.0251 38.6658 17.7634 37.7541 17.7634H35.5041C35.0178 17.7634 34.624 17.3696 34.624 16.8833Z" fill="#D6995C"/>
<path d="M34.8818 20.8041C34.7225 20.6447 34.624 20.4256 34.624 20.1818C34.624 19.6955 35.0178 19.3018 35.5041 19.3018H39.8315C39.835 19.3381 39.8354 19.3756 39.8354 19.4131C39.8354 20.3107 39.1193 21.0396 38.2275 21.0619H35.5041C35.2615 21.0619 35.0412 20.9635 34.8818 20.8041Z" fill="#D6995C"/>
<path d="M24.3235 30.0411C24.1546 30.0118 23.9846 30.0765 23.8777 30.2106C23.5732 30.5924 22.919 31.4747 22.3069 32.7104C22.3069 32.7104 22.1855 33.7385 21.985 34.3087C21.2718 36.3378 20.575 38.8937 21.5782 41.655C23.8637 47.9456 30.9519 48.9903 30.9519 48.9903C30.9519 48.9903 35.5821 43.2696 33.426 37.335C32.8328 35.7021 31.8582 34.6931 30.8676 33.6991C30.6271 33.4578 30.2215 32.7581 30.2215 32.7581C27.8628 30.7881 25.1723 30.1883 24.3235 30.0411Z" fill="#86CC72"/>
<path d="M30.9522 48.9905C30.9522 48.9905 23.8647 47.9464 21.5784 41.6557C20.294 38.1178 21.2364 34.873 22.3075 32.7109C24.288 33.0074 26.1276 33.7374 27.7295 34.8003C27.8807 34.9011 28.0834 34.8753 28.1971 34.7346C28.7913 34.0057 29.4687 33.3435 30.2222 32.7587C31.5043 33.8298 32.6889 35.3065 33.4272 37.335C35.5823 43.2706 30.9522 48.9905 30.9522 48.9905Z" fill="#79BF66"/>
<path d="M39.3178 32.048C39.2292 31.9015 39.0691 31.8156 38.898 31.8227C37.6777 31.8729 32.6548 32.3243 29.6257 36.3211C29.6257 36.3211 29.3926 37.4338 29.1461 37.8796C25.9254 43.7023 29.4485 49.3946 29.4485 49.3946C29.4485 49.3946 36.7593 49.147 39.7977 43.6538C41.5144 40.5502 41.0503 37.5559 40.438 35.3347C40.3123 34.8787 40.2756 34.0325 40.2756 34.0325C39.9104 33.082 39.5225 32.3868 39.3178 32.048Z" fill="#98DB7C"/>
<path d="M5.45541 33.5899C5.28408 33.5905 5.12799 33.6838 5.04596 33.8341C4.7449 34.3863 4.01576 35.857 3.6233 37.7939C3.6233 37.7939 3.62916 39.1309 3.60103 39.8598C3.53189 41.6526 4.13787 43.5172 5.27178 45.4848C8.64619 51.3399 15.3682 51.2722 15.3682 51.2722C15.3682 51.2722 18.9719 44.7689 15.7885 39.2451C15.1003 38.0509 14.0174 37.4336 13.132 36.6893C12.6984 36.3247 12.0547 35.4067 12.0547 35.4067C9.28357 33.717 6.34943 33.5867 5.45541 33.5899Z" fill="#B8EB7C"/>
<path d="M15.7871 39.2451C14.7617 37.4662 13.4281 36.2451 12.0535 35.4072C9.68376 37.2577 7.94704 39.8846 7.22587 42.903C7.16271 43.1671 6.84032 43.2676 6.64239 43.0817C5.94583 42.4278 5.30271 41.6437 4.75989 40.7018C4.20091 39.7314 3.8388 38.7529 3.62317 37.7943C3.172 40.0186 3.16497 42.8568 4.75989 45.6236C8.13489 51.4783 15.3677 51.2721 15.3677 51.2721C15.3677 51.2721 17.5742 42.3459 15.7871 39.2451Z" fill="#98DB7C"/>
<path d="M39.7977 43.6533C37.3696 48.0443 32.211 49.0838 30.2388 49.324C29.7431 49.3838 29.4489 49.3943 29.4489 49.3943C29.4489 49.3943 29.1559 48.9361 28.7985 48.1498C27.8634 46.0885 26.4911 41.7725 28.822 37.5572C29.0681 37.1107 29.3388 36.6994 29.6259 36.3209C30.1673 36.84 30.6653 37.4049 31.1142 38.0084C31.297 38.2557 31.6626 38.2686 31.8548 38.0295C31.8946 37.9803 31.9345 37.9322 31.9755 37.883C33.9513 35.5228 36.8833 34.167 40.2759 34.0322C41.1337 36.267 41.8673 39.9127 39.7977 43.6533Z" fill="#86CC72"/>
<path d="M31.662 46.0412C31.662 40.0412 27.022 35.1269 21.1405 34.7031C21.1405 34.7031 20.5923 34.7404 20.3146 34.7404C14.0477 34.7404 9.73633 39.7629 9.73633 46.0412H31.662Z" fill="#E27F86"/>
<path d="M21.192 34.7059C15.335 35.1559 10.7236 40.0578 10.7236 46.0402H8.96582C8.96582 39.7613 14.0459 34.6719 20.3131 34.6719C20.6084 34.6719 20.9025 34.6848 21.192 34.7059Z" fill="#DF646E"/>
<path d="M27.8787 46.0407C27.8787 44.281 27.28 42.6614 26.2756 41.3751L25.5656 40.8507L25.0418 40.1243C23.9619 39.2571 22.6395 38.6805 21.1927 38.5127L20.3138 38.7989L19.4347 38.5127C18.0193 38.6768 16.723 39.2322 15.6563 40.0684L15.2123 40.9664L14.4078 41.3046C13.3699 42.602 12.749 44.2487 12.749 46.0407H27.8787Z" fill="#DF646E"/>
<path d="M42.7828 36.5403C42.7242 36.3765 42.5811 36.2598 42.409 36.2349C41.6276 36.1221 39.2924 35.9024 36.9341 36.8368C36.9341 36.8368 36.3839 37.1223 36.1067 37.2672C35.2206 37.7308 34.4989 38.474 33.741 39.3791C30.2892 43.5002 32.4928 48.5617 32.4928 48.5617C32.4928 48.5617 38.0986 49.6526 41.3549 45.7646C44.4623 42.0544 43.1776 37.6437 42.7828 36.5403Z" fill="#B8EB7C"/>
<path d="M39.8795 47.1171C36.5971 49.414 32.2635 48.7226 32.2635 48.7226C32.2635 48.7226 30.14 43.3601 33.5912 39.2386C34.592 38.0433 35.777 37.2941 36.9547 36.8301C36.3899 37.2238 35.8459 37.707 35.349 38.3011C31.8978 42.4226 34.0213 47.7851 34.0213 47.7851C34.0213 47.7851 36.9931 48.2586 39.8795 47.1171Z" fill="#98DB7C"/>
<path d="M55.3809 37.3438C55.2951 37.1923 55.1333 37.1018 54.9592 37.1077C54.2737 37.1309 52.4258 37.2851 50.5894 38.2339C50.5894 38.2339 49.755 38.9236 49.3141 39.2724C48.6005 39.8368 47.851 40.3963 47.3173 41.3223C44.7977 45.6943 47.6312 50.3028 47.6312 50.3028C47.6312 50.3028 52.8933 50.1507 55.2704 46.0262C55.557 45.5289 55.8814 45.019 56.0459 44.5296C56.2684 43.8684 56.6135 42.6698 56.6135 42.6698C56.8072 40.1283 55.7704 38.0316 55.3809 37.3438Z" fill="#B8EB7C"/>
<path d="M51.2382 44.6479C51.6274 42.5097 51.4138 40.2807 50.5891 38.2344C49.3618 38.881 48.11 39.908 47.3175 41.3227C44.798 45.695 47.6304 50.3028 47.6304 50.3028C47.6304 50.3028 47.6395 50.3027 47.6555 50.3021C47.6613 50.302 47.6681 50.3016 47.676 50.3014C47.7866 50.2973 48.0955 50.2817 48.5362 50.2243C48.5365 50.2241 48.5367 50.2237 48.5369 50.2235C50.209 50.0035 53.7697 49.1771 55.5511 46.0852C56.2249 44.9157 56.53 43.752 56.6132 42.6704C55.0561 44.1486 53.0489 44.7846 51.6511 45.058C51.4068 45.1058 51.1936 44.893 51.2382 44.6479Z" fill="#98DB7C"/>
<path d="M33.4346 49.3941C37.1274 53.0936 42.8514 52.9667 46.5442 49.2672C49.8366 45.9689 50.1937 40.8436 47.6154 37.1491C47.6154 37.1491 47.1323 36.7119 46.8658 36.4163C46.687 36.2178 46.3763 36.2128 46.1876 36.402L33.4346 49.3941Z" fill="#FFD05B"/>
<path d="M47.6157 37.1491L34.4424 50.3364C33.9959 50.0235 33.5705 49.6672 33.1709 49.2676L40.2197 43.5236L43.2011 39.2194L46.2033 36.2118C46.392 36.0219 46.7025 36.0278 46.8818 36.2258C47.1479 36.5211 47.393 36.8292 47.6157 37.1491Z" fill="#FFC244"/>
<path d="M36.5156 45.9193C38.362 47.7691 41.3557 47.7691 43.2021 45.9193C45.0485 44.0695 45.0485 41.0705 43.2021 39.2207L40.196 43.2636L36.5156 45.9193Z" fill="#FFE077"/>
<path d="M44.1623 40.6057L37.8963 46.8787C37.3959 46.6514 36.9271 46.3303 36.5146 45.9178L43.2015 39.2188C43.614 39.6324 43.935 40.1029 44.1623 40.6057Z" fill="#FFD05B"/>
<path d="M49.2132 56.9413L10.3482 57.1929C5.25883 57.1929 1.33691 53.6024 1.33691 48.5131V47.1855C1.33691 46.585 1.82371 46.0982 2.42418 46.0982L3.22246 45.9092H58.0336C58.6341 45.9092 59.1209 46.396 59.1209 46.9964V48.3241C59.1209 49.3289 58.9601 50.2962 58.6627 51.2016L57.9087 52.1549L57.8719 52.9595C57.3829 53.7981 56.7653 54.5525 56.0461 55.1955C56.046 55.1955 51.5718 56.9413 49.2132 56.9413Z" fill="#DFBDF0"/>
<path d="M56.0462 55.1954C54.4161 56.6532 52.2644 57.539 49.9055 57.539H10.0945C6.69527 57.539 3.72562 55.6983 2.12824 52.9593L2.24602 51.9678L1.33734 51.2015C1.0398 50.2959 0.878906 49.3284 0.878906 48.3234V46.9968C0.878906 46.3956 1.36523 45.9093 1.96641 45.9093L3.22266 45.9092V46.6405C3.22266 51.3655 7.05234 55.1952 11.7773 55.1952L56.0462 55.1954Z" fill="#CBB0F2"/>
<path d="M40.7137 19.413C40.7137 18.6586 40.3817 17.9805 39.8564 17.5166C40.1257 17.1147 40.2829 16.6315 40.2829 16.1125C40.2829 14.718 39.1483 13.5833 37.7538 13.5833H34.0637C33.5045 13.5833 33.0037 13.3514 32.6539 12.9304C32.2982 12.5022 32.1549 11.9315 32.2607 11.3643L32.6507 9.27436C32.9627 7.6021 32.1177 5.91131 30.5962 5.16237C30.1386 4.93713 29.606 4.92038 29.135 5.11596C28.7816 5.26221 28.3098 5.66686 28.1298 6.20499L26.3391 11.8737C25.9662 12.9006 25.3024 13.8651 24.527 14.5548C24.1691 13.9732 23.5285 13.5833 22.797 13.5833H21.317C20.1965 13.5833 19.2852 14.4948 19.2852 15.6153V19.5374C19.2852 20.0229 19.6787 20.4163 20.1641 20.4163C20.6495 20.4163 21.043 20.0229 21.043 19.5374V15.6153C21.043 15.4641 21.1659 15.3412 21.317 15.3412H22.7969C22.9481 15.3412 23.071 15.4641 23.071 15.6153V26.1511C23.071 26.3023 22.9481 26.4252 22.7969 26.4252H21.317C21.1658 26.4252 21.043 26.3023 21.043 26.1511V23.6389C21.043 23.1533 20.6495 22.7599 20.1641 22.7599C19.6787 22.7599 19.2852 23.1533 19.2852 23.6389V26.1511C19.2852 27.2715 20.1966 28.183 21.317 28.183H22.7969C23.4546 28.183 24.0385 27.8676 24.4101 27.3815C25.1335 27.8431 26.2463 28.183 27.9575 28.183H36.776C38.0712 28.183 39.1251 27.1293 39.1251 25.8339C39.1251 25.5183 39.0625 25.2169 38.9492 24.9419C39.7425 24.5146 40.2829 23.6759 40.2829 22.7134C40.2829 22.1943 40.1257 21.7111 39.8564 21.3093C40.3817 20.8455 40.7137 20.1673 40.7137 19.413ZM38.1846 20.1843H35.4921C35.0067 20.1843 34.6132 20.5777 34.6132 21.0632C34.6132 21.5487 35.0067 21.9421 35.4921 21.9421H37.7538C38.1791 21.9421 38.5251 22.2882 38.5251 22.7134C38.5251 23.1387 38.1791 23.4848 37.7538 23.4848H35.4921C35.0067 23.4848 34.6132 23.8782 34.6132 24.3637C34.6132 24.8492 35.0067 25.2426 35.4921 25.2426H36.7761C37.1021 25.2426 37.3674 25.5079 37.3674 25.8339C37.3674 26.1599 37.1021 26.4252 36.7761 26.4252H27.9576C26.0081 26.4252 24.8442 25.9247 24.8442 25.0862C24.8442 25.0862 24.8459 16.7405 24.8289 16.5265C26.2057 15.6456 27.3943 14.1323 27.9989 12.4533C28.0289 12.4146 29.7659 6.76467 29.82 6.73936C30.6373 7.14166 31.0909 8.05139 30.9229 8.95198L30.533 11.0418C30.331 12.1242 30.6113 13.2219 31.302 14.0534C31.9818 14.8717 32.9885 15.341 34.0639 15.341H37.754C38.1793 15.341 38.5254 15.6871 38.5254 16.1124C38.5254 16.5376 38.1793 16.8837 37.754 16.8837H35.4923C35.0069 16.8837 34.6134 17.2771 34.6134 17.7626C34.6134 18.2481 35.0069 18.6415 35.4923 18.6415H38.1848C38.6101 18.6415 38.9561 18.9876 38.9561 19.4128C38.9561 19.8381 38.6098 20.1843 38.1846 20.1843Z" fill="black"/>
<path d="M58.0338 45.0304H57.0057C58.5732 40.6552 56.0883 36.7985 55.9716 36.6213C55.8138 36.3819 55.5492 36.2346 55.2628 36.2264C55.1134 36.2224 51.932 36.1586 49.1611 38.0682C48.6662 37.0391 47.9988 36.0832 47.1668 35.2496C47.0019 35.0845 46.7781 34.9917 46.5448 34.9917C46.3113 34.9917 46.0876 35.0845 45.9227 35.2496L43.9146 37.2614C43.7163 36.4607 43.5041 35.9641 43.4902 35.9318C43.3764 35.6691 43.1416 35.4781 42.8612 35.4202C42.7942 35.4063 42.3212 35.3132 41.5928 35.2689C41.2287 33.8624 40.7053 32.7434 40.3357 32.0603C44.5164 28.851 46.9922 23.865 46.9922 18.5742C46.9922 14.7521 45.7528 11.1422 43.4081 8.1348C43.1098 7.75184 42.5573 7.68352 42.1746 7.98199C41.7918 8.28047 41.7234 8.83277 42.0218 9.21551C44.1236 11.9113 45.2344 15.1474 45.2344 18.5742C45.2344 23.4723 42.8675 28.0792 38.8945 30.9418C37.929 30.9741 34.7641 31.2288 31.851 33.0929C28.6792 29.6862 24.3459 29.1491 24.153 29.127C23.8684 29.094 23.5853 29.2022 23.395 29.4168C23.35 29.4674 22.6785 30.2334 21.9512 31.509C17.5 28.7346 14.7656 23.8514 14.7656 18.5742C14.7656 10.1739 21.5998 3.33984 30 3.33984C33.385 3.33984 36.5896 4.42629 39.2673 6.48176C39.6524 6.77742 40.2041 6.70477 40.4996 6.31969C40.7952 5.93473 40.7227 5.38289 40.3377 5.08734C37.3501 2.79422 33.7754 1.58203 30 1.58203C20.6305 1.58203 13.0078 9.20473 13.0078 18.5742C13.0078 24.5166 16.1157 30.0115 21.1646 33.0894C21.0661 33.3198 20.9708 33.5595 20.88 33.807C20.6917 33.7983 20.5028 33.7938 20.3134 33.7938C18.0045 33.7938 15.79 34.4327 13.8742 35.6258C10.0493 32.4645 5.33566 32.707 5.12801 32.7191C4.84195 32.7362 4.58215 32.892 4.43203 33.1362C4.38586 33.2113 3.29473 35.0059 2.76539 37.5993C2.66836 38.0749 2.97527 38.5392 3.45082 38.6363C3.51012 38.6484 3.56918 38.6542 3.62742 38.6542C4.03641 38.6541 4.40273 38.3671 4.4877 37.9508C4.81277 36.3579 5.38547 35.093 5.70246 34.4732C6.84047 34.5042 9.83461 34.7798 12.4009 36.7034C12.1698 36.9004 11.9449 37.1067 11.7268 37.3222C9.62508 39.3994 8.36543 42.1109 8.12848 45.0304H5.43785C4.87125 44.0048 4.49988 42.8978 4.33805 41.7348C4.27113 41.254 3.82617 40.918 3.34641 40.9854C2.86559 41.0523 2.53008 41.4963 2.59699 41.9771C2.74477 43.0385 3.03961 44.0611 3.47355 45.0304H1.96617C0.881953 45.0304 0 45.9123 0 46.9964V48.3239C0 53.8897 4.52813 58.418 10.0939 58.418H49.9059C55.4718 58.418 59.9999 53.8897 59.9999 48.3239V46.9964C60 45.9123 59.118 45.0304 58.0338 45.0304ZM54.7377 38.0005C55.2864 39.0539 56.5059 41.9777 55.1064 45.0302H49.8969C50.3223 43.2818 50.2786 41.4709 49.8045 39.7752C51.6037 38.3701 53.7905 38.0654 54.7377 38.0005ZM46.5125 37.1468C48.2939 39.3436 48.8877 42.3056 48.0777 45.0302H44.8943C45.7842 43.1919 45.6186 40.9583 44.3944 39.2687L46.5125 37.1468ZM43.1284 40.5371C43.9841 41.9244 43.8818 43.748 42.821 45.0304H38.6433L43.1284 40.5371ZM42.4146 38.764L36.1595 45.0304H32.497C32.4844 43.475 32.835 41.5098 34.2649 39.8025C36.7825 36.7968 40.6968 36.9282 42.0373 37.0754C42.157 37.4481 42.3162 38.036 42.4146 38.764ZM38.69 32.7161C38.9668 33.2039 39.4241 34.1099 39.774 35.289C37.697 35.462 34.9752 36.2168 32.9174 38.6739C32.2755 39.4403 31.8105 40.2438 31.479 41.0467C30.994 39.9594 30.3489 38.9456 29.5625 38.0354C29.572 38.018 29.5809 38.0002 29.5907 37.9827C32.0535 33.5299 37.1244 32.8267 38.69 32.7161ZM24.4153 30.9529C25.5009 31.1726 28.2776 31.9273 30.4369 34.1577C29.6425 34.8579 28.9029 35.7103 28.2758 36.7478C26.6647 35.3612 24.7392 34.43 22.6805 34.0248C23.2648 32.5827 24.0101 31.49 24.4153 30.9529ZM20.3134 35.5516C25.7468 35.5516 30.2186 39.6238 30.7331 45.0304H28.6977C28.472 43.1236 27.61 41.3611 26.2228 39.9995C24.6352 38.4412 22.5364 37.5831 20.3133 37.5831C18.0901 37.5831 15.9914 38.4412 14.4038 39.9995C13.0166 41.3611 12.1547 43.1236 11.929 45.0304H9.89402C10.406 39.7308 14.9115 35.5516 20.3134 35.5516ZM15.0425 41.9411L15.972 42.8722C16.1436 43.0441 16.3688 43.1302 16.594 43.1302C16.8186 43.1302 17.0433 43.0446 17.2148 42.8734C17.5584 42.5304 17.5589 41.9739 17.216 41.6304L16.2933 40.706C17.1942 40.0208 18.2696 39.5584 19.4345 39.4017V41.0515C19.4345 41.537 19.828 41.9304 20.3134 41.9304C20.7988 41.9304 21.1923 41.537 21.1923 41.0515V39.4017C22.388 39.5626 23.4894 40.0458 24.4046 40.7611L23.5369 41.6304C23.194 41.974 23.1945 42.5305 23.538 42.8734C23.7096 43.0446 23.9343 43.1302 24.1589 43.1302C24.384 43.1302 24.6093 43.0441 24.7809 42.8722L25.6391 42.0125C26.2971 42.8804 26.749 43.9113 26.9208 45.0304H13.706C13.8826 43.8805 14.3548 42.8236 15.0425 41.9411ZM49.9061 56.6602H10.0939C7.21148 56.6602 4.66652 55.1892 3.16887 52.9589H39.234C39.7194 52.9589 40.1129 52.5655 40.1129 52.08C40.1129 51.5945 39.7194 51.2011 39.234 51.2011H2.26992C1.93898 50.3039 1.75781 49.3348 1.75781 48.3239V46.9964C1.75781 46.8816 1.85121 46.7882 1.96617 46.7882H58.0338C58.1487 46.7882 58.2422 46.8816 58.2422 46.9964V48.3239C58.2422 49.3346 58.061 50.3038 57.7301 51.2011H43.3356C42.8502 51.2011 42.4567 51.5945 42.4567 52.08C42.4567 52.5655 42.8502 52.9589 43.3356 52.9589H56.831C55.3335 55.1892 52.7885 56.6602 49.9061 56.6602Z" fill="black"/>
</g>
<defs>
<clipPath id="clip0_1800_30645">
<rect width="60" height="60" fill="white"/>
</clipPath>
</defs>
</svg>
