<svg width="94" height="80" viewBox="0 0 94 80" fill="none" xmlns="http://www.w3.org/2000/svg">
<path fill-rule="evenodd" clip-rule="evenodd" d="M27.453 53.5222C25.7594 53.5911 24.0145 52.5074 24.1689 50.0844C24.3313 45.6067 26.9164 31.8756 26.0308 23.2745C25.6927 21.6647 26.0711 20.4777 23.7556 19.3036C18.6203 16.6992 19.2155 8.02212 22.4401 3.35787C25.2478 -0.703299 29.6438 -0.713626 32.4584 3.34607C35.6901 8.00774 36.2904 16.697 31.151 19.3036C28.8355 20.478 29.214 21.665 28.8759 23.2745C27.9902 31.8756 30.5749 45.6067 30.7378 50.0844C30.8914 52.5077 29.1465 53.5911 27.453 53.5222Z" fill="#FF0600"/>
<path fill-rule="evenodd" clip-rule="evenodd" d="M47.0006 53.5256C45.3368 53.5518 43.6579 52.4647 43.8094 50.0859C43.9619 45.8803 46.0222 33.5191 45.566 24.905C45.3724 21.2486 45.7112 21.3901 42.758 19.3166C41.7861 18.6339 40.928 17.3887 41.1271 15.9591L42.0964 1.47868C42.3821 -0.497897 44.1207 0.336679 44.1053 0.792672V16.3502C44.1053 16.8737 44.5128 17.3024 45.0104 17.3024C45.5081 17.3024 45.9155 16.8737 45.9155 16.3502V1.13365C45.9155 0.104808 48.0862 -0.321695 48.0862 1.13365V16.3502C48.0862 16.8741 48.4932 17.3024 48.9912 17.3024H48.9916C49.4893 17.3024 49.8963 16.8737 49.8963 16.3502V0.792672C49.8813 0.336679 51.62 -0.497897 51.9056 1.47868L52.8749 15.9591C53.074 17.389 52.2111 18.5583 51.2393 19.241C48.286 21.3145 48.5497 21.2486 48.3561 24.905C47.8999 33.5191 50.0401 45.8803 50.1926 50.0859C50.343 52.4647 48.6641 53.5518 47.0006 53.5256Z" fill="#FF0600"/>
<path fill-rule="evenodd" clip-rule="evenodd" d="M68.7909 50.2662C68.7909 34.6504 68.7912 19.8164 68.7912 4.2006C68.7912 0.161913 68.9229 -2.05096 65.8559 2.64167C62.0841 8.41217 59.3791 19.3763 59.8958 28.5138C60.029 30.866 60.374 30.4192 62.4402 31.5237C64.2823 32.5083 65.008 33.0914 65.0231 34.615C65.0656 38.9003 64.3072 43.8019 63.269 47.7897C61.4218 54.884 68.8224 55.0229 68.7909 50.2662Z" fill="#FF0600"/>
<path fill-rule="evenodd" clip-rule="evenodd" d="M89.2708 72.8896C89.2708 73.0577 89.2532 73.1841 89.13 73.2822L88.6027 73.6892C88.5502 73.7312 88.4798 73.7732 88.4798 73.8152C88.4798 73.8573 88.4974 73.8993 88.5851 73.8993H91.3088C91.3964 73.8993 91.414 73.8573 91.414 73.8152C91.414 73.7732 91.344 73.7312 91.2912 73.6892L90.7638 73.2822C90.6406 73.1841 90.623 73.0577 90.623 72.8896V64.054H91.2736C91.3788 64.054 91.4316 64.124 91.4665 64.2084L92.3803 66.9993C92.3976 67.0553 92.4504 67.0837 92.5208 67.0837C92.5909 67.0837 92.6084 67.0557 92.6084 66.9853V63.4369C92.6084 63.4089 92.5736 63.3809 92.5208 63.3809H87.3727C87.3202 63.3809 87.285 63.4089 87.285 63.4369V66.9853C87.285 67.0553 87.3026 67.0837 87.3727 67.0837C87.4427 67.0837 87.4959 67.0557 87.5131 66.9993L88.427 64.2084C88.4622 64.124 88.5147 64.054 88.6199 64.054H89.2701V72.8896H89.2708ZM77.9565 72.8896C77.9565 73.0577 77.9037 73.1701 77.7985 73.2822L77.3591 73.6892C77.3239 73.7312 77.2363 73.7732 77.2363 73.8292C77.2363 73.8573 77.2715 73.8993 77.3415 73.8993H79.6607C79.7308 73.8993 79.766 73.8573 79.766 73.8292C79.766 73.7732 79.6959 73.7308 79.6431 73.6892L79.1686 73.2682C79.0457 73.1701 78.9929 73.0577 78.9929 72.8896V65.9052H79.0281L81.0836 73.5487C81.1364 73.7588 81.2769 73.8993 81.435 73.8993H82.1732C82.296 73.8993 82.3492 73.8433 82.3492 73.7452V64.3905C82.3492 64.2221 82.402 64.11 82.5073 63.9979L82.9466 63.591C82.999 63.549 83.0695 63.5069 83.0695 63.4509C83.0695 63.4229 83.0343 63.3809 82.9642 63.3809H80.645C80.5746 63.3809 80.5394 63.4229 80.5394 63.4509C80.5394 63.5069 80.6274 63.549 80.6622 63.591L81.1544 64.0119C81.2776 64.11 81.3128 64.2221 81.3128 64.3905V69.6497H81.2776L79.6611 63.619C79.6259 63.4785 79.5734 63.3809 79.4502 63.3809H77.3419C77.2718 63.3809 77.2366 63.4229 77.2366 63.4509C77.2366 63.5069 77.3243 63.549 77.3595 63.591L77.7988 63.9979C77.9041 64.11 77.9569 64.2221 77.9569 64.3905V72.8896H77.9565ZM69.4884 70.6878C69.4532 70.6878 69.4183 70.6598 69.4356 70.6037L70.0154 67.1538H70.0506L70.6659 70.5898C70.6835 70.6458 70.6484 70.6882 70.5955 70.6882L69.4884 70.6878ZM71.1049 73.0297C71.1225 73.1561 71.0873 73.2542 71.0173 73.3102L70.5427 73.6888C70.4899 73.7308 70.4199 73.7728 70.4199 73.8149C70.4199 73.8569 70.4551 73.8989 70.5427 73.8989H73.0728C73.1605 73.8989 73.1956 73.8569 73.1956 73.8149C73.1956 73.7728 73.1428 73.7308 73.0904 73.6888L72.5806 73.3242C72.4578 73.2398 72.405 73.0857 72.3877 72.9457L70.7184 63.535C70.7008 63.4509 70.6483 63.3809 70.56 63.3809H69.9101C69.8221 63.3809 69.7873 63.4369 69.7693 63.5069L68.1707 72.9316C68.1531 73.0577 68.1355 73.1981 68.0299 73.2822L67.5381 73.6748C67.4849 73.7168 67.4149 73.7732 67.4149 73.8152C67.4149 73.8573 67.4501 73.8993 67.5205 73.8993H69.5412C69.6288 73.8993 69.664 73.8573 69.664 73.8152C69.664 73.7732 69.5588 73.7168 69.4884 73.6468L69.1019 73.3242C69.0318 73.2542 68.9966 73.1701 69.0138 73.0717L69.2779 71.529C69.2955 71.473 69.3307 71.4306 69.3831 71.4306H70.6836C70.7712 71.4306 70.824 71.4866 70.8416 71.557L71.1049 73.0297ZM59.9839 64.082H60.2475C61.1086 64.082 61.4603 64.5446 61.4603 65.9753C61.4603 67.6584 61.1086 68.2051 60.2475 68.2051H59.9839V64.082ZM59.9839 68.9066H60.2824C60.8978 68.9066 61.3719 69.3692 61.3719 69.9867V73.002C61.3719 73.479 61.6881 73.8996 62.4963 73.8996H63.4099C63.4979 73.8996 63.5859 73.8997 63.5859 73.8576C63.5859 73.8156 63.5155 73.7596 63.4454 73.7035L62.8832 73.2265C62.7952 73.1565 62.7248 73.0724 62.7248 72.974V70.0427C62.7248 69.2712 62.1974 68.7241 61.6004 68.472C62.2154 68.1634 62.9008 67.5324 62.9008 65.9753C62.9008 64.152 61.9517 63.3809 60.1247 63.3809H57.9283C57.8583 63.3809 57.8231 63.4229 57.8231 63.4649C57.8231 63.5069 57.9107 63.549 57.9459 63.591L58.4733 63.9979C58.5962 64.096 58.6317 64.2221 58.6317 64.3905V72.8896C58.6317 73.0577 58.5962 73.1841 58.4733 73.2822L57.9459 73.6892C57.9107 73.7312 57.8231 73.7732 57.8231 73.8152C57.8231 73.8573 57.8583 73.8993 57.9283 73.8993H60.6873C60.7573 73.8993 60.7925 73.8573 60.7925 73.8152C60.7925 73.7732 60.7048 73.7312 60.6696 73.6892L60.1423 73.2822C60.0191 73.1841 59.9839 73.0577 59.9839 72.8896V68.9066ZM48.8276 72.3846C48.8276 73.2542 49.5482 73.8993 50.9363 73.8993C52.1311 73.8993 52.9746 73.2542 52.9746 72.3846V64.3905C52.9746 64.2221 53.0274 64.082 53.115 63.9979L53.6596 63.591C53.7121 63.549 53.7476 63.5069 53.7476 63.4649C53.7476 63.4229 53.7121 63.3809 53.642 63.3809H51.2348C51.1648 63.3809 51.1292 63.4229 51.1292 63.4649C51.1292 63.5069 51.1648 63.549 51.2172 63.591L51.7618 63.9979C51.867 64.082 51.9023 64.2221 51.9023 64.3905V72.02C51.9023 72.6371 51.7262 73.1978 51.0764 73.1978C50.2505 73.1978 50.1805 72.6367 50.1805 72.02V64.3905C50.1805 64.2221 50.2333 64.082 50.3209 63.9979L50.8655 63.591C50.9183 63.549 50.9535 63.5069 50.9535 63.4649C50.9535 63.4229 50.9183 63.3809 50.8479 63.3809H48.1598C48.0894 63.3809 48.0542 63.4229 48.0542 63.4649C48.0542 63.5069 48.0894 63.549 48.1422 63.591L48.6868 63.9979C48.792 64.082 48.8272 64.2221 48.8272 64.3905V72.3846H48.8276ZM41.01 70.6878C40.9748 70.6878 40.9396 70.6598 40.9572 70.6037L41.537 67.1538H41.5719L42.1869 70.5898C42.2045 70.6458 42.1693 70.6882 42.1164 70.6882L41.01 70.6878ZM42.6262 73.0297C42.6438 73.1561 42.609 73.2542 42.5385 73.3102L42.0644 73.6888C42.0116 73.7308 41.9415 73.7728 41.9415 73.8149C41.9415 73.8569 41.9767 73.8989 42.0644 73.8989H44.5944C44.6825 73.8989 44.7177 73.8569 44.7177 73.8149C44.7177 73.7728 44.6649 73.7308 44.6121 73.6888L44.1027 73.3242C43.9794 73.2398 43.927 73.0857 43.9094 72.9457L42.2404 63.535C42.2228 63.4509 42.17 63.3809 42.0824 63.3809H41.4321C41.3441 63.3809 41.3093 63.4369 41.2917 63.5069L39.6928 72.9316C39.6751 73.0577 39.6575 73.1981 39.5523 73.2822L39.0601 73.6748C39.0073 73.7168 38.9373 73.7732 38.9373 73.8152C38.9373 73.8573 38.9725 73.8993 39.0429 73.8993H41.0636C41.1516 73.8993 41.1864 73.8573 41.1864 73.8152C41.1864 73.7732 41.0808 73.7168 41.0108 73.6468L40.6242 73.3242C40.5542 73.2542 40.5186 73.1701 40.5362 73.0717L40.7999 71.529C40.8175 71.473 40.8527 71.4306 40.9055 71.4306H42.2056C42.2932 71.4306 42.346 71.4866 42.3636 71.557L42.6262 73.0297ZM32.1201 72.8896C32.1201 73.0577 32.1025 73.1841 31.9797 73.2822L31.4523 73.6892C31.3995 73.7312 31.3295 73.7732 31.3295 73.8152C31.3295 73.8573 31.3471 73.8993 31.4347 73.8993H34.1584C34.2461 73.8993 34.2637 73.8573 34.2637 73.8152C34.2637 73.7732 34.1933 73.7312 34.1408 73.6892L33.6135 73.2822C33.4903 73.1841 33.4727 73.0577 33.4727 72.8896V64.054H34.1229C34.2285 64.054 34.2809 64.124 34.3161 64.2084L35.2296 66.9993C35.2472 67.0553 35.3001 67.0837 35.3701 67.0837C35.4401 67.0837 35.4581 67.0557 35.4581 66.9853V63.4369C35.4581 63.4089 35.4229 63.3809 35.3701 63.3809H30.222C30.1692 63.3809 30.1343 63.4089 30.1343 63.4369V66.9853C30.1343 67.0553 30.1519 67.0837 30.222 67.0837C30.2924 67.0837 30.3448 67.0557 30.3624 66.9993L31.2763 64.2084C31.3115 64.124 31.364 64.054 31.4692 64.054H32.1194V72.8896H32.1201ZM25.427 63.535C25.427 63.4509 25.3918 63.3809 25.3041 63.3809C25.1985 63.3809 25.0933 63.4509 24.9352 63.563C24.7771 63.6894 24.6011 63.7875 24.5311 63.7875C24.461 63.7875 24.3554 63.7454 24.2674 63.7034C24.0037 63.5349 23.6172 63.3809 23.2834 63.3809C22.3875 63.3809 21.6669 63.8015 21.6669 65.1337C21.6669 66.1574 22.0182 67.2234 22.967 68.8222C23.9685 70.505 24.4959 71.529 24.4959 72.4686C24.4959 72.9033 24.3202 73.1978 23.9861 73.1978C22.9494 73.1978 22.4048 71.4166 22.0886 70.2948C22.071 70.2528 22.0358 70.1964 21.983 70.1964C21.9126 70.1964 21.8954 70.2524 21.8954 70.2948V73.8289C21.8954 73.8709 21.9126 73.8989 21.983 73.8989C22.0534 73.8989 22.1235 73.8429 22.1939 73.8009C22.5452 73.5904 22.6857 73.4923 22.7561 73.4923C22.8085 73.4923 22.9141 73.5343 23.1074 73.6324C23.3183 73.7448 23.6172 73.8989 24.0913 73.8989C24.7416 73.8989 25.7079 73.4503 25.7079 71.9636C25.7079 70.8555 25.5671 70.3929 24.3374 68.3171C23.0374 66.115 22.8085 65.4282 22.8085 64.7407C22.8085 64.3758 22.8437 64.0813 23.2831 64.0813C24.0913 64.0813 24.9348 65.8485 25.2157 66.9846C25.2333 67.0406 25.2685 67.083 25.3214 67.083C25.3914 67.083 25.4266 67.055 25.4266 67.013L25.427 63.535ZM14.3936 64.082H15.3951C15.6236 64.082 15.7816 64.1664 15.852 64.3485L16.8008 66.9849C16.8184 67.041 16.8708 67.0834 16.9412 67.0834C16.994 67.0834 17.0293 67.0553 17.0293 66.9989V63.5069C17.0293 63.4369 16.9592 63.3809 16.8888 63.3809H12.3381C12.2676 63.3809 12.2324 63.4229 12.2324 63.4649C12.2324 63.5069 12.3201 63.549 12.3553 63.591L12.8823 63.9979C13.0051 64.096 13.0407 64.2221 13.0407 64.3905V72.8896C13.0407 73.0577 13.0055 73.1841 12.8823 73.2822L12.3553 73.6892C12.3201 73.7452 12.2324 73.7732 12.2324 73.8152C12.2324 73.8573 12.2676 73.8993 12.3381 73.8993H16.8888C16.9764 73.8993 17.0293 73.8433 17.0293 73.7732V70.2532C17.0293 70.2112 16.994 70.1688 16.9412 70.1688C16.8888 70.1688 16.836 70.1968 16.8184 70.2532L15.8697 72.946C15.7996 73.1145 15.6239 73.1985 15.3955 73.1985H14.3939V68.935H14.7805C14.8681 68.935 14.9385 68.963 14.9737 69.0334L15.5711 70.0571C15.6063 70.1131 15.6239 70.1551 15.694 70.1551C15.7464 70.1551 15.7644 70.1271 15.7644 70.0851V67.1121C15.7644 67.0561 15.7468 67.0277 15.694 67.0277C15.6412 67.0277 15.6239 67.0557 15.5884 67.1121L14.9734 68.0938C14.9382 68.1638 14.8678 68.1922 14.7801 68.1922H14.3936V64.082ZM4.62536 64.082H4.88905C5.75013 64.082 6.10146 64.5446 6.10146 65.9753C6.10146 67.6584 5.75013 68.2051 4.88905 68.2051H4.62536V64.082ZM4.62536 68.9066H4.92389C5.53889 68.9066 6.01343 69.3692 6.01343 69.9867V73.002C6.01343 73.479 6.32956 73.8996 7.13783 73.8996H8.05135C8.13936 73.8996 8.22701 73.8997 8.22701 73.8576C8.22701 73.8156 8.15697 73.7596 8.08656 73.7035L7.52436 73.2265C7.43634 73.1565 7.36594 73.0724 7.36594 72.974V70.0427C7.36594 69.2712 6.83858 68.7241 6.24154 68.472C6.85618 68.1634 7.5416 67.5324 7.5416 65.9753C7.5416 64.152 6.59287 63.3809 4.76546 63.3809H2.56911C2.49907 63.3809 2.46387 63.4229 2.46387 63.4649C2.46387 63.5069 2.55151 63.549 2.58672 63.591L3.11407 63.9979C3.23692 64.096 3.27213 64.2221 3.27213 64.3905V72.8896C3.27213 73.0577 3.23692 73.1841 3.11407 73.2822L2.58746 73.6892C2.55225 73.7312 2.46459 73.7732 2.46459 73.8152C2.46459 73.8573 2.49981 73.8993 2.56985 73.8993H5.32839C5.39844 73.8993 5.43401 73.8573 5.43401 73.8152C5.43401 73.7732 5.34599 73.7312 5.31079 73.6892L4.78379 73.2822C4.66094 73.1841 4.62573 73.0577 4.62573 72.8896V68.9066H4.62536Z" fill="#FF0600"/>
<path d="M94 59.377H0V60.4386H94V59.377Z" fill="#FF0600"/>
<path fill-rule="evenodd" clip-rule="evenodd" d="M82.5584 78.1289H94V79.1906H82.5584V78.1289ZM0 78.1289H11.4419V79.1906H0V78.1289Z" fill="#FF0600"/>
<path fill-rule="evenodd" clip-rule="evenodd" d="M77.3258 77.3648V77.9572H77.2103C77.1579 77.8031 77.0966 77.6995 77.028 77.6479C76.9591 77.5956 76.8627 77.5701 76.7402 77.5701H75.955V78.4758H76.6349C76.7567 78.4758 76.8432 78.4508 76.8949 78.3995C76.9463 78.3487 76.9719 78.2561 76.9719 78.1234H77.0988V79.0527H76.9719C76.9719 78.9075 76.9477 78.8087 76.9011 78.7578C76.8546 78.707 76.7655 78.6812 76.6349 78.6812H75.955V79.4745C75.955 79.5475 75.9601 79.6009 75.9697 79.6344C75.9799 79.6672 76.0001 79.6905 76.0294 79.7038C76.0588 79.7159 76.1065 79.7225 76.1721 79.7225H76.7475C76.8784 79.7225 76.9862 79.7037 77.0709 79.6665C77.1557 79.6297 77.2279 79.5736 77.2873 79.4995C77.3471 79.4247 77.4087 79.3215 77.4729 79.1884H77.5954L77.3812 79.9275H75.0466V79.8036C75.1515 79.8036 75.2314 79.7933 75.285 79.7731C75.3393 79.7531 75.3767 79.7152 75.3987 79.6588C75.4207 79.6027 75.4317 79.5187 75.4317 79.4066V77.8816C75.4317 77.7706 75.4207 77.687 75.3994 77.6306C75.3781 77.5738 75.3411 77.5351 75.2872 77.5152C75.2329 77.4949 75.1529 77.485 75.0466 77.485V77.3648H77.3258ZM71.6298 78.5879H71.9378C72.1241 78.5879 72.2683 78.5378 72.3706 78.4371C72.4729 78.3365 72.5235 78.2108 72.5235 78.0611C72.5235 77.983 72.5099 77.9141 72.4832 77.8532C72.4564 77.7924 72.4175 77.7408 72.3676 77.6973C72.3174 77.6538 72.2573 77.6206 72.1869 77.5974C72.1164 77.5738 72.0361 77.5624 71.9455 77.5624C71.812 77.5624 71.7072 77.5793 71.6305 77.6133V78.5879H71.6298ZM72.4571 78.7177L73.2196 79.6223C73.2709 79.6824 73.3281 79.7262 73.3912 79.7524C73.4532 79.7789 73.5386 79.7955 73.6475 79.8033V79.9271H72.8389L71.8799 78.7855H71.6298V79.4066C71.6298 79.5187 71.6419 79.6027 71.6661 79.6588C71.6896 79.7148 71.7303 79.7528 71.7886 79.7731C71.8462 79.7933 71.936 79.8036 72.0574 79.8036V79.9275H70.6866V79.8036C70.8079 79.8036 70.8971 79.7933 70.9539 79.7727C71.0108 79.7513 71.05 79.7133 71.0724 79.6577C71.0951 79.6031 71.1065 79.5191 71.1065 79.4066V77.8363C71.1065 77.7002 71.0779 77.6074 71.0192 77.5576C70.9616 77.5078 70.8703 77.4828 70.7467 77.4828C70.7346 77.4828 70.7236 77.4835 70.7152 77.4839C70.7064 77.4846 70.6972 77.4846 70.6869 77.4846V77.3644H72.1817C72.313 77.3644 72.4344 77.3766 72.5455 77.4005C72.657 77.4245 72.756 77.4625 72.8426 77.5156C72.9284 77.5683 72.9955 77.6361 73.0424 77.7194C73.0894 77.8027 73.1128 77.9019 73.1128 78.0173C73.1128 78.1846 73.052 78.3328 72.9306 78.4626C72.8088 78.5927 72.6515 78.6778 72.4571 78.7177ZM69.011 77.3648V77.9572H68.8958C68.843 77.8031 68.7821 77.6995 68.7136 77.6479C68.6442 77.5956 68.5482 77.5701 68.4253 77.5701H67.6405V78.4758H68.3201C68.4422 78.4758 68.5287 78.4508 68.5801 78.3995C68.6318 78.3487 68.6571 78.2561 68.6571 78.1234H68.7843V79.0527H68.6571C68.6571 78.9075 68.6332 78.8087 68.5867 78.7578C68.5397 78.707 68.4506 78.6812 68.3201 78.6812H67.6405V79.4745C67.6405 79.5475 67.6456 79.6009 67.6552 79.6344C67.6655 79.6672 67.6852 79.6905 67.7149 79.7038C67.7443 79.7159 67.792 79.7225 67.8572 79.7225H68.433C68.5639 79.7225 68.6718 79.7037 68.7565 79.6665C68.8412 79.6297 68.913 79.5736 68.9728 79.4995C69.0326 79.4247 69.0942 79.3215 69.1584 79.1884H69.2809L69.0663 79.9275H66.7318V79.8036C66.837 79.8036 66.917 79.7933 66.9705 79.7731C67.0244 79.7531 67.0622 79.7152 67.0842 79.6588C67.1062 79.6027 67.1168 79.5187 67.1168 79.4066V77.8816C67.1168 77.7706 67.1062 77.687 67.0849 77.6306C67.0637 77.5738 67.0266 77.5351 66.9723 77.5152C66.9188 77.4949 66.8385 77.485 66.7318 77.485V77.3648H69.011ZM63.1033 78.7272V79.4066C63.1033 79.5113 63.1143 79.5924 63.1356 79.6492C63.1569 79.7067 63.1939 79.7469 63.2474 79.7694C63.301 79.7918 63.3765 79.8036 63.4752 79.8036H63.5581V79.9275H62.1447V79.8036H62.2181C62.3149 79.8036 62.3893 79.7922 62.4407 79.7694C62.492 79.7469 62.5283 79.7071 62.551 79.6492C62.573 79.5921 62.5837 79.5113 62.5837 79.4066V77.8473C62.5837 77.7253 62.5591 77.6346 62.5107 77.5746C62.4612 77.5145 62.3746 77.485 62.25 77.485H62.1447V77.3648H63.5581V77.485H63.4752C63.3765 77.485 63.3006 77.4968 63.2474 77.5193C63.1943 77.5417 63.1569 77.5819 63.1356 77.6387C63.1143 77.6947 63.1033 77.7754 63.1033 77.8787V78.4954H64.3858V77.8444C64.3858 77.7146 64.3594 77.6225 64.3069 77.5679C64.2534 77.513 64.1727 77.4853 64.0634 77.4853H63.9351V77.3652H65.3481V77.4853H65.2333C65.1115 77.4853 65.0268 77.5137 64.9799 77.5712C64.9333 77.6287 64.9095 77.7312 64.9095 77.8783V79.4074C64.9095 79.5091 64.9205 79.5898 64.9418 79.6481C64.963 79.7067 64.9986 79.7476 65.0503 79.7701C65.1009 79.7926 65.175 79.8044 65.2718 79.8044H65.3488V79.9282H63.9358V79.8044H64.0224C64.1195 79.8044 64.1933 79.793 64.245 79.7701C64.2963 79.7476 64.3326 79.7078 64.3542 79.6499C64.3751 79.5931 64.3862 79.5121 64.3862 79.4074V78.728H63.1033V78.7272ZM56.7534 79.1066H56.8726C56.9276 79.2466 57.0013 79.3698 57.0912 79.4756C57.1814 79.5821 57.2815 79.6628 57.3904 79.7188C57.4997 79.7749 57.613 79.8033 57.7315 79.8033C57.8166 79.8033 57.8925 79.787 57.9585 79.7542C58.0241 79.7214 58.0751 79.6765 58.1121 79.6197C58.1488 79.5629 58.1664 79.4992 58.1664 79.4269C58.1664 79.3119 58.1213 79.2094 58.0311 79.1187C57.9908 79.076 57.9325 79.0325 57.8569 78.9879C57.781 78.9425 57.6647 78.8769 57.5078 78.7899C57.3512 78.7033 57.2346 78.6355 57.1587 78.5879C57.0831 78.5403 57.0156 78.488 56.9566 78.4323C56.8264 78.3015 56.7607 78.1492 56.7607 77.9749C56.7607 77.8827 56.7809 77.7965 56.8213 77.715C56.8609 77.6335 56.9162 77.5642 56.9859 77.5052C57.056 77.4466 57.1396 77.4009 57.236 77.3677C57.3321 77.3349 57.4355 77.3187 57.5474 77.3187C57.6288 77.3187 57.7007 77.3246 57.7641 77.336C57.8272 77.3471 57.8936 77.3637 57.964 77.3851C58.0337 77.4068 58.0909 77.423 58.1345 77.4341C58.1782 77.4452 58.213 77.4503 58.2379 77.4503C58.3065 77.4503 58.3535 77.4065 58.3784 77.3187H58.5056V78.1548H58.3865C58.334 78.0232 58.2665 77.9085 58.1829 77.8097C58.1 77.711 58.008 77.635 57.9075 77.5812C57.8074 77.5277 57.704 77.5004 57.598 77.5004C57.4843 77.5004 57.393 77.5288 57.3251 77.5849C57.2573 77.6413 57.2232 77.715 57.2232 77.8086C57.2232 77.8945 57.258 77.9719 57.3266 78.0416C57.3651 78.0777 57.441 78.1268 57.554 78.188C57.6662 78.2491 57.774 78.3066 57.8767 78.3601C57.9794 78.4139 58.0817 78.4711 58.1829 78.533C58.2841 78.5949 58.3663 78.6568 58.4286 78.7202C58.5152 78.8072 58.5753 78.8957 58.6109 78.986C58.6461 79.0763 58.6637 79.1725 58.6637 79.2743C58.6637 79.4092 58.6274 79.5323 58.5566 79.644C58.4855 79.7557 58.3857 79.8434 58.2592 79.9061C58.1327 79.9691 57.9941 80.0009 57.8433 80.0009C57.7407 80.0009 57.6482 79.9898 57.5657 79.9684C57.4836 79.947 57.3908 79.919 57.2866 79.8833C57.1829 79.8486 57.1124 79.8306 57.0776 79.8306C57.0274 79.8306 56.9837 79.846 56.9459 79.8766C56.9089 79.908 56.8847 79.9478 56.873 79.9968H56.7534V79.1066ZM54.9477 77.3648V77.9572H54.8321C54.7793 77.8031 54.7184 77.6995 54.6499 77.6479C54.5809 77.5956 54.4845 77.5701 54.362 77.5701H53.5768V78.4758H54.2564C54.3781 78.4758 54.4647 78.4508 54.5164 78.3995C54.5677 78.3487 54.5934 78.2561 54.5934 78.1234H54.7203V79.0527H54.5934C54.5934 78.9075 54.5696 78.8087 54.5226 78.7578C54.476 78.707 54.3869 78.6812 54.2564 78.6812H53.5768V79.4745C53.5768 79.5475 53.582 79.6009 53.5915 79.6344C53.6018 79.6672 53.6219 79.6905 53.6513 79.7038C53.6806 79.7159 53.7283 79.7225 53.7939 79.7225H54.3693C54.5002 79.7225 54.608 79.7037 54.6931 79.6665C54.7775 79.6297 54.8497 79.5736 54.9091 79.4995C54.9689 79.4247 55.0305 79.3215 55.0947 79.1884H55.2172L55.003 79.9275H52.6684V79.8036C52.7733 79.8036 52.8533 79.7933 52.9068 79.7731C52.9607 79.7531 52.9985 79.7152 53.0205 79.6588C53.0425 79.6027 53.0535 79.5187 53.0535 79.4066V77.8816C53.0535 77.7706 53.0425 77.687 53.0212 77.6306C53 77.5738 52.9629 77.5351 52.909 77.5152C52.8551 77.4949 52.7748 77.485 52.6684 77.485V77.3648H54.9477ZM48.9667 78.6598C48.9667 78.8437 48.9846 79.0059 49.0209 79.1475C49.0569 79.2887 49.1115 79.4107 49.183 79.5124C49.2549 79.6145 49.3426 79.6912 49.4438 79.7421C49.5457 79.7933 49.6635 79.8187 49.7962 79.8187C49.9301 79.8187 50.0474 79.7929 50.149 79.7421C50.2502 79.6912 50.3371 79.6156 50.4083 79.5165C50.4794 79.4169 50.5337 79.2953 50.5707 79.1515C50.6074 79.0074 50.6257 78.8437 50.6257 78.6601C50.6257 78.4154 50.5935 78.2067 50.5286 78.0342C50.4644 77.8613 50.3694 77.729 50.244 77.6383C50.1178 77.5469 49.9686 77.5008 49.7958 77.5008C49.6205 77.5008 49.4702 77.5469 49.3459 77.6383C49.2212 77.7294 49.1269 77.8613 49.0627 78.0342C48.9986 78.206 48.9667 78.415 48.9667 78.6598ZM48.3773 78.6601C48.3773 78.4157 48.44 78.1905 48.5662 77.9848C48.692 77.7784 48.8636 77.6158 49.0807 77.4971C49.2982 77.3777 49.5369 77.3187 49.7973 77.3187C50.0573 77.3187 50.2968 77.3781 50.5135 77.4971C50.7314 77.6158 50.9026 77.7784 51.0288 77.9848C51.1553 78.1905 51.2191 78.4157 51.2191 78.6601C51.2191 78.9049 51.1553 79.1298 51.0288 79.3358C50.9022 79.5408 50.731 79.7034 50.5135 79.8221C50.2968 79.9415 50.0573 80.0009 49.7973 80.0009C49.5369 80.0009 49.2982 79.9415 49.0807 79.8221C48.8636 79.7034 48.692 79.5408 48.5662 79.3358C48.44 79.1298 48.3773 78.9049 48.3773 78.6601ZM46.324 77.3224H46.4436L46.4934 78.1972H46.3706C46.3086 78.0375 46.2246 77.9056 46.1183 77.8009C46.0119 77.6973 45.8946 77.6203 45.7655 77.5727C45.6368 77.5244 45.5062 77.5004 45.3735 77.5004C45.2315 77.5004 45.1006 77.5263 44.98 77.5771C44.8593 77.6284 44.7537 77.7028 44.6613 77.8024C44.5685 77.9012 44.4977 78.0206 44.4475 78.1599C44.3972 78.2993 44.3723 78.4534 44.3723 78.6218C44.3723 78.8014 44.3998 78.9643 44.4552 79.1121C44.5102 79.2592 44.5886 79.3864 44.6902 79.4921C44.7918 79.5979 44.9099 79.6791 45.0445 79.7355C45.1794 79.7915 45.3239 79.8191 45.4787 79.8191C45.588 79.8191 45.6943 79.8044 45.7981 79.7745C45.9023 79.7454 45.9892 79.7052 46.0596 79.6551V79.1055C46.0596 78.9919 46.0453 78.906 46.0171 78.8474C45.9888 78.7885 45.9478 78.7505 45.8938 78.7339C45.8403 78.7166 45.7637 78.7081 45.6628 78.7081V78.5879H46.9067V78.7081C46.7769 78.7118 46.6896 78.7435 46.6456 78.8036C46.6013 78.8636 46.5792 78.9643 46.5792 79.1055V79.7082C46.4975 79.7609 46.3911 79.8099 46.2598 79.8552C46.1282 79.9009 45.987 79.9364 45.8355 79.9622C45.6841 79.988 45.5381 80.0009 45.3998 80.0009C45.1054 80.0009 44.8347 79.9504 44.5868 79.8497C44.3396 79.7484 44.1438 79.5979 44.0001 79.3974C43.8556 79.1976 43.7837 78.9576 43.7837 78.6797C43.7837 78.4869 43.8229 78.3074 43.901 78.1415C43.9795 77.976 44.0884 77.8315 44.2293 77.708C44.3697 77.5841 44.5307 77.4887 44.713 77.4205C44.8952 77.3526 45.0896 77.3187 45.295 77.3187C45.453 77.3187 45.6789 77.36 45.9734 77.4429C46.0226 77.4628 46.0776 77.4732 46.1392 77.4732C46.2246 77.4732 46.2862 77.423 46.324 77.3224ZM39.175 77.3648H40.2726V77.485H40.152C40.0705 77.485 40.0071 77.4979 39.962 77.5237C39.9161 77.5495 39.8839 77.5919 39.8637 77.6501C39.8439 77.7087 39.8333 77.7861 39.8333 77.8816V79.9503H39.7595L37.7657 77.9435V79.4066C37.7657 79.5113 37.7766 79.5924 37.7979 79.6492C37.8192 79.7067 37.8555 79.7469 37.9076 79.7694C37.9589 79.7918 38.0326 79.8036 38.1283 79.8036H38.2431V79.9275H37.107V79.8036H37.2515C37.3619 79.8036 37.4433 79.7764 37.4954 79.7218C37.5475 79.6669 37.5728 79.5766 37.5728 79.4501V77.7574C37.5112 77.6767 37.4407 77.6129 37.3597 77.5664C37.279 77.5204 37.1947 77.4931 37.107 77.4853V77.3652H37.9234L39.6407 79.1136V77.8407C39.6407 77.7176 39.6165 77.6273 39.5678 77.5705C39.519 77.5137 39.4376 77.4853 39.3231 77.4853H39.175V77.3648ZM34.5065 79.0369L33.999 78.0228L33.5329 79.0369H34.5065ZM33.443 79.2422L33.37 79.3989C33.3242 79.4944 33.3018 79.5615 33.3018 79.6002C33.3018 79.7318 33.4071 79.7996 33.6176 79.8033V79.9271H32.7011V79.8033C32.791 79.8007 32.8713 79.7679 32.9413 79.7052C33.0114 79.6422 33.0792 79.5393 33.1441 79.3974L34.0995 77.3184H34.2091L35.3471 79.5891C35.376 79.6451 35.4054 79.6883 35.4355 79.7177C35.4655 79.7472 35.4996 79.7679 35.5381 79.78C35.5763 79.7918 35.628 79.7996 35.6936 79.8033V79.9271H34.5337V79.8033C34.6371 79.8022 34.7082 79.7918 34.746 79.7723C34.7838 79.7528 34.8032 79.7192 34.8032 79.6717C34.8032 79.6219 34.7797 79.5515 34.7332 79.4627L34.6144 79.2418H33.443V79.2422ZM30.7211 77.3224H30.8407L30.8909 78.1972H30.7677C30.7057 78.0375 30.6218 77.9056 30.5154 77.8009C30.4087 77.6973 30.2914 77.6203 30.1626 77.5727C30.0343 77.5244 29.9033 77.5004 29.7706 77.5004C29.6287 77.5004 29.4977 77.5263 29.3771 77.5771C29.2564 77.6284 29.1505 77.7028 29.058 77.8024C28.9656 77.9012 28.8945 78.0206 28.8442 78.1599C28.7944 78.2993 28.769 78.4534 28.769 78.6218C28.769 78.8014 28.7966 78.9643 28.8519 79.1121C28.9069 79.2592 28.9854 79.3864 29.0866 79.4921C29.1882 79.5979 29.3063 79.6791 29.4409 79.7355C29.5759 79.7915 29.72 79.8191 29.8747 79.8191C29.984 79.8191 30.0904 79.8044 30.1945 79.7745C30.2987 79.7454 30.3856 79.7052 30.4556 79.6551V79.1055C30.4556 78.9919 30.4413 78.906 30.4131 78.8474C30.3849 78.7885 30.3438 78.7505 30.2899 78.7339C30.2367 78.7166 30.1597 78.7081 30.0588 78.7081V78.5879H31.3028V78.7081C31.173 78.7118 31.0857 78.7435 31.0417 78.8036C30.9973 78.8636 30.9757 78.9643 30.9757 79.1055V79.7082C30.8943 79.7609 30.7875 79.8099 30.6559 79.8552C30.5242 79.9009 30.383 79.9364 30.2316 79.9622C30.0801 79.988 29.9342 80.0009 29.7959 80.0009C29.5014 80.0009 29.2304 79.9504 28.9829 79.8497C28.7357 79.7484 28.5399 79.5979 28.3961 79.3974C28.2516 79.1976 28.1797 78.9576 28.1797 78.6797C28.1797 78.4869 28.2186 78.3074 28.2971 78.1415C28.3752 77.976 28.4845 77.8315 28.6249 77.708C28.7654 77.5841 28.9267 77.4887 29.109 77.4205C29.2913 77.3526 29.4856 77.3187 29.691 77.3187C29.8491 77.3187 30.075 77.36 30.3695 77.4429C30.4182 77.4628 30.4736 77.4732 30.5352 77.4732C30.6218 77.4732 30.6834 77.423 30.7211 77.3224ZM24.3786 78.6598C24.3786 78.8437 24.3965 79.0059 24.4332 79.1475C24.4691 79.2887 24.5234 79.4107 24.5953 79.5124C24.6672 79.6145 24.7545 79.6912 24.8561 79.7421C24.9584 79.7933 25.0757 79.8187 25.2085 79.8187C25.3427 79.8187 25.46 79.7929 25.5613 79.7421C25.6625 79.6912 25.7494 79.6156 25.8206 79.5165C25.8917 79.4169 25.9456 79.2953 25.983 79.1515C26.0197 79.0074 26.038 78.8437 26.038 78.6601C26.038 78.4154 26.0061 78.2067 25.9412 78.0342C25.877 77.8613 25.782 77.729 25.6563 77.6383C25.5305 77.5469 25.3808 77.5008 25.2081 77.5008C25.0332 77.5008 24.8828 77.5469 24.7581 77.6383C24.6335 77.7294 24.5392 77.8613 24.475 78.0342C24.4105 78.206 24.3786 78.415 24.3786 78.6598ZM23.7892 78.6601C23.7892 78.4157 23.852 78.1905 23.9781 77.9848C24.1039 77.7784 24.2759 77.6158 24.4926 77.4971C24.7101 77.3777 24.9488 77.3187 25.2092 77.3187C25.4692 77.3187 25.7087 77.3781 25.9254 77.4971C26.1429 77.6158 26.3145 77.7784 26.4407 77.9848C26.5672 78.1905 26.6307 78.4157 26.6307 78.6601C26.6307 78.9049 26.5672 79.1298 26.4407 79.3358C26.3142 79.5408 26.1429 79.7034 25.9254 79.8221C25.7087 79.9415 25.4692 80.0009 25.2092 80.0009C24.9488 80.0009 24.7101 79.9415 24.4926 79.8221C24.2759 79.7034 24.1035 79.5408 23.9781 79.3358C23.8523 79.1298 23.7892 78.9049 23.7892 78.6601ZM22.1987 79.2345H22.322L22.0916 79.9271H19.7769V79.8033H19.8656C19.9613 79.8033 20.0343 79.7922 20.0849 79.7705C20.1362 79.7483 20.1722 79.7093 20.1946 79.6525C20.2166 79.5957 20.2272 79.5157 20.2272 79.4125V77.8816C20.2272 77.7334 20.2034 77.6302 20.1561 77.572C20.108 77.5137 20.0116 77.485 19.866 77.485H19.8V77.3648H21.1979V77.485H21.1114C21.0153 77.485 20.9412 77.4968 20.8899 77.5193C20.8385 77.5417 20.8019 77.5819 20.7802 77.6394C20.7582 77.6966 20.7476 77.7773 20.7476 77.8827V79.4601C20.7476 79.5441 20.7527 79.6035 20.7622 79.6374C20.7725 79.6717 20.7938 79.6941 20.8257 79.7056C20.8576 79.7166 20.9104 79.7225 20.983 79.7225H21.4473C21.5757 79.7225 21.6802 79.71 21.7616 79.6864C21.8437 79.6624 21.9182 79.6167 21.9853 79.5482C22.0517 79.4803 22.1239 79.3757 22.1987 79.2345ZM16.4048 79.1066H16.524C16.579 79.2466 16.6523 79.3698 16.7422 79.4756C16.8328 79.5821 16.9329 79.6628 17.0418 79.7188C17.1507 79.7749 17.2644 79.8033 17.3825 79.8033C17.4676 79.8033 17.5435 79.787 17.6095 79.7542C17.6751 79.7214 17.7265 79.6765 17.7628 79.6197C17.7995 79.5629 17.8174 79.4992 17.8174 79.4269C17.8174 79.3119 17.7723 79.2094 17.6821 79.1187C17.6418 79.076 17.5838 79.0325 17.5079 78.9879C17.4324 78.9425 17.3154 78.8769 17.1588 78.7899C17.0022 78.7033 16.8856 78.6355 16.8097 78.5879C16.7337 78.5403 16.6666 78.488 16.6076 78.4323C16.4774 78.3015 16.4117 78.1492 16.4117 77.9749C16.4117 77.8827 16.4315 77.7965 16.4722 77.715C16.5119 77.6335 16.5672 77.5642 16.6373 77.5052C16.707 77.4466 16.7906 77.4009 16.887 77.3677C16.9835 77.3349 17.0865 77.3187 17.1984 77.3187C17.2798 77.3187 17.352 77.3246 17.4155 77.336C17.4782 77.3471 17.5453 77.3637 17.615 77.3851C17.685 77.4068 17.7422 77.423 17.7859 77.4341C17.8295 77.4452 17.864 77.4503 17.8893 77.4503C17.9579 77.4503 18.0048 77.4065 18.0298 77.3187H18.1566V78.1548H18.0375C17.9846 78.0232 17.9175 77.9085 17.8339 77.8097C17.751 77.711 17.6594 77.635 17.5589 77.5812C17.4588 77.5277 17.3553 77.5004 17.2494 77.5004C17.1357 77.5004 17.0447 77.5288 16.9765 77.5849C16.9087 77.6413 16.8746 77.715 16.8746 77.8086C16.8746 77.8945 16.9094 77.9719 16.978 78.0416C17.0165 78.0777 17.092 78.1268 17.2053 78.188C17.3176 78.2491 17.4254 78.3066 17.5281 78.3601C17.6308 78.4139 17.7327 78.4711 17.8339 78.533C17.9351 78.5949 18.0176 78.6568 18.0796 78.7202C18.1662 78.8072 18.2267 78.8957 18.2619 78.986C18.2971 79.0763 18.3147 79.1725 18.3147 79.2743C18.3147 79.4092 18.2788 79.5323 18.2073 79.644C18.1361 79.7557 18.0367 79.8434 17.9102 79.9061C17.7837 79.9691 17.6451 80.0009 17.4943 80.0009C17.3917 80.0009 17.2992 79.9898 17.2171 79.9684C17.1349 79.947 17.0418 79.919 16.938 79.8833C16.8339 79.8486 16.7638 79.8306 16.729 79.8306C16.6787 79.8306 16.6354 79.846 16.5973 79.8766C16.5599 79.908 16.5357 79.9478 16.524 79.9968H16.4048V79.1066Z" fill="#FF0600"/>
</svg>
