<svg width="60" height="60" viewBox="0 0 60 60" fill="none" xmlns="http://www.w3.org/2000/svg">
<path d="M45.93 6.74963V0.606896C45.93 0.212325 45.5593 -0.077245 45.1764 0.01838L18.25 6.74963L33.8951 7.80432L45.93 6.74963Z" fill="#E69644"/>
<path d="M9.51465 8.93356L31.6699 9.98824L45.9296 8.93356V6.75H18.2496L9.51465 8.93356Z" fill="#D48339"/>
<path d="M50.4846 57.8168V9.54016C50.4846 9.20523 50.213 8.93359 49.878 8.93359H9.51465V57.8168L29.4535 58.8715L50.4846 57.8168Z" fill="#F1CD65"/>
<path d="M10.1212 60H49.8779C50.2129 60 50.4845 59.7284 50.4845 59.3934V57.8164H9.51465V59.3934C9.51465 59.7284 9.78629 60 10.1212 60Z" fill="#EBB34F"/>
<path d="M24.0275 29.6971C24.7446 29.6971 25.4009 29.5337 25.9612 29.2178L29.0042 32.2608L22.9014 38.3636C22.5454 38.7196 22.5454 39.2968 22.9014 39.6528C23.2574 40.0088 23.8346 40.0088 24.1906 39.6528L30.2934 33.55L36.3961 39.6528C36.7521 40.0088 37.3294 40.0088 37.6853 39.6528C38.0413 39.2968 38.0413 38.7196 37.6853 38.3636L31.5825 32.2608L34.0956 29.7478C34.6253 30.0592 35.2231 30.2207 35.8641 30.2207C35.9199 30.2207 35.976 30.2194 36.0323 30.2171C39.2239 30.0793 42.6497 26.1096 43.0299 25.6574C43.3537 25.2722 43.3039 24.6977 42.9189 24.3735C42.5338 24.0495 41.9589 24.099 41.6345 24.4838C40.7425 25.5425 37.9827 28.309 35.9522 28.3956C35.7859 28.4023 35.6317 28.3885 35.4857 28.3576L40.5522 23.2911C40.9082 22.9351 40.9082 22.3578 40.5522 22.0019C40.1962 21.6459 39.619 21.6459 39.263 22.0019L34.1961 27.0688C34.1651 26.9226 34.1513 26.7683 34.1584 26.6019C34.245 24.5714 37.0116 21.8116 38.0699 20.92C38.4552 20.596 38.505 20.021 38.1811 19.6355C37.8571 19.2502 37.2823 19.2004 36.8966 19.5243C36.4444 19.9045 32.4748 23.3303 32.337 26.5219C32.3065 27.2267 32.4672 27.8833 32.8059 28.459L30.2932 30.9717L27.2502 27.9287C27.6848 27.158 27.8304 26.2053 27.6602 25.1633C27.4621 23.9511 26.86 22.718 25.9647 21.6914C24.8546 20.4182 23.465 19.6905 22.0517 19.6422C20.8588 19.6024 19.7407 20.0388 18.9059 20.8736C18.0711 21.7085 17.6337 22.8257 17.6745 24.0194C17.7228 25.4327 18.4505 26.8223 19.7236 27.9324C20.7504 28.8277 21.9835 29.4298 23.1957 29.6279C23.4802 29.6742 23.758 29.6971 24.0275 29.6971Z" fill="#315771"/>
<path d="M39.2539 46.6875C39.7574 46.6875 40.1655 46.2793 40.1655 45.7759C40.1655 45.2724 39.7574 44.8643 39.2539 44.8643H20.7456C20.2421 44.8643 19.834 45.2724 19.834 45.7759C19.834 46.2793 20.2421 46.6875 20.7456 46.6875H39.2539Z" fill="#C23756"/>
<path d="M24.0278 49.6992C23.5244 49.6992 23.1162 50.1074 23.1162 50.6108C23.1162 51.1143 23.5244 51.5224 24.0278 51.5224H35.9726C36.4761 51.5224 36.8842 51.1143 36.8842 50.6108C36.8842 50.1074 36.4761 49.6992 35.9726 49.6992H24.0278Z" fill="#C23756"/>
</svg>
