<svg width="83" height="80" viewBox="0 0 83 80" fill="none" xmlns="http://www.w3.org/2000/svg">
<path fill-rule="evenodd" clip-rule="evenodd" d="M73.942 54.8809L74.7449 55.2999L74.6635 55.4585C74.4169 55.4219 74.234 55.4325 74.1155 55.4904C73.9958 55.5486 73.8929 55.6625 73.8064 55.8307L73.2525 56.9083L74.4809 57.5486L74.9602 56.6156C75.0461 56.4483 75.0737 56.3112 75.0406 56.205C75.0075 56.0984 74.9006 55.9977 74.7206 55.9039L74.8104 55.7292L76.0701 56.3863L75.9803 56.5611C75.7835 56.4585 75.633 56.4211 75.5308 56.4493C75.4286 56.4779 75.3304 56.5819 75.2388 56.7611L74.7592 57.694L75.8352 58.2552C75.9338 58.3068 76.0101 58.3376 76.0625 58.3479C76.1145 58.357 76.1599 58.3464 76.1981 58.3149C76.2359 58.283 76.2781 58.2222 76.3243 58.1325L76.7305 57.342C76.8229 57.1622 76.8738 57.001 76.8825 56.8581C76.8927 56.7156 76.8673 56.5772 76.8087 56.4431C76.7498 56.3083 76.653 56.1508 76.5181 55.9684L76.6043 55.8003L77.4556 56.6175L75.8079 59.8233L75.6399 59.7358C75.7141 59.5911 75.7566 59.475 75.7675 59.3867C75.7785 59.2984 75.7534 59.2197 75.693 59.1501C75.6323 59.0801 75.5261 59.0057 75.3741 58.9266L73.3056 57.8479C73.155 57.7695 73.0336 57.7252 72.9427 57.7145C72.8507 57.7036 72.7717 57.7274 72.707 57.7871C72.6416 57.8471 72.571 57.9497 72.4961 58.0958L72.3336 58.0109L73.942 54.8809ZM71.2433 63.0116L71.5215 62.6262C71.6891 62.3932 71.7572 62.1672 71.7252 61.9486C71.6928 61.7299 71.5826 61.5526 71.3982 61.4174C71.3015 61.3471 71.2044 61.3017 71.1051 61.2804C71.0058 61.2592 70.9073 61.261 70.808 61.2841C70.7095 61.3075 70.6138 61.3526 70.5214 61.42C70.4287 61.4874 70.3422 61.5771 70.2603 61.6903C70.14 61.8574 70.0658 62.0042 70.0396 62.1306L71.2433 63.0116ZM72.1499 62.0936L73.9554 61.957C74.0758 61.9471 74.1817 61.9152 74.2708 61.8603C74.3599 61.8061 74.4576 61.7149 74.5656 61.5852L74.7188 61.6973L73.9893 62.709L71.7128 62.8775L71.4877 63.1899L72.2554 63.7515C72.3943 63.8526 72.5088 63.9134 72.5994 63.9343C72.6903 63.9555 72.7736 63.9394 72.851 63.8841C72.9278 63.8299 73.0216 63.7266 73.131 63.5749L73.2842 63.687L72.0481 65.4024L71.895 65.2903C72.0044 65.1383 72.0721 65.0174 72.0975 64.9284C72.1226 64.8375 72.111 64.754 72.0626 64.676C72.015 64.5984 71.9219 64.5082 71.783 64.4068L69.8425 62.9877C69.6745 62.8647 69.5334 62.8167 69.4196 62.8449C69.3061 62.8724 69.1927 62.9636 69.081 63.1185C69.0701 63.1339 69.061 63.1478 69.0541 63.1588C69.0469 63.1705 69.0388 63.1819 69.0298 63.1951L68.8818 63.0866L70.2294 61.2163C70.3484 61.0519 70.4727 60.9112 70.6022 60.794C70.7324 60.6757 70.8684 60.5867 71.012 60.5259C71.1549 60.4662 71.2989 60.4434 71.444 60.4603C71.5891 60.4768 71.7335 60.5369 71.8761 60.6412C72.0822 60.7922 72.211 61.0024 72.2619 61.2713C72.3125 61.5405 72.2757 61.8141 72.1499 62.0936ZM67.685 64.5145L68.3053 65.1775L68.1762 65.2998C67.9562 65.183 67.7799 65.132 67.6493 65.1471C67.5169 65.1621 67.3828 65.2353 67.2457 65.3654L66.3689 66.198L67.3173 67.2119L68.0766 66.491C68.213 66.3621 68.2832 66.2416 68.2872 66.1302C68.2912 66.0185 68.2231 65.8881 68.0839 65.7394L68.226 65.6046L69.1992 66.6445L69.057 66.7793C68.905 66.617 68.7752 66.5317 68.6693 66.5243C68.5639 66.517 68.437 66.5826 68.2915 66.7207L67.5322 67.4416L68.3635 68.3298C68.4399 68.4115 68.5013 68.4657 68.5475 68.4932C68.5934 68.5192 68.6399 68.524 68.6864 68.5071C68.7323 68.4895 68.7923 68.4467 68.865 68.3771L69.5083 67.7668C69.6545 67.628 69.7556 67.4925 69.8109 67.361C69.8669 67.2302 69.8887 67.091 69.8778 66.9445C69.8661 66.7976 69.8265 66.6167 69.7592 66.3998L69.8963 66.2698L70.4313 67.3247L67.8232 69.8005L67.6933 69.662C67.8108 69.5503 67.889 69.4544 67.9282 69.3749C67.9671 69.2954 67.9697 69.2126 67.9355 69.1265C67.901 69.0408 67.8257 68.9353 67.7079 68.8097L66.1107 67.1024C65.9943 66.9782 65.8943 66.8958 65.8121 66.8555C65.7288 66.8144 65.6467 66.8104 65.5656 66.8456C65.4841 66.8804 65.3837 66.9536 65.2648 67.0668L65.139 66.9324L67.685 64.5145ZM62.3672 71.7701L62.9741 72.6177C63.0676 72.7477 63.1538 72.8393 63.2309 72.891C63.3083 72.9433 63.3902 72.9598 63.4771 72.9397C63.5636 72.9195 63.668 72.8657 63.7913 72.7763L63.8942 72.7012L64.0048 72.8558L62.2458 74.1338L62.1348 73.9796L62.2257 73.9133C62.3465 73.8257 62.429 73.7437 62.4727 73.669C62.5163 73.5942 62.5261 73.5115 62.5029 73.4195C62.4789 73.3283 62.4199 73.2177 62.3272 73.0873L60.934 71.1422C60.8253 70.9902 60.7137 70.899 60.5995 70.8679C60.4842 70.8379 60.3496 70.8793 60.1947 70.9917L60.0638 71.0869L59.9565 70.9371L61.7159 69.6587L61.8232 69.8086L61.7202 69.8833C61.5973 69.9727 61.5134 70.0558 61.4672 70.132C61.4213 70.2085 61.4108 70.2921 61.4348 70.3818C61.4584 70.4712 61.5174 70.5814 61.6094 70.71L62.1603 71.4796L63.7568 70.3199L63.1753 69.5078C63.0593 69.3459 62.944 69.2547 62.8298 69.2338C62.7145 69.2137 62.5891 69.2522 62.4534 69.3511L62.2934 69.4672L62.1865 69.3173L63.9458 68.039L64.0528 68.1888L63.9095 68.2928C63.7578 68.4031 63.6774 68.5148 63.6709 68.6291C63.6636 68.7434 63.7258 68.8924 63.8575 69.076L65.2234 70.9833C65.3143 71.1104 65.3998 71.2012 65.4783 71.2543C65.5572 71.3085 65.6379 71.3265 65.7223 71.3082C65.8056 71.2906 65.9078 71.2386 66.0285 71.1507L66.1245 71.0811L66.2354 71.2356L64.476 72.514L64.3651 72.3594L64.4728 72.2811C64.5935 72.1935 64.6753 72.1122 64.7197 72.0371C64.7637 71.9624 64.7731 71.8792 64.7484 71.7884C64.724 71.6987 64.6652 71.5873 64.5717 71.4569L63.9647 70.6093L62.3672 71.7701ZM55.6734 75.9818L55.8403 75.9056C56.0058 76.0664 56.1854 76.1927 56.3782 76.2836C56.5716 76.3748 56.7626 76.4242 56.9502 76.4334C57.1382 76.4422 57.315 76.4096 57.4801 76.3345C57.5993 76.2803 57.6953 76.2092 57.767 76.121C57.8375 76.033 57.8808 75.9374 57.8964 75.8341C57.9117 75.7312 57.8968 75.6305 57.8513 75.529C57.779 75.3678 57.6513 75.2532 57.4673 75.1832C57.384 75.1495 57.276 75.1246 57.1418 75.1103C57.0073 75.0953 56.8025 75.0777 56.5287 75.0554C56.2552 75.0342 56.0494 75.0136 55.9134 74.9946C55.7774 74.9759 55.6501 74.9459 55.5327 74.9056C55.2679 74.8052 55.0806 74.6334 54.9708 74.3895C54.913 74.2602 54.8864 74.1265 54.8915 73.9865C54.8963 73.8473 54.9294 73.7144 54.9905 73.5876C55.0512 73.4605 55.1392 73.3433 55.2534 73.2356C55.3668 73.1283 55.5018 73.0397 55.6578 72.9686C55.7712 72.9166 55.876 72.8789 55.972 72.8547C56.0669 72.8301 56.1705 72.8111 56.2818 72.7965C56.3938 72.7822 56.4836 72.7686 56.5517 72.7561C56.6197 72.7437 56.6713 72.7287 56.7062 72.7129C56.8025 72.669 56.84 72.5778 56.8196 72.4386L56.9975 72.3576L57.5237 73.5294L57.3568 73.6056C57.2 73.4547 57.0335 73.3367 56.8549 73.2514C56.6771 73.166 56.5007 73.1177 56.3262 73.1067C56.1527 73.0953 55.9909 73.1232 55.8429 73.1906C55.6843 73.2631 55.5745 73.3609 55.5145 73.4829C55.4548 73.6049 55.4538 73.7305 55.5127 73.8616C55.5669 73.9818 55.664 74.0679 55.804 74.1217C55.8807 74.1477 56.0174 74.1682 56.2138 74.1825C56.4094 74.1968 56.5967 74.2085 56.7738 74.218C56.9509 74.2276 57.1298 74.2433 57.3109 74.2653C57.4917 74.2873 57.6455 74.3217 57.7724 74.3708C57.9484 74.4378 58.0884 74.5232 58.1946 74.6272C58.3012 74.7312 58.3856 74.855 58.4499 74.9979C58.5347 75.1869 58.5623 75.3821 58.5328 75.584C58.5034 75.7858 58.4194 75.9722 58.2823 76.1404C58.1452 76.3096 57.9714 76.4422 57.7604 76.5385C57.6164 76.6041 57.4804 76.6473 57.352 76.67C57.2237 76.6924 57.076 76.7122 56.908 76.7286C56.7407 76.7462 56.6313 76.7653 56.5822 76.788C56.512 76.8198 56.4607 76.8693 56.4273 76.9371C56.3945 77.0041 56.3858 77.0759 56.4004 77.1517L56.2334 77.2275L55.6734 75.9818ZM52.5092 74.284L52.7551 75.1605L52.5842 75.2092C52.4423 75.003 52.3096 74.8759 52.1867 74.8283C52.0627 74.7799 51.9096 74.7825 51.7285 74.8338L50.5688 75.1635L50.9444 76.5041L51.9485 76.2187C52.1288 76.1675 52.246 76.0938 52.3012 75.9971C52.3558 75.9001 52.3554 75.7528 52.3005 75.5561L52.4881 75.5027L52.8736 76.8781L52.686 76.9316C52.6256 76.7166 52.5496 76.5803 52.4591 76.5246C52.3689 76.4689 52.2263 76.4682 52.0339 76.5228L51.0295 76.8081L51.3586 77.9832C51.3888 78.0909 51.4186 78.1682 51.4466 78.2136C51.4757 78.2579 51.5146 78.2839 51.5634 78.2909C51.6125 78.2968 51.6848 78.2861 51.7819 78.2587L52.6325 78.0169C52.8256 77.962 52.9773 77.8891 53.0871 77.7979C53.1969 77.7078 53.2798 77.5946 53.3373 77.4598C53.3944 77.3239 53.4427 77.1451 53.4824 76.9213L53.6631 76.87L53.6533 78.0543L50.2044 79.0348L50.1527 78.8513C50.3084 78.8074 50.4215 78.7587 50.4928 78.7063C50.5644 78.6543 50.6048 78.5817 50.6135 78.4894C50.6222 78.3971 50.6037 78.2686 50.5575 78.1023L49.9247 75.8444C49.8789 75.6799 49.828 75.5605 49.7735 75.4862C49.7185 75.4111 49.6473 75.3693 49.5596 75.3623C49.4716 75.3554 49.3487 75.3737 49.1916 75.4184L49.1414 75.2407L52.5092 74.284ZM44.3237 77.9469C44.3604 78.2272 44.4201 78.4718 44.5037 78.6795C44.587 78.8876 44.6939 79.0627 44.8237 79.2037C44.9532 79.3447 45.1016 79.444 45.2659 79.5015C45.4314 79.5587 45.6154 79.5744 45.8176 79.5473C46.022 79.5202 46.1954 79.4572 46.3398 79.359C46.4838 79.2605 46.6009 79.1282 46.6893 78.9623C46.778 78.7964 46.8358 78.5997 46.8635 78.373C46.8904 78.1459 46.8864 77.8924 46.8497 77.6118C46.8009 77.2389 46.7104 76.9264 46.5776 76.677C46.4453 76.4261 46.2744 76.2437 46.0649 76.1305C45.8554 76.0162 45.6183 75.9766 45.3558 76.0114C45.0892 76.0466 44.8699 76.147 44.6986 76.3118C44.527 76.4755 44.4099 76.696 44.3466 76.973C44.2823 77.2488 44.275 77.5741 44.3237 77.9469ZM43.4269 78.0671C43.3782 77.6942 43.4291 77.3382 43.5797 76.9986C43.7299 76.6583 43.9593 76.3759 44.2659 76.151C44.5735 75.925 44.9248 75.7865 45.3212 75.7338C45.7169 75.6814 46.0929 75.7235 46.4467 75.8616C46.8017 75.999 47.0948 76.2122 47.3286 76.5015C47.5621 76.7898 47.7035 77.1202 47.7522 77.4931C47.801 77.866 47.749 78.222 47.5977 78.5616C47.4461 78.9 47.2177 79.1825 46.91 79.4074C46.6038 79.633 46.2511 79.7722 45.8558 79.8246C45.459 79.8773 45.0841 79.8345 44.7288 79.6967C44.375 79.5594 44.0812 79.3458 43.8488 79.0586C43.6164 78.7704 43.4757 78.4396 43.4269 78.0671ZM40.8123 75.9905L40.9948 76.0045L40.9701 77.3521L40.7814 77.3378C40.7054 77.0861 40.5919 76.8733 40.4413 76.7008C40.2904 76.5286 40.1195 76.3971 39.9278 76.3089C39.7369 76.2195 39.5395 76.1675 39.3358 76.1521C39.1187 76.1356 38.9154 76.1598 38.7245 76.2235C38.5343 76.2872 38.3634 76.3898 38.2103 76.5312C38.0576 76.6719 37.9346 76.8466 37.8415 77.0543C37.7488 77.262 37.6928 77.4957 37.6732 77.7539C37.6521 78.0286 37.6757 78.2825 37.7426 78.5154C37.8099 78.7477 37.9154 78.9517 38.0579 79.126C38.2009 79.3004 38.3721 79.4389 38.5721 79.5407C38.7718 79.6425 38.9896 79.7022 39.2264 79.7205C39.3933 79.7334 39.558 79.7231 39.7206 79.6898C39.8831 79.6575 40.0213 79.6066 40.1344 79.5374L40.1984 78.6946C40.2115 78.5206 40.1999 78.3872 40.1631 78.2938C40.1268 78.2004 40.0682 78.1371 39.9879 78.1052C39.9086 78.0722 39.7915 78.0502 39.6373 78.0385L39.6511 77.8546L41.5548 78.0008L41.541 78.1847C41.3421 78.1755 41.2046 78.2136 41.1301 78.3004C41.0552 78.3872 41.0101 78.5389 40.9937 78.7557L40.9239 79.6799C40.793 79.7513 40.6242 79.814 40.4173 79.8678C40.2108 79.9224 39.9904 79.9601 39.7558 79.9821C39.5213 80.0041 39.2965 80.0066 39.0842 79.9901C38.6336 79.9553 38.2249 79.8466 37.8572 79.663C37.491 79.4784 37.2088 79.225 37.012 78.9004C36.8142 78.5766 36.732 78.2004 36.7644 77.7737C36.787 77.4777 36.8673 77.2074 37.0066 76.9623C37.1455 76.7173 37.3295 76.5081 37.5586 76.336C37.7885 76.1623 38.0463 76.0349 38.3329 75.9514C38.6198 75.8689 38.9212 75.8393 39.2354 75.8634C39.4773 75.8821 39.8184 75.9719 40.2595 76.1345C40.3315 76.1708 40.4151 76.1931 40.5093 76.2004C40.6421 76.2103 40.7424 76.1404 40.8123 75.9905ZM32.2802 74.7752L33.8988 75.2448L33.8479 75.4221L33.6701 75.3704C33.55 75.3356 33.4504 75.3276 33.3737 75.3466C33.2955 75.3653 33.2293 75.414 33.1755 75.4913C33.1213 75.5697 33.0733 75.6796 33.0329 75.8206L32.1583 78.8784L32.0493 78.8469L29.9564 75.0268L29.3382 77.1894C29.2938 77.344 29.2757 77.4689 29.2829 77.562C29.2898 77.6557 29.3269 77.7305 29.3942 77.7861C29.4604 77.8414 29.5644 77.8902 29.7051 77.9312L29.8746 77.9806L29.8222 78.1634L28.1469 77.677L28.1989 77.4938L28.412 77.5557C28.5749 77.603 28.7065 77.5979 28.8062 77.5389C28.9062 77.4803 28.9822 77.3576 29.0356 77.1711L29.7517 74.669C29.6949 74.5235 29.6179 74.399 29.5178 74.2953C29.4182 74.192 29.3055 74.1159 29.1789 74.0671L29.2302 73.8898L30.4339 74.2393L32.2282 77.5587L32.7664 75.6774C32.8187 75.4953 32.8206 75.3514 32.7729 75.2466C32.7249 75.1415 32.6165 75.0649 32.4482 75.0158L32.2293 74.9525L32.2802 74.7752ZM25.1005 74.8547L25.1205 73.1085L23.7735 74.1624L25.1005 74.8547ZM23.507 74.3792L23.2972 74.5411C23.1681 74.6393 23.0902 74.7151 23.0626 74.7678C22.9706 74.9473 23.0666 75.1147 23.3506 75.2697L23.2637 75.4389L22.0145 74.7873L22.1015 74.618C22.2258 74.6785 22.3582 74.6906 22.4975 74.655C22.6375 74.6184 22.8019 74.5265 22.9902 74.3788L25.7529 72.2181L25.9024 72.2961L25.8591 76.207C25.8591 76.3041 25.8689 76.3843 25.89 76.4451C25.91 76.507 25.942 76.5594 25.986 76.6037C26.0293 76.6466 26.0948 76.6942 26.1813 76.7459L26.0944 76.9151L24.5136 76.0906L24.6005 75.9213C24.7423 75.9931 24.8467 76.0298 24.9114 76.0301C24.9769 76.0305 25.0263 75.9986 25.0598 75.933C25.0947 75.8649 25.1129 75.7528 25.1114 75.5975L25.1045 75.2118L23.507 74.3792ZM21.7713 69.9141L21.9193 70.0225L21.1971 71.1569L21.0436 71.0448C21.1101 70.7906 21.1247 70.5496 21.0858 70.3225C21.0469 70.0965 20.9694 69.8943 20.8519 69.7177C20.7359 69.5412 20.5948 69.3921 20.4297 69.2716C20.2537 69.1426 20.0679 69.0562 19.8723 69.01C19.6766 68.9639 19.4781 68.9609 19.2737 69.0005C19.0704 69.0393 18.8747 69.1229 18.6878 69.2511C18.5005 69.3793 18.3314 69.5485 18.1802 69.7576C18.0194 69.9811 17.9074 70.2093 17.8434 70.4434C17.7798 70.6763 17.763 70.9056 17.794 71.1298C17.8252 71.3536 17.899 71.562 18.0158 71.7543C18.1325 71.9463 18.2874 72.1122 18.4794 72.2529C18.6147 72.3518 18.7602 72.4301 18.9162 72.4877C19.0715 72.5459 19.2155 72.5756 19.3479 72.5763L19.8406 71.892C19.9428 71.7507 20.0021 71.6312 20.0195 71.5323C20.0373 71.4334 20.0203 71.3492 19.9683 71.2789C19.9177 71.2089 19.8297 71.1283 19.7042 71.0368L19.8119 70.8873L21.3571 72.0173L21.2494 72.1664C21.0847 72.0536 20.9479 72.0137 20.8392 72.0481C20.7301 72.0825 20.613 72.188 20.4861 72.3638L19.9457 73.1137C19.797 73.1056 19.6206 73.0697 19.4166 73.0063C19.2122 72.9441 19.0049 72.8602 18.7937 72.7543C18.5824 72.6488 18.39 72.5327 18.2176 72.4067C17.8514 72.1393 17.5601 71.8301 17.343 71.48C17.127 71.1294 17.0186 70.7646 17.0201 70.3844C17.0201 70.0042 17.1463 69.6404 17.3954 69.2943C17.5685 69.054 17.7783 68.8661 18.0241 68.7313C18.2703 68.5961 18.5351 68.5155 18.8202 68.4895C19.106 68.4631 19.3919 68.4906 19.6795 68.5712C19.9664 68.6525 20.2388 68.7862 20.4937 68.973C20.6901 69.1166 20.9334 69.373 21.225 69.7445C21.2676 69.8137 21.3269 69.8763 21.4032 69.9327C21.512 70.0118 21.6338 70.0053 21.7713 69.9141ZM13.5083 65.3617C13.3057 65.5577 13.1457 65.7507 13.0293 65.9419C12.9122 66.1328 12.8359 66.3233 12.7999 66.5123C12.7642 66.7013 12.7726 66.88 12.8242 67.0474C12.877 67.2152 12.973 67.3741 13.1144 67.5218C13.2574 67.6712 13.4105 67.7745 13.5748 67.8335C13.7388 67.8921 13.9141 67.9082 14.0988 67.8815C14.2843 67.8551 14.476 67.7851 14.6738 67.6734C14.8709 67.561 15.0713 67.4068 15.2735 67.2108C15.5426 66.9503 15.7386 66.6917 15.8593 66.4357C15.9811 66.18 16.0255 65.9328 15.992 65.6958C15.9589 65.4581 15.8502 65.2427 15.6669 65.05C15.4804 64.8544 15.2702 64.7361 15.0374 64.6947C14.8043 64.6529 14.5589 64.6888 14.3 64.8016C14.0418 64.9141 13.777 65.1009 13.5083 65.3617ZM12.8806 64.7057C13.1497 64.4452 13.4643 64.2753 13.825 64.1962C14.1861 64.1163 14.548 64.135 14.9091 64.2496C15.272 64.365 15.5913 64.568 15.8688 64.8584C16.1451 65.1482 16.3346 65.4782 16.4339 65.8471C16.5346 66.2163 16.5379 66.5804 16.4452 66.9412C16.3532 67.3016 16.1728 67.6122 15.9037 67.873C15.6346 68.1335 15.3193 68.3027 14.9578 68.3815C14.5974 68.4591 14.2367 68.4415 13.8741 68.3254C13.5119 68.2108 13.1919 68.0071 12.9151 67.7177C12.638 67.4273 12.4497 67.0976 12.3493 66.728C12.2493 66.3599 12.2453 65.9947 12.3373 65.6357C12.4304 65.2764 12.6115 64.9661 12.8806 64.7057ZM10.866 63.4716L10.9754 63.6269L9.90809 63.9529L7.85234 61.0335L8.00691 60.9233L8.08546 61.035C8.17019 61.1555 8.24908 61.2383 8.32109 61.2826C8.39418 61.3277 8.47529 61.3379 8.56584 61.316C8.65603 61.2929 8.76512 61.2354 8.89349 61.1438L10.8005 59.7816C10.9852 59.6497 11.0929 59.5277 11.1231 59.4164C11.1525 59.3039 11.1031 59.157 10.974 58.9728L10.915 58.8896L11.0645 58.7826L12.306 60.5457L12.1566 60.6522L12.0795 60.5431C11.994 60.4218 11.914 60.3387 11.8406 60.2944C11.7667 60.2497 11.6842 60.239 11.5933 60.2629C11.5027 60.2867 11.3922 60.3446 11.2616 60.438L9.29679 61.8416C9.19242 61.9163 9.12331 61.9757 9.08913 62.0178C9.05567 62.0614 9.04622 62.1079 9.06041 62.1588C9.07532 62.209 9.11459 62.2808 9.17895 62.372L9.59097 62.9573C9.7048 63.1192 9.81317 63.2401 9.91572 63.3218C10.0183 63.4042 10.1416 63.4573 10.2867 63.4815C10.4296 63.5049 10.6234 63.5024 10.866 63.4716ZM6.61046 55.8241L6.69192 55.9896C6.53773 56.1614 6.41918 56.3471 6.33554 56.5438C6.25118 56.742 6.20935 56.9358 6.20681 57.1252C6.20426 57.3145 6.2428 57.4915 6.3228 57.6548C6.38099 57.7731 6.45444 57.8669 6.54463 57.9361C6.63445 58.0043 6.7312 58.0446 6.83375 58.0566C6.9363 58.0684 7.03594 58.0501 7.13486 58.0006C7.29196 57.9222 7.40141 57.79 7.46469 57.6028C7.49523 57.5178 7.51597 57.4076 7.52506 57.2724C7.53524 57.1365 7.54614 56.9299 7.55851 56.6537C7.57014 56.3779 7.58323 56.1695 7.59742 56.0321C7.61124 55.8948 7.6367 55.7658 7.67271 55.6457C7.76326 55.3757 7.92654 55.1812 8.1651 55.0622C8.29128 54.9992 8.42329 54.968 8.56185 54.9684C8.7004 54.9684 8.83313 54.997 8.9615 55.0537C9.08951 55.1105 9.20913 55.1952 9.31932 55.3058C9.43024 55.4168 9.52261 55.549 9.59861 55.7036C9.65389 55.8168 9.69534 55.92 9.72262 56.016C9.75026 56.1105 9.77318 56.2145 9.79136 56.3263C9.80918 56.438 9.82626 56.5281 9.84081 56.5962C9.85536 56.6644 9.87208 56.716 9.88917 56.7504C9.93609 56.8457 10.0277 56.8805 10.1652 56.8556L10.2514 57.0318L9.10733 57.6024L9.02587 57.4369C9.16988 57.2743 9.28151 57.1024 9.35969 56.9197C9.43861 56.7376 9.48006 56.5585 9.48479 56.3823C9.49024 56.2072 9.4568 56.0453 9.3848 55.8988C9.30734 55.7413 9.20659 55.6347 9.08331 55.5787C8.9604 55.5226 8.83531 55.5263 8.70767 55.59C8.59021 55.6486 8.50764 55.7493 8.45928 55.8922C8.436 55.9702 8.42038 56.1087 8.41347 56.3069C8.40583 56.5043 8.40074 56.6929 8.39746 56.8717C8.39419 57.0504 8.38509 57.2314 8.36945 57.4138C8.35382 57.5966 8.32509 57.753 8.28109 57.8819C8.22072 58.0618 8.14072 58.2054 8.04144 58.316C7.9418 58.4266 7.82216 58.516 7.68252 58.5856C7.49778 58.6779 7.30505 58.712 7.10358 58.6893C6.90212 58.6665 6.71447 58.5889 6.54283 58.4563C6.37009 58.324 6.23261 58.1537 6.1297 57.9449C6.05988 57.8024 6.01189 57.6669 5.98498 57.5387C5.95807 57.4101 5.93334 57.2618 5.91116 57.0937C5.88789 56.9259 5.86533 56.8167 5.84133 56.7677C5.80715 56.6981 5.75659 56.6482 5.68823 56.6167C5.62059 56.5863 5.54895 56.5798 5.47404 56.5973L5.39258 56.4318L6.61046 55.8241Z" fill="#FF0600"/>
<path fill-rule="evenodd" clip-rule="evenodd" d="M74.8482 22.3822C74.5759 22.5203 74.3486 22.6697 74.1664 22.8309C73.9842 22.991 73.8441 23.1646 73.7471 23.3489C73.65 23.5335 73.6023 23.7221 73.6027 23.9126C73.6038 24.1042 73.6536 24.2998 73.7533 24.499C73.8536 24.7001 73.9801 24.8573 74.1318 24.9708C74.2834 25.0847 74.4602 25.158 74.6609 25.1902C74.8617 25.2225 75.0828 25.2118 75.3239 25.1595C75.5643 25.106 75.821 25.0108 76.0937 24.8727C76.4559 24.6891 76.7414 24.4836 76.9483 24.2565C77.1563 24.0302 77.281 23.7884 77.3214 23.5313C77.3625 23.2738 77.3182 23.0148 77.1891 22.7558C77.0574 22.4932 76.8771 22.3024 76.648 22.1844C76.4196 22.0661 76.153 22.0236 75.8486 22.0577C75.5443 22.0895 75.2104 22.1983 74.8482 22.3822ZM74.4049 21.4987C74.7675 21.3148 75.1482 21.2397 75.5475 21.2738C75.9483 21.3071 76.3177 21.443 76.6567 21.6793C76.997 21.9159 77.264 22.2298 77.4596 22.6207C77.6542 23.0108 77.7462 23.4144 77.732 23.8294C77.7193 24.2452 77.6069 24.6243 77.396 24.9694C77.1862 25.3137 76.9 25.5785 76.5378 25.7624C76.1756 25.9463 75.7941 26.0203 75.3941 25.9851C74.9951 25.9499 74.626 25.8148 74.2867 25.5778C73.9467 25.3422 73.6794 25.0276 73.4845 24.6375C73.2889 24.2467 73.1976 23.8441 73.2114 23.4276C73.2245 23.013 73.3365 22.6328 73.546 22.2895C73.7565 21.9463 74.0427 21.6826 74.4049 21.4987ZM74.8235 17.9713L74.9387 18.1346L73.8038 19.0496L73.6849 18.8811C73.8409 18.6423 73.9384 18.3995 73.9773 18.1522C74.0151 17.9057 74.0053 17.6705 73.9453 17.4478C73.8867 17.2251 73.7925 17.0226 73.6645 16.8409C73.5274 16.6467 73.3663 16.4922 73.1805 16.3764C72.995 16.2607 72.7918 16.1878 72.5677 16.1574C72.3452 16.1262 72.1146 16.1442 71.8783 16.2105C71.6415 16.2768 71.4087 16.3918 71.1807 16.5544C70.9382 16.728 70.744 16.9237 70.5974 17.1423C70.4516 17.3603 70.3553 17.5907 70.3102 17.8317C70.2651 18.0727 70.2691 18.3134 70.3233 18.5522C70.3775 18.791 70.4793 19.0159 70.6287 19.2277C70.7342 19.3771 70.8571 19.509 70.9978 19.6225C71.1375 19.7368 71.276 19.8178 71.4117 19.8646L72.1553 19.3328C72.3088 19.2229 72.4114 19.1207 72.4637 19.0251C72.5157 18.9295 72.5277 18.8365 72.4983 18.7463C72.4703 18.6566 72.4073 18.543 72.3099 18.405L72.4721 18.2888L73.6732 19.9925L73.5111 20.1086C73.3809 19.9346 73.2536 19.8456 73.1296 19.843C73.0056 19.8405 72.8485 19.9079 72.6572 20.0445L71.8423 20.6276C71.6921 20.5668 71.5226 20.4687 71.3346 20.332C71.1455 20.1961 70.9615 20.0372 70.7804 19.8548C70.5993 19.672 70.4411 19.4852 70.3069 19.2951C70.0225 18.8918 69.8294 18.472 69.7258 18.0354C69.6243 17.5991 69.6385 17.1852 69.7712 16.7943C69.9021 16.4028 70.1574 16.072 70.5335 15.8031C70.7949 15.6163 71.0749 15.4966 71.3749 15.4434C71.6746 15.3903 71.9754 15.3999 72.2779 15.4731C72.5812 15.5456 72.8656 15.6738 73.1343 15.8574C73.4016 16.0416 73.6361 16.2746 73.8343 16.5559C73.9867 16.772 74.1489 17.1215 74.3209 17.6057C74.3413 17.6918 74.3806 17.7775 74.4398 17.8617C74.5235 17.9811 74.6511 18.0167 74.8235 17.9713ZM66.5681 11.7933C66.3572 12.0153 66.1925 12.2325 66.0746 12.4457C65.9561 12.6581 65.8819 12.8687 65.8518 13.0753C65.8212 13.2819 65.8383 13.4761 65.9023 13.6552C65.967 13.8354 66.0787 14.0032 66.2387 14.1574C66.4005 14.3131 66.5718 14.4182 66.7521 14.4746C66.9329 14.531 67.1238 14.5405 67.3235 14.5032C67.5235 14.4662 67.7282 14.3815 67.938 14.2508C68.1471 14.1196 68.3573 13.9435 68.5682 13.7215C68.8486 13.4263 69.0497 13.1365 69.1694 12.853C69.2901 12.5698 69.3276 12.2995 69.2803 12.0435C69.2337 11.7867 69.1061 11.5578 68.8981 11.3574C68.6868 11.1537 68.4534 11.0347 68.1981 11.0006C67.9439 10.9658 67.678 11.016 67.4023 11.1501C67.1271 11.283 66.8485 11.4981 66.5681 11.7933ZM65.8576 11.1098C66.1379 10.8146 66.4721 10.6157 66.8598 10.5135C67.2482 10.4102 67.6417 10.4138 68.0395 10.5222C68.4384 10.631 68.7941 10.8365 69.1083 11.1391C69.4214 11.4409 69.6418 11.7907 69.7665 12.1867C69.8927 12.5827 69.9123 12.9783 69.8279 13.3742C69.7447 13.7698 69.5628 14.1153 69.2821 14.4109C69.0017 14.7061 68.6672 14.9043 68.2784 15.0057C67.8908 15.1064 67.498 15.1039 67.0995 14.9944C66.7009 14.8867 66.3445 14.6805 66.031 14.3783C65.7172 14.0757 65.4976 13.7266 65.3721 13.3299C65.2466 12.9347 65.2263 12.5387 65.3099 12.1449C65.3946 11.7501 65.5768 11.4054 65.8576 11.1098ZM63.836 10.7739L64.0044 10.8929L63.028 11.6167L59.8714 9.37683L59.9896 9.20761L60.1103 9.29332C60.2405 9.38599 60.3511 9.44167 60.4409 9.46072C60.5318 9.4805 60.6184 9.46145 60.7038 9.40577C60.7875 9.34936 60.8787 9.25047 60.9776 9.10944L62.4403 7.01789C62.5821 6.81496 62.6483 6.65122 62.6392 6.52595C62.629 6.39994 62.5258 6.26697 62.3268 6.12632L62.2366 6.06259L62.3512 5.89849L64.2571 7.25085L64.1425 7.41495L64.0244 7.33144C63.8935 7.23803 63.7814 7.18235 63.6898 7.16367C63.5985 7.14462 63.5105 7.16404 63.4254 7.22118C63.3411 7.27869 63.249 7.37832 63.1483 7.52191L61.641 9.67683C61.5606 9.79111 61.5112 9.8772 61.4915 9.93361C61.473 9.99002 61.4802 10.0417 61.513 10.0882C61.5464 10.1343 61.6123 10.1933 61.7115 10.2636L62.3439 10.7127C62.5188 10.8369 62.673 10.9211 62.8072 10.9677C62.9421 11.0146 63.0872 11.0237 63.2443 10.9959C63.4011 10.9677 63.5989 10.8944 63.836 10.7739ZM57.0363 4.33073L56.8455 4.25455C56.9138 4.01389 56.9076 3.82121 56.8294 3.67762C56.7498 3.53477 56.5825 3.41243 56.3258 3.30986L55.7767 3.09045L54.649 5.95636C54.5835 6.12302 54.5497 6.25635 54.5475 6.35525C54.545 6.45525 54.5766 6.53877 54.6417 6.60507C54.7064 6.67174 54.8159 6.73584 54.9708 6.79811L55.0872 6.84462L55.0115 7.03693L52.838 6.16954L52.9136 5.97724L53.0627 6.03694C53.25 6.11167 53.4031 6.12375 53.522 6.07284C53.6413 6.02192 53.7482 5.8754 53.8428 5.63511L54.9704 2.76921L54.5144 2.58716C54.2428 2.47874 54.0228 2.4421 53.8558 2.47617C53.6886 2.5117 53.5369 2.64576 53.3998 2.88019L53.2089 2.804L53.606 1.86995L57.3818 3.3769L57.0363 4.33073ZM49.7142 0.927468L51.5146 1.25934L51.479 1.45677L51.2808 1.42014C51.147 1.3956 51.039 1.39779 50.9575 1.42636C50.875 1.45494 50.8088 1.51501 50.7586 1.60438C50.7084 1.69486 50.6684 1.81904 50.64 1.97618L50.0222 5.3776L49.9011 5.35527L47.2289 1.45273L46.7922 3.85821C46.7609 4.03001 46.7547 4.167 46.7722 4.26663C46.79 4.36736 46.838 4.44428 46.9162 4.49703C46.9937 4.54978 47.1115 4.59117 47.2682 4.6201L47.4566 4.6549L47.4195 4.85856L45.5558 4.51498L45.5928 4.31132L45.8296 4.35491C46.0107 4.38824 46.1529 4.36846 46.2543 4.29374C46.3558 4.21938 46.4249 4.07872 46.4623 3.87066L46.9682 1.08754C46.8911 0.936264 46.7944 0.81025 46.6754 0.709152C46.5569 0.608421 46.4267 0.538459 46.2849 0.499265L46.3209 0.30183L47.6606 0.548719L49.956 3.9421L50.336 1.84944C50.3731 1.64687 50.3596 1.49083 50.2967 1.38314C50.2338 1.27508 50.1084 1.20366 49.9211 1.16923L49.6778 1.12453L49.7142 0.927468ZM42.3869 2.89155L41.5901 1.17215L40.7642 2.8432L42.3869 2.89155ZM40.6039 3.18166L40.4748 3.4399C40.3937 3.59741 40.3533 3.7084 40.3511 3.77286C40.3446 3.99264 40.517 4.11095 40.8679 4.1278L40.8617 4.33476L39.3336 4.28934L39.3398 4.08239C39.4896 4.08239 39.6253 4.03147 39.7449 3.93037C39.8645 3.82817 39.9827 3.66004 40.098 3.42634L41.793 0L41.9756 0.00549982L43.7619 3.85528C43.8073 3.95052 43.8542 4.02451 43.9033 4.07433C43.9524 4.12561 44.0077 4.16151 44.0713 4.18385C44.1342 4.2051 44.2201 4.22047 44.3292 4.23L44.323 4.43696L42.3898 4.37945L42.396 4.1725C42.5683 4.17579 42.6876 4.16187 42.752 4.13147C42.816 4.10107 42.8498 4.04612 42.852 3.96626C42.8542 3.88311 42.8193 3.76481 42.7454 3.61389L42.5582 3.23954L40.6039 3.18166ZM34.3963 2.79448L34.9025 2.70438C35.2083 2.65017 35.4309 2.52489 35.5694 2.32965C35.7083 2.13405 35.7553 1.91244 35.712 1.66592C35.6898 1.53735 35.6476 1.42783 35.5858 1.33589C35.524 1.24395 35.4458 1.17033 35.3509 1.11282C35.2563 1.05641 35.1476 1.01867 35.025 1.00109C34.9025 0.983508 34.7676 0.987541 34.6188 1.01428C34.3992 1.05311 34.2315 1.11135 34.1159 1.19011L34.3963 2.79448ZM35.7927 2.76664L37.3059 4.03256C37.4073 4.11644 37.5135 4.17176 37.6248 4.19703C37.735 4.22231 37.8797 4.22488 38.0612 4.20583L38.0968 4.40985L36.7688 4.64612L34.8636 3.04687L34.4537 3.11975L34.6326 4.14246C34.6654 4.32707 34.7094 4.4615 34.7643 4.54721C34.8196 4.63256 34.897 4.68347 34.9989 4.69923C35.0992 4.71534 35.2498 4.70618 35.449 4.67065L35.4851 4.87431L33.2337 5.27468L33.1977 5.07065C33.3969 5.03512 33.5402 4.99227 33.6275 4.94172C33.7151 4.89007 33.7686 4.81608 33.7893 4.71827C33.8104 4.62157 33.805 4.48018 33.7726 4.2952L33.3199 1.71098C33.2806 1.48717 33.2064 1.34248 33.0962 1.27765C32.9871 1.21281 32.83 1.1978 32.6267 1.23406C32.6064 1.23772 32.5889 1.24176 32.5755 1.24542C32.5609 1.24908 32.546 1.25201 32.5289 1.25457L32.4943 1.05714L34.9494 0.620876C35.1654 0.582415 35.3683 0.567402 35.5574 0.574362C35.7476 0.580589 35.9211 0.614652 36.0789 0.676556C36.2356 0.73846 36.3644 0.830405 36.4651 0.953481C36.5662 1.07692 36.6338 1.23333 36.6673 1.42344C36.7157 1.69852 36.6582 1.96042 36.496 2.20914C36.3342 2.45785 36.1007 2.64393 35.7927 2.76664ZM25.6304 3.2454L27.8694 2.48313L27.9334 2.67288L27.7966 2.71976C27.6421 2.77214 27.5301 2.83075 27.4588 2.89522C27.3875 2.95895 27.3508 3.0421 27.3479 3.14467C27.3446 3.24686 27.3705 3.38129 27.4265 3.54686L28.0308 5.34867C28.1159 5.60288 28.245 5.79922 28.4171 5.93768C28.5894 6.07614 28.7829 6.15562 28.9982 6.17687C29.2142 6.19774 29.4324 6.17101 29.6546 6.09555C30.0408 5.96405 30.3262 5.7428 30.5121 5.43145C30.6979 5.1201 30.7284 4.77981 30.6041 4.41022L29.9964 2.59925C29.9273 2.39302 29.8364 2.26226 29.7226 2.20658C29.6091 2.1509 29.4676 2.15126 29.2982 2.20877L29.1382 2.26335L29.0745 2.07324L30.7048 1.51831L30.7688 1.70805L30.6764 1.73955C30.5244 1.79157 30.4139 1.84943 30.347 1.91207C30.2797 1.97471 30.2441 2.05749 30.2393 2.16042C30.235 2.26299 30.2611 2.39668 30.3168 2.56298L30.8892 4.26956C31.0128 4.63732 31.0317 4.97359 30.947 5.27798C30.8634 5.58311 30.7012 5.84207 30.4619 6.05416C30.2215 6.26698 29.9382 6.42925 29.6117 6.5406C29.2687 6.65709 28.9338 6.70983 28.6072 6.69701C28.2814 6.68492 27.9956 6.59555 27.7523 6.42888C27.509 6.26259 27.3352 6.02449 27.2315 5.71497L26.574 3.75565C26.5086 3.56078 26.4202 3.43258 26.3097 3.37214C26.1987 3.31206 26.0475 3.31462 25.8536 3.38055L25.6933 3.43514L25.6304 3.2454ZM23.4684 7.5688L21.8978 6.52155L22.0593 8.38124L23.4684 7.5688ZM22.0985 8.75377L22.1222 9.04241C22.1349 9.21896 22.1578 9.33507 22.1895 9.39112C22.2982 9.58196 22.5062 9.59222 22.8142 9.42226L22.916 9.60174L21.5898 10.3666L21.488 10.1871C21.616 10.1083 21.7051 9.99368 21.7541 9.84423C21.8036 9.69441 21.8174 9.48856 21.7941 9.22885L21.4632 5.41534L21.6225 5.32377L25.1412 7.6677C25.2292 7.72521 25.3078 7.76294 25.3754 7.78015C25.4434 7.7981 25.5096 7.79956 25.5754 7.78527C25.6402 7.77062 25.7213 7.73839 25.8195 7.6893L25.9216 7.86916L24.243 8.83691L24.1412 8.65706C24.2895 8.56915 24.3841 8.4948 24.4227 8.43509C24.4616 8.37538 24.4616 8.31054 24.4223 8.24168C24.3815 8.16952 24.2903 8.08674 24.1488 7.99699L23.795 7.77576L22.0985 8.75377ZM18.9765 8.26586L18.8158 8.39443C18.6423 8.21495 18.474 8.12373 18.3114 8.12044C18.1485 8.11861 17.9594 8.20322 17.7434 8.37611L17.2805 8.74607L19.1831 11.1603C19.2933 11.3006 19.3915 11.397 19.4755 11.4482C19.5602 11.5003 19.6478 11.5142 19.7373 11.4907C19.8271 11.4673 19.937 11.4043 20.0675 11.2995L20.1661 11.2211L20.2941 11.383L18.4631 12.8471L18.3351 12.6849L18.4609 12.5845C18.6187 12.4585 18.7056 12.3314 18.7209 12.2017C18.7365 12.0724 18.6642 11.9058 18.5042 11.7032L16.6015 9.28892L16.2175 9.59589C15.9884 9.77867 15.8466 9.95266 15.7931 10.1153C15.74 10.279 15.78 10.4783 15.9128 10.7149L15.752 10.8435L15.1469 10.0307L18.3278 7.48748L18.9765 8.26586ZM13.5799 15.7456L13.717 15.6002C13.949 15.694 14.181 15.7464 14.4116 15.7585C14.6436 15.7706 14.8556 15.7412 15.0483 15.6727C15.2411 15.6043 15.4058 15.4984 15.5415 15.3544C15.6389 15.2504 15.7069 15.1394 15.7433 15.0211C15.7789 14.9035 15.7829 14.7889 15.7567 14.679C15.7306 14.5695 15.6742 14.4739 15.5869 14.3907C15.4487 14.2585 15.2738 14.1955 15.0603 14.201C14.9625 14.2013 14.8436 14.2215 14.7032 14.2625C14.5621 14.3028 14.3487 14.3698 14.0643 14.4603C13.7803 14.5519 13.565 14.6163 13.4203 14.6537C13.2755 14.6911 13.1355 14.7131 13.0013 14.7211C12.694 14.7295 12.4355 14.6343 12.2256 14.4339C12.1144 14.3277 12.0336 14.2043 11.982 14.0614C11.93 13.9193 11.9093 13.772 11.9187 13.6189C11.9282 13.4662 11.9689 13.312 12.0395 13.1566C12.1104 13.0017 12.2097 12.857 12.3377 12.7208C12.4315 12.6211 12.5206 12.5405 12.6075 12.4764C12.6926 12.4123 12.7897 12.3504 12.8955 12.2893C13.0024 12.2292 13.0871 12.1783 13.1504 12.1376C13.2137 12.097 13.2599 12.0607 13.2882 12.0303C13.3675 11.9464 13.3682 11.8387 13.2911 11.7076L13.437 11.553L14.4439 12.5142L14.3068 12.66C14.0879 12.5728 13.8726 12.523 13.6581 12.5112C13.4439 12.4984 13.2472 12.523 13.0671 12.5841C12.8879 12.6446 12.7366 12.7394 12.6151 12.8684C12.4846 13.0068 12.414 13.1508 12.4038 13.298C12.3933 13.4457 12.4435 13.5724 12.5562 13.6801C12.6595 13.7786 12.7922 13.8255 12.9555 13.8218C13.0428 13.8167 13.1893 13.7805 13.3922 13.7134C13.5952 13.6468 13.7879 13.5816 13.9701 13.5178C14.1526 13.4541 14.3388 13.3958 14.5298 13.3435C14.7203 13.2911 14.8894 13.2622 15.0371 13.2589C15.2414 13.2534 15.4171 13.2816 15.5662 13.3424C15.7157 13.4032 15.8513 13.4925 15.9738 13.6098C16.1364 13.7647 16.2433 13.9504 16.296 14.1654C16.3491 14.3805 16.3404 14.6028 16.2706 14.8288C16.2015 15.0555 16.0804 15.261 15.9076 15.4449C15.7898 15.5702 15.6706 15.6702 15.5509 15.746C15.4309 15.8218 15.2898 15.9024 15.128 15.9885C14.9669 16.0753 14.8647 16.1398 14.824 16.1826C14.7669 16.2438 14.7356 16.3149 14.7291 16.3965C14.7236 16.4775 14.7436 16.5533 14.7894 16.6237L14.6527 16.7691L13.5799 15.7456ZM9.91899 15.6614L10.7168 16.2387L10.6045 16.3965C10.3455 16.3178 10.147 16.3006 10.0106 16.3438C9.87242 16.3874 9.74442 16.4936 9.62478 16.661L8.86111 17.7321L10.0815 18.6152L10.743 17.6878C10.8616 17.5215 10.9121 17.3786 10.8932 17.2592C10.8743 17.1394 10.7754 17.0145 10.5961 16.8848L10.7197 16.7112L11.9715 17.617L11.8478 17.7903C11.6522 17.6489 11.4961 17.5848 11.382 17.5995C11.2674 17.6134 11.1463 17.7101 11.0194 17.8881L10.3583 18.8156L11.4274 19.5892C11.5256 19.6603 11.6027 19.7053 11.6572 19.7251C11.7114 19.743 11.7623 19.7386 11.8085 19.7108C11.8536 19.6826 11.9085 19.624 11.9722 19.535L12.5326 18.7493C12.6598 18.5705 12.7395 18.4053 12.7715 18.2533C12.8042 18.1017 12.7988 17.9489 12.7569 17.7954C12.714 17.6412 12.6347 17.4562 12.5184 17.239L12.6377 17.072L13.4253 18.0855L11.1536 21.2712L10.9863 21.1507C11.0889 21.0071 11.1525 20.8884 11.1776 20.7954C11.2031 20.7024 11.1889 20.6134 11.1343 20.5287C11.0801 20.4445 10.9776 20.3474 10.8263 20.2383L8.77129 18.7511C8.62182 18.643 8.49818 18.576 8.40182 18.55C8.30436 18.5236 8.21599 18.5365 8.13671 18.5907C8.05707 18.6449 7.96506 18.7441 7.86142 18.8896L7.69994 18.7727L9.91899 15.6614ZM7.04392 24.3364L7.27629 23.8749C7.41702 23.5961 7.45122 23.3415 7.37921 23.1126C7.30757 22.8837 7.15956 22.7126 6.93809 22.5994C6.82281 22.5404 6.71044 22.5086 6.60025 22.5027C6.49006 22.4972 6.3846 22.5159 6.28205 22.5577C6.18023 22.5998 6.08496 22.6646 5.99768 22.7533C5.91004 22.8415 5.83222 22.9525 5.76385 23.0884C5.66312 23.2884 5.6082 23.4588 5.60129 23.599L7.04392 24.3364ZM7.85995 23.1954L9.77387 22.7371C9.90151 22.7056 10.0095 22.6533 10.0961 22.5789C10.1819 22.5057 10.2714 22.3903 10.3652 22.2328L10.5485 22.3265L9.9379 23.5379L7.52395 24.1115L7.33558 24.4855L8.25452 24.9554C8.42072 25.0404 8.55382 25.0855 8.65491 25.0924C8.75601 25.099 8.84291 25.0675 8.91674 24.9954C8.98983 24.9239 9.07311 24.7968 9.16475 24.6155L9.34804 24.7089L8.31308 26.7628L8.12978 26.669C8.22143 26.4873 8.27343 26.3459 8.2858 26.2455C8.29707 26.1441 8.27053 26.0565 8.20507 25.9807C8.14071 25.9056 8.02579 25.8247 7.8596 25.7401L5.53621 24.5525C5.33474 24.4496 5.17546 24.4225 5.058 24.4723C4.94127 24.5214 4.83508 24.639 4.74162 24.8243C4.73253 24.8426 4.72489 24.8591 4.7198 24.8723C4.71399 24.8862 4.70743 24.8998 4.69943 24.9151L4.52197 24.8243L5.65038 22.5851C5.74966 22.3881 5.8595 22.2155 5.97841 22.0672C6.09806 21.9181 6.22933 21.7987 6.37261 21.709C6.51589 21.6199 6.66645 21.5712 6.82501 21.5639C6.98356 21.5566 7.14829 21.5961 7.31884 21.6837C7.56613 21.8101 7.7396 22.0137 7.84033 22.2936C7.94033 22.5734 7.94795 22.8738 7.85995 23.1954Z" fill="#FF0600"/>
<path fill-rule="evenodd" clip-rule="evenodd" d="M27.2486 32.1588C27.2271 31.606 27.1922 31.0727 27.1395 30.5643C26.8954 29.3995 27.1689 28.5405 25.4968 27.6911C21.7886 25.8065 22.2185 19.5281 24.547 16.1531C26.5743 13.2146 29.7487 13.207 31.7808 16.1447C34.114 19.5175 34.5479 25.805 30.8364 27.6911C29.1647 28.5405 29.4378 29.3995 29.1937 30.5643C29.1417 31.0731 29.1061 31.6064 29.085 32.1588H27.2486Z" fill="#FF0600"/>
<path fill-rule="evenodd" clip-rule="evenodd" d="M28.3119 61.3502C27.0892 61.4 25.8292 60.6165 25.9405 58.8631C26.0121 56.8858 26.7358 52.414 27.1431 47.8145H29.4817C29.889 52.414 30.612 56.8854 30.684 58.8631C30.7945 60.6165 29.5345 61.4 28.3119 61.3502Z" fill="#FF0600"/>
<path fill-rule="evenodd" clip-rule="evenodd" d="M41.2642 32.1585C41.2584 32.0186 41.2522 31.8801 41.2449 31.7428C41.1049 29.0966 41.3497 29.1996 39.2176 27.6992C38.5153 27.2051 37.896 26.304 38.04 25.2696L38.7397 14.792C38.9459 13.3616 40.2016 13.9657 40.1903 14.2957V25.5524C40.1903 25.9315 40.4845 26.2414 40.8438 26.2414C41.2035 26.2414 41.4977 25.9315 41.4977 25.5527V14.5422C41.4977 13.7979 43.065 13.4891 43.065 14.5422V25.5527C43.065 25.9318 43.3592 26.2417 43.7185 26.2417C44.0778 26.2421 44.3724 25.9315 44.3724 25.5524V14.2957C44.3611 13.9657 45.6168 13.3616 45.8226 14.792L46.5223 25.2696C46.6659 26.304 46.0434 27.1505 45.3415 27.6443C43.2094 29.1446 43.3992 29.0967 43.2592 31.7424C43.2519 31.8798 43.2458 32.0182 43.2403 32.1582H41.2642V32.1585Z" fill="#FF0600"/>
<path fill-rule="evenodd" clip-rule="evenodd" d="M42.7361 61.6422C41.535 61.6612 40.3226 60.8744 40.4317 59.1532C40.5048 57.1338 41.1844 52.5148 41.5372 47.8145H43.8926C44.2624 52.5148 44.9672 57.1334 45.0403 59.1532C45.1493 60.8744 43.9373 61.6612 42.7361 61.6422Z" fill="#FF0600"/>
<path fill-rule="evenodd" clip-rule="evenodd" d="M58.0149 32.1589L58.0152 16.7619C58.0152 13.84 58.1105 12.2385 55.8958 15.6341C53.4677 19.3557 51.6524 26.0633 51.5513 32.1589H58.0149Z" fill="#FF0600"/>
<path fill-rule="evenodd" clip-rule="evenodd" d="M58.1606 59.2836V47.8145H55.4353C55.4382 47.861 55.4397 47.9093 55.44 47.9588C55.471 51.0591 54.9233 54.606 54.1738 57.4913C52.8399 62.6246 58.1835 62.7253 58.1606 59.2836Z" fill="#FF0600"/>
<path d="M83 31.8418H0V32.781H83V31.8418Z" fill="#FF0600"/>
<path d="M83 47.8047H0V48.7442H83V47.8047Z" fill="#FF0600"/>
<path fill-rule="evenodd" clip-rule="evenodd" d="M78.3505 44.0521C78.3505 44.2012 78.3349 44.3126 78.2262 44.3998L77.7611 44.7595C77.7145 44.7968 77.6523 44.8338 77.6523 44.8712C77.6523 44.9082 77.668 44.9455 77.7454 44.9455H80.1503C80.2278 44.9455 80.2434 44.9082 80.2434 44.8712C80.2434 44.8338 80.1812 44.7965 80.1346 44.7595L79.6692 44.3998C79.5605 44.3129 79.5452 44.2012 79.5452 44.0521V36.2343H80.119C80.2121 36.2343 80.2586 36.2965 80.2899 36.3709L81.0965 38.8405C81.1121 38.8903 81.1587 38.9152 81.2209 38.9152C81.2831 38.9152 81.2984 38.8903 81.2984 38.8284V35.6889C81.2984 35.6643 81.2674 35.6394 81.2209 35.6394H76.6752C76.6287 35.6394 76.5977 35.6643 76.5977 35.6889V38.8284C76.5977 38.8903 76.613 38.9152 76.6752 38.9152C76.7374 38.9152 76.7839 38.8903 76.7992 38.8405L77.6061 36.3709C77.637 36.2965 77.6836 36.2343 77.7771 36.2343H78.3509V44.0521H78.3505ZM68.3602 44.0521C68.3602 44.2012 68.314 44.3005 68.2209 44.3998L67.8329 44.7595C67.802 44.7968 67.7245 44.8338 67.7245 44.8833C67.7245 44.9082 67.7554 44.9455 67.8173 44.9455H69.8654C69.9275 44.9455 69.9585 44.9082 69.9585 44.8833C69.9585 44.8338 69.8963 44.7965 69.8501 44.7595L69.4312 44.3869C69.3224 44.3001 69.2759 44.2009 69.2759 44.0521V37.872H69.3072L71.1222 44.6353C71.1687 44.8214 71.2931 44.9455 71.4324 44.9455H72.084C72.1928 44.9455 72.2393 44.8957 72.2393 44.8089V36.5317C72.2393 36.383 72.2859 36.2833 72.379 36.1841L72.7666 35.8244C72.8132 35.787 72.8754 35.75 72.8754 35.7006C72.8754 35.6757 72.8445 35.6387 72.7823 35.6387H70.7341C70.6723 35.6387 70.6411 35.676 70.6411 35.7006C70.6411 35.7504 70.7189 35.7874 70.7498 35.8244L71.184 36.1969C71.2931 36.2837 71.3236 36.383 71.3236 36.5321V41.1859H71.2931L69.8654 35.8497C69.8341 35.7255 69.7879 35.6387 69.6792 35.6387H67.8173C67.7554 35.6387 67.7245 35.676 67.7245 35.7006C67.7245 35.7504 67.802 35.7874 67.8329 35.8244L68.2209 36.1841C68.314 36.2833 68.3602 36.3826 68.3602 36.5317V44.0521ZM60.8831 42.1042C60.8522 42.1042 60.8213 42.0793 60.8366 42.0298L61.3486 38.9771H61.3795L61.9224 42.0174C61.9381 42.0672 61.9071 42.1042 61.8606 42.1042H60.8831ZM62.3105 44.1763C62.3261 44.288 62.2952 44.3748 62.233 44.4247L61.8141 44.7598C61.7675 44.7972 61.7057 44.8342 61.7057 44.8715C61.7057 44.9085 61.7366 44.9459 61.8141 44.9459H64.0483C64.1262 44.9459 64.1571 44.9085 64.1571 44.8715C64.1571 44.8342 64.1106 44.7968 64.064 44.7598L63.6141 44.4371C63.5054 44.3628 63.4589 44.2261 63.4432 44.102L61.9693 35.7753C61.9541 35.7009 61.9075 35.639 61.8297 35.639H61.2558C61.178 35.639 61.1471 35.6885 61.1315 35.7508L59.7198 44.0899C59.7041 44.2016 59.6885 44.3258 59.5954 44.4001L59.1612 44.7474C59.1146 44.7847 59.0525 44.8342 59.0525 44.8715C59.0525 44.9085 59.0837 44.9459 59.1459 44.9459H60.93C61.0075 44.9459 61.0384 44.9085 61.0384 44.8715C61.0384 44.8342 60.9453 44.7847 60.8831 44.7225L60.542 44.4371C60.4798 44.3752 60.4489 44.3005 60.4645 44.2137L60.6973 42.8485C60.7129 42.799 60.7438 42.7617 60.7904 42.7617H61.9384C62.0159 42.7617 62.0624 42.8115 62.0781 42.8734L62.3105 44.1763ZM52.491 36.2592H52.7237C53.4841 36.2592 53.794 36.6687 53.794 37.9343C53.794 39.4236 53.4841 39.9075 52.7237 39.9075H52.491V36.2592ZM52.491 40.528H52.7547C53.2976 40.528 53.7169 40.9375 53.7169 41.4837V44.1518C53.7169 44.5738 53.9962 44.9459 54.7097 44.9459H55.5163C55.5941 44.9459 55.6715 44.9459 55.6715 44.9085C55.6715 44.8716 55.6097 44.8217 55.5475 44.7719L55.0511 44.3499C54.9737 44.288 54.9115 44.2133 54.9115 44.1269V41.5331C54.9115 40.8507 54.446 40.3668 53.9184 40.1434C54.4613 39.8705 55.0664 39.3119 55.0664 37.9346C55.0664 36.3215 54.2282 35.639 52.615 35.639H50.6757C50.6138 35.639 50.5829 35.6764 50.5829 35.7134C50.5829 35.7508 50.6604 35.7878 50.6913 35.8251L51.1568 36.1848C51.2651 36.2716 51.2964 36.3834 51.2964 36.5324V44.0525C51.2964 44.2016 51.2651 44.313 51.1568 44.4001L50.6913 44.7598C50.6604 44.7972 50.5829 44.8342 50.5829 44.8715C50.5829 44.9085 50.6138 44.9459 50.6757 44.9459H53.1114C53.1736 44.9459 53.2045 44.9085 53.2045 44.8715C53.2045 44.8342 53.1271 44.7968 53.0961 44.7598L52.6307 44.4001C52.5219 44.3133 52.491 44.2016 52.491 44.0525V40.528ZM42.6403 43.6056C42.6403 44.3752 43.2763 44.9459 44.5019 44.9459C45.5568 44.9459 46.3012 44.3749 46.3012 43.6056V36.5321C46.3012 36.3834 46.3481 36.2592 46.4256 36.1845L46.9064 35.8247C46.9529 35.7874 46.9842 35.7504 46.9842 35.713C46.9842 35.6757 46.9529 35.6387 46.8911 35.6387H44.7655C44.7033 35.6387 44.6721 35.676 44.6721 35.713C44.6721 35.7504 44.7033 35.7874 44.7499 35.8247L45.2306 36.1845C45.3237 36.2592 45.355 36.383 45.355 36.5321V43.2829C45.355 43.8287 45.1997 44.3254 44.6255 44.3254C43.8964 44.3254 43.8342 43.8291 43.8342 43.2829V36.5321C43.8342 36.3834 43.8807 36.2592 43.9586 36.1845L44.4393 35.8247C44.4859 35.7874 44.5168 35.7504 44.5168 35.713C44.5168 35.6757 44.4859 35.6387 44.4237 35.6387H42.0501C41.9879 35.6387 41.957 35.676 41.957 35.713C41.957 35.7504 41.9879 35.7874 42.0348 35.8247L42.5156 36.1845C42.6087 36.2592 42.6399 36.383 42.6399 36.5321V43.6056H42.6403ZM35.7374 42.1042C35.7061 42.1042 35.6752 42.0793 35.6905 42.0298L36.2025 38.9771H36.2334L36.7767 42.0174C36.792 42.0672 36.7611 42.1042 36.7146 42.1042H35.7374ZM37.1644 44.1763C37.18 44.288 37.1491 44.3748 37.0869 44.4247L36.6684 44.7598C36.6218 44.7972 36.5596 44.8342 36.5596 44.8715C36.5596 44.9085 36.5905 44.9459 36.6684 44.9459H38.9023C38.9801 44.9459 39.011 44.9085 39.011 44.8715C39.011 44.8342 38.9648 44.7968 38.9179 44.7598L38.4685 44.4371C38.3594 44.3628 38.3132 44.2261 38.2975 44.102L36.8236 35.7753C36.808 35.7009 36.7615 35.639 36.684 35.639H36.1098C36.032 35.639 36.0011 35.6885 35.9858 35.7508L34.5737 44.0899C34.5581 44.2016 34.5428 44.3258 34.4497 44.4001L34.0151 44.7474C33.9686 44.7847 33.9068 44.8342 33.9068 44.8715C33.9068 44.9085 33.9377 44.9459 33.9999 44.9459H35.784C35.8614 44.9459 35.8923 44.9085 35.8923 44.8715C35.8923 44.8342 35.7992 44.7847 35.7374 44.7225L35.3956 44.4371C35.3338 44.3752 35.3025 44.3005 35.3181 44.2137L35.5509 42.8485C35.5665 42.799 35.5974 42.7617 35.6439 42.7617H36.792C36.8695 42.7617 36.9164 42.8115 36.9317 42.8734L37.1644 44.1763ZM27.8879 44.0521C27.8879 44.2012 27.8723 44.3126 27.7635 44.3998L27.2984 44.7595C27.2519 44.7968 27.1897 44.8338 27.1897 44.8712C27.1897 44.9082 27.205 44.9455 27.2828 44.9455H29.6873C29.7651 44.9455 29.7807 44.9082 29.7807 44.8712C29.7807 44.8338 29.7185 44.7965 29.672 44.7595L29.2065 44.3998C29.0978 44.3129 29.0825 44.2012 29.0825 44.0521V36.2343H29.6563C29.7494 36.2343 29.796 36.2965 29.8273 36.3709L30.6339 38.8405C30.6495 38.8903 30.696 38.9152 30.7582 38.9152C30.8204 38.9152 30.8357 38.8903 30.8357 38.8284V35.6889C30.8357 35.6643 30.8048 35.6394 30.7582 35.6394H26.2125C26.166 35.6394 26.1347 35.6643 26.1347 35.6889V38.8284C26.1347 38.8903 26.1504 38.9152 26.2125 38.9152C26.2744 38.9152 26.3213 38.8903 26.3365 38.8405L27.1435 36.3709C27.1744 36.2965 27.221 36.2343 27.314 36.2343H27.8883L27.8879 44.0521ZM21.9778 35.7753C21.9778 35.7009 21.9468 35.639 21.869 35.639C21.7759 35.639 21.6828 35.7009 21.5432 35.8002C21.4032 35.9119 21.2486 35.9987 21.1865 35.9987C21.1243 35.9987 21.0312 35.9614 20.9537 35.9244C20.7206 35.7753 20.3795 35.639 20.0846 35.639C19.2933 35.639 18.6572 36.0112 18.6572 37.1903C18.6572 38.0962 18.9678 39.0394 19.8053 40.454C20.6897 41.943 21.1552 42.8492 21.1552 43.6803C21.1552 44.065 20.9995 44.3258 20.7053 44.3258C19.7897 44.3258 19.3089 42.7496 19.03 41.7569C19.0143 41.7196 18.9831 41.6701 18.9365 41.6701C18.8743 41.6701 18.8591 41.7196 18.8591 41.7569V44.884C18.8591 44.9214 18.8743 44.9463 18.9365 44.9463C18.9987 44.9463 19.0609 44.8965 19.1231 44.8595C19.4333 44.6734 19.5573 44.5866 19.6195 44.5866C19.6656 44.5866 19.7591 44.6236 19.9297 44.7104C20.1162 44.8096 20.3795 44.9463 20.7988 44.9463C21.3726 44.9463 22.2262 44.5488 22.2262 43.2338C22.2262 42.2536 22.1018 41.8441 21.0159 40.0075C19.8678 38.0592 19.666 37.4511 19.666 36.8431C19.666 36.5203 19.6973 36.2599 20.085 36.2599C20.7988 36.2599 21.5436 37.8236 21.7912 38.8287C21.8068 38.8786 21.8381 38.9156 21.8847 38.9156C21.9469 38.9156 21.9778 38.8906 21.9778 38.8537V35.7753ZM12.2354 36.2592H13.1202C13.3217 36.2592 13.4613 36.3335 13.5231 36.4951L14.361 38.828C14.3766 38.8778 14.4232 38.9148 14.4854 38.9148C14.5319 38.9148 14.5628 38.8899 14.5628 38.8401V35.7504C14.5628 35.6881 14.501 35.6387 14.4388 35.6387H10.4204C10.3582 35.6387 10.3273 35.676 10.3273 35.713C10.3273 35.7504 10.4048 35.7874 10.4361 35.8247L10.9012 36.1845C11.0099 36.2713 11.0408 36.383 11.0408 36.5321V44.0521C11.0408 44.2012 11.0099 44.3126 10.9012 44.3998L10.4361 44.7595C10.4048 44.8089 10.3273 44.8338 10.3273 44.8712C10.3273 44.9082 10.3582 44.9455 10.4204 44.9455H14.4388C14.5163 44.9455 14.5628 44.8957 14.5628 44.8338V41.7192C14.5628 41.6818 14.5319 41.6448 14.4854 41.6448C14.4388 41.6448 14.3923 41.6698 14.3766 41.7192L13.5388 44.102C13.4766 44.2507 13.3213 44.3254 13.1202 44.3254H12.2354V40.5529H12.5769C12.6547 40.5529 12.7166 40.5778 12.7478 40.6397L13.2751 41.5456C13.3064 41.595 13.3217 41.6324 13.3839 41.6324C13.4304 41.6324 13.446 41.6075 13.446 41.5701V38.9394C13.446 38.8896 13.4304 38.8647 13.3839 38.8647C13.3373 38.8647 13.3217 38.8896 13.2908 38.9394L12.7478 39.8079C12.7166 39.8698 12.6547 39.8947 12.5769 39.8947H12.2354V36.2592ZM3.61063 36.2592H3.84335C4.60376 36.2592 4.91359 36.6687 4.91359 37.9343C4.91359 39.4236 4.60376 39.9075 3.84335 39.9075H3.61063V36.2592ZM3.61063 40.528H3.87427C4.41721 40.528 4.8365 40.9375 4.8365 41.4837V44.1518C4.8365 44.5738 5.11578 44.9459 5.82927 44.9459H6.63587C6.71369 44.9459 6.79115 44.9459 6.79115 44.9085C6.79115 44.8716 6.72933 44.8217 6.66714 44.7719L6.17076 44.3499C6.0933 44.288 6.03112 44.2133 6.03112 44.1269V41.5331C6.03112 40.8507 5.56564 40.3668 5.03797 40.1434C5.58055 39.8705 6.18567 39.3119 6.18567 37.9346C6.18567 36.3215 5.34781 35.639 3.73464 35.639H1.79526C1.73307 35.639 1.70215 35.6764 1.70215 35.7134C1.70215 35.7508 1.77961 35.7878 1.81089 35.8251L2.276 36.1848C2.38473 36.2716 2.41601 36.3834 2.41601 36.5324V44.0525C2.41601 44.2016 2.38473 44.313 2.276 44.4001L1.81089 44.7598C1.77961 44.7972 1.70215 44.8342 1.70215 44.8715C1.70215 44.9085 1.73307 44.9459 1.79526 44.9459H4.23102C4.29285 44.9459 4.32411 44.9085 4.32411 44.8715C4.32411 44.8342 4.24665 44.7968 4.21538 44.7598L3.75026 44.4001C3.64153 44.3133 3.61063 44.2016 3.61063 44.0525V40.528Z" fill="#FF0600"/>
</svg>
