<svg width="60" height="60" viewBox="0 0 60 60" fill="none" xmlns="http://www.w3.org/2000/svg">
<g clip-path="url(#clip0_2273_9377)">
<path d="M49.3359 1.28906L56.3672 11.8359H51.6797V25.8984H46.9922V11.8359H42.3047L49.3359 1.28906Z" fill="#00DA77"/>
<path d="M45.2341 31.7578C52.6767 31.7578 58.7107 37.7918 58.7107 45.2344C58.7107 52.677 52.6767 58.7109 45.2341 58.7109C38.3784 58.7109 32.7321 53.5984 31.8712 46.9922C30.8079 38.8344 37.1747 31.7578 45.2341 31.7578Z" fill="#FFCA47"/>
<path d="M11.8359 42.3047V46.9922H3.63281C2.33789 46.9922 1.28906 45.9434 1.28906 44.6484C1.28906 43.3547 2.33906 42.3047 3.63281 42.3047H11.8359Z" fill="#00DA77"/>
<path d="M32.0777 42.3047C31.7429 43.8101 31.665 45.4085 31.8715 46.9922H16.5234V42.3047H32.0777Z" fill="#00DA77"/>
<path d="M34.1156 37.6172C33.1582 39.0129 32.4551 40.5973 32.0777 42.3047H16.5234V50.5078C16.5234 51.8016 15.4734 52.8516 14.1797 52.8516C12.8848 52.8516 11.8359 51.8027 11.8359 50.5078C11.8359 48.8385 11.8359 43.9775 11.8359 42.3047H7.73437C6.44062 42.3047 5.39062 41.2547 5.39062 39.9609C5.39062 38.666 6.43945 37.6172 7.73437 37.6172H34.1156Z" fill="#FD5F5C"/>
<path d="M3.63281 32.9297H39.7313C37.4555 33.948 35.5137 35.5816 34.1156 37.6172C33.3875 37.6172 4.53504 37.6172 3.63281 37.6172C2.33789 37.6172 1.28906 36.5684 1.28906 35.2734C1.28906 33.9797 2.33906 32.9297 3.63281 32.9297Z" fill="#F68953"/>
<path d="M31.8715 46.9922C32.3531 50.6883 34.3313 53.9133 37.1789 56.0402C35.5945 56.993 33.7406 57.5391 31.7578 57.5391H14.1797C8.35488 57.5391 3.63281 52.8189 3.63281 46.9922H11.8359V50.5078C11.8359 51.8027 12.8848 52.8516 14.1797 52.8516C15.4734 52.8516 16.5234 51.8016 16.5234 50.5078V46.9922H31.8715Z" fill="#FFCEBF"/>
<path d="M42.2719 32.0848C41.3895 32.2828 40.5387 32.5676 39.7312 32.9297H3.63281C3.63281 27.1049 8.35301 22.3828 14.1797 22.3828H31.7578C37.2984 22.3828 41.8418 26.6543 42.2719 32.0848Z" fill="#FFCEBF"/>
<path d="M3.63281 34.1016C2.98559 34.1016 2.46094 33.5768 2.46094 32.9297C2.46094 26.454 7.6991 21.2109 14.1797 21.2109H31.7578C37.863 21.2109 42.9581 25.9059 43.4401 31.9923C43.4912 32.6374 43.0096 33.2019 42.3643 33.253C41.7183 33.3055 41.1548 32.8225 41.1036 32.1772C40.7207 27.3422 36.6155 23.5547 31.7578 23.5547H14.1797C8.99906 23.5547 4.80469 27.7453 4.80469 32.9297C4.80469 33.5769 4.28004 34.1016 3.63281 34.1016Z" fill="black"/>
<path d="M31.7578 58.7109H14.1797C7.70402 58.7109 2.46094 53.4728 2.46094 46.9922C2.46094 46.345 2.98559 45.8203 3.63281 45.8203C4.28004 45.8203 4.80469 46.345 4.80469 46.9922C4.80469 52.1726 8.9952 56.3672 14.1797 56.3672H31.7578C33.4609 56.3672 35.1267 55.9069 36.5749 55.0359C37.1295 54.7024 37.8496 54.8818 38.1831 55.4364C38.5167 55.991 38.3374 56.711 37.7828 57.0446C35.9699 58.1347 33.8864 58.7109 31.7578 58.7109Z" fill="black"/>
<path d="M7.73438 38.7891H3.63281C1.6943 38.7891 0.117188 37.212 0.117188 35.2734C0.117188 33.3312 1.69031 31.7578 3.63281 31.7578H39.7313C40.3784 31.7578 40.9031 32.2825 40.9031 32.9297C40.9031 33.5768 40.3784 34.1016 39.7313 34.1016H3.63281C2.98582 34.1016 2.46094 34.6264 2.46094 35.2734C2.46094 35.9196 2.98664 36.4453 3.63281 36.4453H7.73438C8.3816 36.4453 8.90625 36.97 8.90625 37.6172C8.90625 38.2644 8.3816 38.7891 7.73438 38.7891Z" fill="black"/>
<path d="M31.8715 48.1641H16.5234C15.8762 48.1641 15.3516 47.6393 15.3516 46.9922C15.3516 46.345 15.8762 45.8203 16.5234 45.8203H31.8715C32.5186 45.8203 33.0434 46.345 33.0434 46.9922C33.0434 47.6394 32.5186 48.1641 31.8715 48.1641Z" fill="black"/>
<path d="M11.8359 48.1641H3.63281C1.6943 48.1641 0.117188 46.587 0.117188 44.6484C0.117188 42.7062 1.69031 41.1328 3.63281 41.1328H7.73438C8.3816 41.1328 8.90625 41.6575 8.90625 42.3047C8.90625 42.9518 8.3816 43.4766 7.73438 43.4766H3.63281C2.98594 43.4766 2.46094 44.0013 2.46094 44.6484C2.46094 45.2946 2.98664 45.8203 3.63281 45.8203H11.8359C12.4832 45.8203 13.0078 46.345 13.0078 46.9922C13.0078 47.6394 12.4832 48.1641 11.8359 48.1641Z" fill="black"/>
<path d="M14.1797 54.0234C12.2412 54.0234 10.6641 52.4463 10.6641 50.5078V43.4766H7.73438C5.79199 43.4766 4.21875 41.9034 4.21875 39.9609C4.21875 38.0224 5.79586 36.4453 7.73438 36.4453H34.1156C34.7629 36.4453 35.2875 36.97 35.2875 37.6172C35.2875 38.2643 34.7629 38.7891 34.1156 38.7891H7.73438C7.0882 38.7891 6.5625 39.3148 6.5625 39.9609C6.5625 40.6079 7.08727 41.1328 7.73438 41.1328H11.8359C12.4832 41.1328 13.0078 41.6575 13.0078 42.3047V50.5078C13.0078 51.154 13.5335 51.6797 14.1797 51.6797C14.8266 51.6797 15.3516 51.1549 15.3516 50.5078V42.3047C15.3516 41.6575 15.8762 41.1328 16.5234 41.1328H32.0777C32.7248 41.1328 33.2496 41.6575 33.2496 42.3047C33.2496 42.9518 32.7248 43.4766 32.0777 43.4766H17.6953V50.5078C17.6953 51.4465 17.3296 52.3291 16.6654 52.9934C16.0013 53.6577 15.1184 54.0234 14.1797 54.0234Z" fill="black"/>
<path d="M45.2347 59.8828C37.7158 59.8828 31.6364 54.2545 30.7098 47.1436C29.5623 38.3372 36.4133 30.5859 45.2347 30.5859C53.3118 30.5859 59.8831 37.1572 59.8831 45.2344C59.8831 53.3115 53.3118 59.8828 45.2347 59.8828ZM45.2347 32.9297C37.7827 32.9297 32.0752 39.4823 33.0338 46.8408C33.8089 52.7876 38.8974 57.5391 45.2347 57.5391C52.0195 57.5391 57.5394 52.0192 57.5394 45.2344C57.5394 38.4496 52.0195 32.9297 45.2347 32.9297Z" fill="black"/>
<path d="M45.2344 52.9688H42.5391C41.892 52.9688 41.3672 52.444 41.3672 51.7969C41.3672 51.1496 41.892 50.625 42.5391 50.625H45.2344C46.0751 50.625 46.7578 49.9425 46.7578 49.1016C46.7578 48.2609 46.0753 47.5781 45.2344 47.5781C43.098 47.5781 41.3672 45.8473 41.3672 43.7109C41.3672 41.5786 43.102 39.8438 45.2344 39.8438H47.9297C48.5768 39.8438 49.1016 40.3684 49.1016 41.0156C49.1016 41.6627 48.5768 42.1875 47.9297 42.1875H45.2344C44.3944 42.1875 43.7109 42.8709 43.7109 43.7109C43.7109 44.5516 44.3934 45.2344 45.2344 45.2344C47.3707 45.2344 49.1016 46.9652 49.1016 49.1016C49.1016 50.134 48.6991 51.105 47.9685 51.8357C47.2378 52.5663 46.2668 52.9688 45.2344 52.9688Z" fill="black"/>
<path d="M45.2344 42.1875C44.5873 42.1875 44.0625 41.6627 44.0625 41.0156V38.3203C44.0625 37.6731 44.5873 37.1484 45.2344 37.1484C45.8815 37.1484 46.4062 37.6731 46.4062 38.3203V41.0156C46.4062 41.6629 45.8815 42.1875 45.2344 42.1875Z" fill="black"/>
<path d="M45.2344 55.6641C44.5873 55.6641 44.0625 55.1393 44.0625 54.4922V51.7969C44.0625 51.1496 44.5873 50.625 45.2344 50.625C45.8815 50.625 46.4062 51.1496 46.4062 51.7969V54.4922C46.4062 55.1394 45.8815 55.6641 45.2344 55.6641Z" fill="black"/>
<path d="M51.6796 27.0699H46.9921C46.345 27.0699 45.8202 26.5452 45.8202 25.898V13.0074H42.3046C41.8724 13.0074 41.4754 12.7695 41.2715 12.3885C41.0676 12.0074 41.0899 11.5451 41.3296 11.1855L48.3609 0.638599C48.8235 -0.0555026 49.8468 -0.0577292 50.311 0.638599L57.3422 11.1855C57.582 11.545 57.6043 12.0074 57.4004 12.3885C57.1965 12.7695 56.7993 13.0074 56.3672 13.0074H52.8516V25.898C52.8515 26.5452 52.3267 27.0699 51.6796 27.0699ZM48.164 24.7261H50.5077V11.8355C50.5077 11.1884 51.0325 10.6636 51.6796 10.6636H54.1775L49.3359 3.40118L44.4943 10.6636H46.9921C47.6392 10.6636 48.164 11.1884 48.164 11.8355V24.7261Z" fill="black"/>
</g>
<defs>
<clipPath id="clip0_2273_9377">
<rect width="60" height="60" fill="white"/>
</clipPath>
</defs>
</svg>
