<svg width="127" height="80" viewBox="0 0 127 80" fill="none" xmlns="http://www.w3.org/2000/svg">
<path fill-rule="evenodd" clip-rule="evenodd" d="M85.4019 36.2703H126.62V34.9238H86.8674C86.3582 35.4086 85.8694 35.8571 85.4019 36.2703ZM0 34.9238V36.2703H36.1316C35.5756 35.8571 35.0085 35.4081 34.4291 34.9238H0Z" fill="#FF0600"/>
<path fill-rule="evenodd" clip-rule="evenodd" d="M85.813 55.9774H126.621V54.6309H84.6233L85.813 55.9774ZM0 54.6309V55.9774H37.5164C38.0444 55.5084 38.5455 55.0589 39.0176 54.6309H0Z" fill="#FF0600"/>
<path d="M63.7097 45.8039L79.8553 63.3666C79.8837 63.3937 79.9107 63.4219 79.9366 63.4531C80.1602 63.7164 80.3742 63.9425 80.5785 64.1332C81.4988 64.9939 82.4125 65.3897 83.2292 65.4424C83.9818 65.491 84.6602 65.2419 85.1735 64.8016C85.2639 64.7239 85.3407 64.6512 85.4027 64.5837L85.4047 64.5817L85.4077 64.5786C85.425 64.5602 85.4428 64.5418 85.4621 64.5244C85.5302 64.4605 85.6039 64.3818 85.6832 64.2877C86.1212 63.7712 86.3682 63.0884 86.3199 62.3316C86.2671 61.5103 85.8743 60.5903 85.0185 59.6642C84.8289 59.4586 84.6048 59.2433 84.3426 59.0183L84.3441 59.0162C84.3329 59.0065 84.3213 58.9958 84.3101 58.985L66.7451 42.6338L63.7097 45.8039ZM86.9562 66.0831C86.8261 66.2217 86.6986 66.3455 86.5746 66.4524C85.6486 67.2471 84.4331 67.6961 83.0914 67.6091C81.8128 67.5263 80.4326 66.9535 79.1108 65.718C78.8262 65.4516 78.5538 65.1672 78.2967 64.8635C78.2896 64.8548 78.283 64.8466 78.2759 64.8379L62.2141 47.3657L45.0821 65.2537L45.0831 65.2542C43.1901 67.4644 40.8931 67.9589 38.9905 67.4194C38.1184 67.1729 37.3307 66.7009 36.7031 66.0703C36.0734 65.4388 35.607 64.6466 35.3788 63.7609C34.9001 61.8994 35.4535 59.6652 37.7449 57.7193C37.7535 57.7117 37.7622 57.705 37.7713 57.6978L60.3749 36.7707C58.6664 35.1659 56.7765 33.0002 56.3151 31.4236C55.8115 29.7022 55.9085 27.7042 56.1783 24.3827C56.2703 23.2567 56.1753 22.1296 55.9227 21.0173C54.9816 16.8776 51.8613 12.9342 47.9213 9.92572C43.9539 6.89624 39.1861 4.84044 34.9809 4.49372C33.6352 4.38326 32.3545 4.44921 31.1872 4.7182C29.8334 5.03015 28.6819 5.67658 27.7956 6.57356C26.8992 7.48025 26.268 8.65337 25.9661 10.006C25.7069 11.1674 25.6439 12.4407 25.7532 13.7801C26.0977 18.0205 28.1488 22.8297 31.1699 26.8272C34.1693 30.7961 38.1011 33.9345 42.2271 34.8663C43.3131 35.1112 44.4148 35.2023 45.5176 35.1112C48.8178 34.8392 50.8033 34.7415 52.5143 35.2488C53.7975 35.6288 54.8291 36.3084 56.0035 37.4524C56.9427 38.444 55.3292 39.8917 54.3961 38.9058C53.5226 38.0742 52.7699 37.5808 51.906 37.3251C50.5522 36.9241 48.7425 37.0208 45.697 37.2719C44.3726 37.3808 43.0514 37.2729 41.7499 36.9788C37.1015 35.9284 32.7397 32.4827 29.4584 28.142C26.1994 23.8299 23.9837 18.604 23.6056 13.9606C23.4796 12.4095 23.5568 10.9137 23.8668 9.52682C24.2571 7.77633 25.0885 6.2437 26.2741 5.04397C27.4429 3.86163 28.9492 3.01169 30.709 2.60615C32.0979 2.28653 33.5996 2.20574 35.1592 2.3341C39.7644 2.71304 44.9459 4.93504 49.2269 8.20437C53.5343 11.4941 56.9599 15.8701 58.0215 20.5386C58.3229 21.8636 58.4347 23.2112 58.3249 24.5643C58.0759 27.6291 57.9794 29.4501 58.3778 30.8125C58.7203 31.9825 60.4532 33.8956 61.9757 35.3096C62.5825 34.7461 63.1695 34.1355 63.6624 33.3996C64.3465 32.3799 64.8856 31.0717 65.1204 29.2185C65.2541 28.1655 65.2073 27.1463 65.1631 26.1849C65.0376 23.4275 64.9309 21.0776 68.1705 18.58L88.0717 1.02291C88.1022 0.99581 88.1342 0.970734 88.1667 0.947722C89.5632 -0.0955166 90.7396 -0.168121 91.6401 0.206729C92.0635 0.383159 92.4101 0.6547 92.6819 0.972786C92.9355 1.26939 93.1266 1.61405 93.2551 1.96027C93.5768 2.82708 93.4635 3.78749 92.9772 4.27383L92.9797 4.27639L72.9003 24.4825L72.8998 24.483L72.8967 24.4799C72.7595 24.6175 72.6878 24.7934 72.6817 24.9657C72.6772 25.1053 72.7219 25.2404 72.8179 25.3365L72.825 25.3437C72.9206 25.4362 73.0517 25.4792 73.1874 25.4746C73.3551 25.4684 73.5289 25.3953 73.6681 25.2547L93.308 5.49041C94.2771 4.5157 95.5024 4.4707 96.53 4.94681C96.8852 5.11147 97.2185 5.34775 97.5061 5.63464C97.7917 5.92051 98.0296 6.25649 98.1953 6.62315C98.6547 7.63724 98.5978 8.84003 97.5997 9.84491L77.977 29.5913C77.8383 29.7309 77.7646 29.9058 77.7585 30.0745C77.7539 30.2141 77.7987 30.3491 77.8942 30.4463C77.9898 30.5424 78.1249 30.5875 78.2642 30.5834C78.4314 30.5772 78.6052 30.5041 78.7444 30.3635L98.8239 10.1579C98.8772 10.1032 98.9357 10.0566 98.9967 10.0162C99.5125 9.65111 100.356 9.59176 101.125 9.88019C101.469 10.0096 101.811 10.2013 102.106 10.4565C102.422 10.7306 102.692 11.0794 102.868 11.5054C103.243 12.4177 103.167 13.6134 102.107 15.033C102.091 15.0545 102.074 15.0754 102.056 15.0959L84.6094 35.1225C82.1269 38.3826 79.7923 38.2752 77.0521 38.1489C76.0556 38.1029 74.9955 38.0543 73.8749 38.2164C73.8485 38.2205 73.8221 38.2236 73.7957 38.2256C72.5161 38.4194 71.4905 38.782 70.6317 39.2422C69.5854 40.0906 67.7691 38.379 69.5818 37.3296C70.6225 36.7707 71.8803 36.3263 73.4755 36.0849C73.505 36.0783 73.5345 36.0727 73.565 36.0681C74.8786 35.8773 76.0515 35.9315 77.1538 35.9827C79.2856 36.0808 81.1034 36.1647 82.9065 33.7969C82.9288 33.7652 82.9527 33.7351 82.9791 33.7054L100.414 13.6921C100.9 13.0314 100.985 12.5983 100.876 12.3334C100.84 12.2469 100.777 12.1687 100.699 12.1012C100.6 12.0153 100.486 11.9508 100.374 11.9089C100.288 11.8772 100.425 11.6363 100.396 11.6455C100.381 11.6619 100.366 11.6788 100.35 11.6941L80.271 31.9002C79.7338 32.4407 79.0346 32.7256 78.3414 32.7496C77.6188 32.7747 76.9032 32.5215 76.3681 31.983L76.3676 31.9825C75.8325 31.444 75.5804 30.7235 75.6053 29.9968C75.6297 29.2988 75.9123 28.5951 76.4494 28.0551L96.0721 8.30818C96.3257 8.053 96.347 7.76253 96.2388 7.52371C96.1813 7.39637 96.0954 7.2762 95.9903 7.17188C95.8866 7.06806 95.7611 6.98011 95.6223 6.91618C95.3626 6.796 95.0613 6.79958 94.8341 7.02817L75.1937 26.7919C74.6565 27.3324 73.9578 27.6173 73.2641 27.6413C72.5415 27.6664 71.8259 27.4127 71.2903 26.8742C70.7552 26.3357 70.5031 25.6152 70.528 24.8885C70.5519 24.1946 70.836 23.4919 71.3752 22.9498L71.3721 22.9468L91.4516 2.74015L91.4547 2.74321C91.4628 2.73503 91.4704 2.72736 91.4785 2.71918C91.5827 2.6215 91.2747 2.81532 91.2382 2.71662C91.1965 2.6036 91.133 2.49009 91.0471 2.38935C90.98 2.31111 90.9023 2.24768 90.8164 2.21137C90.5526 2.10143 90.1227 2.18733 89.4656 2.67673L69.5787 20.2216L69.5777 20.2205C69.5589 20.2374 69.5391 20.2538 69.5188 20.2696C67.1339 22.0927 67.2177 23.9281 67.3158 26.0831C67.3635 27.1294 67.4139 28.2386 67.2548 29.4946C66.9712 31.734 66.3004 33.3428 65.4446 34.6182C64.601 35.8768 63.6126 36.7641 62.6445 37.614L62.6435 37.613L39.2267 59.2929C39.1988 59.3225 39.1699 59.3501 39.1383 59.3773C37.5792 60.7012 37.1717 62.1025 37.4578 63.2158C37.5884 63.7205 37.8572 64.1751 38.2216 64.5408C38.5875 64.908 39.0525 65.1846 39.5728 65.3319C40.7386 65.6623 42.189 65.3084 43.4528 63.8325L43.4549 63.834C43.4676 63.8197 43.4813 63.8044 43.4945 63.7906L65.558 40.7544C66.1886 40.0584 67.0358 39.9516 67.7544 40.6174L85.7411 57.3716L85.7421 57.37C86.044 57.6293 86.3265 57.9034 86.5913 58.1903C87.8196 59.5199 88.3883 60.9094 88.4706 62.1956C88.557 63.5461 88.1108 64.7689 87.3211 65.7006C87.2164 65.8244 87.0939 65.9522 86.9562 66.0831Z" fill="#FF0600"/>
<path d="M27.6176 15.0252C27.4723 14.4116 27.8484 13.7953 28.4582 13.6486C29.068 13.5023 29.6809 13.8812 29.8262 14.4949C30.8624 18.8658 33.1055 22.8209 35.987 25.7205C38.783 28.5342 42.1614 30.3383 45.5841 30.5281C46.2076 30.5628 46.6853 31.1003 46.6508 31.7283C46.6162 32.3563 46.0826 32.8365 45.4581 32.8022C41.448 32.5798 37.5522 30.5291 34.3806 27.3375C31.2156 24.151 28.7524 19.8134 27.6176 15.0252Z" fill="#FF0600"/>
<path fill-rule="evenodd" clip-rule="evenodd" d="M37.4206 39.5741H37.8927C38.9152 39.5741 39.8848 40.2614 39.8848 45.1063C39.8848 50.6385 38.9152 51.3258 37.8927 51.3258H37.4206V39.5741ZM35.4021 50.9285C35.4021 51.1458 35.3493 51.3084 35.1658 51.4348L34.3796 51.959C34.3268 52.0316 34.1962 52.0674 34.1962 52.1211C34.1962 52.1753 34.249 52.23 34.3537 52.23H37.814C40.4616 52.23 42.035 51.0006 42.035 45.1063C42.035 40.424 40.4616 38.6699 37.814 38.6699H34.3537C34.249 38.6699 34.1962 38.7247 34.1962 38.7784C34.1962 38.8331 34.3273 38.8868 34.3796 38.941L35.1658 39.4651C35.3493 39.5914 35.4021 39.7541 35.4021 39.9714V50.9285ZM26.7822 39.5741C27.5689 39.5741 28.1457 41.0929 28.1457 45.1063C28.1457 49.807 27.5689 51.3258 26.7822 51.3258C26.022 51.3258 25.4452 49.807 25.4452 45.1063C25.4457 41.0929 26.022 39.5741 26.7822 39.5741ZM26.7822 38.6705C23.6366 38.6705 23.2961 42.4854 23.2961 45.0889C23.2961 48.506 23.6371 52.2305 26.7822 52.2305C29.9538 52.2305 30.2948 48.506 30.2948 45.0889C30.2953 42.4854 29.9543 38.6705 26.7822 38.6705ZM15.4629 39.5741C16.2496 39.5741 16.8263 41.0929 16.8263 45.1063C16.8263 49.807 16.2496 51.3258 15.4629 51.3258C14.7026 51.3258 14.1258 49.807 14.1258 45.1063C14.1258 41.0929 14.7026 39.5741 15.4629 39.5741ZM15.4629 38.6705C12.3172 38.6705 11.9767 42.4854 11.9767 45.0889C11.9767 48.506 12.3177 52.2305 15.4629 52.2305C18.6345 52.2305 18.9755 48.506 18.9755 45.0889C18.9755 42.4854 18.6345 38.6705 15.4629 38.6705ZM3.82843 39.5741H5.32303C5.66351 39.5741 5.89982 39.6825 6.00451 39.9177L7.4198 43.3164C7.44622 43.389 7.55143 43.4427 7.62969 43.4427C7.70795 43.4427 7.7608 43.4069 7.7608 43.3522V38.8325C7.7608 38.742 7.68204 38.6699 7.55143 38.6699H0.762029C0.657342 38.6699 0.604492 38.7247 0.604492 38.7784C0.604492 38.8331 0.735616 38.8868 0.787959 38.941L1.57412 39.4651C1.75758 39.5914 1.81044 39.7541 1.81044 39.9714V50.9275C1.81044 51.1448 1.75758 51.3074 1.57412 51.4337L0.787959 51.9579C0.735108 52.0305 0.604492 52.0663 0.604492 52.12C0.604492 52.1742 0.656834 52.229 0.762029 52.229H5.06081C5.166 52.229 5.21834 52.1748 5.21834 52.12C5.21834 52.0663 5.11365 52.0116 5.03488 51.9579L4.06525 51.4337C3.85587 51.3253 3.82945 51.1448 3.82945 50.9275V45.8289H4.40625C4.53736 45.8289 4.64206 45.8647 4.6944 45.9552L5.61167 47.2751C5.66453 47.3477 5.69043 47.4019 5.76971 47.4019C5.84797 47.4019 5.87439 47.3656 5.87439 47.2935V43.4785C5.87439 43.4059 5.82154 43.3696 5.74328 43.3696C5.66451 43.3696 5.61168 43.4243 5.55984 43.4964L4.6949 44.7437C4.64204 44.8342 4.53735 44.8705 4.40675 44.8705H3.82998V39.5741H3.82843Z" fill="#FF0600"/>
<path fill-rule="evenodd" clip-rule="evenodd" d="M122.019 50.9285C122.019 51.1458 121.992 51.3084 121.81 51.4348L121.023 51.9589C120.945 52.0126 120.839 52.0674 120.839 52.1211C120.839 52.1753 120.866 52.23 120.997 52.23H125.06C125.192 52.23 125.217 52.1758 125.217 52.1211C125.217 52.0674 125.113 52.0126 125.034 51.9589L124.248 51.4348C124.064 51.3084 124.038 51.1458 124.038 50.9285V39.5388H125.008C125.166 39.5388 125.244 39.6293 125.296 39.7377L126.659 43.3353C126.686 43.408 126.764 43.4438 126.869 43.4438C126.974 43.4438 127 43.408 127 43.3175V38.7436C127 38.7072 126.948 38.671 126.869 38.671H119.189C119.11 38.671 119.058 38.7067 119.058 38.7436V43.3175C119.058 43.408 119.084 43.4438 119.189 43.4438C119.293 43.4438 119.372 43.408 119.399 43.3353L120.762 39.7377C120.814 39.6293 120.893 39.5388 121.05 39.5388H122.019L122.019 50.9285ZM112.186 39.5741H112.579C113.863 39.5741 114.388 40.1709 114.388 42.0149C114.388 44.1843 113.864 44.8895 112.579 44.8895H112.186V39.5741ZM112.186 45.7941H112.632C113.549 45.7941 114.257 46.3904 114.257 47.1861V51.0737C114.257 51.6884 114.729 52.231 115.935 52.231H117.298C117.429 52.231 117.561 52.231 117.561 52.1768C117.561 52.1226 117.456 52.0505 117.351 51.9779L116.512 51.3632C116.381 51.2726 116.276 51.1642 116.276 51.0379V47.2587C116.276 46.2646 115.49 45.5594 114.598 45.2341C115.516 44.8363 116.538 44.0227 116.538 42.016C116.538 39.6651 115.122 38.671 112.396 38.671H109.12C109.015 38.671 108.963 38.7257 108.963 38.7794C108.963 38.8341 109.094 38.8878 109.146 38.942L109.932 39.4662C110.116 39.5925 110.168 39.7551 110.168 39.9724V50.9285C110.168 51.1458 110.116 51.3084 109.932 51.4348L109.146 51.9589C109.093 52.0126 108.963 52.0674 108.963 52.1211C108.963 52.1753 109.015 52.23 109.12 52.23H113.235C113.34 52.23 113.393 52.1758 113.393 52.1211C113.393 52.0674 113.262 52.0126 113.21 51.9589L112.423 51.4348C112.24 51.3084 112.187 51.1458 112.187 50.9285V45.7941H112.186ZM100.021 50.2775C100.021 51.3985 101.095 52.23 103.166 52.23C104.949 52.23 106.207 51.3985 106.207 50.2775V39.9724C106.207 39.7551 106.285 39.5746 106.417 39.4662L107.229 38.942C107.308 38.8873 107.36 38.8336 107.36 38.7794C107.36 38.7257 107.308 38.671 107.203 38.671H103.612C103.507 38.671 103.454 38.7257 103.454 38.7794C103.454 38.8341 103.507 38.8878 103.585 38.942L104.399 39.4662C104.556 39.5746 104.608 39.7551 104.608 39.9724V49.8075C104.608 50.6032 104.346 51.3264 103.376 51.3264C102.144 51.3264 102.039 50.6032 102.039 49.8075V39.9724C102.039 39.7551 102.117 39.5746 102.248 39.4662L103.061 38.942C103.14 38.8873 103.193 38.8336 103.193 38.7794C103.193 38.7257 103.14 38.671 103.035 38.671H99.0244C98.9192 38.671 98.8669 38.7257 98.8669 38.7794C98.8669 38.8341 98.9192 38.8878 98.998 38.942L99.8106 39.4662C99.9681 39.5746 100.02 39.7551 100.02 39.9724V50.2775H100.021ZM93.3338 39.5741C94.1199 39.5741 94.6967 41.0929 94.6967 45.1063C94.6967 49.807 94.1199 51.3258 93.3338 51.3258C92.5735 51.3258 91.9967 49.807 91.9967 45.1063C91.9972 41.0929 92.5735 39.5741 93.3338 39.5741ZM93.3338 38.6705C90.1881 38.6705 89.8476 42.4854 89.8476 45.0889C89.8476 48.506 90.1881 52.2305 93.3338 52.2305C96.5053 52.2305 96.8463 48.506 96.8463 45.0889C96.8468 42.4854 96.5059 38.6705 93.3338 38.6705ZM87.3021 38.9773C87.3021 38.7962 87.2757 38.6699 87.1186 38.6699C86.9875 38.6699 86.7776 38.8147 86.6201 38.941C86.4371 39.0857 86.2532 39.1583 86.1226 39.1583C85.9915 39.1583 85.8344 39.1399 85.6769 39.0494C85.2841 38.8325 84.8384 38.6699 84.4186 38.6699C81.1419 38.6699 81.0107 42.8644 81.0107 45.0884C81.0107 48.1077 81.3517 52.23 84.4186 52.23C86.7253 52.23 87.3021 50.5306 87.3021 47.8545C87.3021 47.7461 87.2497 47.6919 87.1186 47.6919C86.9875 47.6919 86.9087 47.7466 86.9087 47.8366C86.9087 47.9987 86.3584 51.3258 84.9167 51.3258C83.7377 51.3258 83.1604 50.5301 83.1604 45.1063C83.1604 41.2913 83.3702 39.5741 84.5238 39.5741C85.8609 39.5741 86.6206 41.7255 86.9357 43.2443C86.9616 43.3527 87.0139 43.4432 87.1451 43.4432C87.2497 43.4432 87.3021 43.3706 87.3021 43.2812V38.9773Z" fill="#FF0600"/>
<path fill-rule="evenodd" clip-rule="evenodd" d="M71.7372 64.4951C71.7723 64.4951 71.8002 64.4742 71.8002 64.4481L71.8775 63.6513C71.8775 63.6258 71.8704 63.6048 71.8429 63.6048C71.8216 63.6048 71.7931 63.6355 71.7794 63.6672L71.5619 64.0912C71.5411 64.1326 71.5126 64.1638 71.4638 64.1638H70.9307C70.8606 64.1116 70.8469 64.0139 70.8469 63.905C70.8469 63.6774 70.9592 63.4192 71.1904 63.1451C71.506 62.7723 71.8572 62.2189 71.8572 61.4641C71.8572 60.9052 71.5909 60.6162 71.1559 60.6162C70.7137 60.6162 70.328 60.9834 70.2508 61.4386C70.2442 61.48 70.2584 61.5061 70.293 61.5061C70.3422 61.5061 70.3636 61.4907 70.3773 61.4539C70.3982 61.4022 70.6721 60.8745 71.0227 60.8745C71.2753 60.8745 71.3383 61.0249 71.3383 61.4386C71.3383 62.0696 71.1142 62.5917 70.8332 62.964C70.5527 63.3414 70.4266 63.6882 70.4266 63.9572C70.4266 64.0605 70.4404 64.1587 70.448 64.2364L70.3077 64.422C70.2793 64.464 70.2792 64.4951 70.3214 64.4951H71.7372ZM68.5479 62.4005C68.2953 62.4005 68.1972 61.9709 68.1972 61.5725C68.1972 61.1696 68.2953 60.8745 68.5479 60.8745C68.7928 60.8745 68.898 61.1696 68.898 61.5725C68.898 61.9714 68.7928 62.4005 68.5479 62.4005ZM68.5479 62.649C68.7654 62.649 68.898 62.9385 68.898 63.435C68.898 63.9986 68.7649 64.2364 68.5479 64.2364C68.3237 64.2364 68.1972 63.9986 68.1972 63.435C68.1972 62.938 68.3237 62.649 68.5479 62.649ZM68.5479 60.6162C67.9797 60.6162 67.6783 61.1021 67.6783 61.5935C67.6783 61.9914 67.8181 62.2609 68.1759 62.5089C67.8953 62.623 67.6783 62.9277 67.6783 63.435C67.6783 64.0814 67.9797 64.4951 68.5479 64.4951C69.1084 64.4951 69.4174 64.0809 69.4174 63.435C69.4174 62.9282 69.1927 62.623 68.9127 62.5089C69.2705 62.2609 69.4174 61.9914 69.4174 61.5935C69.4174 61.1021 69.1084 60.6162 68.5479 60.6162ZM65.8484 60.8745C66.1147 60.8745 66.2132 61.2366 66.2132 62.0226C66.2132 62.5293 66.1431 62.8868 65.8484 62.8868C65.5612 62.8868 65.4911 62.5196 65.4911 61.8681C65.4911 61.2365 65.5897 60.8745 65.8484 60.8745ZM65.8484 60.6162C65.2035 60.6162 64.9718 61.278 64.9718 61.8988C64.9718 62.6434 65.2873 63.1456 65.8067 63.1456C65.9612 63.1456 66.108 63.0627 66.199 62.9748H66.2127C66.2127 63.6575 66.1848 64.2369 65.855 64.2369C65.4626 64.2369 65.3432 63.8385 65.2243 63.523C65.2101 63.4867 65.1821 63.4662 65.1537 63.4662C65.1191 63.4662 65.0978 63.4867 65.0978 63.523C65.0978 63.8641 65.1958 64.4951 65.8834 64.4951C66.5639 64.4951 66.7321 63.7501 66.7321 62.5089C66.7326 61.1225 66.4729 60.6162 65.8484 60.6162ZM63.3044 64.1223C63.3044 64.1842 63.2901 64.2308 63.2414 64.2671L63.031 64.4169C63.0096 64.4322 62.9817 64.4476 62.9817 64.464C62.9817 64.4793 62.9954 64.4946 63.0239 64.4946H64.0753C64.1104 64.4946 64.1175 64.4793 64.1175 64.464C64.1175 64.4481 64.0895 64.4322 64.0682 64.4169L63.8578 64.2671C63.8085 64.2308 63.7948 64.1842 63.7948 64.1223V61.2054C63.7948 60.9574 63.8156 60.7661 63.8156 60.6413C63.8156 60.6311 63.8019 60.6157 63.7811 60.6157H63.6967C63.6687 60.6157 63.6545 60.6306 63.6337 60.6515C63.5285 60.7548 63.2551 60.9047 62.9745 60.9722C62.9324 60.9829 62.9039 60.9983 62.9039 61.0136C62.9039 61.0289 62.9177 61.0397 62.939 61.0494L63.2546 61.1788C63.2891 61.1895 63.3039 61.2151 63.3039 61.2412V64.1223H63.3044ZM61.138 63.973C60.9561 63.973 60.8854 64.1075 60.8854 64.2369C60.8854 64.3606 60.9561 64.4956 61.138 64.4956C61.3275 64.4956 61.3977 64.3606 61.3977 64.2369C61.3977 64.107 61.3275 63.973 61.138 63.973ZM59.0559 64.1223C59.0559 64.1842 59.0488 64.2308 59 64.2671L58.7896 64.4169C58.7688 64.4322 58.7403 64.4476 58.7403 64.464C58.7403 64.4793 58.7475 64.4946 58.7825 64.4946H59.8701C59.9046 64.4946 59.9117 64.4793 59.9117 64.464C59.9117 64.4481 59.8838 64.4322 59.8629 64.4169L59.652 64.2671C59.6033 64.2308 59.5961 64.1842 59.5961 64.1223V60.8643H59.8558C59.898 60.8643 59.9193 60.8898 59.9331 60.9205L60.2974 61.95C60.3051 61.9709 60.3259 61.9817 60.3538 61.9817C60.3818 61.9817 60.3884 61.9709 60.3884 61.9453V60.6367C60.3884 60.626 60.3747 60.6162 60.3538 60.6162H58.2987C58.2779 60.6162 58.2637 60.6265 58.2637 60.6367V61.9453C58.2637 61.9714 58.2713 61.9817 58.2987 61.9817C58.3272 61.9817 58.348 61.9709 58.3546 61.95L58.7195 60.9205C58.7332 60.8898 58.7546 60.8643 58.7962 60.8643H59.0559V64.1223ZM57.3459 60.6725C57.3459 60.6413 57.3322 60.6162 57.2966 60.6162C57.2549 60.6162 57.2127 60.6418 57.1497 60.6832C57.0867 60.7298 57.0161 60.7661 56.9881 60.7661C56.9602 60.7661 56.918 60.7507 56.8834 60.7354C56.7782 60.673 56.6237 60.6162 56.4906 60.6162C56.1333 60.6162 55.8452 60.7712 55.8452 61.2627C55.8452 61.6401 55.9855 62.0333 56.3646 62.6229C56.764 63.2433 56.9744 63.6207 56.9744 63.9674C56.9744 64.1275 56.9043 64.2364 56.7716 64.2364C56.3574 64.2364 56.1405 63.5798 56.0139 63.1655C56.0073 63.1502 55.9931 63.1297 55.9722 63.1297C55.9438 63.1297 55.9372 63.1502 55.9372 63.1655V64.4691C55.9372 64.4844 55.9443 64.4951 55.9722 64.4951C56.0002 64.4951 56.0282 64.4742 56.0561 64.4588C56.1964 64.3816 56.2528 64.3448 56.2802 64.3448C56.3016 64.3448 56.3437 64.3601 56.4205 64.397C56.5048 64.4384 56.6237 64.4951 56.8128 64.4951C57.0725 64.4951 57.4582 64.3295 57.4582 63.7812C57.4582 63.3726 57.4028 63.2018 56.9114 62.4368C56.3925 61.6247 56.3016 61.3716 56.3016 61.1179C56.3016 60.9834 56.3153 60.8745 56.4906 60.8745C56.8133 60.8745 57.1502 61.526 57.2625 61.9453C57.2696 61.9658 57.2834 61.9817 57.3047 61.9817C57.3327 61.9817 57.3464 61.9709 57.3464 61.9556V60.6725H57.3459ZM53.9039 60.8745H54.3039C54.3948 60.8745 54.4584 60.9057 54.4858 60.9727L54.8644 61.9448C54.8715 61.9653 54.8923 61.9811 54.9203 61.9811C54.9416 61.9811 54.9554 61.9704 54.9554 61.9494V60.6618C54.9554 60.6357 54.9269 60.6152 54.8995 60.6152H53.0832C53.0547 60.6152 53.041 60.6301 53.041 60.6459C53.041 60.6618 53.0761 60.6776 53.0903 60.693L53.3007 60.8428C53.35 60.8791 53.3637 60.9256 53.3637 60.9875V64.1218C53.3637 64.1837 53.35 64.2302 53.3007 64.2665L53.0903 64.4164C53.0766 64.4374 53.041 64.4471 53.041 64.4634C53.041 64.4788 53.0547 64.4941 53.0832 64.4941H54.8995C54.934 64.4941 54.9554 64.4732 54.9554 64.4471V63.1492C54.9554 63.1338 54.9416 63.1185 54.9203 63.1185C54.8995 63.1185 54.8781 63.1292 54.871 63.1492L54.4924 64.1423C54.4645 64.2042 54.3943 64.2354 54.3034 64.2354H53.9034V62.6634H54.0579C54.0925 62.6634 54.1209 62.6736 54.1352 62.6991L54.3735 63.0766C54.3872 63.097 54.3943 63.1129 54.4228 63.1129C54.4436 63.1129 54.4508 63.1021 54.4508 63.0868V61.9898C54.4508 61.9694 54.4436 61.9586 54.4228 61.9586C54.4014 61.9586 54.3943 61.9694 54.3806 61.9898L54.1357 62.3519C54.1214 62.378 54.093 62.3882 54.0584 62.3882H53.9039V60.8745Z" fill="#FF0600"/>
<path d="M24.5957 34.0087C25.3021 30.4249 26.5019 27.0205 28.122 23.8699C28.4666 24.346 28.8137 24.8149 29.1648 25.2772C27.8283 28.0141 26.8195 30.9419 26.1879 34.0087H24.5957ZM97.1577 56.8904C95.2302 61.3379 92.4915 65.3483 89.1304 68.7306C82.2119 75.6927 72.6534 79.9991 62.0969 79.9991C51.5403 79.9991 41.9823 75.6927 35.0638 68.7306C31.7022 65.3483 28.9636 61.3379 27.0365 56.8904H28.7461C30.5766 60.9068 33.1007 64.5357 36.1671 67.6204C42.803 74.2987 51.9712 78.4286 62.0969 78.4286C72.2235 78.4286 81.3912 74.2987 88.0271 67.6204C91.0925 64.5357 93.6177 60.9063 95.4477 56.8904H97.1577ZM95.2068 22.2809C97.2685 25.8648 98.7717 29.8143 99.598 34.0087H98.0053C97.2227 30.205 95.8583 26.615 94.01 23.3375L95.2068 22.2809ZM62.0969 3.05469C69.1068 3.05469 75.6761 4.95398 81.3241 8.2678L80.0562 9.34583C74.7482 6.33987 68.622 4.62466 62.0969 4.62466C56.7731 4.62466 51.7151 5.76659 47.1501 7.81983C46.7364 7.44447 46.3085 7.064 45.8725 6.68097C50.7973 4.35516 56.2964 3.05469 62.0969 3.05469Z" fill="#FF0600"/>
</svg>
