<svg width="53" height="50" viewBox="0 0 53 50" fill="none" xmlns="http://www.w3.org/2000/svg">
<g clip-path="url(#clip0_1841_5798)">
<path d="M35.2113 44.3222L30.3738 44.6532L25.6515 49.2707H7.46387L23.6803 37.3957L28.4549 29.8162C29.2553 28.5458 31.1058 28.3496 32.1798 29.4215L41.139 35.9583C42.4932 36.9463 42.577 38.8612 41.3141 39.9532L37.5483 43.209C36.8923 43.7835 36.0807 44.1701 35.2113 44.3222Z" fill="#FF0600"/>
<path d="M41.1387 35.9585L38.9483 34.3604C39.1838 35.2538 38.9193 36.2485 38.1352 36.9264L34.3695 40.1821C33.7135 40.7568 32.902 41.1435 32.0325 41.2954L27.1949 41.6265L19.377 49.271H25.6512L30.3734 44.6535L35.211 44.3225C36.0805 44.1704 36.892 43.7838 37.548 43.2092L41.3137 39.9534C42.5767 38.8613 42.4928 36.9465 41.1387 35.9585Z" fill="#FF0600"/>
<path d="M34.32 32.2385L35.2241 33.1647C34.7151 33.2165 34.1936 33.0519 33.8245 32.6738L33.002 31.8311C33.4747 31.7482 33.9746 31.8847 34.32 32.2385Z" fill="#E8D06B"/>
<path d="M45.9665 40.1639L40.2226 44.7646L25.0801 25.04L28.0609 22.6523L45.9665 40.1639Z" fill="#FF0600"/>
<path d="M6.85254 16.9695L11.8012 22.5732C15.3105 26.5471 20.839 28.4997 26.6948 27.8335L30.1669 27.4385L31.1707 24.2483C32.8635 18.8681 31.7913 13.3461 28.282 9.37227L23.3333 3.76855L6.85254 16.9695Z" fill="#FED130"/>
<path d="M28.2827 9.37227L23.3341 3.76855L19.7988 6.60029L25.0165 12.4829C28.5258 16.4567 29.5981 21.9787 27.9053 27.359L27.7953 27.7084L30.1678 27.4385L31.1715 24.2483C32.8643 18.8682 31.792 13.3461 28.2827 9.37227Z" fill="#FF0600"/>
<path d="M24.8917 4.36111L7.19984 18.5323C6.94216 18.7387 6.55754 18.7071 6.34087 18.4617L5.22125 17.1939C5.00448 16.9485 5.0377 16.5822 5.29538 16.3759L22.9874 2.20467C23.2451 1.99822 23.6297 2.02986 23.8463 2.27527L24.9659 3.54305C25.1826 3.78846 25.1494 4.15476 24.8917 4.36111Z" fill="#FFB125"/>
<path d="M24.9653 3.54305L23.8458 2.27527C23.629 2.02986 23.2445 1.99822 22.9868 2.20467L19.8613 4.70818L21.7658 6.86473L24.8913 4.36121C25.1489 4.15476 25.182 3.78846 24.9653 3.54305Z" fill="#FF901D"/>
<path d="M19.4067 15.075L22.573 16.3967C22.6136 16.4137 22.6604 16.4105 22.6981 16.3882L25.6364 14.6533C25.7312 14.5973 25.8524 14.6692 25.8413 14.775L25.5 18.0514C25.4956 18.0934 25.5132 18.1348 25.547 18.162L28.1875 20.2873C28.2728 20.356 28.2384 20.4879 28.1294 20.5107L24.7521 21.2139C24.7088 21.2229 24.6729 21.2517 24.6561 21.2907L23.3497 24.3391C23.3076 24.4375 23.1652 24.4472 23.1088 24.3554L21.3628 21.5136C21.3405 21.4772 21.3007 21.4535 21.2564 21.4504L17.8086 21.2091C17.6973 21.2013 17.6436 21.0753 17.7179 20.9959L20.0162 18.5363C20.0456 18.5048 20.057 18.4614 20.0463 18.4204L19.2218 15.223C19.1952 15.1198 19.3045 15.0323 19.4067 15.075Z" fill="white"/>
<path d="M50.2672 39.769L39.4783 48.4108C39.0099 48.786 38.3009 48.677 37.9804 48.1805L36.1972 45.4184C35.9374 45.0158 36.0261 44.4929 36.4058 44.1887L46.4263 36.1623C46.806 35.8582 47.3623 35.8647 47.7341 36.1775L50.2858 38.324C50.7444 38.7099 50.7356 39.3939 50.2672 39.769Z" fill="#FFB125"/>
<path d="M50.2851 38.324L47.7334 36.1775C47.3616 35.8647 46.8054 35.8582 46.4256 36.1623L43.502 38.5042L47.5715 41.9277L50.2667 39.769C50.7352 39.3939 50.7439 38.7099 50.2851 38.324Z" fill="#FF901D"/>
<path d="M39.3524 39.8012C40.0832 40.5509 41.3138 40.5943 42.1006 39.898L44.5346 37.7445C45.3211 37.0486 45.3666 35.8774 44.6362 35.128C43.9054 34.3783 42.6749 34.335 41.888 35.0313L39.454 37.1848C38.6674 37.8806 38.622 39.0519 39.3524 39.8012Z" fill="#FF0600"/>
<path d="M39.454 37.1847L41.888 35.0312C42.6749 34.335 43.9055 34.3783 44.6362 35.128C45.0599 35.5627 45.2221 36.1393 45.1303 36.6829C44.3898 36.0821 43.2781 36.091 42.5479 36.7369L40.114 38.8904C39.7838 39.1826 39.5847 39.5586 39.5183 39.9519C39.4607 39.9052 39.4051 39.8553 39.3523 39.8011C38.622 39.0519 38.6675 37.8806 39.454 37.1847Z" fill="#FF0600"/>
<path d="M37.4022 36.4595C38.1439 37.2206 39.3932 37.2645 40.192 36.5578L42.5829 34.4423C43.3812 33.736 43.4274 32.547 42.686 31.7864C41.9442 31.0253 40.695 30.9814 39.8962 31.6881L37.5053 33.8036C36.707 34.51 36.6608 35.6989 37.4022 36.4595Z" fill="#FF0600"/>
<path d="M37.5053 33.8036L39.8962 31.6881C40.695 30.9814 41.9441 31.0253 42.686 31.7864C43.1109 32.2223 43.2766 32.799 43.1908 33.3448C42.4393 32.7219 41.3 32.7267 40.5536 33.387L38.1627 35.5024C37.822 35.8039 37.6187 36.1934 37.5548 36.5999C37.5019 36.5561 37.4509 36.5093 37.4022 36.4594C36.6608 35.6989 36.707 34.51 37.5053 33.8036Z" fill="#FF0600"/>
<path d="M34.704 33.729C35.4458 34.4901 36.695 34.534 37.4938 33.8273L39.8847 31.7119C40.6831 31.0055 40.7292 29.8166 39.9879 29.0559C39.2461 28.2949 37.9968 28.2509 37.1981 28.9577L34.8072 31.0731C34.0087 31.7794 33.9626 32.9684 34.704 33.729Z" fill="#FF0600"/>
<path d="M34.8071 31.0731L37.198 28.9577C37.9968 28.2509 39.2459 28.2949 39.9878 29.0559C40.0389 29.1084 40.086 29.1631 40.1297 29.2194C39.6958 29.2484 39.2692 29.413 38.9258 29.7169L36.5349 31.8324C35.7916 32.49 35.7007 33.5657 36.2898 34.3248C35.7146 34.3633 35.1268 34.1629 34.7039 33.7291C33.9626 32.9684 34.0087 31.7794 34.8071 31.0731Z" fill="#FF0600"/>
<path d="M32.1043 30.8951C32.8461 31.6561 34.0953 31.7 34.8941 30.9933L37.285 28.8779C38.0834 28.1715 38.1295 26.9826 37.3882 26.2219C36.6464 25.4609 35.3972 25.4169 34.5984 26.1237L32.2075 28.2391C31.4091 28.9456 31.363 30.1344 32.1043 30.8951Z" fill="#FF0600"/>
<path d="M32.2085 28.2391L34.5994 26.1236C35.3981 25.4169 36.6474 25.4609 37.3891 26.2219C37.8137 26.6573 37.9795 27.2332 37.8942 27.7786C37.1427 27.1546 36.0025 27.159 35.2557 27.8197L32.8648 29.9352C32.5236 30.2371 32.3202 30.6273 32.2565 31.0344C32.2043 30.9909 32.1537 30.9445 32.1053 30.895C31.3639 30.1344 31.4101 28.9455 32.2085 28.2391Z" fill="#FF0600"/>
<path d="M36.6734 32.333L36.23 32.7253C35.5324 33.3425 34.456 33.319 33.8251 32.6727L32.7087 31.5291C32.1623 30.9694 31.2289 30.9519 30.6283 31.4902C30.9644 36.4425 23.6807 37.3949 23.6807 37.3949L26.7765 30.1425C26.9674 29.6015 27.2977 29.1114 27.7369 28.7178L29.9357 26.747C31.0046 25.7888 32.666 25.8194 33.6394 26.8151L36.7937 30.0416C37.4258 30.6885 37.372 31.7149 36.6734 32.333Z" fill="#FF0600"/>
<path d="M26.6037 14.8471C26.6377 14.52 26.4769 14.2089 26.184 14.035C25.8911 13.8612 25.5269 13.8607 25.2334 14.0339L22.577 15.6023L19.7146 14.4074C19.3983 14.2754 19.038 14.3248 18.7738 14.5365C18.5095 14.7482 18.3965 15.0781 18.479 15.3972L19.2243 18.2879L17.1467 20.5113C16.9171 20.7569 16.8551 21.0987 16.9847 21.4034C17.1143 21.7081 17.4088 21.9124 17.753 21.9365L20.8701 22.1546L22.4486 24.724C22.6118 24.9896 22.9047 25.1482 23.2239 25.1482C23.2455 25.1482 23.2674 25.1474 23.2893 25.146C23.6335 25.1227 23.9284 24.9193 24.0589 24.6148L25.24 21.8588L28.2938 21.223C28.6309 21.1526 28.8918 20.9106 28.9748 20.5916C29.0577 20.2727 28.9455 19.9428 28.682 19.7306L26.2949 17.8093L26.6037 14.8471ZM26.7177 20.0585L24.5891 20.5018C24.2995 20.5621 24.0598 20.7542 23.9479 21.0154L23.1245 22.9366L22.0237 21.145C21.8741 20.902 21.6088 20.7445 21.3131 20.7236L19.14 20.5715L20.5888 19.021C20.7856 18.8103 20.8609 18.5209 20.7903 18.2469L20.2706 16.2317L22.2657 17.0644C22.5371 17.178 22.8495 17.1569 23.1019 17.008L24.9539 15.9146L24.7388 17.9795C24.7095 18.2604 24.8271 18.5368 25.0535 18.7192L26.7177 20.0585Z" fill="black"/>
<path d="M50.7913 37.7776L48.2397 35.631C47.5888 35.0836 46.597 35.0722 45.9324 35.6043L45.818 35.696C45.7052 35.3089 45.4991 34.9425 45.1967 34.6324C44.8273 34.2533 44.3581 33.9941 43.8414 33.8775C44.1394 33.0056 43.9468 32.009 43.2467 31.2908C42.7488 30.7799 42.0718 30.4844 41.3405 30.4587C41.3185 30.4579 41.2966 30.4582 41.2747 30.4579C41.3082 29.7818 41.0685 29.0939 40.548 28.5598C40.0562 28.0552 39.3896 27.7613 38.6686 27.7292C38.7336 27.0199 38.4963 26.288 37.9488 25.7264C37.4509 25.2156 36.7739 24.92 36.0426 24.8944C35.3111 24.8681 34.6132 25.1157 34.0771 25.59L33.7137 25.9115C33.1858 25.5486 32.5543 25.3425 31.8836 25.3215C31.7991 25.3188 31.7151 25.32 31.6314 25.3231L31.9038 24.4575C32.3921 22.9052 32.6961 20.091 32.687 20.242C32.7134 20.2541 32.7392 20.2667 32.7662 20.2782C33.1409 20.4373 33.5446 20.5164 33.9466 20.5164C34.4076 20.5164 34.8663 20.4124 35.2763 20.2057C36.1297 19.7754 36.7354 18.876 36.7836 17.9675C36.8294 17.103 36.4019 16.3396 35.58 15.8178C35.2281 15.5947 34.7528 15.6851 34.5184 16.0201C34.284 16.3552 34.3792 16.8078 34.731 17.0312C35.0965 17.2631 35.2727 17.5533 35.2545 17.8939C35.2333 18.2945 34.9412 18.7247 34.5599 18.9169C34.2104 19.0933 33.7621 19.1045 33.3899 18.9463C33.1522 18.8454 32.844 18.6307 32.7261 18.1812C32.3749 16.8424 33.1803 15.5136 34.1127 13.9751C35.8016 11.1883 37.9034 7.72024 33.5037 2.76751L31.6815 0.716335C31.3146 0.303152 30.8006 0.0512961 30.2344 0.00696019C29.6682 -0.0373758 29.118 0.131179 28.6851 0.481765C27.5111 1.43245 26.9008 2.872 27.0523 4.33245L27.1433 5.20862C27.1899 5.65794 27.0082 6.09934 26.6586 6.40149L27.6451 7.51868C28.3812 6.90637 28.7632 5.99309 28.6668 5.06516L28.5758 4.18899C28.4736 3.20423 28.8851 2.23362 29.6767 1.5926C29.7974 1.49485 29.9504 1.44759 30.1089 1.46018C30.2668 1.47249 30.4102 1.5428 30.5126 1.65803L32.3347 3.70921C36.0391 7.87923 34.4591 10.4863 32.7865 13.2461C32.5248 13.6779 32.2611 14.1136 32.0225 14.5554C31.3899 12.4851 30.3312 10.5603 28.8674 8.90276L25.3636 4.93528L25.3833 4.91956C25.6645 4.69436 25.8367 4.37844 25.8683 4.02991C25.8999 3.68128 25.7871 3.34192 25.5506 3.07425L24.4311 1.80657C24.1947 1.5388 23.8629 1.37473 23.497 1.34466C23.131 1.31468 22.7747 1.4219 22.4934 1.6471L4.80175 15.8183C4.22148 16.283 4.14643 17.1108 4.63441 17.6636L5.75393 18.9313C5.99039 19.1991 6.3221 19.3631 6.68816 19.3932C6.72857 19.3965 6.76876 19.3982 6.80875 19.3982C7.13185 19.3982 7.44152 19.291 7.69151 19.0907L7.7113 19.0747L9.02718 20.5649C8.65661 20.8367 8.17365 20.9303 7.72043 20.812L6.82905 20.579C5.34326 20.1906 3.75032 20.5208 2.56845 21.4627C2.13276 21.8101 1.86544 22.2981 1.81592 22.8372C1.76629 23.3763 1.9404 23.9011 2.30616 24.3153L4.12202 26.3714C8.50649 31.3364 12.4502 29.9479 15.6191 28.8321C17.0492 28.3285 18.3199 27.8813 19.4607 28.0381C19.6725 28.0949 19.8856 28.1485 20.1003 28.1979C20.1357 28.2111 20.1709 28.2246 20.2061 28.2393C20.6514 28.4256 20.8217 28.7511 20.8862 28.9912C20.9871 29.3672 20.8999 29.7862 20.6585 30.0847C20.3954 30.4102 19.9008 30.6115 19.4826 30.5643C19.1271 30.5239 18.8564 30.3096 18.6779 29.9274C18.5061 29.5595 18.0538 29.3941 17.6672 29.5575C17.281 29.7211 17.1071 30.152 17.2788 30.5199C17.6803 31.3795 18.3984 31.9095 19.3009 32.0121C19.4005 32.0235 19.5009 32.029 19.6017 32.029C20.4612 32.0289 21.3442 31.6264 21.8713 30.9743C22.4013 30.3191 22.5875 29.4427 22.3694 28.6302C22.3643 28.6117 22.3583 28.5936 22.3529 28.5752C23.0491 28.6499 23.7554 28.6892 24.4694 28.6892C25.2341 28.6892 26.0077 28.6456 26.7851 28.5573L26.8529 28.5495C26.5042 28.9456 26.2328 29.4009 26.0574 29.8888L23.0482 36.9382L6.9964 48.693C6.73656 48.8832 6.63269 49.2101 6.73831 49.5056C6.84382 49.8012 7.13523 50 7.46305 50H25.6506C25.8571 50 26.0549 49.9205 26.199 49.7797L27.212 48.7892C27.507 48.5007 27.5006 48.0391 27.1977 47.7581C26.8948 47.4773 26.4101 47.4832 26.1152 47.7717L25.3276 48.5419H9.71461L24.1462 37.9739C24.1568 37.966 24.1664 37.9576 24.1764 37.9493C24.1833 37.9438 24.1904 37.9384 24.197 37.9325C24.2214 37.9113 24.2441 37.8888 24.265 37.8652C24.2691 37.8605 24.2729 37.8555 24.2769 37.8506C24.296 37.828 24.3134 37.8044 24.3293 37.78C24.3323 37.7754 24.3355 37.771 24.3384 37.7663C24.3565 37.7372 24.3721 37.7073 24.3856 37.6764C24.3865 37.6743 24.3878 37.6725 24.3887 37.6704L27.4845 30.4181C27.4905 30.4041 27.496 30.39 27.501 30.3757C27.6514 29.9495 27.914 29.5603 28.2603 29.2497L30.4591 27.2788C30.8366 26.9404 31.3235 26.7626 31.833 26.7788C32.314 26.794 32.7562 26.9835 33.0779 27.3127L36.2322 30.5393C36.2323 30.5394 36.2322 30.5393 36.2323 30.5394C36.2324 30.5395 36.2321 30.5392 36.2322 30.5393L36.2323 30.5394C36.2325 30.5396 36.232 30.5391 36.2322 30.5393C36.232 30.5391 36.2324 30.5395 36.2322 30.5393C36.3928 30.7035 36.4763 30.9205 36.4676 31.1502C36.4582 31.3969 36.3458 31.6277 36.1513 31.7998L35.7081 32.1921C35.4014 32.4634 34.9656 32.5147 34.6272 32.3504C34.6184 32.3458 34.6091 32.342 34.6 32.3377C34.5215 32.2962 34.4487 32.2427 34.3846 32.1772L33.2682 31.0334C32.8693 30.6247 32.3242 30.3893 31.7334 30.3705C31.1281 30.3517 30.5482 30.5607 30.1026 30.9601C30.061 30.9974 30.0243 31.0385 29.9929 31.0827C29.9145 31.1933 29.8691 31.3228 29.8625 31.4571C29.8612 31.4839 29.8615 31.511 29.8633 31.5381C29.8634 31.5391 29.8634 31.5401 29.8634 31.541C29.8671 31.5964 29.8697 31.6512 29.8712 31.7057C29.872 31.7364 29.8719 31.7667 29.8721 31.7972C29.8724 31.8206 29.8728 31.8442 29.8725 31.8674C29.872 31.9063 29.8706 31.9448 29.8691 31.9831C29.8686 31.9971 29.8681 32.0111 29.8674 32.025C29.8652 32.0684 29.862 32.1115 29.8583 32.1541C29.8578 32.1597 29.8574 32.1654 29.8569 32.1709C29.8547 32.1892 29.853 32.2075 29.8523 32.2258C29.7808 32.9008 29.5246 33.5049 29.0771 34.0581C28.819 34.3771 28.8813 34.8349 29.2162 35.0806C29.551 35.3263 30.0318 35.2669 30.2898 34.948C30.555 34.6202 30.7724 34.275 30.9433 33.9139L37.4544 42.3952L37.299 42.5197C37.2018 42.5514 37.1097 42.602 37.0293 42.6725C36.4882 43.1466 35.8259 43.4661 35.1119 43.5982L30.3181 43.9263C30.1311 43.9391 29.9554 44.0168 29.8246 44.1448L28.6008 45.3414C28.3058 45.6299 28.3121 46.0915 28.615 46.3725C28.7638 46.5105 28.9565 46.5792 29.149 46.5792C29.3483 46.5792 29.5474 46.5056 29.6974 46.3589L30.7181 45.3608L35.2654 45.0496C35.2741 45.0491 35.2826 45.0474 35.2912 45.0465C35.311 45.3076 35.3931 45.5665 35.544 45.8003L37.3271 48.5623C37.5967 48.9799 38.0427 49.2642 38.5506 49.3423C38.6448 49.3569 38.7391 49.364 38.8329 49.364C39.246 49.364 39.6489 49.2261 39.9699 48.969L50.7588 40.3272C51.1527 40.0117 51.3821 39.5497 51.3884 39.0596C51.3947 38.5693 51.1771 38.1022 50.7913 37.7776ZM15.0883 27.4645C11.9496 28.5696 8.98524 29.6132 5.29384 25.433L3.47797 23.3769C3.37605 23.2614 3.32745 23.115 3.34129 22.9646C3.35513 22.8142 3.42968 22.678 3.55129 22.5812C4.34812 21.9461 5.42222 21.7235 6.42402 21.9853L7.3154 22.2183C8.25424 22.4635 9.25779 22.2627 10.0141 21.6825L11.2151 23.0424C12.6824 24.704 14.4971 26.0298 16.5363 26.9786C16.0509 27.1257 15.5675 27.2957 15.0883 27.4645ZM30.437 24.039L29.859 25.876C29.7015 25.977 29.551 26.0904 29.4097 26.2169L28.6773 26.8735L26.6037 27.1094C21.0298 27.7437 15.7147 25.8723 12.3868 22.1038L8.88312 18.1364L10.2509 17.0408C10.5745 16.7816 10.6161 16.3216 10.344 16.0135C10.072 15.7053 9.58889 15.6654 9.26538 15.9247L7.31201 17.4893C7.31191 17.4894 7.31181 17.4895 7.3117 17.4895C7.3116 17.4896 7.3115 17.4897 7.3114 17.4898L6.82536 17.8791L5.90641 16.8386L23.3599 2.85852L24.2788 3.89915L23.7935 4.28792C23.7932 4.28821 23.7928 4.28841 23.7925 4.2886C23.7922 4.2888 23.7919 4.28919 23.7916 4.28938L12.0263 13.7132C11.7028 13.9725 11.6611 14.4324 11.9332 14.7405C12.2053 15.0487 12.6881 15.0881 13.0119 14.8292L24.1921 5.87376L27.6958 9.84124C31.0238 13.6099 32.0485 18.9175 30.437 24.039ZM43.2543 35.2663C43.569 35.2775 43.8604 35.4046 44.0746 35.6244C44.4399 35.9992 44.4899 36.5609 44.2061 36.9871L40.8706 39.6589C40.5113 39.6876 40.1624 39.5615 39.9129 39.3055C39.4708 38.852 39.4985 38.1405 39.9744 37.7193L40.4577 37.2916C40.546 37.2303 40.6314 37.1642 40.7127 37.0923L42.5795 35.4407C42.7793 35.3197 43.0119 35.2588 43.2543 35.2663ZM40.5072 32.1503C40.7173 31.9974 40.9716 31.915 41.2381 31.915C41.2533 31.915 41.2685 31.9153 41.2838 31.9158C41.6064 31.9272 41.905 32.0575 42.1246 32.2827C42.5778 32.7475 42.5495 33.4769 42.0616 33.9085L41.6207 34.2987C41.5326 34.3598 41.4475 34.4255 41.3664 34.4973L39.4973 36.151C39.292 36.2763 39.0523 36.3401 38.8037 36.3308C38.4811 36.3194 38.1825 36.1891 37.9629 35.9638C37.5395 35.5294 37.5367 34.8642 37.9364 34.4267C37.9625 34.4053 37.9885 34.3837 38.0139 34.3614L40.4048 32.2459C40.44 32.2147 40.4741 32.1828 40.5072 32.1503ZM36.4496 28.6221L34.8032 26.9378L35.1191 26.6582C35.3555 26.4491 35.6633 26.3421 35.9859 26.3514C36.3085 26.3628 36.6071 26.4931 36.8268 26.7184C37.2799 27.1831 37.2515 27.9125 36.7636 28.3443L36.4496 28.6221ZM36.75 33.2605L37.1933 32.8681C37.6877 32.4308 37.9732 31.8394 37.9974 31.2032C38.0185 30.6506 37.838 30.1228 37.4869 29.6961L37.7181 29.4915C37.9546 29.2824 38.2618 29.1728 38.585 29.1847C38.9075 29.1961 39.2061 29.3264 39.4257 29.5517C39.8493 29.9863 39.8519 30.6518 39.4519 31.0894C39.4259 31.1107 39.4001 31.132 39.3749 31.1542L36.9839 33.2697C36.9486 33.301 36.9143 33.333 36.8811 33.3657C36.7012 33.4967 36.4886 33.575 36.2641 33.5947C36.4356 33.5033 36.5995 33.3936 36.75 33.2605ZM31.399 32.037C31.4012 31.9821 31.4033 31.9272 31.4038 31.8717C31.4258 31.8638 31.4484 31.857 31.4711 31.8511C31.5395 31.8336 31.6106 31.8257 31.6824 31.8282C31.8626 31.8338 32.0275 31.9044 32.1469 32.0266L33.2632 33.1702C33.3774 33.2872 33.5018 33.3903 33.6338 33.4793C33.7567 33.7543 33.9268 34.0043 34.142 34.225C34.6399 34.7359 35.3169 35.0314 36.0483 35.0572C36.0703 35.0578 36.0922 35.058 36.1141 35.0583C36.0807 35.7343 36.3204 36.4221 36.8408 36.956C37.2138 37.3387 37.6874 37.6005 38.209 37.7187C37.9042 38.5859 38.0928 39.5817 38.7907 40.2976C38.9855 40.4974 39.2103 40.6635 39.4548 40.7929L38.6287 41.4546L31.399 32.037ZM49.7733 39.2111L38.9844 47.8529C38.9124 47.9107 38.8345 47.9088 38.7948 47.9028C38.7549 47.8966 38.6807 47.8749 38.6313 47.7986L36.8482 45.0365C36.7865 44.9408 36.8071 44.819 36.8973 44.7467L46.9177 36.7203C46.9181 36.72 46.9177 36.7203 46.9181 36.7201L46.9177 36.7203C46.9613 36.6854 47.0156 36.6679 47.0697 36.6679C47.1258 36.6679 47.1818 36.6866 47.226 36.7239L49.7776 38.8704C49.8482 38.9298 49.8579 39.0033 49.8574 39.0418C49.857 39.0802 49.8454 39.1534 49.7733 39.2111Z" fill="black"/>
</g>
<defs>
<clipPath id="clip0_1841_5798">
<rect width="52.5" height="50" fill="white" transform="translate(0.348633)"/>
</clipPath>
</defs>
</svg>
