<svg width="142" height="67" viewBox="0 0 142 67" fill="none" xmlns="http://www.w3.org/2000/svg">
<path d="M1 66H141" stroke="#FF0600" stroke-width="2" stroke-miterlimit="10" stroke-linecap="round" stroke-linejoin="round"/>
<path d="M24.4 40.96C24.4 42.4533 24.0667 43.7333 23.4 44.8C22.7333 45.8667 21.8267 46.68 20.68 47.24C18.5733 48.2533 16.0267 48.76 13.04 48.76C12.5333 48.76 11.8267 48.7333 10.92 48.68V59.68L13.96 60.04V61H2.64V60.04L5.64 59.68V35.52L2.2 35.12V34.2H10.16L14.84 34.08C18.1467 34.1067 20.56 34.6933 22.08 35.84C23.6267 36.9867 24.4 38.6933 24.4 40.96ZM12.04 47.52C14.2267 47.52 15.9067 46.9333 17.08 45.76C18.2533 44.56 18.84 42.9733 18.84 41C18.84 39.0267 18.4267 37.5867 17.6 36.68C16.7733 35.7467 15.4667 35.28 13.68 35.28C12.4267 35.28 11.5067 35.3333 10.92 35.44V47.44C11.4 47.4933 11.7733 47.52 12.04 47.52ZM36.4188 61H24.1388V60.04L27.6188 59.68V35.6L24.1388 35.24V34.28H36.4188V35.24L32.9388 35.6V59.68L36.4188 60.04V61ZM37.3006 40.16V34.28L60.5806 34.2V35.44L43.3006 58.96L57.7406 59.04L59.1406 54.64H60.4606V60.48L36.7406 60.56V59.44L54.1806 35.8L40.0206 35.72L38.6206 40.16H37.3006ZM61.7756 40.16V34.28L85.0556 34.2V35.44L67.7756 58.96L82.2156 59.04L83.6156 54.64H84.9356V60.48L61.2156 60.56V59.44L78.6556 35.8L64.4956 35.72L63.0956 40.16H61.7756ZM112.931 61H101.171V60.04L104.411 59.68L100.731 50.48H91.7306L88.5306 59L92.0906 60.04V61H83.7306V60.04L86.7706 59L96.4506 34.28H99.2506L109.851 59.68L112.931 60.04V61ZM100.131 49L96.2106 39.28L92.2906 49H100.131ZM130.993 34.28H139.073V35.24L136.273 36.2V61H133.553L115.753 39.08V59.04L119.113 60.04V61H111.113V60.04L114.033 59.04V35.6L110.553 35.24V34.28H118.073L134.073 54.2V36.16L130.993 35.24V34.28Z" fill="white"/>
<path d="M1 29H141" stroke="#FF0600" stroke-width="2" stroke-miterlimit="10" stroke-linecap="round" stroke-linejoin="round"/>
<path d="M80.691 24.0456C86.044 18.7736 86.044 10.226 80.691 4.954C75.3379 -0.318 66.6589 -0.318 61.3058 4.954C55.9528 10.226 55.9528 18.7736 61.3058 24.0456C66.6589 29.3176 75.3379 29.3176 80.691 24.0456Z" fill="#FF0600" stroke="#FF0600" stroke-width="1.5" stroke-miterlimit="10" stroke-linecap="round" stroke-linejoin="round"/>
<path d="M74.9688 6.98926V21.3886C74.9688 21.5711 73.1919 23.321 71.001 23.321C68.8101 23.321 67.0332 21.5711 67.0332 21.3886V6.98926" stroke="white" stroke-width="1.5" stroke-miterlimit="10" stroke-linecap="round" stroke-linejoin="round"/>
<path d="M67.0332 16.3398H74.9688" stroke="white" stroke-width="1.5" stroke-miterlimit="10" stroke-linecap="round" stroke-linejoin="round"/>
<path d="M71.001 16.3402V6.98926" stroke="white" stroke-width="1.5" stroke-miterlimit="10" stroke-linecap="round" stroke-linejoin="round"/>
<path d="M71.001 23.3213V27.3078" stroke="white" stroke-width="1.5" stroke-miterlimit="10" stroke-linecap="round" stroke-linejoin="round"/>
<path d="M37.9548 20.1765C37.9548 20.1765 35.3791 16.4932 37.9548 12.5875C40.4322 8.83135 46.269 7.25789 50.5891 10.8625C56.8936 16.1232 52.5158 29.1795 41.1318 27.5073C29.7479 25.8351 26.4018 15.9896 20.0183 17.9111C13.6358 19.8315 15.0857 29.2891 22.7428 27.8523C24.5814 27.5073 26.7713 25.2648 25.3407 22.7351" stroke="#FF0600" stroke-width="1.5" stroke-miterlimit="10" stroke-linecap="round" stroke-linejoin="round"/>
<path d="M104.046 20.1765C104.046 20.1765 106.622 16.4932 104.046 12.5875C101.568 8.83135 95.7317 7.25789 91.4116 10.8625C85.1071 16.1232 89.485 29.1795 100.869 27.5073C112.253 25.8351 115.599 15.9896 121.981 17.9111C128.364 19.8315 126.914 29.2891 119.257 27.8523C117.418 27.5073 115.228 25.2648 116.659 22.7351" stroke="#FF0600" stroke-width="1.5" stroke-miterlimit="10" stroke-linecap="round" stroke-linejoin="round"/>
</svg>
